<svg xmlns="http://www.w3.org/2000/svg" viewBox="0 0 355.25 218.02"><defs><style>.cls-1{fill:#2b3ac8;}.cls-2{fill:#f2eff8;}.cls-3{fill:#23a6fe;}.cls-4{fill:#e9e6ef;}.cls-5{fill:#7cddb8;}.cls-6{fill:#ddd7e1;}.cls-7{fill:#1b2335;}.cls-8{fill:#101723;}.cls-9{fill:#f78174;}.cls-10{fill:#ff988a;}.cls-11{fill:#fff7eb;}.cls-12{fill:#0088d3;}.cls-13{fill:#fff;}.cls-14{fill:#182ca0;}</style></defs><title>Asset 9</title><g id="Layer_2" data-name="Layer 2"><g id="Layer_1-2" data-name="Layer 1"><path class="cls-1" d="M105.06,45.11V38.59a4.69,4.69,0,0,0-4.68-4.69H28.52a4.69,4.69,0,0,0-4.69,4.69v6.52Z"/><path class="cls-2" d="M105.06,45.11V86.86a4.21,4.21,0,0,1-.33,1.73,4.69,4.69,0,0,1-4.35,3H28.52a4.7,4.7,0,0,1-4.69-4.69V45.11Z"/><circle class="cls-3" cx="30.03" cy="39.4" r="1.58"/><circle class="cls-4" cx="36.41" cy="39.4" r="1.58"/><circle class="cls-5" cx="42.79" cy="39.4" r="1.58"/><path class="cls-6" d="M60.62,80.74a1.81,1.81,0,0,1-.51-.08,1.65,1.65,0,0,1-1-2.08l7.64-23.13a1.64,1.64,0,0,1,3.12,1L62.18,79.61A1.65,1.65,0,0,1,60.62,80.74Z"/><path class="cls-6" d="M52.65,77.83a1.66,1.66,0,0,1-1.15-.47L42.66,68.7a1.64,1.64,0,0,1,0-2.34L51.5,57.7a1.65,1.65,0,0,1,2.32,0,1.63,1.63,0,0,1,0,2.32l-7.64,7.49L53.8,75a1.63,1.63,0,0,1,0,2.32A1.61,1.61,0,0,1,52.65,77.83Z"/><path class="cls-6" d="M76.24,77.83a1.63,1.63,0,0,1-1.17-.49,1.65,1.65,0,0,1,0-2.32l7.65-7.49L75.09,60a1.64,1.64,0,0,1,2.3-2.34l8.84,8.66a1.64,1.64,0,0,1,0,2.34l-8.84,8.66A1.64,1.64,0,0,1,76.24,77.83Z"/><circle class="cls-4" cx="12.9" cy="106.85" r="3.93"/><path class="cls-4" d="M338.67,160.92a4.14,4.14,0,1,1-4.14,4.14,4.15,4.15,0,0,1,4.14-4.14m0-2.66a6.8,6.8,0,1,0,6.79,6.8,6.8,6.8,0,0,0-6.79-6.8Z"/><rect class="cls-7" x="90.51" y="70.11" width="172.39" height="114.02" rx="11.04" ry="11.04"/><rect class="cls-2" x="124.68" y="45.91" width="104.05" height="162.42" rx="6.19" ry="6.19" transform="translate(303.82 -49.59) rotate(90)"/><rect class="cls-8" x="160.75" y="184.13" width="31.92" height="19.04"/><rect class="cls-7" x="124.8" y="203.17" width="103.82" height="5.03" rx="2.41" ry="2.41"/><path class="cls-9" d="M236,124.36c-.08-.27-.16-.53-.23-.8-1.23-4.67.47-10.49,4.95-12.28a10.16,10.16,0,0,1,8.16.74,30.06,30.06,0,0,1,6.69,5.11c9.73,9,19.84,17.62,29.3,26.92a89.16,89.16,0,0,1,21.38,33.57,19.07,19.07,0,0,1,1.34,6.25c0,5.86-5.6,9.45-10.83,10.37-7.24,1.27-14.79-.53-21.32-3.9-10.11-5.21-19.88-13.47-23.84-24.42a8.11,8.11,0,0,1-.64-3.78c.6-4.69,6.64-5.36,8.32-9.51a5.24,5.24,0,0,0-.71-4.71c-2.18-3.36-6.23-5-9.36-7.23C244,136.91,238,130.75,236,124.36Z"/><path class="cls-9" d="M288.89,159.28c-10.21-8.13-22.8-12.06-35.59-13.7-7.94-1-16-1.29-23.78-3.41s-15.5-5.8-22.55-9.65c-6.76-3.69-13.88-10.6-22.12-9.75a10,10,0,0,0-2.75.67,7.27,7.27,0,0,0-4.49,5.74c-1.2-.78-2.39-1.56-3.55-2.37-2.29-1.61-4.56-3.34-7.22-4.23-5.69-1.9-10.88,1.81-11.17,7.77,0,.12,0,.23,0,.35-.15,6.93,5.25,11.2,10.39,14.88a145.27,145.27,0,0,0,19.57,12.18c12.93,6.44,27.2,9.77,41.48,11.91,6.44,1,13,1.71,19.19,3.56,12.1,3.59,22.57,11.12,33.44,17.55a30.14,30.14,0,0,0,6.58,3.15c4,1.19,8.27.8,12.42.39,1.39-.13,3-.38,3.74-1.55A4.47,4.47,0,0,0,303,191C304.88,178.74,298.3,166.76,288.89,159.28Z"/><path class="cls-10" d="M320.2,218H262.14c-.05-.65-.12-1.28-.2-1.91a44.26,44.26,0,0,0-.9-5.1,43.25,43.25,0,0,0-12.66-22.07q-1.32-1.2-2.73-2.28c-7.38-5.63-16.47-8.8-25.46-11.36-19.16-5.43-40.5-8.93-56.22-22-.85-.69-1.67-1.41-2.47-2.16-2.75-2.56-5.29-5.56-6.19-9.19a7.08,7.08,0,0,1-.16-.8,9.78,9.78,0,0,1,1.1-6.42,7.06,7.06,0,0,1,2.83-2.72c2.61-1.34,5.81-.84,8.51.33,9.73,4.18,18.28,9.18,28.71,11.67,10.64,2.55,21.6,3.56,32.52,4,10.22.46,20.55.51,30.65,2,2.77.41,5.53.93,8.26,1.59a60.82,60.82,0,0,1,30.15,17.54,63.4,63.4,0,0,1,7.88,10.34c.62,1,1.2,2,1.77,3a119.55,119.55,0,0,1,9.89,24.83c.35,1.19.69,2.4,1,3.61Q319.38,214.49,320.2,218Z"/><path class="cls-11" d="M164.69,149.5a9.67,9.67,0,0,1-.72,3.81c-.85-.69-1.67-1.41-2.47-2.16-2.74-2.56-5.29-5.56-6.19-9.19a7.08,7.08,0,0,1-.16-.8,6.05,6.05,0,0,1,2.24-1.53,4.64,4.64,0,0,1,4.15.4,5.92,5.92,0,0,1,1.86,2.31A15.22,15.22,0,0,1,164.69,149.5Z"/><path class="cls-4" d="M50.67,116.32h0a4.51,4.51,0,0,1-7.27,0h0a3.51,3.51,0,0,0-4.13-1.19,20.22,20.22,0,0,0-4.69,2.7,3.54,3.54,0,0,0-1.11,4.24,4.51,4.51,0,0,1-3.64,6.29,3.39,3.39,0,0,0-2.08,1,3.59,3.59,0,0,0-1,2.08,20.82,20.82,0,0,0,0,5.31,3.55,3.55,0,0,0,3.11,3.08,4.51,4.51,0,0,1,3.64,6.29,3.54,3.54,0,0,0,1.11,4.24,20.58,20.58,0,0,0,4.69,2.7,3.51,3.51,0,0,0,4.13-1.2h0a4.51,4.51,0,0,1,7.27,0h0a3.51,3.51,0,0,0,4.13,1.2,20.58,20.58,0,0,0,4.69-2.7,3.56,3.56,0,0,0,1.12-4.24,4.5,4.5,0,0,1,3.63-6.29h0a3.55,3.55,0,0,0,3.11-3.08,19.67,19.67,0,0,0,0-5.31,3.53,3.53,0,0,0-3.11-3.08h0a4.5,4.5,0,0,1-3.63-6.29,3.56,3.56,0,0,0-1.12-4.24,20.22,20.22,0,0,0-4.69-2.7A3.51,3.51,0,0,0,50.67,116.32Zm4,17.77A7.65,7.65,0,1,1,47,126.45,7.64,7.64,0,0,1,54.68,134.09Z"/><path class="cls-4" d="M190.88,19h0a7.2,7.2,0,0,1-3.22,11.14h0A5.58,5.58,0,0,0,184,35.92a32.41,32.41,0,0,0,2.06,8.39,5.64,5.64,0,0,0,6,3.58,7.19,7.19,0,0,1,8,8.36,5.63,5.63,0,0,0,.61,3.65,5.72,5.72,0,0,0,2.75,2.49,30.48,30.48,0,0,0,4,1.45,33.84,33.84,0,0,0,4.15.91,5.67,5.67,0,0,0,6.11-3.42A7.19,7.19,0,0,1,229,58.55a5.68,5.68,0,0,0,7,.17,32.71,32.71,0,0,0,6.22-6,5.6,5.6,0,0,0,0-6.86h0a7.19,7.19,0,0,1,3.22-11.14h0a5.6,5.6,0,0,0,3.66-5.81A32.94,32.94,0,0,0,247,20.5a5.66,5.66,0,0,0-6-3.58,7.19,7.19,0,0,1-8-8.36h0a5.68,5.68,0,0,0-3.35-6.14,31.12,31.12,0,0,0-4-1.44,32.31,32.31,0,0,0-4.14-.91,5.65,5.65,0,0,0-6.11,3.41h0a7.19,7.19,0,0,1-11.25,2.78,5.68,5.68,0,0,0-7-.17,32.66,32.66,0,0,0-6.21,6A5.58,5.58,0,0,0,190.88,19Zm29,1.72A12.21,12.21,0,1,1,204.8,29,12.21,12.21,0,0,1,219.91,20.68Z"/><path class="cls-12" d="M209.4,95.06l-3.08-1a18.82,18.82,0,0,0,1.25-6.1l1.25-34c.37-10-6.74-18.89-15.89-19.86l-51.76-5.44a14.15,14.15,0,0,0-2.25-.05l.19-3.32-8.3,6.17A17.37,17.37,0,0,0,124,45l-1.26,34c-.36,10,6.75,18.89,15.9,19.85l51.75,5.45a14.77,14.77,0,0,0,10.95-3.25Z"/><path class="cls-3" d="M177.59,77.39a4.29,4.29,0,0,0-4.75,4.5,5.23,5.23,0,0,0,4.38,5.47A4.44,4.44,0,0,0,182,82.85a5.33,5.33,0,0,0-3.58-5.3,4.36,4.36,0,0,0-.8-.16m-29.8-9.26a2.8,2.8,0,0,0-3,2.85,3.28,3.28,0,0,0,2.77,3.45,2.8,2.8,0,0,0,3-2.84,3.12,3.12,0,0,0-.06-.75,3.51,3.51,0,0,0-.75-1.62,2.93,2.93,0,0,0-2-1.09m50.89-3.3a4.93,4.93,0,0,0-4.33,1.8,5.59,5.59,0,0,0-.87,1.45,6.09,6.09,0,0,0-.46,2.13,6.22,6.22,0,0,0,5.22,6.52c3,.32,5.53-2.1,5.66-5.38a6.23,6.23,0,0,0-5.22-6.52m-3.75-20.69a2.8,2.8,0,0,0-3,2.85,3.73,3.73,0,0,0,0,.75,3.47,3.47,0,0,0,.75,1.61,3,3,0,0,0,2,1.1,2.81,2.81,0,0,0,3-2.85,3.31,3.31,0,0,0-2.77-3.46m-15.85-7.23a1.59,1.59,0,0,0-1.72,1.62,2,2,0,0,0,.78,1.67,1.69,1.69,0,0,0,.81.32,1.47,1.47,0,0,0,.81-.15,1.7,1.7,0,0,0,.91-1.49,1.89,1.89,0,0,0-1.59-2m-21.87-2.7A4.74,4.74,0,0,0,152.12,39a5.6,5.6,0,0,0,4.69,5.85,4.43,4.43,0,0,0,3.84-1.54,5,5,0,0,0,.87-1.45,6,6,0,0,0,.38-1.84,5.59,5.59,0,0,0-4.69-5.84m-.46,12.44c-3.59-.38-6.39-3.87-6.24-7.79s3.18-6.8,6.76-6.42,6.39,3.86,6.24,7.78a7.37,7.37,0,0,1-.6,2.71L172,49.82a7.32,7.32,0,0,1,5.86-3l.17-4.72a3.85,3.85,0,0,1-2.33-3.73,3.16,3.16,0,0,1,3.41-3.22,3.72,3.72,0,0,1,3.13,3.91,3.25,3.25,0,0,1-2.59,3.21L179.51,47a8.69,8.69,0,0,1,5.61,4.24l5.39-2.73a5.43,5.43,0,0,1-.2-1.67A4.38,4.38,0,0,1,195,42.37a5.15,5.15,0,0,1,4.32,5.4,4.38,4.38,0,0,1-4.69,4.45,4.76,4.76,0,0,1-3.38-2.12l-5.37,2.74a9.89,9.89,0,0,1,.56,3.66,9.12,9.12,0,0,1-.85,3.54L193,65.59a6.4,6.4,0,0,1,5.79-2.51c3.89.41,6.92,4.18,6.76,8.45s-3.43,7.38-7.33,7-6.93-4.2-6.78-8.46a7.91,7.91,0,0,1,.7-3l-7.37-5.56a7.3,7.3,0,0,1-5.86,3l-.42,11.26A7.17,7.17,0,0,1,183.58,83c-.13,3.74-3,6.46-6.42,6.11s-6.08-3.67-5.94-7.41a6.08,6.08,0,0,1,5.62-6.13l.41-11.26a8.68,8.68,0,0,1-5.6-4.25L152,70.09a5.14,5.14,0,0,1,.19,1.67,4.36,4.36,0,0,1-4.68,4.44,5.14,5.14,0,0,1-4.32-5.39,4.36,4.36,0,0,1,4.68-4.45,4.75,4.75,0,0,1,3.38,2.11l19.67-10a9.77,9.77,0,0,1-.56-3.67,8.85,8.85,0,0,1,.84-3.53L162,44.38a5.88,5.88,0,0,1-5.28,2.27m45.18-19.23L150.18,22C141,21,133.32,28.34,133,38.34l-1.25,34c-.37,10,6.74,18.89,15.89,19.85l51.75,5.45c9.15,1,16.86-6.37,17.23-16.37l1.25-34c.37-10-6.74-18.89-15.89-19.86"/><path class="cls-13" d="M177.22,87.36a5.23,5.23,0,0,1-4.38-5.47,4.29,4.29,0,0,1,4.75-4.5,4.36,4.36,0,0,1,.8.16,5.33,5.33,0,0,1,3.58,5.3,4.44,4.44,0,0,1-4.75,4.51M147.56,74.43A3.28,3.28,0,0,1,144.79,71a2.8,2.8,0,0,1,3-2.85,2.93,2.93,0,0,1,2,1.09,3.51,3.51,0,0,1,.75,1.62,3.12,3.12,0,0,1,.06.75,2.8,2.8,0,0,1-3,2.84m50.68,2.3A6.22,6.22,0,0,1,193,70.21a6.09,6.09,0,0,1,.46-2.13,5.59,5.59,0,0,1,.87-1.45,4.93,4.93,0,0,1,4.33-1.8,6.23,6.23,0,0,1,5.22,6.52c-.13,3.28-2.66,5.7-5.66,5.38m-20.11-14a7.21,7.21,0,0,1-.81-.14,7,7,0,0,1-4.22-3.21,7.77,7.77,0,0,1-.76-1.62A8.07,8.07,0,0,1,172,55a7.5,7.5,0,0,1,.6-2.67,7,7,0,0,1,.87-1.44,5.86,5.86,0,0,1,4.41-2.27,5.67,5.67,0,0,1,.82,0,6.61,6.61,0,0,1,5,3.34,7.71,7.71,0,0,1,.75,1.62,7.83,7.83,0,0,1,.39,2.75,7.3,7.3,0,0,1-.6,2.67,6.73,6.73,0,0,1-.87,1.44,5.85,5.85,0,0,1-4.42,2.28,5.4,5.4,0,0,1-.8,0M194.7,50.45a3,3,0,0,1-2-1.1,3.47,3.47,0,0,1-.75-1.61,3.73,3.73,0,0,1,0-.75,2.8,2.8,0,0,1,3-2.85,3.31,3.31,0,0,1,2.77,3.46,2.81,2.81,0,0,1-3,2.85M179,40.52a1.69,1.69,0,0,1-.81-.32,2,2,0,0,1-.78-1.67,1.59,1.59,0,0,1,1.72-1.62,1.89,1.89,0,0,1,1.59,2,1.7,1.7,0,0,1-.91,1.49,1.47,1.47,0,0,1-.81.15m-22.14,4.36A5.6,5.6,0,0,1,152.12,39a4.74,4.74,0,0,1,5.09-4.82,5.59,5.59,0,0,1,4.69,5.84,6,6,0,0,1-.38,1.84,5,5,0,0,1-.87,1.45,4.43,4.43,0,0,1-3.84,1.54m.46-12.44c-3.58-.38-6.62,2.49-6.76,6.42s2.65,7.41,6.24,7.79A5.88,5.88,0,0,0,162,44.38l9.15,6.89a8.85,8.85,0,0,0-.84,3.53,9.77,9.77,0,0,0,.56,3.67l-19.67,10a4.75,4.75,0,0,0-3.38-2.11,4.36,4.36,0,0,0-4.68,4.45,5.14,5.14,0,0,0,4.32,5.39,4.36,4.36,0,0,0,4.68-4.44,5.14,5.14,0,0,0-.19-1.67l19.67-10a8.68,8.68,0,0,0,5.6,4.25l-.41,11.26a6.08,6.08,0,0,0-5.62,6.13c-.14,3.74,2.52,7,5.94,7.41s6.29-2.37,6.42-6.11a7.17,7.17,0,0,0-5.13-7.26l.42-11.26a7.3,7.3,0,0,0,5.86-3L192.1,67a7.91,7.91,0,0,0-.7,3c-.15,4.26,2.88,8,6.78,8.46s7.18-2.71,7.33-7-2.87-8-6.76-8.45A6.4,6.4,0,0,0,193,65.59L185.59,60a9.12,9.12,0,0,0,.85-3.54,9.89,9.89,0,0,0-.56-3.66l5.37-2.74a4.76,4.76,0,0,0,3.38,2.12,4.38,4.38,0,0,0,4.69-4.45,5.15,5.15,0,0,0-4.32-5.4,4.38,4.38,0,0,0-4.69,4.45,5.43,5.43,0,0,0,.2,1.67l-5.39,2.73A8.69,8.69,0,0,0,179.51,47l.18-4.72a3.25,3.25,0,0,0,2.59-3.21,3.72,3.72,0,0,0-3.13-3.91,3.16,3.16,0,0,0-3.41,3.22,3.85,3.85,0,0,0,2.33,3.73l-.17,4.72a7.32,7.32,0,0,0-5.86,3l-9.13-6.89a7.37,7.37,0,0,0,.6-2.71c.15-3.92-2.64-7.4-6.24-7.78"/><path class="cls-3" d="M178.46,53.91a1.55,1.55,0,0,0-1.67,1.57,1.82,1.82,0,0,0,1.54,1.92A1.54,1.54,0,0,0,180,55.82a1.8,1.8,0,0,0-1.52-1.91m-2.1-1.5a.89.89,0,0,0,1-.81A.73.73,0,0,1,178,51a5.15,5.15,0,0,1,.55,0c.19,0,.37.06.55.09a.87.87,0,0,1,.62.79,1.05,1.05,0,0,0,.9,1,.81.81,0,0,0,.38,0,.63.63,0,0,1,.3,0,.77.77,0,0,1,.58.39,4.69,4.69,0,0,1,.53,1.13.8.8,0,0,1-.29.91,1.08,1.08,0,0,0-.06,1.66.92.92,0,0,1,.22,1,4.9,4.9,0,0,1-.6,1,.67.67,0,0,1-.61.25.63.63,0,0,1-.29-.1.93.93,0,0,0-.38-.12.9.9,0,0,0-1,.82.71.71,0,0,1-.67.64,3.41,3.41,0,0,1-.55,0,4.68,4.68,0,0,1-.56-.09.82.82,0,0,1-.61-.79,1.08,1.08,0,0,0-.91-1,.83.83,0,0,0-.38.05.77.77,0,0,1-.3,0,.78.78,0,0,1-.58-.38,5.56,5.56,0,0,1-.53-1.13.84.84,0,0,1,.29-.92,1.08,1.08,0,0,0,.06-1.66.87.87,0,0,1-.21-1,4.28,4.28,0,0,1,.6-1,.66.66,0,0,1,.6-.26.71.71,0,0,1,.3.1.89.89,0,0,0,.37.12m2.29-3.79a5.67,5.67,0,0,0-.82,0,5.86,5.86,0,0,0-4.41,2.27,7,7,0,0,0-.87,1.44A7.5,7.5,0,0,0,172,55a8.07,8.07,0,0,0,.39,2.75,7.77,7.77,0,0,0,.76,1.62,7,7,0,0,0,4.22,3.21,7.21,7.21,0,0,0,.81.14,5.4,5.4,0,0,0,.8,0,5.85,5.85,0,0,0,4.42-2.28,6.73,6.73,0,0,0,.87-1.44,7.3,7.3,0,0,0,.6-2.67,7.83,7.83,0,0,0-.39-2.75,7.71,7.71,0,0,0-.75-1.62,6.61,6.61,0,0,0-5-3.34"/><path class="cls-13" d="M178.33,57.4a1.82,1.82,0,0,1-1.54-1.92,1.55,1.55,0,0,1,1.67-1.57A1.8,1.8,0,0,1,180,55.82a1.54,1.54,0,0,1-1.65,1.58m.23-6.43a5.15,5.15,0,0,0-.55,0,.73.73,0,0,0-.68.65.89.89,0,0,1-1.34.69.71.71,0,0,0-.3-.1.66.66,0,0,0-.6.26,4.28,4.28,0,0,0-.6,1,.87.87,0,0,0,.21,1,1.08,1.08,0,0,1-.06,1.66.84.84,0,0,0-.29.92,5.56,5.56,0,0,0,.53,1.13.78.78,0,0,0,.58.38.77.77,0,0,0,.3,0,.83.83,0,0,1,.38-.05,1.08,1.08,0,0,1,.91,1,.82.82,0,0,0,.61.79,4.68,4.68,0,0,0,.56.09,3.41,3.41,0,0,0,.55,0,.71.71,0,0,0,.67-.64.9.9,0,0,1,1-.82.93.93,0,0,1,.38.12.63.63,0,0,0,.29.1.67.67,0,0,0,.61-.25,4.9,4.9,0,0,0,.6-1,.92.92,0,0,0-.22-1,1.08,1.08,0,0,1,.06-1.66.8.8,0,0,0,.29-.91,4.69,4.69,0,0,0-.53-1.13.77.77,0,0,0-.58-.39.63.63,0,0,0-.3,0,.81.81,0,0,1-.38,0,1.05,1.05,0,0,1-.9-1,.87.87,0,0,0-.62-.79c-.18,0-.36-.07-.55-.09"/><path class="cls-2" d="M346.27,82.34v49a4.36,4.36,0,0,1-4.36,4.36h-36.1a4.36,4.36,0,0,1-4.36-4.36V92.54a4.34,4.34,0,0,1,1.28-3.09l10.19-10.19A4.34,4.34,0,0,1,316,78h25.9A4.36,4.36,0,0,1,346.27,82.34Z"/><path class="cls-6" d="M314.2,78.37v8a4.36,4.36,0,0,1-4.36,4.36h-8a4.28,4.28,0,0,1,.89-1.28l10.19-10.19A4.33,4.33,0,0,1,314.2,78.37Z"/><path class="cls-6" d="M337.57,99.26H310.14a1.09,1.09,0,1,1,0-2.18h27.43a1.09,1.09,0,1,1,0,2.18Z"/><path class="cls-6" d="M337.57,106.38H310.14a1.09,1.09,0,1,1,0-2.18h27.43a1.09,1.09,0,1,1,0,2.18Z"/><path class="cls-6" d="M337.57,113.51H310.14a1.09,1.09,0,1,1,0-2.18h27.43a1.09,1.09,0,1,1,0,2.18Z"/><path class="cls-6" d="M323.86,120.63H310.14a1.09,1.09,0,1,1,0-2.18h13.72a1.09,1.09,0,0,1,0,2.18Z"/><path class="cls-14" d="M84.4,127.53l-5.6-1.93.29.8c-12.62-1.1-24.62,8.5-27.24,22.21-2.12,11.06,2.51,21.5,10.81,26.65l-.9.32,5.05,1.69a21.76,21.76,0,0,0,4,1c13.2,2.13,26.12-7.74,28.85-22C102.13,143.38,95.44,131.32,84.4,127.53Z"/><path class="cls-1" d="M69.28,153.44a3,3,0,0,1-2.34-3.67,3.27,3.27,0,0,1,3.61-2.72,3,3,0,0,1,2.32,3.72,3.22,3.22,0,0,1-3.55,2.68h0m-13.69-7.3a1.24,1.24,0,0,1-.83-.5,1.74,1.74,0,0,1-.37-1.23A4.89,4.89,0,0,1,55,143c.17-.36.35-.71.54-1.06a18.18,18.18,0,0,1,1.28-2l.15-.21.15-.18a18.82,18.82,0,0,1,5-4.55,18.49,18.49,0,0,1,3.65-1.68,15,15,0,0,1,3.78-.72,14.86,14.86,0,0,1,2.11,0c.57,0,1.14.1,1.7.19l.61.11a14,14,0,0,1,2.1.61,14.47,14.47,0,0,1,3.77,2.08,17.59,17.59,0,0,1,4.27,4.84,16.5,16.5,0,0,1,2.21,6.6,18.07,18.07,0,0,1,.1,2.85,20.67,20.67,0,0,1-1.21,6.54l-.11.26a17.55,17.55,0,0,1-2.68,4.68,20.09,20.09,0,0,1-5,4.55A15.08,15.08,0,0,1,72,168.07a15.42,15.42,0,0,1-2.78.28,17.36,17.36,0,0,1-3-.22q-.42-.06-.84-.15l-.64-.15a14.31,14.31,0,0,1-7.89-5.2,18.26,18.26,0,0,1-2.17-3.41,16.44,16.44,0,0,1-1.37-4.33,4.48,4.48,0,0,1-.08-.64,1.72,1.72,0,0,1,1.15-1.67,1.31,1.31,0,0,1,.72-.09,1.15,1.15,0,0,1,.57.27,1.85,1.85,0,0,1,.65,1.12,16.79,16.79,0,0,0,.8,2.79A13.45,13.45,0,0,0,58.24,159a12.48,12.48,0,0,0,4.52,4.38,11.77,11.77,0,0,0,2,.94l.71.25.06-.2c.07-.33.14-.67.2-1,.1-.58.23-1.16.34-1.74.07-.38.15-.76.23-1.16s0-.45-.28-.58a9.7,9.7,0,0,1-2.65-1.71,8.56,8.56,0,0,1-2.56-4.29,12.15,12.15,0,0,1-.38-3.37,9.83,9.83,0,0,1,.35-2.27,10.84,10.84,0,0,1,3.69-5.65,9.52,9.52,0,0,1,4.22-2,8.71,8.71,0,0,1,2.16-.11q.41,0,.78.09a8.57,8.57,0,0,1,3.77,1.59,8.75,8.75,0,0,1,2.1,2.23,9.13,9.13,0,0,1,1.28,2.88,2.91,2.91,0,0,1,.14.89,1.7,1.7,0,0,1-1.63,1.74l-.26,0a1.4,1.4,0,0,1-1-.88,1.42,1.42,0,0,1-.14-.41,6.87,6.87,0,0,0-.76-1.91,5.71,5.71,0,0,0-3.1-2.57,6.32,6.32,0,0,0-1-.25A5.86,5.86,0,0,0,66.5,145a7.18,7.18,0,0,0-2.11,9.23,5.69,5.69,0,0,0,3.09,2.61,4.83,4.83,0,0,0,1,.27,5.78,5.78,0,0,0,3.43-.54,6.52,6.52,0,0,0,2.31-1.8,2.43,2.43,0,0,1,.69-.59,1.48,1.48,0,0,1,.91-.15,1.45,1.45,0,0,1,1.13.95,1.7,1.7,0,0,1-.31,1.75A10.43,10.43,0,0,1,75,158.42a9.48,9.48,0,0,1-3.72,1.81c-.44.1-.9.13-1.34.2l-.22,0-.22.1-.11.16-.81,4.21V165c.13,0,.24,0,.37,0,.46,0,.94,0,1.4-.08a16.37,16.37,0,0,0,2.89-.68,14.09,14.09,0,0,0,3.08-1.43,13.66,13.66,0,0,0,3.87-3.64,17.3,17.3,0,0,0,2-3.73,15.19,15.19,0,0,0,1-3.89,14.76,14.76,0,0,0,.08-3,14.6,14.6,0,0,0-1.56-5.66,13.28,13.28,0,0,0-3.68-4.42,12.16,12.16,0,0,0-3.33-1.83,11.81,11.81,0,0,0-1.85-.52l-.41-.07a12.67,12.67,0,0,0-6.06.51A14.49,14.49,0,0,0,62,139a15.4,15.4,0,0,0-2.92,3.11A16,16,0,0,0,57.45,145a2.78,2.78,0,0,1-.27.51,1.56,1.56,0,0,1-1.24.7,2,2,0,0,1-.35,0m19.27-21.55c-13.2-2.12-26.12,7.74-28.86,22s5.77,27.59,19,29.71,26.12-7.74,28.86-22-5.75-27.6-19-29.72"/><path class="cls-13" d="M73.36,132.77c-.56-.09-1.13-.15-1.7-.19a14.86,14.86,0,0,0-2.11,0,15,15,0,0,0-3.78.72A18.49,18.49,0,0,0,62.12,135a18.82,18.82,0,0,0-5,4.55l-.15.18-.15.21a18.18,18.18,0,0,0-1.28,2c-.19.35-.37.7-.54,1.06a4.89,4.89,0,0,0-.56,1.44,1.74,1.74,0,0,0,.37,1.23,1.24,1.24,0,0,0,.83.5,2,2,0,0,0,.35,0,1.56,1.56,0,0,0,1.24-.7,2.78,2.78,0,0,0,.27-.51,16,16,0,0,1,1.63-2.89A15.4,15.4,0,0,1,62,139a14.49,14.49,0,0,1,4.41-2.4,12.67,12.67,0,0,1,6.06-.51l.41.07a11.81,11.81,0,0,1,1.85.52,12.16,12.16,0,0,1,3.33,1.83,13.28,13.28,0,0,1,3.68,4.42,14.6,14.6,0,0,1,1.56,5.66,14.76,14.76,0,0,1-.08,3,15.19,15.19,0,0,1-1,3.89,17.3,17.3,0,0,1-2,3.73,13.66,13.66,0,0,1-3.87,3.64,14.09,14.09,0,0,1-3.08,1.43,16.37,16.37,0,0,1-2.89.68c-.46.06-.94.05-1.4.08-.13,0-.24,0-.37,0v-.11l.81-4.21.11-.16.22-.1.22,0c.44-.07.9-.1,1.34-.2A9.48,9.48,0,0,0,75,158.42a10.43,10.43,0,0,0,1.72-1.73,1.7,1.7,0,0,0,.31-1.75,1.45,1.45,0,0,0-1.13-.95,1.48,1.48,0,0,0-.91.15,2.43,2.43,0,0,0-.69.59,6.52,6.52,0,0,1-2.31,1.8,5.78,5.78,0,0,1-3.43.54,4.83,4.83,0,0,1-1-.27,5.69,5.69,0,0,1-3.09-2.61A7.18,7.18,0,0,1,66.5,145a5.86,5.86,0,0,1,4.42-1.12,6.32,6.32,0,0,1,1,.25,5.71,5.71,0,0,1,3.1,2.57,6.87,6.87,0,0,1,.76,1.91,1.42,1.42,0,0,0,.14.41,1.4,1.4,0,0,0,1,.88l.26,0a1.7,1.7,0,0,0,1.63-1.74,2.91,2.91,0,0,0-.14-.89,9.13,9.13,0,0,0-1.28-2.88,8.75,8.75,0,0,0-2.1-2.23,8.57,8.57,0,0,0-3.77-1.59q-.37-.06-.78-.09a8.71,8.71,0,0,0-2.16.11,9.52,9.52,0,0,0-4.22,2,10.84,10.84,0,0,0-3.69,5.65,9.83,9.83,0,0,0-.35,2.27,12.15,12.15,0,0,0,.38,3.37,8.56,8.56,0,0,0,2.56,4.29A9.7,9.7,0,0,0,66,159.83c.29.13.34.25.28.58s-.16.78-.23,1.16c-.11.58-.24,1.16-.34,1.74-.06.35-.13.69-.2,1l-.06.2-.71-.25a11.77,11.77,0,0,1-2-.94A12.48,12.48,0,0,1,58.24,159a13.45,13.45,0,0,1-1.11-2.29,16.79,16.79,0,0,1-.8-2.79,1.85,1.85,0,0,0-.65-1.12,1.15,1.15,0,0,0-.57-.27,1.31,1.31,0,0,0-.72.09,1.72,1.72,0,0,0-1.15,1.67,4.48,4.48,0,0,0,.08.64,16.44,16.44,0,0,0,1.37,4.33,18.26,18.26,0,0,0,2.17,3.41,14.31,14.31,0,0,0,7.89,5.2l.64.15q.42.09.84.15a17.36,17.36,0,0,0,3,.22,15.42,15.42,0,0,0,2.78-.28,15.08,15.08,0,0,0,5.41-2.18,20.09,20.09,0,0,0,5-4.55,17.55,17.55,0,0,0,2.68-4.68l.11-.26a20.67,20.67,0,0,0,1.21-6.54,18.07,18.07,0,0,0-.1-2.85,16.5,16.5,0,0,0-2.21-6.6,17.59,17.59,0,0,0-4.27-4.84,14.47,14.47,0,0,0-3.77-2.08,14,14,0,0,0-2.1-.61l-.61-.11"/><path class="cls-13" d="M70.55,147.05a3.27,3.27,0,0,0-3.61,2.72,3,3,0,0,0,2.34,3.67h0a3.22,3.22,0,0,0,3.55-2.68,3,3,0,0,0-2.32-3.72"/><rect class="cls-4" y="208.2" width="355.25" height="9.82" rx="4.91" ry="4.91"/><polygon class="cls-5" points="310.69 62.44 302.88 54.63 295.07 62.44 287.25 54.63 279.44 62.44 271.63 54.63 264.74 61.52 262.9 59.68 271.63 50.95 279.44 58.76 287.25 50.95 295.07 58.76 302.88 50.95 310.69 58.76 315.06 54.39 316.9 56.23 310.69 62.44"/><path class="cls-6" d="M130.32,146,124,148.37a1.21,1.21,0,0,0-.35,2.07l5.18,4.27a1.21,1.21,0,0,0,2-.73l1.11-6.63A1.21,1.21,0,0,0,130.32,146Z"/></g></g></svg>