<svg xmlns="http://www.w3.org/2000/svg" viewBox="0 0 238.67 177.96"><defs><style>.cls-1{fill:#e9e6ef;}.cls-2{fill:#ddd7e1;}.cls-3{fill:#f2eff8;}.cls-4{fill:#2b3ac8;}.cls-5{fill:#fff;}.cls-6{fill:#23a6fe;}.cls-7{fill:#50c1ff;}.cls-8{fill:#0095e8;}</style></defs><title>Asset 2</title><g id="Layer_2" data-name="Layer 2"><g id="Layer_1-2" data-name="Layer 1"><circle class="cls-1" cx="234.74" cy="152.78" r="3.93"/><path class="cls-1" d="M71.06,8l.7-6.68A1.21,1.21,0,0,0,70.06.11L63.92,2.84a1.21,1.21,0,0,0-.21,2.09l5.43,3.94A1.21,1.21,0,0,0,71.06,8Z"/><path class="cls-2" d="M174.29,41.55h0a7.85,7.85,0,0,1,0,12.64h0a6.07,6.07,0,0,0-2.08,7.18,35.21,35.21,0,0,0,4.7,8.17,6.17,6.17,0,0,0,7.38,1.94,7.84,7.84,0,0,1,10.94,6.32A6.12,6.12,0,0,0,197,81.46a6.26,6.26,0,0,0,3.63,1.78,35.72,35.72,0,0,0,9.24,0,6.16,6.16,0,0,0,5.37-5.42,7.84,7.84,0,0,1,10.94-6.32,6.17,6.17,0,0,0,7.38-1.94,35.21,35.21,0,0,0,4.7-8.17,6.09,6.09,0,0,0-2.07-7.18h0a7.84,7.84,0,0,1,0-12.64h0a6.1,6.1,0,0,0,2.07-7.19,35.42,35.42,0,0,0-4.7-8.17,6.18,6.18,0,0,0-7.38-1.93,7.84,7.84,0,0,1-10.94-6.32h0a6.18,6.18,0,0,0-5.37-5.42,35.72,35.72,0,0,0-9.24,0,6.18,6.18,0,0,0-5.37,5.42h0a7.84,7.84,0,0,1-10.94,6.32,6.18,6.18,0,0,0-7.38,1.93,35.42,35.42,0,0,0-4.7,8.17A6.08,6.08,0,0,0,174.29,41.55Zm30.93-7a13.31,13.31,0,1,1-13.31,13.31A13.31,13.31,0,0,1,205.22,34.57Z"/><path class="cls-3" d="M187.57,38.35H55.85A19.65,19.65,0,0,0,36.2,58v71.84a19.65,19.65,0,0,0,19.65,19.65h78.92l27.57,27.57a3,3,0,0,0,5.17-2.14V149.49h20.06a19.65,19.65,0,0,0,19.65-19.65V58A19.65,19.65,0,0,0,187.57,38.35Z"/><path class="cls-4" d="M121.85,110.41c-12.42,0-24.84,0-37.26,0a17.26,17.26,0,0,1-10.77-3.76A18.05,18.05,0,0,1,67,95.19a16.11,16.11,0,0,1,1.24-10c1.14-2.36,2.45-4.64,3.74-6.92,1.6-2.84,3.26-5.65,4.9-8.47,2-3.44,4-6.86,6-10.3,2.12-3.69,4.21-7.4,6.34-11.09,1.72-3,3.49-6,5.23-9,1.35-2.33,2.66-4.67,4-7,1.22-2.14,2.46-4.27,3.69-6.4,1.35-2.33,2.68-4.67,4.07-7a17.63,17.63,0,0,1,6.26-6.23,17.84,17.84,0,0,1,10.12-2.5,18,18,0,0,1,11.18,4.52,23.94,23.94,0,0,1,4.82,6.41q2.15,3.69,4.28,7.4c1.53,2.66,3.05,5.34,4.58,8,2,3.5,4.08,7,6.09,10.46,1.88,3.25,3.71,6.52,5.58,9.77,2.07,3.58,4.15,7.14,6.22,10.72s4.19,7.34,6.3,11c.79,1.38,1.64,2.74,2.44,4.13a18.84,18.84,0,0,1,2.54,7.48,17.88,17.88,0,0,1-2,10.49,17.57,17.57,0,0,1-5.23,6.07,18.29,18.29,0,0,1-11.24,3.58Q140,110.39,121.85,110.41Zm0-78.25c-1.48,0-3,0-4.44,0a3.46,3.46,0,0,0-3.59,3.29,15,15,0,0,0,0,2.68c.22,2.19.51,4.38.76,6.57.14,1.31.26,2.62.41,3.92.3,2.51.62,5,.91,7.52.17,1.43.29,2.87.45,4.3.23,2,.48,4.06.73,6.09.18,1.52.33,3.06.6,4.57A3.69,3.69,0,0,0,119,73.52c2.51,2,6.41,1,6.9-2.72.16-1.24.27-2.48.41-3.72.31-2.54.63-5.07.92-7.62.23-2,.41-3.94.64-5.91s.47-3.81.7-5.71c.25-2.07.52-4.13.73-6.2.19-1.91.39-3.82.44-5.74A3.5,3.5,0,0,0,126,32.16Zm7.71,56c.27-4.52-3.35-7.88-7.83-7.84a7.79,7.79,0,1,0,.15,15.57A7.48,7.48,0,0,0,129.52,88.14Z"/><path class="cls-5" d="M121.81,32.16H126a3.5,3.5,0,0,1,3.74,3.74c0,1.92-.25,3.83-.44,5.74-.21,2.07-.48,4.13-.73,6.2-.23,1.9-.48,3.8-.7,5.71s-.41,3.94-.64,5.91c-.29,2.55-.61,5.08-.92,7.62-.14,1.24-.25,2.48-.41,3.72-.49,3.72-4.39,4.69-6.9,2.72a3.69,3.69,0,0,1-1.28-2.41c-.27-1.51-.42-3-.6-4.57-.25-2-.5-4.06-.73-6.09-.16-1.43-.28-2.87-.45-4.3-.29-2.51-.61-5-.91-7.52-.15-1.3-.27-2.61-.41-3.92-.25-2.19-.54-4.38-.76-6.57a15,15,0,0,1,0-2.68,3.46,3.46,0,0,1,3.59-3.29C118.85,32.14,120.33,32.16,121.81,32.16Z"/><path class="cls-5" d="M129.52,88.14a7.48,7.48,0,0,1-7.68,7.73,7.79,7.79,0,1,1-.15-15.57C126.17,80.26,129.79,83.62,129.52,88.14Z"/><path class="cls-6" d="M59.23,65.42A25.48,25.48,0,1,0,20,61.52l-.37.34L2,79.48a5,5,0,0,0,7.13,7.13L26.76,69c.12-.11.23-.24.34-.36A25.48,25.48,0,0,0,59.23,65.42ZM28.54,60.07a17.92,17.92,0,1,1,25.35,0A17.95,17.95,0,0,1,28.54,60.07Z"/><circle class="cls-5" cx="41.22" cy="47.4" r="17.92" transform="translate(-19.94 33.05) rotate(-35.78)"/><polygon class="cls-7" points="194.05 117.58 202.56 124.44 198.97 134.23 190.24 127.41 194.05 117.58"/><polygon class="cls-6" points="215.7 102.46 194.05 117.58 202.56 124.44 224.21 109.32 215.7 102.46"/><polygon class="cls-8" points="198.97 134.23 202.56 124.44 224.21 109.32 220.62 119.12 198.97 134.23"/><path class="cls-2" d="M48.76,116.71H17.35a6,6,0,0,0-6,6v38a6,6,0,0,0,5.36,5.94,6.08,6.08,0,0,0,.61,0H48.76a6.08,6.08,0,0,0,.61,0,6,6,0,0,0,5.36-5.94v-38A6,6,0,0,0,48.76,116.71Z"/><path class="cls-3" d="M6,157.32A5.38,5.38,0,0,1,.6,152V114A5.38,5.38,0,0,1,6,108.59H24a5.33,5.33,0,0,1,2.23.49,5.21,5.21,0,0,1,1.57,1.09l13.43,13.41a5.26,5.26,0,0,1,1.07,1.57,5.32,5.32,0,0,1,.49,2.22V152a5.37,5.37,0,0,1-5.36,5.37Z"/><path class="cls-2" d="M24,109.19a4.69,4.69,0,0,1,2,.44,5,5,0,0,1,1.4,1L40.76,124a4.6,4.6,0,0,1,1,1.39,4.79,4.79,0,0,1,.43,2V152a4.77,4.77,0,0,1-4.76,4.77H6A4.77,4.77,0,0,1,1.21,152V114A4.77,4.77,0,0,1,6,109.19H24m0-1.2H6a6,6,0,0,0-6,6v38a6,6,0,0,0,6,6H37.39a6,6,0,0,0,6-6V127.37a5.82,5.82,0,0,0-.55-2.47,5.63,5.63,0,0,0-1.2-1.75L28.19,109.74A6,6,0,0,0,24,108Z"/><path class="cls-2" d="M42.81,124.9H31.3A4.86,4.86,0,0,1,26.44,120V108.53a6,6,0,0,1,1.75,1.21l13.42,13.41A5.63,5.63,0,0,1,42.81,124.9Z"/><path class="cls-2" d="M18.29,125.56H10.13a1.45,1.45,0,0,1,0-2.9h8.16a1.45,1.45,0,0,1,0,2.9Z"/><path class="cls-2" d="M33.23,134.4H10.13a1.45,1.45,0,1,1,0-2.89h23.1a1.45,1.45,0,1,1,0,2.89Z"/><path class="cls-2" d="M33.23,143.25H10.13a1.45,1.45,0,1,1,0-2.9h23.1a1.45,1.45,0,0,1,0,2.9Z"/><path class="cls-5" d="M103.76,125.32a4.14,4.14,0,1,1-4.13,4.14,4.14,4.14,0,0,1,4.13-4.14m0-2.66a6.8,6.8,0,1,0,6.79,6.8,6.8,6.8,0,0,0-6.79-6.8Z"/></g></g></svg>