<svg xmlns="http://www.w3.org/2000/svg" viewBox="0 0 297.16 185.32"><defs><style>.cls-1{fill:#ddd7e1;}.cls-2{fill:#2b3ac8;}.cls-3{fill:#f2eff8;}.cls-4{fill:#23a6fe;}.cls-5{fill:#e9e6ef;}.cls-6{fill:#7cddb8;}.cls-7{fill:#1b2335;}.cls-8{fill:#9ff4d2;}.cls-9{fill:#58b790;}.cls-10{fill:#bcb5c6;}</style></defs><title>Asset 1</title><g id="Layer_2" data-name="Layer 2"><g id="Layer_1-2" data-name="Layer 1"><path class="cls-1" d="M230.42,12.77v0a9.31,9.31,0,0,1-9.15,11.87h0a7.24,7.24,0,0,0-7.16,5.24A42.12,42.12,0,0,0,212.61,41a7.32,7.32,0,0,0,5.52,7.16A9.31,9.31,0,0,1,223.84,62a7.15,7.15,0,0,0-1,4.67A7.44,7.44,0,0,0,225,71a43.62,43.62,0,0,0,4.12,3.63,40.7,40.7,0,0,0,4.56,3,7.29,7.29,0,0,0,9-1.2,9.3,9.3,0,0,1,14.85,2,7.32,7.32,0,0,0,8.33,3.52,41.79,41.79,0,0,0,10.32-4.26,7.23,7.23,0,0,0,3.26-8.25v0a9.31,9.31,0,0,1,9.15-11.87h0a7.23,7.23,0,0,0,7.15-5.25,42.05,42.05,0,0,0,1.5-11.06,7.34,7.34,0,0,0-5.53-7.16,9.3,9.3,0,0,1-5.71-13.86h0a7.35,7.35,0,0,0-1.12-9,43.52,43.52,0,0,0-4.12-3.62,44.15,44.15,0,0,0-4.55-3.06,7.31,7.31,0,0,0-9,1.21h0a9.3,9.3,0,0,1-14.85-2A7.34,7.34,0,0,0,244,.25a42.37,42.37,0,0,0-10.32,4.27A7.2,7.2,0,0,0,230.42,12.77ZM264.51,28.6a15.78,15.78,0,1,1-22.12,2.87A15.78,15.78,0,0,1,264.51,28.6Z"/><path class="cls-2" d="M148,22V11.38a7.62,7.62,0,0,0-7.62-7.62H23.57A7.62,7.62,0,0,0,16,11.38V22Z"/><path class="cls-3" d="M148,22V89.86a8.05,8.05,0,0,1-.08,1.11,8,8,0,0,1-.46,1.71,7.63,7.63,0,0,1-7.08,4.8H23.57A7.62,7.62,0,0,1,16,89.86V22Z"/><circle class="cls-4" cx="26.03" cy="12.71" r="2.57"/><circle class="cls-5" cx="36.4" cy="12.71" r="2.57"/><circle class="cls-6" cx="46.77" cy="12.71" r="2.57"/><circle class="cls-5" cx="3.93" cy="101.99" r="3.93"/><path class="cls-5" d="M190.76,5a4.13,4.13,0,1,1-4.13,4.13A4.13,4.13,0,0,1,190.76,5m0-2.66a6.79,6.79,0,1,0,6.79,6.79,6.79,6.79,0,0,0-6.79-6.79Z"/><path class="cls-5" d="M288,114l.7-6.69a1.22,1.22,0,0,0-1.7-1.23l-6.14,2.74a1.21,1.21,0,0,0-.22,2.08l5.44,4A1.21,1.21,0,0,0,288,114Z"/><path class="cls-2" d="M257.26,66.18V51.58A10.48,10.48,0,0,0,246.78,41.1H86.05A10.48,10.48,0,0,0,75.57,51.58v14.6Z"/><path class="cls-7" d="M257.26,66.18v93.37a10.88,10.88,0,0,1-.11,1.52,11.29,11.29,0,0,1-.63,2.35,10.5,10.5,0,0,1-9.74,6.61H86.05a10.48,10.48,0,0,1-10.48-10.48V66.18Z"/><circle class="cls-4" cx="89.44" cy="53.41" r="3.54"/><circle class="cls-5" cx="103.71" cy="53.41" r="3.54"/><circle class="cls-6" cx="117.97" cy="53.41" r="3.54"/><polygon class="cls-8" points="234.66 159.75 247.73 170.28 242.21 185.31 228.81 174.84 234.66 159.75"/><polygon class="cls-6" points="267.89 136.54 234.66 159.75 247.73 170.28 280.96 147.07 267.89 136.54"/><polygon class="cls-9" points="242.21 185.31 247.73 170.28 280.96 147.07 275.44 162.11 242.21 185.31"/><path class="cls-5" d="M56.64,151.94h0a6.15,6.15,0,0,1,0-9.91h0a4.78,4.78,0,0,0,1.63-5.64,28,28,0,0,0-3.68-6.4,4.83,4.83,0,0,0-5.78-1.51,6.16,6.16,0,0,1-8.58-5,4.74,4.74,0,0,0-1.37-2.85,4.89,4.89,0,0,0-2.84-1.4,28.6,28.6,0,0,0-7.24,0,4.84,4.84,0,0,0-4.21,4.25,6.16,6.16,0,0,1-8.58,5A4.83,4.83,0,0,0,10.21,130a28,28,0,0,0-3.68,6.4A4.78,4.78,0,0,0,8.16,142h0a6.14,6.14,0,0,1,0,9.91h0a4.76,4.76,0,0,0-1.63,5.63,28,28,0,0,0,3.68,6.4A4.85,4.85,0,0,0,16,165.49a6.15,6.15,0,0,1,8.58,4.95h0a4.84,4.84,0,0,0,4.21,4.25,27.42,27.42,0,0,0,7.24,0,4.84,4.84,0,0,0,4.21-4.25h0a6.15,6.15,0,0,1,8.58-4.95A4.85,4.85,0,0,0,54.59,164a28,28,0,0,0,3.68-6.4A4.76,4.76,0,0,0,56.64,151.94ZM32.4,157.4A10.43,10.43,0,1,1,42.83,147,10.43,10.43,0,0,1,32.4,157.4Z"/><path class="cls-3" d="M154.82,93.6v49a4.37,4.37,0,0,1-4.36,4.37h-36.1a4.37,4.37,0,0,1-4.37-4.37V103.8a4.46,4.46,0,0,1,1.28-3.09l10.2-10.19a4,4,0,0,1,1.28-.89,4.25,4.25,0,0,1,1.8-.39h25.91A4.36,4.36,0,0,1,154.82,93.6Z"/><path class="cls-1" d="M122.75,89.63v8a4.37,4.37,0,0,1-4.37,4.36h-8a4.3,4.3,0,0,1,.88-1.28l10.2-10.19A4,4,0,0,1,122.75,89.63Z"/><path class="cls-1" d="M146.12,110.52H118.69a1.09,1.09,0,0,1,0-2.18h27.43a1.09,1.09,0,0,1,0,2.18Z"/><path class="cls-1" d="M146.12,117.64H118.69a1.09,1.09,0,0,1,0-2.18h27.43a1.09,1.09,0,0,1,0,2.18Z"/><path class="cls-1" d="M146.12,124.77H118.69a1.1,1.1,0,0,1,0-2.19h27.43a1.1,1.1,0,0,1,0,2.19Z"/><path class="cls-1" d="M132.41,131.89H118.69a1.09,1.09,0,1,1,0-2.18h13.72a1.09,1.09,0,1,1,0,2.18Z"/><path class="cls-3" d="M222.83,93.6v49a4.37,4.37,0,0,1-4.36,4.37h-36.1a4.37,4.37,0,0,1-4.36-4.37V103.8a4.39,4.39,0,0,1,1.27-3.09l10.2-10.19a4.16,4.16,0,0,1,1.28-.89,4.3,4.3,0,0,1,1.81-.39h25.9A4.36,4.36,0,0,1,222.83,93.6Z"/><path class="cls-1" d="M190.76,89.63v8A4.36,4.36,0,0,1,186.4,102h-8a4.3,4.3,0,0,1,.88-1.28l10.2-10.19A4.16,4.16,0,0,1,190.76,89.63Z"/><path class="cls-1" d="M214.13,110.52H186.7a1.09,1.09,0,1,1,0-2.18h27.43a1.09,1.09,0,1,1,0,2.18Z"/><path class="cls-1" d="M214.13,117.64H186.7a1.09,1.09,0,1,1,0-2.18h27.43a1.09,1.09,0,1,1,0,2.18Z"/><path class="cls-1" d="M214.13,124.77H186.7a1.1,1.1,0,0,1,0-2.19h27.43a1.1,1.1,0,1,1,0,2.19Z"/><path class="cls-1" d="M200.42,131.89H186.7a1.09,1.09,0,0,1,0-2.18h13.72a1.09,1.09,0,0,1,0,2.18Z"/><polygon class="cls-10" points="33.32 82.66 29.71 79.21 37.83 70.72 29.71 62.24 33.32 58.78 44.75 70.72 33.32 82.66"/><rect class="cls-10" x="49.34" y="77.66" width="13" height="5"/></g></g></svg>