<svg xmlns="http://www.w3.org/2000/svg" viewBox="0 0 282.72 170.81"><defs><style>.cls-1{fill:#101723;}.cls-2{fill:#f2eff8;}.cls-3{fill:#ddd7e1;}.cls-4{fill:#23a6fe;}.cls-5{fill:#1b2335;}.cls-6{fill:#fff;}.cls-7{fill:#e9e6ef;}.cls-8{fill:#bcb5c6;}.cls-9{fill:#2b3ac8;}.cls-10{fill:#7cddb8;}.cls-11{fill:#58b790;}</style></defs><title>Asset 11</title><g id="Layer_2" data-name="Layer 2"><g id="Layer_1-2" data-name="Layer 1"><path class="cls-1" d="M67.65,168V145.67H91.59A1.41,1.41,0,0,0,93,144.26h0a1.41,1.41,0,0,0-1.41-1.41H23.5A14.15,14.15,0,0,0,9.26,156.49a14,14,0,0,0,14,14.32H91.59A1.41,1.41,0,0,0,93,169.4h0A1.41,1.41,0,0,0,91.59,168Z"/><path class="cls-2" d="M23.23,145.67H91.59a0,0,0,0,1,0,0V168a0,0,0,0,1,0,0H23.23a11.16,11.16,0,0,1-11.16-11.16v0a11.16,11.16,0,0,1,11.16-11.16Z"/><path class="cls-3" d="M88.14,150.61H21.47a.53.53,0,1,1,0-1.06H88.14a.53.53,0,0,1,0,1.06Z"/><path class="cls-3" d="M88.14,155.11H21.47a.53.53,0,1,1,0-1.06H88.14a.53.53,0,0,1,0,1.06Z"/><path class="cls-3" d="M88.14,159.61H21.47a.53.53,0,1,1,0-1.06H88.14a.53.53,0,0,1,0,1.06Z"/><path class="cls-3" d="M88.14,164.11H21.47a.53.53,0,1,1,0-1.05H88.14a.53.53,0,0,1,0,1.05Z"/><polygon class="cls-4" points="37.62 162.09 33.12 158.98 28.61 162.09 28.61 150.08 37.62 150.08 37.62 162.09"/><path class="cls-5" d="M58.39,140V117.72h24a1.42,1.42,0,0,0,1.41-1.41h0a1.42,1.42,0,0,0-1.41-1.42H14.24A14.16,14.16,0,0,0,0,128.54a14,14,0,0,0,14,14.31H82.34a1.41,1.41,0,0,0,1.41-1.41h0A1.41,1.41,0,0,0,82.34,140Z"/><path class="cls-2" d="M14,117.72H82.34a0,0,0,0,1,0,0V140a0,0,0,0,1,0,0H14A11.16,11.16,0,0,1,2.82,128.87v0A11.16,11.16,0,0,1,14,117.72Z"/><path class="cls-3" d="M78.88,122.65H12.22a.53.53,0,1,1,0-1.06H78.88a.53.53,0,0,1,0,1.06Z"/><path class="cls-3" d="M78.88,127.15H12.22a.53.53,0,1,1,0-1.06H78.88a.53.53,0,0,1,0,1.06Z"/><path class="cls-3" d="M78.88,131.65H12.22a.53.53,0,1,1,0-1.05H78.88a.53.53,0,1,1,0,1.05Z"/><path class="cls-3" d="M78.88,136.16H12.22a.53.53,0,0,1-.53-.53.52.52,0,0,1,.53-.53H78.88a.53.53,0,0,1,.53.53A.53.53,0,0,1,78.88,136.16Z"/><polygon class="cls-4" points="56.16 134.13 51.65 131.02 47.15 134.13 47.15 122.12 56.16 122.12 56.16 134.13"/><path class="cls-4" d="M282.72,99.92v62.56a8.31,8.31,0,0,1-8.3,8.3H223.28a1.93,1.93,0,0,1-1.93-1.94V93.56a1.93,1.93,0,0,1,1.93-1.94h51.14A8.31,8.31,0,0,1,282.72,99.92Z"/><path class="cls-6" d="M234,123.11h1.53v4.73a1.55,1.55,0,1,0,3.1,0v-4.73h1.54v4.71a2.88,2.88,0,0,1-3.12,3,2.82,2.82,0,0,1-3-3Z"/><path class="cls-6" d="M244.27,130.82c-1.58,0-2.81-.83-2.83-2.27h1.64a1,1,0,0,0,1.16,1c.72,0,1.15-.38,1.15-.93,0-1.65-3.94-.65-3.93-3.42,0-1.38,1.12-2.21,2.69-2.21s2.64.8,2.74,2.18H245.2a1,1,0,0,0-1.09-.91c-.6,0-1.05.27-1.05.9,0,1.53,3.92.67,3.92,3.37A2.41,2.41,0,0,1,244.27,130.82Z"/><path class="cls-6" d="M252.73,124.34h-2.9v1.92h2.57v1.21h-2.57v2h2.9v1.25H248.3V123.1h4.43Z"/><path class="cls-6" d="M257,123.11c1.84,0,2.76,1.06,2.76,2.34a2.21,2.21,0,0,1-1.74,2.2l1.83,3.1h-1.78l-1.68-3h-.73v3h-1.53v-7.64Zm-.05,1.27h-1.29v2.24h1.29c.85,0,1.23-.45,1.23-1.14S257.79,124.38,256.94,124.38Z"/><path class="cls-6" d="M241.09,137.81h-1.76a1.92,1.92,0,0,0-1.8-1,2.28,2.28,0,0,0-2.32,2.5,2.31,2.31,0,0,0,2.39,2.52,2.08,2.08,0,0,0,2.17-1.77h-2.63V138.9h4.14v1.34a3.87,3.87,0,0,1-7.64-.92,3.78,3.78,0,0,1,3.89-3.91A3.51,3.51,0,0,1,241.09,137.81Z"/><path class="cls-6" d="M242.39,135.51h1.53v4.73a1.55,1.55,0,1,0,3.1,0v-4.73h1.54v4.72a2.88,2.88,0,0,1-3.11,3,2.83,2.83,0,0,1-3.06-3Z"/><path class="cls-6" d="M250,135.51h1.53v7.64H250Z"/><path class="cls-6" d="M259.78,139.34a3.68,3.68,0,0,1-4,3.81h-2.67v-7.64h2.67A3.69,3.69,0,0,1,259.78,139.34Zm-4.08,2.51a2.53,2.53,0,0,0,0-5h-1.08v5Z"/><path class="cls-6" d="M265.36,136.75h-2.9v1.91H265v1.22h-2.57v2h2.9v1.25h-4.43V135.5h4.43Z"/><path class="cls-7" d="M271.8,105.88l-6-4.14-6,4.14V90l-.89-1.89h12a.89.89,0,0,1,.88.88Z"/><path class="cls-8" d="M258.92,88.11h0a.88.88,0,0,1,.88.88v2.63a0,0,0,0,1,0,0H258a0,0,0,0,1,0,0V89A.88.88,0,0,1,258.92,88.11Z"/><circle class="cls-7" cx="265.36" cy="32.69" r="3.93"/><path class="cls-7" d="M157.32,38.31a4.14,4.14,0,1,1-4.13,4.14,4.14,4.14,0,0,1,4.13-4.14m0-2.66a6.8,6.8,0,1,0,6.79,6.8,6.79,6.79,0,0,0-6.79-6.8Z"/><path class="cls-7" d="M49.22,13.12l-6.29,2.35a1.21,1.21,0,0,0-.35,2.07l5.19,4.27a1.21,1.21,0,0,0,2-.73l1.11-6.63A1.21,1.21,0,0,0,49.22,13.12Z"/><path class="cls-7" d="M110.61,3.35h0a4.5,4.5,0,0,1-7.26,0h0a3.51,3.51,0,0,0-4.13-1.2,20.37,20.37,0,0,0-4.69,2.7,3.54,3.54,0,0,0-1.11,4.24,4.51,4.51,0,0,1-3.64,6.29,3.49,3.49,0,0,0-2.09,1,3.58,3.58,0,0,0-1,2.08,20.82,20.82,0,0,0,0,5.31,3.54,3.54,0,0,0,3.11,3.08,4.51,4.51,0,0,1,3.64,6.29,3.54,3.54,0,0,0,1.11,4.24,20,20,0,0,0,4.69,2.7,3.51,3.51,0,0,0,4.13-1.19h0a4.5,4.5,0,0,1,7.26,0h0a3.51,3.51,0,0,0,4.13,1.19,20.22,20.22,0,0,0,4.69-2.7,3.54,3.54,0,0,0,1.11-4.24,4.51,4.51,0,0,1,3.63-6.29h0a3.55,3.55,0,0,0,3.11-3.08,20.82,20.82,0,0,0,0-5.31,3.55,3.55,0,0,0-3.11-3.08h0a4.51,4.51,0,0,1-3.63-6.29,3.54,3.54,0,0,0-1.11-4.24,20.58,20.58,0,0,0-4.69-2.7A3.51,3.51,0,0,0,110.61,3.35Zm4,17.77A7.65,7.65,0,1,1,107,13.47,7.64,7.64,0,0,1,114.62,21.12Z"/><path class="cls-7" d="M191.45,43.54h0a7.2,7.2,0,0,1-3.21,11.14h0a5.59,5.59,0,0,0-3.67,5.8,33.13,33.13,0,0,0,2.06,8.39,5.67,5.67,0,0,0,6,3.59,7.19,7.19,0,0,1,8,8.36,5.6,5.6,0,0,0,.61,3.64A5.71,5.71,0,0,0,204,87a32.7,32.7,0,0,0,4,1.44,32.31,32.31,0,0,0,4.14.91,5.65,5.65,0,0,0,6.11-3.41,7.2,7.2,0,0,1,11.26-2.79,5.65,5.65,0,0,0,7,.17,32.35,32.35,0,0,0,6.21-6,5.58,5.58,0,0,0,0-6.86h0A7.2,7.2,0,0,1,246,59.29h0a5.59,5.59,0,0,0,3.65-5.81,32.31,32.31,0,0,0-2.06-8.39,5.66,5.66,0,0,0-6-3.59,7.19,7.19,0,0,1-8-8.35h0A5.67,5.67,0,0,0,230.16,27,32.56,32.56,0,0,0,222,24.65a5.68,5.68,0,0,0-6.11,3.41h0a7.2,7.2,0,0,1-11.25,2.78,5.68,5.68,0,0,0-7-.17,32.4,32.4,0,0,0-6.22,6A5.58,5.58,0,0,0,191.45,43.54Zm29,1.72a12.21,12.21,0,1,1-15.11,8.34A12.21,12.21,0,0,1,220.48,45.26Z"/><path class="cls-5" d="M220.05,62H75.73a3.64,3.64,0,0,0-3.63,3.63V161.8H223.69V65.62A3.64,3.64,0,0,0,220.05,62Z"/><rect class="cls-2" x="78.84" y="68.25" width="138.25" height="88.83"/><polygon class="cls-8" points="239.93 170.78 55.6 170.78 46.5 167.44 249.03 167.44 239.93 170.78"/><path class="cls-3" d="M148.9,65.17a1,1,0,1,1-1-1A1,1,0,0,1,148.9,65.17Z"/><rect class="cls-8" x="131.29" y="161.79" width="32.82" height="3.33"/><path class="cls-3" d="M161.51,161.79V163a1.52,1.52,0,0,1-1.52,1.51H135.43a1.52,1.52,0,0,1-1.51-1.51v-1.21H46.5v5.65H249v-5.65Z"/><rect class="cls-3" x="92.72" y="125.17" width="110.49" height="11.39" rx="5.69" ry="5.69"/><rect class="cls-4" x="92.72" y="125.17" width="69.49" height="11.39" rx="5.69" ry="5.69"/><path class="cls-9" d="M137.75,114.46h0a10.22,10.22,0,0,1,20.43,0h17.17a27.46,27.46,0,0,0-.23-3.54,4.75,4.75,0,0,0-4.16-4.13h0a6,6,0,0,1-4.85-8.4,4.74,4.74,0,0,0-1.49-5.67,27,27,0,0,0-6.27-3.6,4.66,4.66,0,0,0-5.51,1.59h0a6,6,0,0,1-9.71,0h0a4.68,4.68,0,0,0-5.52-1.59,27,27,0,0,0-6.27,3.6,4.74,4.74,0,0,0-1.49,5.67,6,6,0,0,1-4.85,8.4,4.66,4.66,0,0,0-2.79,1.34,4.81,4.81,0,0,0-1.37,2.79,25.77,25.77,0,0,0-.24,3.54h17.17Z"/><path class="cls-3" d="M48,52.76h-24a4.56,4.56,0,0,0-4.56,4.56v29a4.57,4.57,0,0,0,4.09,4.53l.47,0H48l.47,0a4.57,4.57,0,0,0,4.09-4.53v-29A4.56,4.56,0,0,0,48,52.76Z"/><path class="cls-2" d="M15.36,83.76a4.1,4.1,0,0,1-4.09-4.1v-29a4.1,4.1,0,0,1,4.09-4.1H29.1a4.16,4.16,0,0,1,1.7.37,4.36,4.36,0,0,1,1.2.83L42.25,58a3.88,3.88,0,0,1,.82,1.2,4,4,0,0,1,.37,1.7V79.66a4.1,4.1,0,0,1-4.09,4.1Z"/><path class="cls-3" d="M29.1,47a3.73,3.73,0,0,1,1.51.33,3.6,3.6,0,0,1,1.07.74L41.93,58.33a3.56,3.56,0,0,1,.73,1.07A3.64,3.64,0,0,1,43,60.9V79.66a3.64,3.64,0,0,1-3.63,3.64h-24a3.64,3.64,0,0,1-3.63-3.64v-29A3.64,3.64,0,0,1,15.36,47H29.1m0-.92H15.36a4.55,4.55,0,0,0-4.55,4.56v29a4.55,4.55,0,0,0,4.55,4.56h24a4.56,4.56,0,0,0,4.56-4.56V60.9A4.53,4.53,0,0,0,43.49,59a4.29,4.29,0,0,0-.92-1.33L32.33,47.44A4.64,4.64,0,0,0,31,46.52a4.38,4.38,0,0,0-1.89-.42Z"/><path class="cls-3" d="M43.49,59H34.7A3.71,3.71,0,0,1,31,55.3V46.52a4.64,4.64,0,0,1,1.34.92L42.57,57.68A4.29,4.29,0,0,1,43.49,59Z"/><path class="cls-3" d="M24.77,59.51H18.54a1.11,1.11,0,1,1,0-2.21h6.23a1.11,1.11,0,1,1,0,2.21Z"/><path class="cls-3" d="M36.17,66.27H18.54a1.11,1.11,0,1,1,0-2.21H36.17a1.11,1.11,0,1,1,0,2.21Z"/><path class="cls-3" d="M36.17,73H18.54a1.11,1.11,0,1,1,0-2.21H36.17a1.11,1.11,0,1,1,0,2.21Z"/><polygon class="cls-10" points="165.43 13.47 173.88 26.94 173.88 0 165.43 13.47"/><polygon class="cls-11" points="182.33 13.47 173.88 0 173.88 26.94 182.33 13.47"/></g></g></svg>