<svg xmlns="http://www.w3.org/2000/svg" viewBox="0 0 288.87 201.23"><defs><style>.cls-1{fill:#e9e6ef;}.cls-2{fill:#23a6fe;}.cls-3{fill:#ddd7e1;}.cls-4{fill:#2b3ac8;}.cls-5{fill:#f2eff8;}.cls-6{fill:#7cddb8;}.cls-7{fill:#9ff4d2;}.cls-8{fill:#58b790;}</style></defs><title>Asset 10</title><g id="Layer_2" data-name="Layer 2"><g id="Layer_1-2" data-name="Layer 1"><circle class="cls-1" cx="48.97" cy="42.37" r="3.93"/><path class="cls-1" d="M123.25,190.3a4.14,4.14,0,1,1-4.13,4.13,4.14,4.14,0,0,1,4.13-4.13m0-2.66a6.8,6.8,0,1,0,6.79,6.79,6.79,6.79,0,0,0-6.79-6.79Z"/><path class="cls-1" d="M274.56,142.15l-6.29,2.36a1.2,1.2,0,0,0-.35,2.06l5.19,4.28a1.21,1.21,0,0,0,2-.73l1.11-6.63A1.22,1.22,0,0,0,274.56,142.15Z"/><path class="cls-1" d="M109.08,1.45h0a4.5,4.5,0,0,1-7.26,0h0A3.51,3.51,0,0,0,97.67.25,21.18,21.18,0,0,0,93,3a3.54,3.54,0,0,0-1.11,4.24,4.51,4.51,0,0,1-3.63,6.29,3.52,3.52,0,0,0-2.09,1,3.59,3.59,0,0,0-1,2.08,20.82,20.82,0,0,0,0,5.31A3.54,3.54,0,0,0,88.24,25a4.51,4.51,0,0,1,3.63,6.29A3.54,3.54,0,0,0,93,35.48a20.43,20.43,0,0,0,4.69,2.7A3.49,3.49,0,0,0,101.8,37h0a4.5,4.5,0,0,1,7.26,0h0a3.49,3.49,0,0,0,4.13,1.19,20.43,20.43,0,0,0,4.69-2.7A3.57,3.57,0,0,0,119,31.24,4.51,4.51,0,0,1,122.64,25h0a3.54,3.54,0,0,0,3.12-3.08,20.82,20.82,0,0,0,0-5.31,3.56,3.56,0,0,0-3.12-3.08h0A4.51,4.51,0,0,1,119,7.19,3.57,3.57,0,0,0,117.9,3a21.18,21.18,0,0,0-4.69-2.7A3.51,3.51,0,0,0,109.08,1.45Zm4,17.77a7.65,7.65,0,1,1-7.64-7.65A7.64,7.64,0,0,1,113.08,19.22Z"/><path class="cls-1" d="M162.89,34.7v0a7.21,7.21,0,0,1-3.22,11.14h0a5.57,5.57,0,0,0-3.66,5.8,32.48,32.48,0,0,0,2.06,8.4,5.66,5.66,0,0,0,6,3.58,7.19,7.19,0,0,1,8,8.36,5.64,5.64,0,0,0,.61,3.65,5.72,5.72,0,0,0,2.75,2.49,32,32,0,0,0,4,1.44,30.5,30.5,0,0,0,4.15.91,5.65,5.65,0,0,0,6.11-3.41A7.19,7.19,0,0,1,201,74.3a5.68,5.68,0,0,0,7,.17,32.71,32.71,0,0,0,6.22-6,5.61,5.61,0,0,0,0-6.87h0a7.19,7.19,0,0,1,3.22-11.14h0a5.6,5.6,0,0,0,3.66-5.81A33.24,33.24,0,0,0,219,36.25a5.68,5.68,0,0,0-6-3.58,7.19,7.19,0,0,1-8-8.36h0a5.68,5.68,0,0,0-3.35-6.15,34.46,34.46,0,0,0-4-1.44,32.31,32.31,0,0,0-4.14-.91,5.67,5.67,0,0,0-6.11,3.41h0A7.2,7.2,0,0,1,176.1,22a5.68,5.68,0,0,0-7-.17,32.06,32.06,0,0,0-6.21,6A5.57,5.57,0,0,0,162.89,34.7Zm29,1.73a12.2,12.2,0,1,1-15.11,8.34A12.21,12.21,0,0,1,191.92,36.43Z"/><path class="cls-2" d="M41.65,170.63a6.76,6.76,0,0,0,5.87-5.93h0a8.58,8.58,0,0,1,12-6.91,6.76,6.76,0,0,0,8.07-2.12,39.14,39.14,0,0,0,5.14-8.93,6.67,6.67,0,0,0-2.28-7.87h0a8.59,8.59,0,0,1,0-13.83h0a6.67,6.67,0,0,0,2.28-7.87,39.14,39.14,0,0,0-5.14-8.93,6.75,6.75,0,0,0-8.07-2.12,8.58,8.58,0,0,1-12-6.92,6.61,6.61,0,0,0-1.9-4,6.92,6.92,0,0,0-4-2,38.88,38.88,0,0,0-10.11,0,6.75,6.75,0,0,0-5.87,5.93,8.58,8.58,0,0,1-12,6.92,6.76,6.76,0,0,0-8.08,2.12,39.14,39.14,0,0,0-5.14,8.93A6.68,6.68,0,0,0,2.75,125h0a8.58,8.58,0,0,1,0,13.83h0a6.68,6.68,0,0,0-2.27,7.87,39.14,39.14,0,0,0,5.14,8.93,6.77,6.77,0,0,0,8.08,2.12,8.58,8.58,0,0,1,12,6.91h0a6.76,6.76,0,0,0,5.87,5.93,38.88,38.88,0,0,0,10.11,0ZM16.37,131.94A20.23,20.23,0,1,1,36.6,152.16,20.22,20.22,0,0,1,16.37,131.94Z"/><path class="cls-3" d="M29.23,87.77v35.87a1.63,1.63,0,0,0,1.63,1.63H42.34A1.63,1.63,0,0,0,44,123.64V87.77h7.29a1.63,1.63,0,0,0,1.28-2.64L37.88,66.57a1.63,1.63,0,0,0-2.56,0L20.65,85.13a1.63,1.63,0,0,0,1.28,2.64Z"/><path class="cls-2" d="M288.66,95.36a4.36,4.36,0,0,0-3.82-3.78h0a5.53,5.53,0,0,1-4.45-7.71,4.35,4.35,0,0,0-1.36-5.2,25.22,25.22,0,0,0-5.75-3.31,4.3,4.3,0,0,0-5.07,1.47h0a5.54,5.54,0,0,1-8.91,0h0a4.31,4.31,0,0,0-5.07-1.47,25.22,25.22,0,0,0-5.75,3.31,4.35,4.35,0,0,0-1.36,5.2,5.53,5.53,0,0,1-4.46,7.71,4.27,4.27,0,0,0-2.56,1.23,4.43,4.43,0,0,0-1.26,2.55,25.33,25.33,0,0,0,0,6.51,4.36,4.36,0,0,0,3.82,3.78,5.53,5.53,0,0,1,4.46,7.71,4.35,4.35,0,0,0,1.36,5.2,25.22,25.22,0,0,0,5.75,3.31,4.31,4.31,0,0,0,5.07-1.47h0a5.52,5.52,0,0,1,8.91,0h0a4.3,4.3,0,0,0,5.07,1.47,25.22,25.22,0,0,0,5.75-3.31,4.35,4.35,0,0,0,1.36-5.2,5.53,5.53,0,0,1,4.45-7.71h0a4.36,4.36,0,0,0,3.82-3.78,25.33,25.33,0,0,0,0-6.51Zm-24.91,16.27a13,13,0,1,1,13-13A13,13,0,0,1,263.75,111.63Z"/><path class="cls-3" d="M259,70.17v23.1a1,1,0,0,0,1.05,1h7.39a1,1,0,0,0,1.05-1V70.17h4.7a1,1,0,0,0,.82-1.7l-9.44-11.95a1.05,1.05,0,0,0-1.65,0l-9.44,11.95a1,1,0,0,0,.82,1.7Z"/><path class="cls-4" d="M231,79.45V66.2a9.52,9.52,0,0,0-9.52-9.52H75.62a9.51,9.51,0,0,0-9.51,9.52V79.45Z"/><path class="cls-5" d="M231,79.45v84.74a10.57,10.57,0,0,1-.1,1.39,10,10,0,0,1-.58,2.13,9.52,9.52,0,0,1-8.84,6H75.62a9.51,9.51,0,0,1-9.51-9.52V79.45Z"/><circle class="cls-2" cx="78.7" cy="67.86" r="3.21"/><circle class="cls-1" cx="91.65" cy="67.86" r="3.21"/><circle class="cls-6" cx="104.6" cy="67.86" r="3.21"/><path class="cls-3" d="M183.73,125.49a10.3,10.3,0,0,0-8.3,4.18l-11-6.38a11.79,11.79,0,0,0,1-4.84,11.67,11.67,0,0,0-1-4.8l7.7-4.41a6.59,6.59,0,1,0-1.55-4.25,6.69,6.69,0,0,0,.38,2.2l-7.7,4.41a11.81,11.81,0,0,0-8.41-4.88V100.4a4.8,4.8,0,1,0-2.37,0v6.32a11.84,11.84,0,0,0-8.39,4.84l-13.7-7.91a9.43,9.43,0,0,0,.75-3.69,9.53,9.53,0,1,0-1.93,5.74l13.7,7.91a11.71,11.71,0,0,0-1,4.84,11.88,11.88,0,0,0,1,4.81l-28.15,16.12a6.59,6.59,0,1,0,1.55,4.25,6.68,6.68,0,0,0-.37-2.2L144,125.31a11.73,11.73,0,0,0,8.41,4.87v15.1a9,9,0,1,0,2.37,0v-15.1a11.74,11.74,0,0,0,8.38-4.84l11,6.38a10.34,10.34,0,1,0,9.49-6.23ZM172.92,105a4.23,4.23,0,1,1,.12,1A4.07,4.07,0,0,1,172.92,105Zm-51.33,2.12a7.15,7.15,0,1,1,6.7-4.65,7.24,7.24,0,0,1-1.19,2.05A7.13,7.13,0,0,1,121.59,107.11Zm-7.7,36.52a4.23,4.23,0,1,1-1.3-3,4.15,4.15,0,0,1,1.18,2.06A4.07,4.07,0,0,1,113.89,143.63Zm37.32-47.87a2.42,2.42,0,1,1,2.42,2.42,2.36,2.36,0,0,1-1.18-.31A2.43,2.43,0,0,1,151.21,95.76Zm9.1,58.49a6.68,6.68,0,1,1-7.86-6.58,7.62,7.62,0,0,1,1.18-.1,7.74,7.74,0,0,1,1.19.1A6.7,6.7,0,0,1,160.31,154.25Zm23.42-10.46a8,8,0,0,1-7.42-10.88,8.38,8.38,0,0,1,1.19-2,8,8,0,1,1,6.23,12.93Z"/><path class="cls-5" d="M154.82,127.8a9.39,9.39,0,0,1-1.19.08,9.23,9.23,0,0,1-1.18-.08,9.41,9.41,0,0,1-8.24-9.35,9.21,9.21,0,0,1,.74-3.64,9,9,0,0,1,1.18-2,9.41,9.41,0,0,1,6.32-3.65,9.23,9.23,0,0,1,1.18-.08,9.5,9.5,0,0,1,7.52,3.75,9,9,0,0,1,1.18,2.06,9.23,9.23,0,0,1,.72,3.61,9.4,9.4,0,0,1-.73,3.65,9.47,9.47,0,0,1-7.5,5.7Z"/><path class="cls-2" d="M148.19,117.34h0a1.4,1.4,0,0,1,0,2.23h0a1.06,1.06,0,0,0-.36,1.26,6.39,6.39,0,0,0,.82,1.44,1.09,1.09,0,0,0,1.3.34,1.38,1.38,0,0,1,1.93,1.11,1.07,1.07,0,0,0,.3.64,1.08,1.08,0,0,0,.64.31,5.52,5.52,0,0,0,.81.06,5.32,5.32,0,0,0,.81-.06,1.08,1.08,0,0,0,.95-1,1.37,1.37,0,0,1,1.92-1.11,1.09,1.09,0,0,0,1.3-.34,6.06,6.06,0,0,0,.83-1.44,1.07,1.07,0,0,0-.37-1.26h0a1.39,1.39,0,0,1,0-2.23h0a1.07,1.07,0,0,0,.37-1.26,6.06,6.06,0,0,0-.83-1.44,1.09,1.09,0,0,0-1.3-.34,1.38,1.38,0,0,1-1.92-1.11h0a1.1,1.1,0,0,0-.95-1,7,7,0,0,0-.81,0,7.34,7.34,0,0,0-.81,0,1.08,1.08,0,0,0-.94,1h0A1.39,1.39,0,0,1,150,114.3a1.09,1.09,0,0,0-1.3.34,6.39,6.39,0,0,0-.82,1.44A1.06,1.06,0,0,0,148.19,117.34Zm5.44-1.23a2.34,2.34,0,1,1-2.34,2.34A2.34,2.34,0,0,1,153.63,116.11Z"/><polygon class="cls-7" points="204.95 166.66 218.01 177.19 212.5 192.22 199.09 181.75 204.95 166.66"/><polygon class="cls-6" points="238.18 143.45 204.95 166.66 218.01 177.19 251.24 153.98 238.18 143.45"/><polygon class="cls-8" points="212.5 192.22 218.01 177.19 251.24 153.98 245.72 169.02 212.5 192.22"/></g></g></svg>