<svg xmlns="http://www.w3.org/2000/svg" viewBox="0 0 280.25 166.08"><defs><style>.cls-1{fill:#e9e6ef;}.cls-2{fill:#f2eff8;}.cls-3{fill:none;stroke:#ddd7e1;stroke-miterlimit:10;stroke-width:6px;}.cls-4{fill:#23a6fe;}.cls-5{fill:#2b3ac8;}.cls-6{fill:#7cddb8;}.cls-7{fill:#50c1ff;}.cls-8{fill:#0095e8;}.cls-9{fill:#d17b09;}.cls-10{fill:#f99400;}.cls-11{fill:#fff;}</style></defs><title>Asset 8</title><g id="Layer_2" data-name="Layer 2"><g id="Layer_1-2" data-name="Layer 1"><path class="cls-1" d="M22.91,20.2h0A7.19,7.19,0,0,1,19.7,31.35h0A5.6,5.6,0,0,0,16,37.16a32.72,32.72,0,0,0,2.06,8.39,5.67,5.67,0,0,0,6,3.59,7.2,7.2,0,0,1,8,8.36,5.54,5.54,0,0,0,.61,3.64,5.71,5.71,0,0,0,2.74,2.5A32.56,32.56,0,0,0,43.63,66a5.65,5.65,0,0,0,6.11-3.41A7.2,7.2,0,0,1,61,59.79,5.64,5.64,0,0,0,68,60a32.4,32.4,0,0,0,6.22-6,5.57,5.57,0,0,0,0-6.86h0A7.2,7.2,0,0,1,77.42,36h0a5.58,5.58,0,0,0,3.66-5.81A32.31,32.31,0,0,0,79,21.75a5.67,5.67,0,0,0-6-3.59,7.19,7.19,0,0,1-8-8.35h0a5.65,5.65,0,0,0-3.35-6.14,32.56,32.56,0,0,0-8.14-2.35,5.67,5.67,0,0,0-6.11,3.41h0A7.2,7.2,0,0,1,36.13,7.51a5.68,5.68,0,0,0-7-.17,32.4,32.4,0,0,0-6.22,6A5.6,5.6,0,0,0,22.91,20.2Zm29,1.72a12.21,12.21,0,1,1-15.11,8.34A12.21,12.21,0,0,1,52,21.92Z"/><rect class="cls-2" x="51.65" y="26.63" width="179.32" height="134.29" rx="19" ry="19"/><circle class="cls-1" cx="30.1" cy="130.82" r="3.93"/><path class="cls-1" d="M261.51,101.46a4.13,4.13,0,1,1-4.13,4.13,4.14,4.14,0,0,1,4.13-4.13m0-2.66a6.79,6.79,0,1,0,6.8,6.79,6.79,6.79,0,0,0-6.8-6.79Z"/><path class="cls-1" d="M6.79,74a4.13,4.13,0,1,1-4.13,4.13A4.13,4.13,0,0,1,6.79,74m0-2.66a6.79,6.79,0,1,0,6.8,6.79,6.79,6.79,0,0,0-6.8-6.79Z"/><path class="cls-1" d="M107.94.08l-6.29,2.35a1.21,1.21,0,0,0-.35,2.07l5.18,4.27a1.22,1.22,0,0,0,2-.73l1.11-6.63A1.21,1.21,0,0,0,107.94.08Z"/><path class="cls-1" d="M279.55,80.57l.7-6.69a1.22,1.22,0,0,0-1.7-1.23l-6.14,2.74a1.21,1.21,0,0,0-.22,2.08l5.44,4A1.22,1.22,0,0,0,279.55,80.57Z"/><polygon class="cls-3" points="183.39 114.05 183.39 65.47 141.31 41.18 99.24 65.47 99.24 114.05 141.31 138.34 183.39 114.05"/><polygon class="cls-4" points="141.31 41.18 141.31 70.13 116.24 55.66 116.24 26.7 141.31 41.18"/><polygon class="cls-5" points="166.38 26.7 166.38 55.66 141.31 70.13 141.31 41.18 166.38 26.7"/><polygon class="cls-6" points="166.38 26.7 141.31 41.18 116.24 26.7 141.31 12.22 166.38 26.7"/><polygon class="cls-4" points="99.24 114.05 99.24 143 74.16 128.53 74.16 99.58 99.24 114.05"/><polygon class="cls-5" points="124.31 99.58 124.31 128.53 99.24 143 99.24 114.05 124.31 99.58"/><polygon class="cls-6" points="124.31 99.58 99.24 114.05 74.16 99.58 99.24 85.1 124.31 99.58"/><polygon class="cls-4" points="183.39 114.05 183.39 143 158.31 128.53 158.31 99.58 183.39 114.05"/><polygon class="cls-5" points="208.46 99.58 208.46 128.53 183.39 143 183.39 114.05 208.46 99.58"/><polygon class="cls-6" points="208.46 99.58 183.39 114.05 158.31 99.58 183.39 85.1 208.46 99.58"/><polygon class="cls-7" points="202.31 29.05 210.82 35.91 207.22 45.7 198.49 38.88 202.31 29.05"/><polygon class="cls-4" points="223.95 13.93 202.31 29.05 210.82 35.91 232.47 20.79 223.95 13.93"/><polygon class="cls-8" points="207.22 45.7 210.82 35.91 232.47 20.79 228.87 30.59 207.22 45.7"/><path class="cls-9" d="M30.1,69.71c0-13.84,10.27-26.13,23-27.44a20.63,20.63,0,0,1,5.16.1L58,41.27l5.95,2.81h0C71.16,47.56,76.13,55.38,76.14,65c0,13.85-10.26,26.14-23,27.45a20.14,20.14,0,0,1-11.18-2h0L37,88l.74-.51A23.55,23.55,0,0,1,30.1,69.71Z"/><path class="cls-10" d="M47,66.23l-2,.22-.16,0,0,6.29.18,0,2.76-.29c.51-.06,1-.12,1.55-.2a4.68,4.68,0,0,0,1.6-.55,2.71,2.71,0,0,0,1.4-1.92,5.07,5.07,0,0,0-.08-2.23,1.71,1.71,0,0,0-.84-1.11,2.6,2.6,0,0,0-.89-.3,8.6,8.6,0,0,0-2.21,0L47,66.23m-1-9.84-1,.1-.18,0v5.27l.21,0,3-.31a8,8,0,0,0,1.37-.23,4,4,0,0,0,1.22-.5,1.84,1.84,0,0,0,.8-1.12,4.56,4.56,0,0,0,.09-1.87,1.8,1.8,0,0,0-.41-1,1.92,1.92,0,0,0-1.13-.53,6.94,6.94,0,0,0-1.88,0l-2,.2m1.27-4.78V48.05l2.64-.27c0,.21,0,.41,0,.62v3.09l.35,0a7.09,7.09,0,0,1,2.47.67,5.48,5.48,0,0,1,3.06,4.58,8.24,8.24,0,0,1-.18,2.88A6.67,6.67,0,0,1,54,62.57l-.16.17,0,0,.11.07A5.58,5.58,0,0,1,56.7,67a9.71,9.71,0,0,1-.35,4.65,7.09,7.09,0,0,1-2.88,3.81,9.34,9.34,0,0,1-2.62,1.18l-.93.24v3.62c-.08,0-.87.13-1.56.2-.52,0-1,.09-1.09.08V77.21l-2.49.26V81l-1.14.12-1.51.16v-3.6l-4.93.51V74.68l.19,0,1.75-.18a.89.89,0,0,0,.77-.64A1.76,1.76,0,0,0,40,73.5a.75.75,0,0,0,0-.15L40,57a2.09,2.09,0,0,0,0-.25.72.72,0,0,0-.82-.68l-.58,0c-.38,0-.77.09-1.16.12l-.22,0V52.67l.48-.06.19,0H38l.16,0,.33,0,.65-.06,1-.1,1-.1,1-.11V48.58l2.63-.27c0,.4,0,.79,0,1.18s0,.79,0,1.18v1.2l2.49-.26M47,39.37C34.24,40.68,24,53,24,66.82s10.35,24,23.07,22.7,23-13.6,23-27.45S59.67,38.06,47,39.37"/><path class="cls-11" d="M45,72.75l-.18,0,0-6.29.16,0,2-.22,1.28-.12a8.6,8.6,0,0,1,2.21,0,2.6,2.6,0,0,1,.89.3,1.71,1.71,0,0,1,.84,1.11,5.07,5.07,0,0,1,.08,2.23,2.71,2.71,0,0,1-1.4,1.92,4.68,4.68,0,0,1-1.6.55c-.51.08-1,.14-1.55.2L45,72.75m0-11-.21,0V56.52l.18,0,1-.1,2-.2a6.94,6.94,0,0,1,1.88,0,1.92,1.92,0,0,1,1.13.53,1.8,1.8,0,0,1,.41,1,4.56,4.56,0,0,1-.09,1.87,1.84,1.84,0,0,1-.8,1.12,4,4,0,0,1-1.22.5,8,8,0,0,1-1.37.23l-3,.31M42.08,48.58v3.57l-1,.11-1,.1-1,.1-.65.06-.33,0-.16,0h-.15l-.19,0-.48.06v3.56l.22,0c.39,0,.78-.08,1.16-.12l.58,0a.72.72,0,0,1,.82.68A2.09,2.09,0,0,1,40,57l0,16.39a.75.75,0,0,1,0,.15,1.76,1.76,0,0,1-.07.33.89.89,0,0,1-.77.64l-1.75.18-.19,0v3.55l4.93-.51v3.6l1.51-.16L44.79,81V77.47l2.49-.26v3.55c.11,0,.57,0,1.09-.08.69-.07,1.48-.17,1.56-.2V76.86l.93-.24a9.34,9.34,0,0,0,2.62-1.18,7.09,7.09,0,0,0,2.88-3.81A9.71,9.71,0,0,0,56.7,67,5.58,5.58,0,0,0,54,62.86l-.11-.07,0,0,.16-.17a6.67,6.67,0,0,0,1.54-2.91,8.24,8.24,0,0,0,.18-2.88,5.48,5.48,0,0,0-3.06-4.58,7.09,7.09,0,0,0-2.47-.67l-.35,0V48.4c0-.21,0-.41,0-.62l-2.64.27v3.56l-2.49.26v-1.2c0-.39,0-.78,0-1.18s0-.78,0-1.18l-2.63.27"/><path class="cls-9" d="M221.09,71.46c4.73-7,14.16-9.75,21.06-6.06a12.51,12.51,0,0,1,2.59,1.82l.23-.66L247,70h0c2.5,4.25,2.34,9.92-.93,14.79-4.74,7-14.17,9.75-21.07,6.06A12.24,12.24,0,0,1,220,86h0l-1.73-2.94h.55A14.41,14.41,0,0,1,221.09,71.46Z"/><path class="cls-10" d="M230.85,75.47l-1.12-.59-.09,0L227.49,78l.1,0,1.5.8.86.43a3,3,0,0,0,1,.27,1.7,1.7,0,0,0,1.37-.5,3.14,3.14,0,0,0,.72-1.16,1,1,0,0,0,0-.85,1.52,1.52,0,0,0-.35-.46,5,5,0,0,0-1.1-.77l-.69-.38m2.85-5.35-.55-.29-.11,0-1.8,2.68.12.06,1.61.85a5.51,5.51,0,0,0,.78.36,2.84,2.84,0,0,0,.79.16,1.15,1.15,0,0,0,.79-.3,2.72,2.72,0,0,0,.68-.91,1.12,1.12,0,0,0,.13-.64,1.21,1.21,0,0,0-.39-.66,4.81,4.81,0,0,0-.94-.66l-1.11-.6m2.28-2,1.21-1.8,1.44.76-.21.32-.21.3L238,68l-.21.32-.21.31-.22.32.17.14a4.43,4.43,0,0,1,1,1.18,3.33,3.33,0,0,1,0,3.37,4.88,4.88,0,0,1-1.07,1.41,4.09,4.09,0,0,1-1.78.94l-.14,0h0l0,.08a3.43,3.43,0,0,1,0,3,5.92,5.92,0,0,1-1.77,2.24,4.37,4.37,0,0,1-2.77,1,5.56,5.56,0,0,1-1.73-.3l-.56-.2-1.23,1.84c-.06,0-.49-.23-.87-.43S226.07,83,226,83l1.22-1.81-1.35-.72-1.22,1.82-.62-.33-.82-.44,1.23-1.82-2.68-1.43L223,76.41l.11,0,1,.51a.55.55,0,0,0,.61-.06,1,1,0,0,0,.15-.14.56.56,0,0,1,.05-.08l5.6-8.33.08-.13a.45.45,0,0,0-.18-.63l-.32-.17-.63-.33-.12-.07,1.22-1.8.26.13.11.06.08,0,.08.05.18.09.36.19.52.28.54.29.55.29,1.22-1.81,1.43.76c-.13.21-.27.4-.4.61l-.4.59-.41.61,1.35.72m4.06-6.3c-6.9-3.69-16.33-1-21.06,6.06s-3,15.74,3.93,19.43,16.33,1,21.06-6.07,3-15.73-3.93-19.42"/><path class="cls-11" d="M227.59,78.09l-.1,0,2.15-3.2.09,0,1.12.59.69.38a5,5,0,0,1,1.1.77,1.52,1.52,0,0,1,.35.46,1,1,0,0,1,0,.85,3.14,3.14,0,0,1-.72,1.16,1.7,1.7,0,0,1-1.37.5,3,3,0,0,1-1-.27l-.86-.43-1.5-.8m3.77-5.57-.12-.06,1.8-2.68.11,0,.55.29,1.11.6a4.81,4.81,0,0,1,.94.66,1.21,1.21,0,0,1,.39.66,1.12,1.12,0,0,1-.13.64,2.72,2.72,0,0,1-.68.91,1.15,1.15,0,0,1-.79.3,2.84,2.84,0,0,1-.79-.16,5.51,5.51,0,0,1-.78-.36l-1.61-.85m3-7.68-1.22,1.81-.55-.29-.54-.29-.52-.28-.36-.19-.18-.09-.08-.05-.08,0-.11-.06-.26-.13L229.29,67l.12.07.63.33.32.17a.45.45,0,0,1,.18.63l-.08.13-5.6,8.33a.56.56,0,0,0-.05.08,1,1,0,0,1-.15.14.55.55,0,0,1-.61.06l-1-.51-.11,0-1.21,1.81,2.68,1.43-1.23,1.82.82.44.62.33,1.22-1.82,1.35.72L226,83s.3.18.58.33.81.42.87.43l1.23-1.84.56.2a5.56,5.56,0,0,0,1.73.3,4.37,4.37,0,0,0,2.77-1,5.92,5.92,0,0,0,1.77-2.24,3.43,3.43,0,0,0,0-3l0-.08h0l.14,0a4.09,4.09,0,0,0,1.78-.94,4.88,4.88,0,0,0,1.07-1.41,3.33,3.33,0,0,0,0-3.37,4.43,4.43,0,0,0-1-1.18l-.17-.14.22-.32.21-.31L238,68l.21-.32.21-.3.21-.32-1.44-.76L236,68.13l-1.35-.72.41-.61.4-.59c.13-.21.27-.4.4-.61l-1.43-.76"/><path class="cls-1" d="M236.1,129.09h0a4.52,4.52,0,0,1-7.26,0h0a3.49,3.49,0,0,0-4.13-1.19,20,20,0,0,0-4.69,2.7,3.53,3.53,0,0,0-1.11,4.23,4.51,4.51,0,0,1-3.64,6.29,3.55,3.55,0,0,0-2.09,1,3.66,3.66,0,0,0-1,2.09,20.74,20.74,0,0,0,0,5.3,3.55,3.55,0,0,0,3.11,3.09,4.51,4.51,0,0,1,3.64,6.29,3.54,3.54,0,0,0,1.11,4.24,20.33,20.33,0,0,0,4.69,2.69,3.49,3.49,0,0,0,4.13-1.19h0a4.5,4.5,0,0,1,7.26,0h0a3.49,3.49,0,0,0,4.13,1.19,20.55,20.55,0,0,0,4.69-2.69,3.54,3.54,0,0,0,1.11-4.24,4.51,4.51,0,0,1,3.63-6.29h0a3.55,3.55,0,0,0,3.11-3.09,20.74,20.74,0,0,0,0-5.3,3.55,3.55,0,0,0-3.11-3.09h0a4.51,4.51,0,0,1-3.63-6.29,3.53,3.53,0,0,0-1.11-4.23,20.22,20.22,0,0,0-4.69-2.7A3.49,3.49,0,0,0,236.1,129.09Zm4,17.77a7.65,7.65,0,1,1-7.64-7.64A7.65,7.65,0,0,1,240.11,146.86Z"/></g></g></svg>