<svg width="500" height="500" viewBox="0 0 500 500" fill="none" xmlns="http://www.w3.org/2000/svg">
<path d="M246.861 353.461C259.664 353.461 270.04 361.984 270.04 372.502V459.814C270.04 470.332 259.664 478.858 246.861 478.858C234.058 478.858 223.68 470.332 223.68 459.814V372.502C223.68 361.984 234.058 353.461 246.861 353.461Z" fill="white"/>
<path d="M297.353 249.402C297.353 277.443 274.638 300.174 246.62 300.174C218.602 300.174 195.886 277.443 195.886 249.402C195.886 221.361 218.6 198.632 246.62 198.632C274.641 198.632 297.353 221.363 297.353 249.402Z" fill="#FF7C2B"/>
<path fill-rule="evenodd" clip-rule="evenodd" d="M54.9971 188.457C80.8269 107.125 156.893 48.2031 246.709 48.2031C357.79 48.2031 447.84 138.33 447.84 249.513C447.84 360.695 357.79 450.82 246.709 450.82C157.503 450.82 81.8588 392.693 55.5286 312.216H7.42253C35.1604 418.549 131.779 497.021 246.709 497.021C383.284 497.021 494 386.208 494 249.513C494 112.818 383.284 2 246.709 2C131.186 2 34.1642 81.287 7 188.457H54.9971Z" fill="white"/>
<path fill-rule="evenodd" clip-rule="evenodd" d="M154.411 249.551C154.411 198.545 195.748 157.198 246.738 157.198C274.347 157.198 299.125 169.32 316.044 188.533H371.104C348.548 142.621 301.331 111.024 246.738 111.024C170.254 111.024 108.249 173.043 108.249 249.551C108.249 326.058 170.254 388.078 246.738 388.078C300.675 388.078 347.411 357.233 370.279 312.218H314.556C297.689 330.471 273.549 341.901 246.738 341.901C195.748 341.901 154.411 300.554 154.411 249.551Z" fill="white"/>
</svg>
