<svg width="267" height="197" viewBox="0 0 267 197" fill="none" xmlns="http://www.w3.org/2000/svg">
<path d="M113.3 2.20004C111.7 4.30004 108.6 4.30004 107 2.20004C106.2 1.10004 104.7 0.600037 103.4 1.20004C101.9 1.80004 100.6 2.60004 99.4 3.50004C98.3 4.40004 97.9 5.90004 98.4 7.20004C99.5 9.60004 97.9 12.3 95.3 12.6C94.6 12.7 94 13 93.5 13.5C93 14 92.7 14.6 92.6 15.3C92.5 16 92.5 16.8 92.5 17.6C92.5 18.4 92.5 19.1 92.6 19.9C92.8 21.3 93.9 22.4 95.3 22.6C97.9 22.9 99.5 25.6 98.4 28C97.8 29.3 98.2 30.8 99.4 31.7C100.6 32.6 102 33.4 103.4 34C104.7 34.5 106.1 34.1 107 33C108.6 30.9 111.7 30.9 113.3 33C114.1 34.1 115.6 34.6 116.9 34C118.4 33.4 119.7 32.6 120.9 31.7C122 30.8 122.4 29.3 121.9 28C120.8 25.6 122.4 22.9 125 22.6C126.4 22.4 127.5 21.3 127.7 19.9C127.8 19.2 127.8 18.4 127.8 17.6C127.8 16.8 127.7 16.1 127.7 15.3C127.5 13.9 126.4 12.8 125 12.6C122.4 12.3 120.8 9.60004 121.9 7.20004C122.5 5.90004 122.1 4.40004 120.9 3.50004C119.7 2.60004 118.3 1.80004 116.9 1.20004C115.6 0.600037 114.1 1.10004 113.3 2.20004ZM116.7 17.5C116.7 21.1 113.7 24.1 110.1 24.1C106.5 24.1 103.5 21.1 103.5 17.5C103.5 13.9 106.5 10.9 110.1 10.9C113.8 10.9 116.7 13.8 116.7 17.5Z" fill="#EAE6EF"/>
<path d="M109.6 21.4001C109.6 21.0001 109.6 20.6001 109.6 20.2001C109.4 20.1001 109.3 20.1001 109.1 20.0001C108.1 19.6001 107.6 18.9001 107.4 17.9001C107.2 16.7001 107.9 15.3001 109.2 14.9001C110.2 14.6001 111.1 14.8001 111.9 15.5001C112.1 15.7001 112.3 16.0001 112.5 16.3001C112.6 16.6001 112.5 16.8001 112.3 16.9001C112.1 17.0001 111.8 16.9001 111.7 16.7001C111.4 16.0001 110.8 15.7001 110 15.7001C109.2 15.7001 108.5 16.3001 108.3 17.1001C108.1 18.1001 108.9 19.3001 110.1 19.2001C110.7 19.2001 111.2 18.9001 111.5 18.4001L111.6 18.3001C111.8 18.1001 112 18.0001 112.2 18.2001C112.4 18.3001 112.5 18.6001 112.4 18.8001C112.2 19.1001 112 19.3001 111.8 19.5001C111.5 19.8001 111.1 19.9001 110.7 20.0001C110.6 20.0001 110.6 20.0001 110.5 20.1001C110.5 20.5001 110.5 20.9001 110.5 21.3001C110.7 21.3001 110.8 21.3001 111 21.2001C112.6 20.8001 113.6 19.8001 113.9 18.2001C114.4 15.9001 112.8 13.9001 110.7 13.6001C108.7 13.3001 106.9 14.5001 106.3 16.4001C106.3 16.5001 106.3 16.5001 106.3 16.6001C106.2 16.8001 106 17.0001 105.8 16.9001C105.5 16.8001 105.4 16.6001 105.5 16.3001C106 14.4001 107.3 13.1001 109.2 12.7001C111.1 12.3001 112.7 12.9001 114 14.5001C114.5 15.1001 114.8 15.9001 115 16.7001C115.3 19.0001 114 21.2001 111.8 22.0001C109.6 22.8001 107.1 21.9001 105.9 19.8001C105.8 19.6001 105.7 19.4001 105.6 19.3001C105.5 19.1001 105.6 18.9001 105.8 18.7001C106 18.5001 106.3 18.6001 106.5 18.9001C106.5 19.0001 106.6 19.1001 106.6 19.2001C107.2 20.4001 108.1 21.1001 109.4 21.4001C109.5 21.4001 109.5 21.4001 109.6 21.4001Z" fill="#2B3AC9"/>
<path d="M117.7 14.7002C117.8 14.7002 117.9 14.7002 117.9 14.7002C118.5 14.7002 119.2 14.7002 119.8 14.7002C120.2 14.7002 120.6 14.8002 120.9 14.8002C121.3 14.9002 121.6 15.1002 121.8 15.4002C122 15.7002 122.1 16.1002 122.1 16.4002C122 17.3002 121.5 17.6002 120.8 17.6002C120.7 17.6002 120.7 17.6002 120.6 17.6002C120.8 17.6002 121.1 17.7002 121.3 17.7002C121.9 17.8002 122.3 18.3002 122.4 18.9002C122.4 19.3002 122.4 19.7002 122.1 20.1002C121.9 20.3002 121.7 20.5002 121.4 20.6002C121 20.7002 120.7 20.8002 120.3 20.8002C119.5 20.8002 118.7 20.8002 117.9 20.8002C117.8 20.8002 117.8 20.8002 117.7 20.8002C117.7 18.8002 117.7 16.8002 117.7 14.7002ZM118.4 18.0002C118.4 18.7002 118.4 19.5002 118.4 20.2002C118.5 20.2002 118.5 20.2002 118.5 20.2002C119.1 20.2002 119.6 20.2002 120.2 20.2002C120.4 20.2002 120.6 20.2002 120.8 20.1002C121.4 20.0002 121.7 19.7002 121.7 19.1002V19.0002C121.7 18.6002 121.5 18.4002 121.2 18.2002C121.1 18.1002 121 18.1002 120.8 18.1002C120.5 18.1002 120.2 18.0002 119.9 18.0002C119.5 18.0002 119 18.0002 118.6 18.0002C118.5 18.0002 118.5 18.0002 118.4 18.0002ZM118.4 17.4002C119.1 17.4002 119.7 17.4002 120.2 17.4002C120.4 17.4002 120.7 17.3002 120.9 17.3002C121.1 17.2002 121.3 17.0002 121.3 16.8002C121.3 16.6002 121.3 16.4002 121.3 16.2002C121.2 15.8002 121 15.6002 120.6 15.5002C120.3 15.5002 120.1 15.4002 119.8 15.4002C119.3 15.4002 118.9 15.4002 118.4 15.4002C118.4 15.4002 118.3 15.4002 118.2 15.4002C118.4 16.0002 118.4 16.7002 118.4 17.4002Z" fill="#2B3AC9"/>
<path d="M132.9 20.9C132.9 18.8 132.9 16.8 132.9 14.8C133 14.8 133.1 14.8 133.1 14.8C133.7 14.8 134.4 14.8 135 14.8C135.4 14.8 135.8 14.9 136.1 14.9C136.5 15 136.8 15.1 137 15.5C137.3 16 137.4 16.6 137.1 17.2C136.9 17.5 136.6 17.7 136.3 17.7C136.1 17.7 135.9 17.8 135.7 17.7C136 17.8 136.3 17.8 136.6 17.9C137.1 18.1 137.4 18.5 137.5 19C137.5 19.2 137.5 19.5 137.5 19.7C137.4 20.2 137.1 20.5 136.6 20.7C136.2 20.9 135.8 20.9 135.3 20.9C134.5 20.9 133.7 20.9 132.9 20.9C133 20.9 133 20.9 132.9 20.9ZM133.6 20.2C133.7 20.2 133.8 20.2 133.8 20.2C134.3 20.2 134.8 20.2 135.3 20.2C135.5 20.2 135.8 20.2 136 20.1C136.4 20 136.7 19.9 136.8 19.4C136.8 19.3 136.8 19.1 136.8 19C136.8 18.4 136.5 18.1 135.9 18C135.6 17.9 135.3 17.9 134.9 17.9C134.5 17.9 134 17.9 133.6 17.9C133.5 17.9 133.5 17.9 133.4 17.9C133.6 18.7 133.6 19.5 133.6 20.2ZM133.6 17.4C134.4 17.4 135.1 17.5 135.8 17.3C136.2 17.2 136.5 17.1 136.6 16.6C136.7 16 136.5 15.6 135.9 15.4C135.8 15.4 135.7 15.4 135.6 15.3C134.9 15.2 134.2 15.3 133.5 15.3C133.6 16 133.6 16.7 133.6 17.4Z" fill="#2B3AC9"/>
<path d="M162 14.7002C162.4 14.7002 162.8 14.7002 163.2 14.7002C164.2 16.6002 165.201 18.5002 166.301 20.5002C166.301 18.6002 166.301 16.7002 166.301 14.8002C166.501 14.8002 166.8 14.8002 167 14.8002C167 16.8002 167 18.9002 167 20.9002C166.6 20.9002 166.1 20.9002 165.7 20.9002C164.7 19.0002 163.7 17.1002 162.7 15.2002C162.7 17.1002 162.7 19.0002 162.7 20.9002C162.5 20.9002 162.2 20.9002 162 20.9002C162 20.7002 162 15.0002 162 14.7002Z" fill="#2B3AC9"/>
<path d="M156.301 21C155.801 21 155.301 20.9 154.801 20.7C154.101 20.4 153.801 19.8 153.601 19.1C153.301 18.2 153.301 17.2 153.701 16.3C154.101 15.4 154.801 14.8 155.801 14.7C156.301 14.6 156.801 14.6 157.201 14.7C158.101 14.9 158.701 15.4 159.001 16.3C159.301 16.9 159.301 17.6 159.301 18.3C159.301 18.8 159.101 19.2 158.901 19.6C158.501 20.4 157.901 20.8 157.001 21C156.801 21 156.501 21 156.301 21ZM154.101 17.9C154.101 18.3 154.201 18.7 154.301 19.2C154.601 19.8 155.001 20.2 155.601 20.3C155.901 20.4 156.201 20.4 156.501 20.4C157.301 20.4 158.001 20 158.401 19C158.501 18.7 158.601 18.4 158.601 18C158.601 17.5 158.601 17 158.401 16.5C158.101 15.9 157.701 15.5 157.101 15.4C156.801 15.3 156.501 15.3 156.201 15.3C155.301 15.3 154.701 15.7 154.401 16.5C154.101 16.9 154.101 17.4 154.101 17.9Z" fill="#2B3AC9"/>
<path d="M130.201 20.9002C129.901 20.9002 129.701 20.9002 129.401 20.9002C129.201 20.3002 129.001 19.6002 128.701 19.0002C127.801 19.0002 127.001 19.0002 126.101 19.0002C125.901 19.6002 125.701 20.3002 125.401 20.9002C125.101 20.9002 124.901 20.9002 124.601 20.9002C125.301 18.8002 126.001 16.8002 126.701 14.7002C126.901 14.7002 127.101 14.7002 127.301 14.7002C127.501 14.7002 127.701 14.7002 127.901 14.7002C128.801 16.7002 129.501 18.8002 130.201 20.9002ZM128.601 18.3002C128.201 17.2002 127.901 16.2002 127.501 15.0002C127.101 16.1002 126.801 17.2002 126.401 18.3002C127.101 18.3002 127.901 18.3002 128.601 18.3002Z" fill="#2B3AC9"/>
<path d="M142.101 17.9002C142.701 16.8002 143.201 15.7002 143.701 14.7002C144.001 14.7002 144.201 14.7002 144.501 14.7002C144.501 14.8002 144.501 14.8002 144.401 14.9002C143.801 16.1002 143.201 17.2002 142.501 18.4002C142.401 18.6002 142.401 18.7002 142.401 18.9002C142.401 19.5002 142.401 20.0002 142.401 20.6002C142.401 20.7002 142.401 20.8002 142.401 20.9002C142.201 20.9002 141.901 20.9002 141.701 20.9002V20.8002C141.701 20.2002 141.701 19.5002 141.701 18.9002C141.701 18.8002 141.701 18.7002 141.601 18.5002C141.001 17.5002 140.501 16.4002 139.901 15.4002C139.801 15.2002 139.701 15.0002 139.601 14.8002C139.901 14.8002 140.101 14.8002 140.401 14.8002C141.001 15.8002 141.501 16.8002 142.101 17.9002Z" fill="#2B3AC9"/>
<path d="M147.101 14.7002C147.301 14.7002 147.501 14.7002 147.801 14.7002C147.801 14.9002 147.801 15.2002 147.801 15.4002C147.801 15.6002 147.801 15.8002 147.801 16.1002C147.801 16.3002 147.801 16.6002 147.801 16.8002C147.801 17.0002 147.801 17.3002 147.801 17.5002C147.801 17.7002 147.801 17.9002 147.801 18.2002C147.801 18.4002 147.801 18.7002 147.801 18.9002C147.801 19.1002 147.801 19.3002 147.801 19.6002C147.801 19.8002 147.801 20.1002 147.801 20.3002C148.901 20.3002 150.001 20.3002 151.101 20.3002C151.101 20.5002 151.101 20.7002 151.101 20.9002C149.801 20.9002 148.401 20.9002 147.101 20.9002C147.101 18.8002 147.101 16.8002 147.101 14.7002Z" fill="#2B3AC9"/>
<path d="M111 17.4C111 17.9 110.6 18.3 110.1 18.3C109.6 18.3 109.2 17.9 109.2 17.4C109.2 16.9 109.6 16.5 110.1 16.5C110.7 16.5 111.1 17 111 17.4Z" fill="#2B3AC9"/>
<path d="M220.96 175.671H229.36V118.371H220.96V175.671Z" fill="#BCB5C6"/>
<path d="M207.5 179.1H242.7C244.2 179.1 245.3 177.9 245.3 176.5C245.3 175 244.1 173.9 242.7 173.9H207.5C206 173.9 204.9 175.1 204.9 176.5C204.8 177.9 206 179.1 207.5 179.1Z" fill="#BCB5C6"/>
<path d="M243.7 188.8C246.848 188.8 249.4 186.248 249.4 183.1C249.4 179.952 246.848 177.4 243.7 177.4C240.552 177.4 238 179.952 238 183.1C238 186.248 240.552 188.8 243.7 188.8Z" fill="#BCB5C6"/>
<path d="M225.2 188.8C228.348 188.8 230.9 186.248 230.9 183.1C230.9 179.952 228.348 177.4 225.2 177.4C222.052 177.4 219.5 179.952 219.5 183.1C219.5 186.248 222.052 188.8 225.2 188.8Z" fill="#BCB5C6"/>
<path d="M206.8 188.8C209.948 188.8 212.5 186.248 212.5 183.1C212.5 179.952 209.948 177.4 206.8 177.4C203.652 177.4 201.1 179.952 201.1 183.1C201.1 186.248 203.652 188.8 206.8 188.8Z" fill="#BCB5C6"/>
<path d="M183.8 35.1001C183.8 35.1001 182.7 30.2001 180.1 27.9001C177.5 25.7001 174.3 24.2001 174.9 26.2001C175.4 28.2001 177.3 31.5001 177.3 31.5001L172.5 30.2001C172.5 30.2001 169.4 28.8001 167.1 28.1001C164.8 27.5001 164.1 29.2001 164.1 29.2001C164.1 29.2001 161.8 28.6001 160.8 29.3001C159.8 30.0001 160.5 31.4001 160.5 31.4001C160.5 31.4001 157.2 31.5001 158.5 34.0001C159.7 36.5001 166.2 40.7001 169.3 42.1001C172.4 43.5001 179.4 44.5001 179.4 44.5001C179.4 44.5001 185.7 45.9001 183.8 35.1001Z" fill="#FF988A"/>
<path d="M166.3 36.3C166.2 36.3 166.1 36.2 166 36.1C165.9 35.9 166 35.7 166.1 35.7L174.4 31.3C174.6 31.2 174.8 31.3 174.8 31.4C174.9 31.6 174.8 31.8 174.7 31.8L166.4 36.2C166.4 36.2 166.3 36.3 166.3 36.3Z" fill="#F27466"/>
<path d="M182.4 38.9001C179.6 38.2001 177.9 37.0001 177.1 35.4001C176.3 33.7001 177 32.1 177 32C177.1 31.8 177.3 31.8 177.4 31.8C177.6 31.9 177.6 32.1001 177.6 32.2001C177.6 32.2001 177 33.6 177.7 35.1C178.4 36.5 180 37.5001 182.5 38.2001C182.7 38.2001 182.8 38.4 182.7 38.6C182.7 38.8 182.6 38.9001 182.4 38.9001Z" fill="#F27466"/>
<path d="M182.6 159.2L181.5 173.1H203.2V159.2H182.6Z" fill="#F27466"/>
<path d="M146.7 120L137 130L153.8 143.7L162.6 133L146.7 120Z" fill="#F27466"/>
<path d="M247.4 60.8999C247.4 60.8999 269.8 68.8999 265.6 98.2999C261.7 125.3 234.3 133.9 211.1 127.5C187.9 121.2 191.8 102.9 191.8 102.9L247.4 60.8999Z" fill="#EAE6EF"/>
<path d="M245.9 106.2C246.3 109.2 238.9 112.5 229.4 113.7C219.9 114.9 211.9 113.4 211.5 110.5C211.1 107.5 218.5 104.2 228 103C237.5 101.8 245.6 103.3 245.9 106.2Z" fill="#D4D0D8"/>
<path d="M255.4 113.1C255.3 113.1 255.2 113.1 255.2 113C255.1 112.9 255.1 112.7 255.2 112.5C260.9 107.2 262.1 96.7 262.1 96.6C262.1 96.4 262.3 96.3 262.5 96.3C262.7 96.3 262.8 96.5 262.8 96.7C262.8 97.1 261.7 107.5 255.7 113C255.5 113 255.4 113.1 255.4 113.1Z" fill="white"/>
<path d="M177.9 125.7V163H208L213.7 111.6L189.7 108.9L177.9 125.7Z" fill="#0039D0"/>
<path d="M141.7 118.6C141.7 118.6 166.2 89.5001 181 84.9001C195.8 80.3001 241.7 81.8001 241.7 81.8001C241.7 81.8001 246.3 103.2 234 108.8C221.8 114.4 198.1 113.4 194.1 115.4C190.1 117.4 165.6 141.4 165.6 141.4L141.7 118.6Z" fill="#0039D0"/>
<path d="M189.6 53.2L184 40.7L172.8 41.0999C172.8 41.0999 168.5 72.6 182.2 79C193 84.1 202.8 72.3 202.8 72.3L189.6 53.2Z" fill="#FF988A"/>
<path d="M250.4 66.0999C250.4 66.0999 247.5 42.3999 235.9 39.5999C224.3 36.7999 212.7 38.6999 203.8 43.3999C197.3 46.8999 189.5 52.7999 189.5 52.7999L200.8 76.6999L204.2 74.9999V84.8999L239.2 84.5999L239.8 68.6999L250.4 66.0999Z" fill="#7CD2E0"/>
<path d="M178.8 129.2C178.7 129.2 178.6 129.2 178.6 129.1C178.5 129 178.5 128.8 178.6 128.6C179.1 128.1 190.3 116 194.1 115.1C197.8 114.3 212.8 112.9 213.4 112.9C213.6 112.9 213.7 113 213.7 113.2C213.7 113.4 213.6 113.5 213.4 113.5C213.2 113.5 197.9 114.9 194.2 115.7C190.6 116.5 179.1 128.9 179 129C179 129.2 178.9 129.2 178.8 129.2Z" fill="#00309B"/>
<path d="M194.2 115.8C194.1 115.8 194 115.7 193.9 115.7C193.2 114.7 190 109.5 191.9 108.2C192.3 108 192.6 108 192.8 108.1C194.2 108.8 194.4 114.4 194.5 115.5C194.5 115.6 194.4 115.8 194.2 115.8ZM192.5 108.7C192.5 108.7 192.4 108.7 192.3 108.8C191.4 109.4 192.5 112.1 193.8 114.3C193.6 111.8 193.2 109 192.5 108.7Z" fill="#00309B"/>
<path d="M172.8 135C172.7 135 172.6 135 172.6 134.9L149.6 111.8C149.5 111.7 149.5 111.5 149.6 111.3C149.7 111.2 149.9 111.2 150.1 111.3L173.1 134.4C173.2 134.5 173.2 134.7 173.1 134.9C172.9 135 172.8 135 172.8 135Z" fill="#00309B"/>
<path d="M208.1 155.9H179.8C179.6 155.9 179.5 155.8 179.5 155.6C179.5 155.4 179.6 155.3 179.8 155.3H208.1C208.3 155.3 208.4 155.4 208.4 155.6C208.4 155.8 208.2 155.9 208.1 155.9Z" fill="#00309B"/>
<path d="M227.2 70.9999C227.1 70.9999 226.9 70.8999 226.9 70.7999C226.6 69.7999 225.3 64.6999 226.3 63.6999C226.5 63.4999 226.7 63.3999 227 63.4999C228.8 63.8999 227.9 69.1999 227.6 70.7999C227.5 70.8999 227.4 70.9999 227.2 70.9999ZM226.8 64.0999C226.4 64.4999 226.6 66.7999 227.2 69.0999C227.5 66.5999 227.5 64.2999 226.8 64.0999Z" fill="#94E6FF"/>
<path d="M204.4 74.6001C204.2 74.6001 204.1 74.5001 204.1 74.3001V64.9001C204.1 64.7001 204.2 64.6001 204.4 64.6001C204.6 64.6001 204.7 64.7001 204.7 64.9001V74.3001C204.7 74.4001 204.5 74.6001 204.4 74.6001Z" fill="#94E6FF"/>
<path d="M86.5998 36.7C86.5998 36.7 87.6999 31.8 90.2999 29.5C92.8999 27.3 96.0998 25.8 95.4998 27.8C94.9998 29.8 93.0998 33.1 93.0998 33.1L97.8999 31.8C97.8999 31.8 101 30.4 103.3 29.7C105.6 29.1 106.3 30.8 106.3 30.8C106.3 30.8 108.6 30.2 109.6 30.9C110.6 31.6 109.9 33 109.9 33C109.9 33 113.2 33.1 111.9 35.6C110.7 38.1 104.2 42.3 101.1 43.7C97.9998 45.1 90.9998 46 90.9998 46C90.9998 46 84.6998 47.4 86.5998 36.7Z" fill="#FF988A"/>
<path d="M39.9001 17.5001C39.9001 17.5001 34.8001 16.7001 33.5001 21.3001C32.2001 25.9001 35.3001 29.0001 35.3001 29.0001C35.3001 29.0001 29.7 30.2001 28.7 36.4001C27.7 42.5001 36.9001 43.3001 36.9001 43.3001L59.7 39.6001C59.7 39.6001 62.1001 32.9001 57.8001 27.8001C53.5001 22.7001 39.9001 17.5001 39.9001 17.5001Z" fill="#0F131C"/>
<path d="M104.1 37.7999C104 37.7999 104 37.7999 103.9 37.7999L95.6002 33.3999C95.4002 33.2999 95.4003 33.0999 95.5003 32.9999C95.6003 32.7999 95.8003 32.7999 95.9003 32.8999L104.2 37.2999C104.4 37.3999 104.4 37.5999 104.3 37.6999C104.3 37.6999 104.2 37.7999 104.1 37.7999Z" fill="#F27466"/>
<path d="M88.0002 40.4999C87.9002 40.4999 87.7002 40.3999 87.7002 40.2999C87.7002 40.0999 87.8003 39.9999 87.9003 39.8999C90.4003 39.2999 92.0002 38.1999 92.7002 36.7999C93.4002 35.2999 92.8003 33.9999 92.8003 33.8999C92.7003 33.6999 92.8002 33.4999 93.0002 33.4999C93.2002 33.3999 93.4003 33.4999 93.4003 33.6999C93.4003 33.7999 94.2003 35.3999 93.3003 37.0999C92.5003 38.5999 90.8002 39.7999 88.0002 40.4999Z" fill="#F27466"/>
<path d="M80.8002 54.8L86.4001 42.3L97.6001 42.7001C97.6001 42.7001 101.9 74.2 88.2001 80.6C77.4001 85.7 67.6001 73.9001 67.6001 73.9001L80.8002 54.8Z" fill="#FF988A"/>
<path d="M40.7756 173.444H48.9756L48.9756 117.344H40.7756L40.7756 173.444Z" fill="#BCB5C6"/>
<path d="M21.9 49.7C21.9 49.7 3.39998 59.9999 6.59998 93.1999C9.49998 123.1 37.9 134.1 60.6 126.4C83.4 118.7 79.6 96.5 79.6 96.5L21.9 49.7Z" fill="#EAE6EF"/>
<path d="M79.8002 60L68.5001 40.5L59.6001 59.2L71.9001 70.4L79.8002 60Z" fill="#0039D0"/>
<path d="M27.4999 176.8H61.9999C63.3999 176.8 64.5999 175.6 64.5999 174.2C64.5999 172.8 63.3999 171.6 61.9999 171.6H27.4999C26.0999 171.6 24.8999 172.8 24.8999 174.2C24.9999 175.6 26.0999 176.8 27.4999 176.8Z" fill="#BCB5C6"/>
<path d="M57.5 180.8C57.5 183.9 60 186.4 63.1 186.4C66.2 186.4 68.7 183.9 68.7 180.8C68.7 177.7 66.2 175.2 63.1 175.2C60 175.2 57.5 177.7 57.5 180.8Z" fill="#BCB5C6"/>
<path d="M44.8998 186.4C47.9926 186.4 50.4998 183.893 50.4998 180.8C50.4998 177.707 47.9926 175.2 44.8998 175.2C41.807 175.2 39.2998 177.707 39.2998 180.8C39.2998 183.893 41.807 186.4 44.8998 186.4Z" fill="#BCB5C6"/>
<path d="M21.2998 180.8C21.2998 183.9 23.7998 186.4 26.8998 186.4C29.9998 186.4 32.4998 183.9 32.4998 180.8C32.4998 177.7 29.9998 175.2 26.8998 175.2C23.7998 175.2 21.2998 177.7 21.2998 180.8Z" fill="#BCB5C6"/>
<path d="M20.4998 112.6C20.3998 112.6 20.3998 112.6 20.2998 112.5C14.2998 107.4 11.8998 97.3 11.7998 96.9C11.7998 96.7 11.8998 96.6 11.9998 96.5C12.1998 96.5 12.2998 96.6 12.3998 96.7C12.3998 96.8 14.7997 107 20.6997 112C20.7997 112.1 20.8997 112.3 20.6997 112.5C20.6997 112.6 20.5998 112.6 20.4998 112.6Z" fill="white"/>
<path d="M52.7002 33.7C52.7002 33.7 64.2003 34.8 68.6003 40.5C72.9003 46.2 71.8003 83.4 71.5003 83.9C71.2003 84.4 58.5003 86.9 44.5003 86.6C30.5003 86.3 30.5003 85.5 30.1003 84.7C29.6003 83.9 28.9002 39.4 32.7002 36.5C35.9002 34.1 44.2002 32.7 52.7002 33.7Z" fill="#0039D0"/>
<path d="M68.0999 154V169.3L56.4999 173.7L49.0999 165.4L47.8999 151.3L68.0999 154Z" fill="#F27466"/>
<path d="M21.9999 104C21.5999 107 28.9999 110.3 38.4999 111.5C47.9999 112.7 55.9999 111.2 56.3999 108.3C56.7999 105.3 49.3999 102 39.8999 100.8C30.2999 99.6001 22.2999 101.1 21.9999 104Z" fill="#D4D0D8"/>
<path d="M89.8999 150.8V166.1L77.4999 170.5L69.6998 162.3L68.3999 148.1L89.8999 150.8Z" fill="#F27466"/>
<path d="M64.3003 79.8999C64.3003 79.8999 92.5002 94.9999 96.0002 101C99.5002 107.1 95.9003 156.4 95.9003 156.4L71.0002 156.6L67.4003 129L48.2002 82.3999L64.3003 79.8999Z" fill="#0C85E8"/>
<path d="M30.2 82.8999C30.2 82.8999 29.1 96.0999 29.6 100.5C30 104.9 43.1 115.2 43.1 115.2L44.0001 157.6L72.8001 159.1C72.8001 159.1 74.9001 109.2 74.4001 104.6C73.9001 99.9999 55.5001 83.7999 55.5001 83.7999L30.2 82.8999Z" fill="#22A6FF"/>
<path d="M45.1002 27.5L44.7002 35.2C44.7002 35.2 46.0002 37.5 50.5002 38.1C53.8002 38.5 55.1002 37.3 55.1002 37.3L54.7002 33.9L54.4003 30.1L46.3003 27.9L45.1002 27.5Z" fill="#FF988A"/>
<path d="M46.5 27.8999C46.5 28.0999 46.6 28.3999 46.7 28.6999C48.2 32.5999 52.9 33.6999 54.8 33.9999L54.5 30.1999L46.5 27.8999Z" fill="#F27466"/>
<path d="M57.0999 12.5999C57.0999 12.5999 60.7 22.4999 58.8 27.7999C56.9 33.0999 52.0999 31.8999 49.1999 30.6999C46.2999 29.4999 45.0999 27.5999 45.0999 27.5999C45.0999 27.5999 42.2999 28.3999 40.5999 25.6999C38.8999 22.9999 40.3 20.1999 41.9 19.5999C43.5 18.9999 45.3 20.2999 45.3 20.2999L44 17.3999C44 17.2999 51.0999 3.49992 57.0999 12.5999Z" fill="#FF988A"/>
<path d="M44.5998 24.6999C44.4998 24.6999 44.3998 24.6999 44.3998 24.5999L41.9998 21.5999C41.8998 21.4999 41.8998 21.2999 41.9998 21.0999C42.0998 20.9999 42.2998 20.9999 42.4998 21.0999L44.8998 24.0999C44.9998 24.1999 44.9998 24.3999 44.8998 24.5999C44.6998 24.5999 44.6998 24.6999 44.5998 24.6999Z" fill="#F27466"/>
<path d="M41.9001 23.7C41.7001 23.7 41.6001 23.6 41.6001 23.4C41.6001 23.2 41.7001 23.1 41.9001 23.1L43.7001 23C43.9001 23 44.0001 23.1 44.0001 23.3C44.0001 23.5 43.9001 23.6 43.7001 23.6L41.9001 23.7Z" fill="#F27466"/>
<path d="M66.2998 183.4C66.2998 183.4 66.7997 158.8 70.6997 159.3C74.4997 159.8 78.2998 163.4 78.2998 163.4C78.2998 163.4 86.9998 158.8 90.8998 161.4C94.6998 164 96.8998 169.6 96.8998 169.6L118.2 183.4C118.2 183.4 120.8 187.5 120 189.5C119.4 191.1 87.0998 190.2 72.8998 189.7C69.1998 189.6 66.2998 186.8 66.2998 183.4Z" fill="#00309B"/>
<path d="M77.3 177.4C77.3 177.4 72 164.3 68.5 162.1C65.1 159.8 56.4 167 56.4 167C56.4 167 49.2 159.4 47.4 163.4C45.6 167.4 44.7999 181.7 46.0999 184.8C47.3999 188 57.3 193.2 70.3 193.2C76.4 193.2 85.3 191.3 85.3 189.2C85.4 185.8 79.4 179.6 77.3 177.4Z" fill="#0039D0"/>
<path d="M72.9003 155.5C72.7003 155.5 72.6002 155.3 72.6002 155.2C72.6002 154.7 75.1002 109.9 74.0002 104.7C73.2002 101.1 61.9003 90 61.8003 89.8C61.7003 89.7 61.7002 89.6 61.7002 89.5C61.7002 89.4 61.8002 89.3 62.0002 89.3L70.2002 88C70.4002 88 70.5002 88.1 70.6002 88.3C70.6002 88.5 70.5003 88.6 70.3003 88.7L62.7002 89.9C64.9002 92.1 74.0002 101.3 74.7002 104.6C75.8002 109.9 73.4003 153.4 73.3003 155.3C73.2003 155.4 73.1003 155.5 72.9003 155.5Z" fill="#0039D0"/>
<path d="M50.9001 77.5999C50.9001 77.5999 57.7 81.2999 59.1 81.2999C60.5 81.2999 68.0001 80.9999 68.3001 79.8999L64.5 76.7999C64.5 76.7999 67.2 78.2999 69.2 77.5999C71.2 76.7999 73.8001 75.0999 74.4001 73.5999C75.0001 72.0999 72.8001 72.1999 72.8001 72.1999C72.8001 72.1999 77.4001 71.2999 74.4001 69.5999C71.4001 67.8999 56.0001 63.9999 49.9001 66.8999C43.7001 69.6999 50.9001 77.5999 50.9001 77.5999Z" fill="#FF988A"/>
<path d="M43.0002 115.5H42.9003C42.8003 115.4 42.7002 115.3 42.7002 115.2C42.7002 114.2 43.0002 109.2 44.7002 108.7C45.2002 108.5 45.7003 108.7 46.3003 109.4C47.4003 110.6 44.3003 114.4 43.3003 115.5C43.2003 115.4 43.1002 115.5 43.0002 115.5ZM45.0002 109.2H44.9003C44.1003 109.5 43.6003 112 43.4003 114.2C45.0003 112.3 46.2003 110.2 45.8003 109.7C45.6003 109.5 45.3002 109.2 45.0002 109.2Z" fill="#0039D0"/>
<path d="M37.1998 34.6001C37.1998 34.6001 28.5999 36.5001 22.7999 46.3001C16.6999 56.7001 17.3999 66.7001 17.3999 66.7001L36.2999 64.9001L37.1998 34.6001Z" fill="#0039D0"/>
<path d="M18.6999 66.5001C18.6999 66.5001 16.6 75.9001 22.8 80.4001C28.8 84.7001 51.8 77.7001 51.8 77.7001L51.9 66.5001L35.0999 65.1001L18.6999 66.5001Z" fill="#FF988A"/>
<path d="M36.1998 65.2C35.9998 65.2 35.8999 65 35.8999 64.9L36.0999 59.6C36.0999 59.4 36.2999 59.2 36.3999 59.3C36.5999 59.3 36.6998 59.5 36.6998 59.6L36.4999 64.9C36.4999 65.1 36.2998 65.2 36.1998 65.2Z" fill="#00309B"/>
<path d="M64.7 177.7C64.6 177.7 64.4 177.6 64.4 177.5C64.4 177.3 64.5 177.2 64.6 177.1L69.8 175.8L61.3 174.6C61.1 174.6 61 174.5 61 174.3C61 174.1 61.1 174 61.2 174L71.3 171.3C71.5 171.3 71.6 171.4 71.7 171.5C71.7 171.7 71.6 171.8 71.5 171.9L62.9 174.2L71.5 175.4C71.7 175.4 71.8 175.5 71.8 175.7C71.8 175.9 71.7 176 71.6 176L64.7 177.7Z" fill="#0C85E8"/>
<path d="M98.0999 177.1C97.9999 177.1 97.9 177 97.8 176.9C97.7 176.8 97.7 176.7 97.8 176.5L99.8 173.6L90.8 174.5C90.6 174.5 90.4999 174.4 90.4999 174.3C90.3999 174.2 90.4999 174 90.5999 173.9L96.6999 169.1C96.7999 169 96.9999 169 97.1999 169.2C97.2999 169.3 97.2999 169.5 97.0999 169.7L91.8999 173.8L100.5 172.9C100.6 172.9 100.7 172.9 100.8 173.1C100.9 173.2 100.9 173.3 100.8 173.4L98.8 176.3L105.5 175.2C105.7 175.2 105.8 175.3 105.9 175.5C105.9 175.7 105.8 175.8 105.6 175.9L98.0999 177.1C98.1999 177.1 98.1999 177.1 98.0999 177.1Z" fill="#0C85E8"/>
<path d="M72.8003 72.5H72.7002C69.6002 71 66.0002 71.1 66.0002 71.1C65.9002 71.1 65.7002 71 65.7002 70.8C65.7002 70.6 65.8002 70.5 66.0002 70.5C66.1002 70.5 69.7002 70.4 73.0002 72C73.2002 72.1 73.2002 72.3 73.2002 72.4C73.0002 72.4 72.9003 72.5 72.8003 72.5Z" fill="#F27466"/>
<path d="M44.8 33C44.8 33 43.8999 33 43.6999 33.5C43.4999 34 45 44.6 47.5 46.1C50 47.5 53.9 39.5 54 39.7C54.1 39.9 58.1999 44.5 58.6999 44.5C59.1999 44.5 58.0999 39.9 57.0999 37.5C56.2999 35.5 54.8 33.9 54.8 33.9C54.8 33.9 54.9 36.3 54.8 36.7C54.7 37.1 52.1 38.6 49.3 37.5C45.2 35.9 44.8 33 44.8 33Z" fill="#0C85E8"/>
<path d="M45.3001 20.2L47 22.5L46.1 19.4C46.1 19.4 47.5 19.5 49.5 17.6C51.5 15.7 52.3001 13.7 52.3001 13.7C52.3001 13.7 53.3 14.6 54.7 14.4C56.1 14.2 57 12.6 57 12.6L58 15.8C58 15.8 59 11.2 58 9.50002C57 7.80002 55.6 8.10002 55.6 8.10002C55.6 8.10002 55.6001 6.50002 52.8001 6.20002C50.0001 5.90002 48.8001 8.30002 48.8001 8.30002C48.8001 8.30002 47.3001 6.90002 44.4001 8.30002C41.5001 9.70002 41.7 12.8 41.7 12.8C41.7 12.8 38.8 13.7 38.5 16C38.2 18.3 40 21.5 40 21.5C40 21.5 41.4001 18.5 45.3001 20.2Z" fill="#0F131C"/>
<path d="M122.4 82H134.5V62.2999C134.5 58.8999 131.8 56.2 128.4 56.2C125 56.2 122.3 58.8999 122.3 62.2999V82H122.4Z" fill="#EAE6EF"/>
<path d="M126.18 58.9634H130.78V52.1634H126.18V58.9634Z" fill="#EAE6EF"/>
<path d="M125.7 53H131.3C132.2 53 132.9 52.3001 132.9 51.4001C132.9 50.5001 132.2 49.8 131.3 49.8H125.7C124.8 49.8 124.1 50.5001 124.1 51.4001C124 52.3001 124.8 53 125.7 53Z" fill="#DCD7E0"/>
<path d="M132.9 72.6C132.7 72.6 132.6 72.5 132.6 72.3V61.3C132.6 61.1 132.7 61 132.9 61C133.1 61 133.2 61.1 133.2 61.3V72.3C133.3 72.4 133.1 72.6 132.9 72.6Z" fill="white"/>
<path d="M66 79.1H102.8L113.3 55.3H78C77.1 55.3 76.3 55.8 76 56.6L66 79.1Z" fill="#0C85E8"/>
<path d="M69.2002 79.1H106L115.4 57.9001C115.9 56.7001 115.1 55.3 113.7 55.3H79.7002L69.2002 79.1Z" fill="#22A6FF"/>
<path d="M53.7002 82.1001H105.6C106.4 82.1001 107.1 81.4001 107.1 80.6001C107.1 79.8001 106.4 79.1001 105.6 79.1001H53.7002C52.9002 79.1001 52.2002 79.8001 52.2002 80.6001C52.2002 81.4001 52.9002 82.1001 53.7002 82.1001Z" fill="#0C85E8"/>
<path d="M92.4003 70.3001C94.1124 70.3001 95.5002 68.9122 95.5002 67.2001C95.5002 65.488 94.1124 64.1001 92.4003 64.1001C90.6882 64.1001 89.3003 65.488 89.3003 67.2001C89.3003 68.9122 90.6882 70.3001 92.4003 70.3001Z" fill="#94E6FF"/>
<path d="M194.1 79.1H157.3L146.8 55.3H182.1C183 55.3 183.8 55.8 184.1 56.6L194.1 79.1Z" fill="#00309B"/>
<path d="M190.9 79.1H154.1L144.7 57.9001C144.2 56.7001 145 55.3 146.4 55.3H180.4L190.9 79.1Z" fill="#0039D0"/>
<path d="M170.9 67.3001C170.9 69.0001 169.5 70.4001 167.8 70.4001C166.1 70.4001 164.7 69.0001 164.7 67.3001C164.7 65.6001 166.1 64.2001 167.8 64.2001C169.5 64.1001 170.9 65.5001 170.9 67.3001Z" fill="#94E6FF"/>
<path d="M206.4 82.1001H154.5C153.7 82.1001 153 81.4001 153 80.6001C153 79.8001 153.7 79.1001 154.5 79.1001H206.4C207.2 79.1001 207.9 79.8001 207.9 80.6001C207.9 81.4001 207.3 82.1001 206.4 82.1001Z" fill="#00309B"/>
<path d="M233.2 196.8H233.1C231.8 196.8 230.8 195.8 230.8 194.5V84.5H235.6V194.5C235.5 195.7 234.5 196.8 233.2 196.8Z" fill="#DCD7E0"/>
<path d="M246.8 88.4999H22.3C20.5 88.4999 19 86.9999 19 85.1999C19 83.3999 20.5 81.8999 22.3 81.8999H246.8C248.6 81.8999 250.1 83.3999 250.1 85.1999C250.1 86.9999 248.6 88.4999 246.8 88.4999Z" fill="#DCD7E0"/>
<path d="M35.4 196.1H35.3C34 196.1 33 195.1 33 193.8V83.8H37.8V193.8C37.7 195.1 36.7 196.1 35.4 196.1Z" fill="#DCD7E0"/>
<path d="M200 189.7C201.5 189.7 202.7 188.5 202.8 187C203.1 181 204.7 167.7 203.5 167.6C202 167.5 187.1 170.5 187.1 170.5C187.1 170.5 187.2 162.2 181 163.3C176.3 164.2 170.5 169.1 168.1 171.4C167.3 172.1 166.4 172.6 165.4 172.8C161 173.6 148.8 176.3 148.3 182.3C147.7 189.7 150.9 189.1 152.3 189.1C153.7 189.3 189.8 189.6 200 189.7Z" fill="#1B2335"/>
<path d="M148.3 185.3C148.1 185.3 148 185.2 148 185C148 184.8 148.1 184.7 148.3 184.7L203 184.2C203.2 184.2 203.3 184.3 203.3 184.5C203.3 184.7 203.2 184.8 203 184.8L148.3 185.3Z" fill="#BCB5C6"/>
<path d="M140.6 153.9C141.7 154.9 143.4 154.8 144.5 153.8C148.7 149.5 158.7 140.6 157.9 139.7C156.9 138.7 143.7 131 143.7 131C143.7 131 149.3 124.8 143.9 121.6C139.8 119.1 132.2 119 128.9 119.1C127.9 119.1 126.8 118.9 125.9 118.3C122.1 116 111.2 109.9 106.8 114.1C101.4 119.2 104.2 120.9 105.3 121.9C106.2 122.9 133 147.1 140.6 153.9Z" fill="#1B2335"/>
<path d="M146.4 152.3C146.3 152.3 146.2 152.3 146.2 152.2L104.8 116.4C104.7 116.3 104.7 116.1 104.8 115.9C104.9 115.8 105.1 115.8 105.3 115.9L146.7 151.7C146.8 151.8 146.8 152 146.7 152.2C146.6 152.2 146.5 152.3 146.4 152.3Z" fill="#BCB5C6"/>
<path d="M221.7 20.3C221.7 20.3 214.9 20.8 214.3 14.3C213.7 7.29996 220.1 6.49996 223 9.19996C225.8 11.9 225.4 14.8 225.4 14.8C225.4 14.8 227.3 13 229.4 15.1C231 16.6 230.2 19.2 230.2 19.2C230.2 19.2 233.7 19 233.5 22.1C233.3 25.2 231.1 26.8 231.1 26.8L221.7 20.3Z" fill="#0F131C"/>
<path d="M228.3 32.2L227.8 39.5C227.8 39.5 226.3 41.5 222.1 41.5C218.9 41.5 217.8 40.7 217.8 40.7L218.5 37L219.2 33.4L227 32.2999L228.3 32.2Z" fill="#FF988A"/>
<path d="M227 32.3999C227 32.5999 226.9 32.7999 226.7 33.0999C224.8 36.5999 220.3 37.0999 218.5 37.0999L219.2 33.4999L227 32.3999Z" fill="#F27466"/>
<path d="M218.7 16.7999C218.7 16.7999 214.2 25.6999 215.4 30.7999C216.5 35.9999 221.2 35.3999 224.1 34.5999C227 33.7999 228.3 32.0999 228.3 32.0999C228.3 32.0999 230.8 33.0999 232.7 30.7999C234.6 28.4999 233.7 25.6999 232.2 24.8999C230.8 24.1999 228.9 25.1999 228.9 25.1999L230.4 22.5999C230.5 22.6999 225.4 8.99991 218.7 16.7999Z" fill="#FF988A"/>
<path d="M229 29.3C228.9 29.3 228.8 29.2 228.7 29.1C228.6 28.9 228.7 28.7 228.8 28.7L232.2 26.6C232.4 26.5 232.6 26.6 232.6 26.7C232.7 26.9 232.6 27.1 232.5 27.1L229.1 29.2C229.1 29.2 229 29.3 229 29.3Z" fill="#F27466"/>
<path d="M232 29.4H231.9L229.8 28.7C229.6 28.6 229.5 28.5 229.6 28.3C229.7 28.1 229.8 28 230 28.1L232.1 28.8C232.3 28.9 232.4 29 232.3 29.2C232.2 29.3 232.1 29.4 232 29.4Z" fill="#F27466"/>
<path d="M217.8 18.7999C217.8 18.7999 218.7 17.3999 220.5 17.4999C222.3 17.5999 223.3 18.9999 223.3 18.9999C223.3 18.9999 222.3 21.9999 224.6 23.7999C227 25.5999 228.9 25.2999 228.9 25.2999L230.7 24.7999L232.2 22.2999L227.4 16.3999L220.9 12.3999L217.3 15.2999L217.8 18.7999Z" fill="#0F131C"/>
<path d="M215.5 27.2001C214.8 27.2001 214.1 26.9 213.5 26.3C213 25.7 212.7 24.9 212.6 24.1C212.6 23.3 212.8 22.5 213.4 21.8C213.9 21.2 214.6 20.8 215.4 20.8C215.4 20.8 215.4 20.8 215.5 20.8C217 20.8 218.3 22.2 218.3 23.9C218.3 25.7 217.1 27.2001 215.5 27.2001ZM215.5 21.5C214.9 21.5 214.3 21.8 213.9 22.3C213.5 22.8 213.3 23.4 213.3 24.1C213.3 24.8 213.6 25.4 214 25.9C214.4 26.3 214.9 26.6 215.5 26.6C216.8 26.6 217.7 25.4 217.7 24C217.6 22.6 216.6 21.5 215.5 21.5Z" fill="#0039D0"/>
<path d="M222.5 27.7999C220.8 27.7999 219.4 26.3999 219.3 24.6999C219.3 22.8999 220.6 21.4999 222.4 21.3999C224.2 21.3999 225.6 22.6999 225.7 24.4999C225.7 26.1999 224.3 27.6999 222.5 27.7999ZM222.5 21.9999C222.5 21.9999 222.4 21.9999 222.5 21.9999C221 21.9999 219.9 23.1999 220 24.5999C220 25.9999 221.2 27.0999 222.6 27.0999C224 27.0999 225.1 25.8999 225.1 24.4999C225 23.0999 223.9 21.9999 222.5 21.9999Z" fill="#0039D0"/>
<path d="M218 24.2999C217.8 24.2999 217.7 24.2 217.7 24C217.7 23.8 217.8 23.7 218 23.7H219.8C220 23.7 220.1 23.8 220.1 24C220.1 24.2 220 24.2999 219.8 24.2999H218Z" fill="#0039D0"/>
<path d="M230.8 25.1001H230.7C228.7 24.4001 225.4 24.8001 225.4 24.8001C225.2 24.8001 225.1 24.7001 225 24.5001C225 24.3001 225.1 24.2001 225.3 24.1001C225.4 24.1001 228.8 23.6001 230.9 24.4001C231.1 24.5001 231.2 24.6001 231.1 24.8001C231.1 25.0001 230.9 25.1001 230.8 25.1001Z" fill="#0039D0"/>
<path d="M248.1 66.6001C248.1 66.6001 249.4 75.5001 245.3 82.7001C241.3 90.0001 211.2 85.0001 211.2 85.0001L209.1 76.3001L226.5 70.9001C226.6 71.0001 238.1 69.1001 248.1 66.6001Z" fill="#FF988A"/>
<path d="M209.2 76.4001C209.2 76.4001 204.2 77.2001 201.1 78.1001C198.1 79.0001 193.4 80.0001 191.4 79.5001C189.4 79.0001 189.2 79.8001 189.7 81.0001C190.2 82.2001 192.5 82.8001 192.5 82.8001C192.5 82.8001 190.1 92.4001 191 93.2001C191.9 94.0001 194.7 90.9001 194.7 90.9001C194.7 90.9001 195.2 91.6001 196 91.7001C196.7 91.8001 197.8 91.4001 197.8 91.4001C197.8 91.4001 198.1 92.3001 199.4 92.5001C200.7 92.7001 201.5 92.0001 201.5 92.0001C201.5 92.0001 202.2 93.6001 203.1 93.3001C203.9 92.9001 207.7 91.8001 207.5 90.7001C207.3 89.6001 204.2 89.8001 204.2 89.8001L203.8 87.9001C203.8 87.9001 207 90.4001 210.1 88.7001C213.1 87.0001 212.8 82.8001 212.8 82.8001L209.2 76.4001Z" fill="#FF988A"/>
<path d="M194.8 91.2002C194.7 91.2002 194.6 91.2002 194.6 91.1002C192.1 88.1002 195.1 82.7002 195.2 82.5002C195.3 82.3002 195.5 82.3002 195.6 82.4002C195.8 82.5002 195.8 82.7002 195.7 82.8002C195.7 82.9002 192.8 88.0002 195 90.7002C195.1 90.8002 195.1 91.0002 195 91.2002C194.9 91.2002 194.8 91.2002 194.8 91.2002Z" fill="#F27466"/>
<path d="M197.8 91.7C197.7 91.7 197.6 91.7 197.5 91.6C195.9 89.6 197 86.8 197.1 86.7C197.2 86.5 197.3 86.5 197.5 86.5C197.7 86.6 197.7 86.8 197.7 86.9C197.7 86.9 196.7 89.5 198 91.2C198.1 91.3 198.1 91.5 197.9 91.7C197.9 91.6 197.9 91.7 197.8 91.7Z" fill="#F27466"/>
<path d="M201.5 92.3002C201.4 92.3002 201.4 92.3002 201.3 92.2002C199.6 90.9002 199.8 88.1002 199.8 88.0002C199.8 87.8002 199.9 87.7002 200.1 87.7002C200.3 87.7002 200.4 87.9002 200.4 88.0002C200.4 88.0002 200.2 90.5002 201.6 91.7002C201.7 91.8002 201.8 92.0002 201.7 92.2002C201.6 92.3002 201.6 92.3002 201.5 92.3002Z" fill="#F27466"/>
<path d="M224.3 46.7999C224.1 46.7999 224 46.8 223.8 46.7C222.5 46.2 221.5 43.9999 221.1 42.7999C220.4 43.9999 218.7 46.2999 217 46.0999C216.5 45.9999 216.2 45.7 216.1 45.5C215.4 44.2 217.4 40.8999 217.6 40.5999C217.7 40.4999 217.9 40.4 218 40.5C224 43.3 227.6 39.2999 227.6 39.2999C227.7 39.1999 227.9 39.2 228 39.2C228.1 39.3 228.2 39.4 228.2 39.5C228.2 39.7 227.2 45.2999 225.1 46.5999C224.8 46.6999 224.6 46.7999 224.3 46.7999ZM221.5 42.0999C221.9 43.1999 222.9 45.6999 224 46.0999C224.2 46.1999 224.4 46.2 224.7 46C226 45.3 226.9 42.1999 227.3 40.2999C226.3 41.0999 224.3 42.1999 221.5 42.0999ZM217.9 41.2C217.2 42.5 216.2 44.4999 216.6 45.2999C216.6 45.3999 216.7 45.5 217 45.5C218.5 45.7 220.1 43.2 220.8 42C219.9 41.9 218.9 41.6 217.9 41.2Z" fill="#94E6FF"/>
<path d="M66.7 61.9C66.6 61.9 66.6 61.9 66.5 61.9C66.3 61.8 66.3001 61.6 66.4001 61.5C70.1001 55.2 65.7 47.8 65.6 47.7C65.5 47.5 65.6 47.3 65.7 47.3C65.9 47.2 66.1 47.3 66.1 47.4C66.1 47.5 70.8001 55.2 66.9001 61.8C66.9001 61.8 66.8 61.9 66.7 61.9Z" fill="#00309B"/>
<path d="M189.5 4.8C190.826 4.8 191.9 3.72548 191.9 2.4C191.9 1.07452 190.826 0 189.5 0C188.175 0 187.1 1.07452 187.1 2.4C187.1 3.72548 188.175 4.8 189.5 4.8Z" fill="#EAE6EF"/>
<path d="M6.00015 42L4.7001 40.7L6.00015 39.4C6.30015 39.1 6.30015 38.6 6.00015 38.3C5.70015 38 5.20017 38 4.90017 38.3L3.60012 39.6L2.3002 38.3C2.0002 38 1.5001 38 1.2001 38.3C0.900098 38.6 0.900098 39.1 1.2001 39.4L2.50015 40.7L1.2001 42C0.900098 42.3 0.900098 42.8 1.2001 43.1C1.5001 43.4 2.0002 43.4 2.3002 43.1L3.60012 41.8L4.90017 43.1C5.20017 43.4 5.70015 43.4 6.00015 43.1C6.30015 42.8 6.30015 42.3 6.00015 42Z" fill="#EAE6EF"/>
<path d="M256.7 141.6L255.4 140.3L256.7 139C257 138.7 257 138.2 256.7 137.9C256.4 137.6 255.9 137.6 255.6 137.9L254.3 139.2L253 137.9C252.7 137.6 252.2 137.6 251.9 137.9C251.6 138.2 251.6 138.7 251.9 139L253.2 140.3L251.9 141.6C251.6 141.9 251.6 142.4 251.9 142.7C252.2 143 252.7 143 253 142.7L254.3 141.4L255.6 142.7C255.9 143 256.4 143 256.7 142.7C257 142.4 257 141.9 256.7 141.6Z" fill="#EAE6EF"/>
</svg>
