<svg width="272" height="178" viewBox="0 0 272 178" fill="none" xmlns="http://www.w3.org/2000/svg">
<path d="M187 123.5H78.1998C74.3998 123.5 71.3999 120.4 71.3999 116.7V64.6001C71.3999 60.8001 74.4998 57.8 78.1998 57.8H187C190.8 57.8 193.8 60.9001 193.8 64.6001V116.7C193.8 120.4 190.8 123.5 187 123.5Z" fill="white"/>
<path d="M187 124.6H78.1997C73.7997 124.6 70.1997 121 70.1997 116.6V64.5C70.1997 60.1 73.7997 56.5 78.1997 56.5H187C191.4 56.5 195 60.1 195 64.5V116.6C195 121.1 191.4 124.6 187 124.6ZM78.0997 58.9C74.9997 58.9 72.3998 61.5 72.3998 64.6V116.7C72.3998 119.8 74.9997 122.4 78.0997 122.4H187C190.1 122.4 192.7 119.8 192.7 116.7V64.6C192.7 61.5 190.1 58.9 187 58.9H78.0997Z" fill="#1B2335"/>
<path d="M128.6 102.5H82.7998C81.6998 102.5 80.6997 101.6 80.6997 100.4C80.6997 99.2998 81.5998 98.2998 82.7998 98.2998H128.6C129.7 98.2998 130.7 99.1998 130.7 100.4C130.7 101.6 129.8 102.5 128.6 102.5Z" fill="#F3EFF9"/>
<path d="M128.6 93.2H82.7998C81.6998 93.2 80.6997 92.3 80.6997 91.1C80.6997 90 81.5998 89 82.7998 89H128.6C129.7 89 130.7 89.9 130.7 91.1C130.7 92.3 129.8 93.2 128.6 93.2Z" fill="#F3EFF9"/>
<path d="M128.6 83.8999H82.7998C81.6998 83.8999 80.6997 82.9999 80.6997 81.7999C80.6997 80.6999 81.5998 79.7 82.7998 79.7H128.6C129.7 79.7 130.7 80.5999 130.7 81.7999C130.7 82.9999 129.8 83.8999 128.6 83.8999Z" fill="#F3EFF9"/>
<path d="M20.9 174V175.2H15.5V174C15.5 172.6 16.7 171.4 18.1 171.4H18.2C19.8 171.4 20.9 172.6 20.9 174Z" fill="#EAE6EF"/>
<path d="M40.6997 173.8V175.3H35.2998V173.8C35.2998 172.5 36.2997 171.5 37.5997 171.5H38.2998C39.5998 171.4 40.6997 172.5 40.6997 173.8Z" fill="#EAE6EF"/>
<path d="M256.3 174V175.2H250.9V174C250.9 172.6 252.1 171.4 253.5 171.4H253.6C255.1 171.4 256.3 172.6 256.3 174Z" fill="#EAE6EF"/>
<path d="M236.6 173.8V175.3H231.2V173.8C231.2 172.5 232.2 171.5 233.5 171.5H234.2C235.5 171.4 236.6 172.5 236.6 173.8Z" fill="#EAE6EF"/>
<path d="M271.6 171.4H0.799805L37.9998 135.5H229.7L271.6 171.4Z" fill="#EAE6EF"/>
<path d="M271.6 171.4H0.799805V175.2H271.6V171.4Z" fill="#BCB5C6"/>
<path d="M198.3 164.8H64.0997C62.6997 164.8 61.8996 163.2 62.6996 162L76.8997 143.3C77.1997 142.9 77.6997 142.6 78.2997 142.6L186 141.7C186.6 141.7 187.1 142 187.5 142.5L199.8 162C200.4 163.3 199.6 164.8 198.3 164.8Z" fill="#DCD7E0"/>
<path d="M229.3 66.2H172.5C169.6 66.2 167.3 68.4999 167.3 71.3999V95.2999C167.3 98.1999 169.6 100.5 172.5 100.5H177.8V113.4L191.6 100.5H229.4C232.3 100.5 234.6 98.1999 234.6 95.2999V71.3999C234.5 68.5999 232.1 66.2 229.3 66.2Z" fill="#0039D0"/>
<path d="M227.6 77.2H176.3C175.7 77.2 175.2 76.7 175.2 76.1C175.2 75.5 175.7 75 176.3 75H227.6C228.2 75 228.7 75.5 228.7 76.1C228.8 76.7 228.3 77.2 227.6 77.2Z" fill="white"/>
<path d="M227.6 83.5001H176.3C175.7 83.5001 175.2 83.0001 175.2 82.4001C175.2 81.8001 175.7 81.3 176.3 81.3H227.6C228.2 81.3 228.7 81.8001 228.7 82.4001C228.8 83.0001 228.3 83.5001 227.6 83.5001Z" fill="white"/>
<path d="M209.7 89.8999H176.3C175.7 89.8999 175.2 89.3999 175.2 88.7999C175.2 88.1999 175.7 87.7 176.3 87.7H209.7C210.3 87.7 210.8 88.1999 210.8 88.7999C210.8 89.3999 210.3 89.8999 209.7 89.8999Z" fill="white"/>
<path d="M139.9 84.1001V80.6001C139.9 78.1001 137.9 76.1001 135.4 76.1001H128.8C126.3 76.1001 124.3 78.1001 124.3 80.6001V84.2001C124.2 84.2001 124.2 84.2001 124.1 84.2001C122.9 84.2001 121.9 85.2001 121.9 86.4001C121.9 87.6001 122.9 88.6001 124.1 88.6001C124.2 88.6001 124.2 88.6001 124.3 88.6001V88.9001C124.3 91.0001 125.1 92.9001 126.5 94.3001L124.8 108.1H139.3L137.7 94.4001C139.1 93.0001 140 91.0001 140 88.9001V88.7001C141.2 88.7001 142.2 87.7001 142.2 86.5001C142.2 85.1001 141.2 84.1001 139.9 84.1001Z" fill="#FF988A"/>
<path d="M144.3 67.8C143.9 67.8 141.9 67.8 132.1 67.8C118.1 67.8 122.5 74.8 122.5 74.8C121.1 77.6 121.6 81.0001 122.4 83.4001C124 90.9001 132.2 91.1001 132.2 91.1001C140.7 90.2001 141.8 83.4001 141.8 83.4001C142.5 81.0001 143.1 77.5 141.7 74.8C141.7 74.7 141.6 74.6001 141.6 74.6001C145.7 73.0001 144.3 67.8 144.3 67.8Z" fill="#0F131C"/>
<path d="M155.6 177.2H149L149.1 175.9C151.4 176.1 153.6 176.5 155.6 177.2Z" fill="#22A6FF"/>
<path d="M90.3 140.3L102.9 139.7L103.4 152.2L91.6999 154.3C87.9999 155 84.4 152.8 83.3 149.2C81.9 144.7 85.5 140.1 90.3 140.3Z" fill="#F27466"/>
<path d="M87.3998 154.1C83.5998 152.5 81.7998 148.2 83.3998 144.5L89.3998 130L102.4 137.2L97.0998 150.1C95.3998 153.8 91.0998 155.6 87.3998 154.1Z" fill="#FF988A"/>
<path d="M174.8 161.8L159 156L159.5 144.9L177.7 148.4C180.6 149 182.7 152.1 182.6 155.8C182.3 160.5 178.3 163.6 174.8 161.8Z" fill="#F27466"/>
<path d="M180.9 161.5C184.5 159.6 185.9 155.2 184.1 151.6L173.5 131.4L159.7 138L171 158.3C172.8 162 177.3 163.4 180.9 161.5Z" fill="#FF988A"/>
<path d="M180.6 128L173.5 131.4L165 135.5L160.2 137.8L159.6 138.1V138.6L159.5 142.1L159.4 144.9L159 156L158.9 157.8L158.6 164.9L158.3 171.5L158.1 175.2V175.3C158 176.4 157.1 177.2 156 177.2H106.4C105.3 177.2 104.4 176.4 104.3 175.3V175.2L104.1 171.5L103.8 164.9L103.5 157.8L103.3 152.3L102.9 142.5L102.8 139.8L102.7 138.3V137.8L102.1 137.5L98.5997 135.5L89.1997 130.1L82.6997 126.4L88.2998 119.7C90.0998 117.6 91.8998 115.4 93.3998 113C98.3998 105.2 106.9 100.8 115.8 100.9C116.7 100.8 117.6 100.7 118.6 100.7H143.7C144.7 100.7 145.6 100.8 146.5 100.9C155.4 100.7 164.1 105.1 169.2 113C170.3 114.7 171.5 116.5 172.7 118.1L180.6 128Z" fill="#0039D0"/>
<path d="M102.8 138.3C102.5 138.3 102.3 138.1 102.3 137.8L101.9 114.5C101.9 114.2 102.1 114 102.4 113.9C102.7 113.9 102.9 114.1 103 114.4L103.4 137.7C103.3 138.1 103.1 138.3 102.8 138.3Z" fill="#00309B"/>
<path d="M159.7 138.6C159.4 138.6 159.1 138.3 159.2 138L159.8 113.9C159.8 113.6 160 113.4 160.4 113.4C160.7 113.4 160.9 113.7 160.9 114L160.3 138.1C160.2 138.3 160 138.6 159.7 138.6Z" fill="#00309B"/>
<path d="M165.9 163.1V175.2H158.2C158.1 176.3 157.2 177.1 156.1 177.1H106.5C105.4 177.1 104.5 176.3 104.4 175.2H99V163.1C99 160.3 101 158.1 103.7 157.7C103.9 157.7 104.2 157.6 104.4 157.6H160.5C163.4 157.7 165.9 160.2 165.9 163.1Z" fill="#1B2335"/>
<path d="M45.6997 147.8C51.4435 147.8 56.0997 146.725 56.0997 145.4C56.0997 144.075 51.4435 143 45.6997 143C39.9559 143 35.2998 144.075 35.2998 145.4C35.2998 146.725 39.9559 147.8 45.6997 147.8Z" fill="#DCD7E0"/>
<path d="M44.5998 132.7C44.5998 132.7 48.5999 121.6 40.8999 117.2C33.1999 112.8 38.2999 130.8 40.8999 132.7H44.5998Z" fill="#BCB5C6"/>
<path d="M41.4 133C41 129.7 39.9 126.5 38.9 123.3C38.2 121.2 37.5 118.9 37 116.7L37.3 116.6C37.8 118.8 38.5 121 39.2 123.2C40.2 126.3 41.2 129.6 41.7 132.9L41.4 133Z" fill="#BCB5C6"/>
<path d="M43.2998 133.1C43.0998 131 42.8998 128.7 42.2998 126.6C41.8998 125.2 41.3998 123.8 40.7998 122.5C39.8998 120.3 39.0998 118.1 38.7998 115.7H39.0997C39.2997 118 40.1998 120.2 40.9998 122.4C41.4998 123.7 42.0998 125.1 42.4998 126.5C43.0998 128.6 43.2998 130.9 43.4998 133L43.2998 133.1Z" fill="#BCB5C6"/>
<path d="M45.2999 132.9C45.1999 130.2 44.9999 127.3 43.9999 124.6C43.6999 123.6 43.1999 122.6 42.7999 121.7C41.8999 119.7 40.8999 117.6 40.8999 115.3H41.1998C41.1998 117.5 42.0999 119.6 43.0999 121.6C43.4999 122.5 43.9999 123.5 44.3999 124.5C45.3999 127.2 45.5998 130.1 45.6998 132.8L45.2999 132.9Z" fill="#BCB5C6"/>
<path d="M42.4996 132.7C42.4996 132.7 40.5996 107.1 51.9996 109.9C63.3996 112.7 47.1996 132.7 47.1996 132.7H42.4996Z" fill="#EAE6EF"/>
<path d="M43.7997 133.1C45.2997 124.8 45.5996 115.7 51.1996 109C51.3996 108.8 51.0997 108.5 50.8997 108.7C45.2997 115.6 44.8997 124.7 43.3997 133C43.2997 133.3 43.6997 133.4 43.7997 133.1Z" fill="#EAE6EF"/>
<path d="M54.5995 108.8C49.2995 116.3 48.2995 125.7 44.5995 133.9C44.4995 134.1 44.7995 134.3 44.9995 134.1C48.6995 125.9 49.7995 116.5 54.9995 109C55.0995 108.8 54.6995 108.6 54.5995 108.8Z" fill="#EAE6EF"/>
<path d="M56.1994 111.7C52.3994 118.3 50.8995 125.9 46.5995 132.2C46.4995 132.4 46.7995 132.6 46.9995 132.4C51.2995 126.1 52.7995 118.5 56.5995 111.9C56.6995 111.6 56.3994 111.4 56.1994 111.7Z" fill="#EAE6EF"/>
<path d="M44.5996 132.7C44.5996 132.7 46.3996 119.3 56.0996 122.1C65.7996 124.9 50.3997 132.7 50.3997 132.7H44.5996Z" fill="#DCD7E0"/>
<path d="M48.5994 133L48.3994 132.8C49.9994 131.2 51.8994 130 53.7994 128.7C56.2994 127 58.8993 125.3 60.6993 122.9L60.8994 123.1C59.0994 125.6 56.4994 127.3 53.8994 129C52.0994 130.2 50.1994 131.5 48.5994 133Z" fill="#DCD7E0"/>
<path d="M46.1995 133.2L45.9995 133C49.8995 128.7 54.2995 124.7 58.8995 121.2L59.0995 121.4C54.3995 124.9 50.0995 128.8 46.1995 133.2Z" fill="#DCD7E0"/>
<path d="M45.1995 133.1L44.9995 132.9L48.9995 127C49.4995 126.3 49.8995 125.6 50.4995 124.9C51.6995 123.5 53.0995 122.3 54.4995 121.1L54.6995 121.3C53.2995 122.5 51.8995 123.7 50.6995 125.1C50.1995 125.7 49.6995 126.5 49.1995 127.1L45.1995 133.1Z" fill="#DCD7E0"/>
<path d="M49.2998 112.7L49.0998 112.2L49.5998 112C49.6998 111.9 49.7998 111.8 49.6998 111.7C49.5998 111.6 49.4998 111.5 49.3998 111.6L48.8998 111.8L48.6998 111.3C48.5998 111.2 48.4998 111.1 48.3998 111.2C48.2998 111.3 48.1998 111.4 48.2998 111.5L48.4998 112L47.9998 112.2C47.8998 112.3 47.7998 112.4 47.8998 112.5C47.8998 112.6 47.9998 112.6 47.9998 112.6C48.0998 112.6 48.0998 112.6 48.1998 112.6L48.6998 112.4L48.8998 112.9C48.8998 113 48.9998 113 48.9998 113C49.0998 113 49.0998 113 49.1998 113C49.2998 113 49.2998 112.9 49.2998 112.7Z" fill="#EAE6EF"/>
<path d="M45.5 124.9L45.3001 124.4L45.8001 124.2C45.9001 124.1 46.0001 124 45.9001 123.9C45.8001 123.8 45.7 123.7 45.6 123.8L45.1 124L44.9001 123.5C44.8001 123.4 44.7 123.3 44.6 123.4C44.5 123.5 44.4 123.6 44.5 123.7L44.7 124.2L44.2 124.4C44.1 124.5 44 124.6 44.1 124.7C44.1 124.8 44.2 124.8 44.2 124.8C44.3 124.8 44.3001 124.8 44.4001 124.8L44.9001 124.6L45.1 125.1C45.1 125.2 45.2 125.2 45.2 125.2C45.3 125.2 45.3001 125.2 45.4001 125.2C45.5001 125.2 45.6 125.1 45.5 124.9Z" fill="#EAE6EF"/>
<path d="M51.3999 116.6L51.1999 116.1L51.6999 115.9C51.7999 115.8 51.9 115.7 51.8 115.6C51.7 115.5 51.5999 115.4 51.4999 115.5L50.9999 115.7L50.8 115.2C50.7 115.1 50.5999 115 50.4999 115.1C50.3999 115.2 50.2999 115.3 50.3999 115.4L50.5999 115.9L50.0999 116.1C49.9999 116.2 49.8999 116.3 49.9999 116.4C49.9999 116.5 50.0999 116.5 50.0999 116.5C50.1999 116.5 50.2 116.5 50.3 116.5L50.8 116.3L50.9999 116.8C50.9999 116.9 51.0999 116.9 51.0999 116.9C51.1999 116.9 51.2 116.9 51.3 116.9C51.4 116.9 51.4999 116.7 51.3999 116.6Z" fill="#EAE6EF"/>
<path d="M49.7998 121.4L49.5998 120.9L50.0998 120.7C50.1998 120.6 50.2998 120.5 50.1998 120.4C50.0998 120.3 49.9998 120.2 49.8998 120.3L49.3998 120.5L49.1998 120C49.0998 119.9 48.9998 119.8 48.8998 119.9C48.7998 120 48.6998 120.1 48.7998 120.2L48.9998 120.7L48.4998 120.9C48.3998 121 48.2998 121.1 48.3998 121.2C48.3998 121.3 48.4998 121.3 48.4998 121.3C48.5998 121.3 48.5998 121.3 48.6998 121.3L49.1998 121.1L49.3998 121.6C49.3998 121.7 49.4998 121.7 49.4998 121.7C49.5998 121.7 49.5998 121.7 49.6998 121.7C49.7998 121.6 49.7998 121.5 49.7998 121.4Z" fill="#EAE6EF"/>
<path d="M55.2001 115.7L55.0002 115.2L55.5002 115C55.6002 114.9 55.7001 114.8 55.6001 114.7C55.5001 114.6 55.4002 114.5 55.3002 114.6L54.8002 114.8L54.6001 114.3C54.5001 114.2 54.4002 114.1 54.3002 114.2C54.2002 114.3 54.1001 114.4 54.2001 114.5L54.4002 115L53.9002 115.2C53.8002 115.3 53.7002 115.4 53.8002 115.5C53.8002 115.6 53.9002 115.6 53.9002 115.6C54.0002 115.6 54.0001 115.6 54.1001 115.6L54.6001 115.4L54.8002 115.9C54.8002 116 54.9002 116 54.9002 116C55.0002 116 55.0001 116 55.1001 116C55.2001 115.9 55.2001 115.8 55.2001 115.7Z" fill="#EAE6EF"/>
<path d="M53.7001 119.8L53.5002 119.3L54.0002 119.1C54.1002 119 54.2001 118.9 54.1001 118.8C54.0001 118.7 53.9002 118.6 53.8002 118.7L53.3002 118.9L53.1001 118.4C53.0001 118.3 52.9002 118.2 52.8002 118.3C52.7002 118.4 52.6001 118.5 52.7001 118.6L52.9002 119.1L52.4002 119.3C52.3002 119.4 52.2002 119.5 52.3002 119.6C52.3002 119.7 52.4002 119.7 52.4002 119.7C52.5002 119.7 52.5001 119.7 52.6001 119.7L53.1001 119.5L53.3002 120C53.3002 120.1 53.4002 120.1 53.4002 120.1C53.5002 120.1 53.5001 120.1 53.6001 120.1C53.7001 120 53.7001 119.9 53.7001 119.8Z" fill="#EAE6EF"/>
<path d="M53.2998 112.7L53.0998 112.2L53.5998 112C53.6998 111.9 53.7998 111.8 53.6998 111.7C53.5998 111.6 53.4998 111.5 53.3998 111.6L52.8998 111.8L52.6998 111.3C52.5998 111.2 52.4998 111.1 52.3998 111.2C52.2998 111.3 52.1998 111.4 52.2998 111.5L52.4998 112L51.9998 112.2C51.8998 112.3 51.7998 112.4 51.8998 112.5C51.8998 112.6 51.9998 112.6 51.9998 112.6C52.0998 112.6 52.0998 112.6 52.1998 112.6L52.6998 112.4L52.8998 112.9C52.8998 113 52.9998 113 52.9998 113C53.0998 113 53.0998 113 53.1998 113C53.2998 113 53.3998 112.9 53.2998 112.7Z" fill="#EAE6EF"/>
<path d="M40.3997 118.4L39.8997 118.2L40.0996 117.8C40.1996 117.7 40.0997 117.5 39.9997 117.5C39.8997 117.4 39.6996 117.5 39.6996 117.6L39.4997 118L38.9997 117.8C38.8997 117.7 38.6996 117.8 38.6996 117.9C38.5996 118 38.6997 118.2 38.7997 118.2L39.2997 118.4L39.0996 118.9C38.9996 119 39.0996 119.2 39.1996 119.2C39.2996 119.2 39.2997 119.2 39.3997 119.2C39.4997 119.2 39.4996 119.1 39.5996 119.1L39.7997 118.6L40.2997 118.8C40.3997 118.8 40.3997 118.8 40.4997 118.8C40.5997 118.8 40.5996 118.7 40.6996 118.7C40.4996 118.6 40.4997 118.4 40.3997 118.4Z" fill="#BCB5C6"/>
<path d="M51.6999 124.6L51.1999 124.4L51.3999 124C51.4999 123.9 51.4 123.7 51.3 123.7C51.2 123.6 50.9999 123.7 50.9999 123.8L50.8 124.2L50.3 124C50.2 123.9 49.9999 124 49.9999 124.1C49.8999 124.2 49.9999 124.4 50.0999 124.4L50.5999 124.6L50.3999 125.1C50.2999 125.2 50.3999 125.4 50.4999 125.4C50.5999 125.4 50.5999 125.4 50.6999 125.4C50.7999 125.4 50.7999 125.3 50.8999 125.3L51.0999 124.8L51.5999 125C51.6999 125 51.7 125 51.8 125C51.9 125 51.8999 124.9 51.9999 124.9C51.7999 124.8 51.7999 124.7 51.6999 124.6Z" fill="#DCD7E0"/>
<path d="M55.3997 124.6L54.8997 124.4L55.0996 124C55.1996 123.9 55.0997 123.7 54.9997 123.7C54.8997 123.6 54.6996 123.7 54.6996 123.8L54.4997 124.2L53.9997 124C53.8997 123.9 53.6996 124 53.6996 124.1C53.5996 124.2 53.6997 124.4 53.7997 124.4L54.2997 124.6L54.0996 125.1C53.9996 125.2 54.0996 125.4 54.1996 125.4C54.2996 125.4 54.2997 125.4 54.3997 125.4C54.4997 125.4 54.4996 125.3 54.5996 125.3L54.7997 124.8L55.2997 125C55.3997 125 55.3997 125 55.4997 125C55.5997 125 55.5996 124.9 55.6996 124.9C55.5996 124.8 55.4997 124.7 55.3997 124.6Z" fill="#DCD7E0"/>
<path d="M56.0002 128.2L55.5002 128L55.7001 127.6C55.8001 127.5 55.7001 127.3 55.6001 127.3C55.5001 127.2 55.3002 127.3 55.3002 127.4L55.1001 127.8L54.6001 127.6C54.5001 127.5 54.3002 127.6 54.3002 127.7C54.2002 127.8 54.3002 128 54.4002 128L54.9002 128.2L54.7001 128.7C54.6001 128.8 54.7002 129 54.8002 129C54.9002 129 54.9002 129 55.0002 129C55.1002 129 55.1001 128.9 55.2001 128.9L55.4002 128.4L55.9002 128.6C56.0002 128.6 56.0001 128.6 56.1001 128.6C56.2001 128.6 56.2002 128.5 56.3002 128.5C56.1002 128.4 56.1002 128.2 56.0002 128.2Z" fill="#DCD7E0"/>
<path d="M51.2997 128.2L50.7997 128.3L50.6996 127.8C50.6996 127.7 50.4997 127.6 50.3997 127.6C50.2997 127.6 50.1996 127.8 50.1996 127.9L50.2997 128.4L49.7997 128.5C49.6997 128.5 49.5996 128.7 49.5996 128.8C49.5996 128.9 49.7997 129 49.8997 129L50.3997 128.9L50.4996 129.4C50.4996 129.5 50.6997 129.6 50.7997 129.6C50.8997 129.6 50.8997 129.6 50.8997 129.5C50.8997 129.4 50.9997 129.4 50.8997 129.3L50.7997 128.8L51.2997 128.7C51.3997 128.7 51.3997 128.7 51.3997 128.6C51.3997 128.5 51.4997 128.5 51.3997 128.4C51.4997 128.3 51.3997 128.2 51.2997 128.2Z" fill="#DCD7E0"/>
<path d="M47.9998 129.2L47.4998 129.3L47.3998 128.8C47.3998 128.7 47.2997 128.6 47.0997 128.6C46.9997 128.6 46.8998 128.7 46.8998 128.9L46.9998 129.4L46.4998 129.5C46.3998 129.5 46.2998 129.6 46.2998 129.8C46.2998 129.9 46.3997 130 46.5997 130L47.0997 129.9L47.1997 130.4C47.1997 130.5 47.2998 130.6 47.4998 130.6C47.5998 130.6 47.5997 130.6 47.5997 130.5C47.5997 130.4 47.6997 130.4 47.6997 130.3L47.5997 129.8L48.0997 129.7C48.1997 129.7 48.1997 129.7 48.1997 129.6C48.1997 129.5 48.2998 129.5 48.2998 129.4C48.2998 129.3 48.0998 129.2 47.9998 129.2Z" fill="#DCD7E0"/>
<path d="M39.4999 122.2L39.0999 121.9L39.3999 121.5C39.4999 121.4 39.4 121.2 39.3 121.2C39.2 121.1 38.9999 121.2 38.9999 121.3L38.6999 121.7L38.3 121.4C38.2 121.3 37.9999 121.4 37.9999 121.5C37.8999 121.6 37.9999 121.8 38.0999 121.8L38.4999 122.1L38.1999 122.5C38.0999 122.6 38.2 122.8 38.3 122.8C38.3 122.8 38.3999 122.8 38.4999 122.8C38.5999 122.8 38.5999 122.8 38.6999 122.7L38.9999 122.3L39.3999 122.6C39.3999 122.6 39.4999 122.6 39.5999 122.6C39.6999 122.6 39.7 122.6 39.8 122.5C39.6 122.4 39.5999 122.3 39.4999 122.2Z" fill="#BCB5C6"/>
<path d="M40.8998 128L40.4998 127.7L40.7998 127.3C40.8998 127.2 40.7998 127 40.6998 127C40.5998 126.9 40.3998 127 40.3998 127.1L40.0998 127.5L39.6998 127.2C39.5998 127.1 39.3998 127.2 39.3998 127.3C39.2998 127.4 39.3998 127.6 39.4998 127.6L39.8998 127.9L39.5998 128.3C39.4998 128.4 39.5998 128.6 39.6998 128.6C39.6998 128.6 39.7998 128.6 39.8998 128.6C39.9998 128.6 39.9998 128.6 40.0998 128.5L40.3998 128.1L40.7998 128.4C40.7998 128.4 40.8998 128.4 40.9998 128.4C41.0998 128.4 41.0998 128.4 41.1998 128.3C41.0998 128.2 40.9998 128.1 40.8998 128Z" fill="#BCB5C6"/>
<path d="M41.9999 123.7L41.5999 123.4L41.8999 123C41.9999 122.9 41.9 122.7 41.8 122.7C41.7 122.6 41.4999 122.7 41.4999 122.8L41.1999 123.2L40.8 122.9C40.7 122.8 40.4999 122.9 40.4999 123C40.3999 123.1 40.4999 123.3 40.5999 123.3L40.9999 123.6L40.6999 124C40.5999 124.1 40.7 124.3 40.8 124.3C40.8 124.3 40.8999 124.3 40.9999 124.3C41.0999 124.3 41.0999 124.3 41.1999 124.2L41.4999 123.8L41.8999 124.1C41.8999 124.1 41.9999 124.1 42.0999 124.1C42.1999 124.1 42.2 124.1 42.3 124C42.1 123.9 42.0999 123.7 41.9999 123.7Z" fill="#BCB5C6"/>
<path d="M46.8999 118L46.6999 117.5L47.1999 117.3C47.2999 117.2 47.4 117.1 47.3 117C47.2 116.9 47.0999 116.8 46.9999 116.9L46.4999 117.1L46.3 116.6C46.2 116.5 46.0999 116.4 45.9999 116.5C45.8999 116.6 45.7999 116.7 45.8999 116.8L46.0999 117.3L45.5999 117.5C45.4999 117.6 45.3999 117.7 45.4999 117.8C45.4999 117.9 45.5999 117.9 45.5999 117.9C45.6999 117.9 45.7 117.9 45.8 117.9L46.3 117.7L46.4999 118.2C46.4999 118.3 46.5999 118.3 46.5999 118.3C46.6999 118.3 46.7 118.3 46.8 118.3C46.9 118.2 46.9999 118.1 46.8999 118Z" fill="#EAE6EF"/>
<path d="M50.2999 145.2H41.8999C39.6999 145.2 37.8999 143.4 37.8999 141.2V132.7H54.2999V141.2C54.2999 143.4 52.4999 145.2 50.2999 145.2Z" fill="#0039D0"/>
<path d="M54.2999 134.5H37.8999V135.3H54.2999V134.5Z" fill="#22A6FF"/>
<path d="M215.6 157.9C221.012 157.9 225.4 156.87 225.4 155.6C225.4 154.33 221.012 153.3 215.6 153.3C210.187 153.3 205.8 154.33 205.8 155.6C205.8 156.87 210.187 157.9 215.6 157.9Z" fill="#DCD7E0"/>
<path d="M209.1 139.1V151.3C209.1 153.9 211.2 155.9 213.7 155.9H217.1C219.6 155.9 221.6 154 221.7 151.5H226V141.5H221.7V139H209.1V139.1ZM225.1 150.6H221.8V142.6H225.1V150.6Z" fill="white"/>
<path d="M176.3 17.3V58.9C176.3 60.9 174.6 62.6 172.6 62.6H141.9C139.9 62.6 138.2 60.9 138.2 58.9V25.9C138.2 25.4 138.3 24.8 138.5 24.4C138.7 24 138.9 23.6 139.3 23.3L148 14.6C148.3 14.3 148.7 14 149.1 13.8C149.6 13.6 150.1 13.5 150.6 13.5H172.6C174.6 13.6 176.3 15.2 176.3 17.3Z" fill="#F3EFF9"/>
<path d="M149 13.8999V20.6999C149 22.6999 147.3 24.3999 145.3 24.3999H138.5C138.7 23.9999 138.9 23.5999 139.3 23.2999L148 14.5999C148.3 14.2999 148.6 14.0999 149 13.8999Z" fill="#DCD7E0"/>
<path d="M168.9 31.6999H145.6C145.1 31.6999 144.7 31.2999 144.7 30.7999C144.7 30.2999 145.1 29.8999 145.6 29.8999H168.9C169.4 29.8999 169.8 30.2999 169.8 30.7999C169.8 31.1999 169.4 31.6999 168.9 31.6999Z" fill="#DCD7E0"/>
<path d="M168.9 37.6999H145.6C145.1 37.6999 144.7 37.2999 144.7 36.7999C144.7 36.2999 145.1 35.8999 145.6 35.8999H168.9C169.4 35.8999 169.8 36.2999 169.8 36.7999C169.8 37.2999 169.4 37.6999 168.9 37.6999Z" fill="#DCD7E0"/>
<path d="M168.9 43.8H145.6C145.1 43.8 144.7 43.4 144.7 42.9C144.7 42.4 145.1 42 145.6 42H168.9C169.4 42 169.8 42.4 169.8 42.9C169.8 43.3 169.4 43.8 168.9 43.8Z" fill="#DCD7E0"/>
<path d="M157.2 49.8H145.5C145 49.8 144.6 49.4 144.6 48.9C144.6 48.4 145 48 145.5 48H157.2C157.7 48 158.1 48.4 158.1 48.9C158.2 49.4 157.8 49.8 157.2 49.8Z" fill="#DCD7E0"/>
<path d="M125 2.10001L130.7 29C131 30.3 130.1 31.6 128.8 31.9L109 36.1C107.7 36.4 106.4 35.5 106.1 34.2L101.6 12.9C101.5 12.6 101.5 12.2 101.6 11.9C101.7 11.6 101.8 11.3 101.9 11.1L106.3 4.29999C106.5 4.09999 106.7 3.80001 106.9 3.70001C107.2 3.50001 107.5 3.29999 107.8 3.29999L122 0.299987C123.4 -0.100013 124.7 0.700006 125 2.10001Z" fill="#F3EFF9"/>
<path d="M106.9 3.6001L107.8 8.00009C108.1 9.30009 107.2 10.6001 105.9 10.9001L101.5 11.8001C101.6 11.5001 101.7 11.2001 101.8 11.0001L106.2 4.2001C106.5 4.0001 106.7 3.8001 106.9 3.6001Z" fill="#DCD7E0"/>
<path d="M122.2 12.4L107.1 15.6C106.8 15.7 106.4 15.5 106.4 15.1C106.3 14.8 106.5 14.4 106.9 14.4L122 11.2C122.3 11.1 122.7 11.3 122.7 11.7C122.7 12 122.5 12.3 122.2 12.4Z" fill="#DCD7E0"/>
<path d="M123 16.2999L107.9 19.4999C107.6 19.5999 107.2 19.3999 107.2 18.9999C107.1 18.6999 107.3 18.2999 107.7 18.2999L122.8 15.0999C123.1 14.9999 123.5 15.1999 123.5 15.5999C123.5 15.9999 123.3 16.1999 123 16.2999Z" fill="#DCD7E0"/>
<path d="M123.8 20.2001L108.7 23.4001C108.4 23.5001 108 23.3001 108 22.9001C107.9 22.6001 108.1 22.2001 108.5 22.2001L123.6 19.0001C123.9 18.9001 124.3 19.1001 124.3 19.5001C124.3 19.9001 124.1 20.1001 123.8 20.2001Z" fill="#DCD7E0"/>
<path d="M117.1 25.7001L109.6 27.3001C109.3 27.4001 108.9 27.2001 108.9 26.8001C108.8 26.5001 109 26.1001 109.4 26.1001L116.9 24.5001C117.2 24.4001 117.6 24.6001 117.6 25.0001C117.6 25.3001 117.4 25.6001 117.1 25.7001Z" fill="#DCD7E0"/>
<path d="M88.1 11.2001L97.5 25.9C98 26.6 97.7 27.6001 97 28.0001L86.2 34.9C85.5 35.4 84.5 35.1 84.1 34.4L76.7 22.7001C76.6 22.5001 76.5 22.3001 76.5 22.1001C76.5 21.9001 76.5 21.7001 76.5 21.5001L77.6 16.5001C77.6 16.3001 77.7 16.1001 77.8 16.0001C77.9 15.8001 78.1 15.7001 78.3 15.5001L86.1 10.6001C86.7 10.2001 87.7 10.5001 88.1 11.2001Z" fill="#F3EFF9"/>
<path d="M77.7999 16.1001L79.2999 18.5001C79.7999 19.2001 79.4999 20.2001 78.7999 20.6001L76.3999 22.1001C76.3999 21.9001 76.3999 21.7001 76.3999 21.5001L77.4999 16.5001C77.5999 16.4001 77.6999 16.3001 77.7999 16.1001Z" fill="#DCD7E0"/>
<path d="M88.7999 17.9001L80.5999 23.1001C80.3999 23.2001 80.1999 23.2001 80.0999 23.0001C79.9999 22.8001 79.9998 22.6001 80.1998 22.5001L88.3999 17.3001C88.5999 17.2001 88.7999 17.2001 88.8999 17.4001C88.9999 17.6001 88.8999 17.8001 88.7999 17.9001Z" fill="#DCD7E0"/>
<path d="M90.0996 20.1L81.8997 25.3C81.6997 25.4 81.4997 25.4 81.3997 25.2C81.2997 25 81.2997 24.8 81.4997 24.7L89.6996 19.5C89.8996 19.4 90.0996 19.4 90.1996 19.6C90.3996 19.7 90.2996 20 90.0996 20.1Z" fill="#DCD7E0"/>
<path d="M91.5 22.2001L83.3001 27.4001C83.1001 27.5001 82.9001 27.5001 82.8001 27.3001C82.7001 27.1001 82.7 26.9001 82.9 26.8001L91.1 21.6001C91.3 21.5001 91.5 21.5001 91.6 21.7001C91.7 21.9001 91.7 22.1001 91.5 22.2001Z" fill="#DCD7E0"/>
<path d="M88.6998 27.0002L84.5999 29.6002C84.3999 29.7002 84.1999 29.7002 84.0999 29.5002C83.9999 29.3002 83.9998 29.1002 84.1998 29.0002L88.2999 26.4002C88.4999 26.3002 88.6999 26.3002 88.7999 26.5002C88.9999 26.6002 88.8998 26.9002 88.6998 27.0002Z" fill="#DCD7E0"/>
<path d="M58.9998 85.1999C60.5998 83.0999 63.7998 83.0999 65.2998 85.1999C66.0998 86.2999 67.5998 86.7999 68.8998 86.1999C70.3998 85.5999 71.6998 84.7998 72.9998 83.7998C74.0998 82.8998 74.4998 81.3998 73.9998 80.0998C72.8998 77.6998 74.4997 74.8998 77.1997 74.5998C77.8997 74.4998 78.4998 74.1999 78.9998 73.6999C79.4998 73.1999 79.7998 72.5998 79.8998 71.8998C79.9998 71.0998 80.0997 70.3998 80.0997 69.5998C80.0997 68.7998 79.9998 67.9998 79.8998 67.2998C79.6998 65.8998 78.5997 64.7998 77.1997 64.5998C74.5997 64.2998 72.9998 61.4998 73.9998 59.0998C74.5998 57.7998 74.1998 56.2998 72.9998 55.3998C71.7998 54.3998 70.3998 53.6998 68.8998 52.9998C67.5998 52.4998 66.0998 52.8998 65.2998 53.9998C63.6998 56.0998 60.4998 56.0998 58.9998 53.9998C58.1998 52.8998 56.6998 52.3998 55.3998 52.9998C53.8998 53.5998 52.5998 54.3998 51.2998 55.3998C50.1998 56.2998 49.7998 57.7998 50.2998 59.0998C51.3998 61.4998 49.7997 64.2998 47.0997 64.5998C45.6997 64.7998 44.5998 65.8998 44.3998 67.2998C44.2998 68.0998 44.1997 68.7998 44.1997 69.5998C44.1997 70.3998 44.2998 71.1998 44.3998 71.8998C44.5998 73.2998 45.6997 74.3998 47.0997 74.5998C49.6997 74.8998 51.2998 77.6998 50.2998 80.0998C49.6998 81.3998 50.0998 82.8998 51.2998 83.7998C52.4998 84.7998 53.8998 85.4999 55.3998 86.1999C56.6998 86.7999 58.0998 86.3999 58.9998 85.1999ZM55.4998 69.7998C55.4998 66.0998 58.4997 63.0998 62.1997 63.0998C65.8997 63.0998 68.8998 66.0998 68.8998 69.7998C68.8998 73.4998 65.8997 76.4998 62.1997 76.4998C58.4997 76.3998 55.4998 73.3998 55.4998 69.7998Z" fill="#22A6FF"/>
<path d="M103.9 44.8999V72.2999C103.9 72.3999 103.9 72.6 103.9 72.7C103.9 72.9 103.8 73.0999 103.7 73.2999C103.3 74.2999 102.3 74.9999 101.2 74.9999H60.3998C58.8998 74.9999 57.6997 73.7999 57.6997 72.2999V44.8999C57.6997 43.3999 58.8998 42.2 60.3998 42.2H101.2C102.7 42.2 103.9 43.3999 103.9 44.8999Z" fill="#0039D0"/>
<path d="M103.9 48.5999V72.2998C103.9 72.3998 103.9 72.5999 103.9 72.6999C103.9 72.8999 103.8 73.0998 103.7 73.2998C103.3 74.2998 102.3 74.9998 101.2 74.9998H60.3998C58.8998 74.9998 57.6997 73.7998 57.6997 72.2998V48.5999H103.9Z" fill="#F3EFF9"/>
<path d="M61.1997 46.1999C61.6968 46.1999 62.0997 45.797 62.0997 45.2999C62.0997 44.8028 61.6968 44.3999 61.1997 44.3999C60.7027 44.3999 60.2998 44.8028 60.2998 45.2999C60.2998 45.797 60.7027 46.1999 61.1997 46.1999Z" fill="#22A6FF"/>
<path d="M64.9 46.1999C65.3971 46.1999 65.8 45.797 65.8 45.2999C65.8 44.8028 65.3971 44.3999 64.9 44.3999C64.403 44.3999 64 44.8028 64 45.2999C64 45.797 64.403 46.1999 64.9 46.1999Z" fill="#F3EFF9"/>
<path d="M68.4996 46.1999C68.9967 46.1999 69.3997 45.797 69.3997 45.2999C69.3997 44.8028 68.9967 44.3999 68.4996 44.3999C68.0026 44.3999 67.5996 44.8028 67.5996 45.2999C67.5996 45.797 68.0026 46.1999 68.4996 46.1999Z" fill="#FBB040"/>
<path d="M61.1998 77.1C65.7838 77.1 69.4999 73.384 69.4999 68.8C69.4999 64.216 65.7838 60.5 61.1998 60.5C56.6159 60.5 52.8999 64.216 52.8999 68.8C52.8999 73.384 56.6159 77.1 61.1998 77.1Z" fill="#0039D0"/>
<path d="M60.1002 72.6001C60.1002 72.6001 60.0002 72.6001 60.1002 72.6001C59.8002 72.6001 59.6002 72.5001 59.4002 72.3001L56.2001 68.5001C55.9001 68.1001 55.9002 67.6001 56.3002 67.3001C56.7002 67.0001 57.2002 67.0001 57.5002 67.4001L60.0002 70.4001L64.8002 65.4001C65.1002 65.0001 65.7002 65.0001 66.0002 65.4001C66.4002 65.7001 66.4002 66.3001 66.0002 66.6001L60.5002 72.3001C60.5002 72.5001 60.3002 72.6001 60.1002 72.6001Z" fill="white"/>
<path d="M96.2 68.3999H76.5C75.9 68.3999 75.5 67.8999 75.5 67.3999C75.5 66.7999 76 66.3999 76.5 66.3999H96.2C96.8 66.3999 97.2 66.8999 97.2 67.3999C97.2 67.9999 96.7 68.3999 96.2 68.3999Z" fill="#DCD7E0"/>
<path d="M96.2 63.5H76.5C75.9 63.5 75.5 63 75.5 62.5C75.5 61.9 76 61.5 76.5 61.5H96.2C96.8 61.5 97.2 62 97.2 62.5C97.2 63 96.7 63.5 96.2 63.5Z" fill="#DCD7E0"/>
<path d="M96.2 58.5999H76.5C75.9 58.5999 75.5 58.0999 75.5 57.5999C75.5 56.9999 76 56.5999 76.5 56.5999H96.2C96.8 56.5999 97.2 57.0999 97.2 57.5999C97.2 58.0999 96.7 58.5999 96.2 58.5999Z" fill="#DCD7E0"/>
<path d="M246.4 63.3001C245.8 61.2001 244.7 59.3001 243.4 57.8001C242.5 56.8001 241.5 55.9001 240.4 55.1001L237.2 53.0001L237.5 53.6001C235.9 53.0001 234.2 52.7001 232.5 52.6001C230.3 52.6001 228.1 53.0001 226.1 53.7001C224.1 54.5001 222.2 55.6001 220.6 57.0001C219 58.4001 217.6 60.1001 216.5 62.0001C215.4 63.9001 214.6 66.0001 214.3 68.2001C213.9 70.5001 214 72.7001 214.5 74.7001C215 76.8001 215.8 78.7001 217 80.3001C217.3 80.8001 217.7 81.2001 218.1 81.6001H217.3L220.9 84.0001C221.1 84.1001 221.3 84.3001 221.5 84.4001C223.3 85.5001 225.4 86.1001 227.7 86.4001C230 86.6001 232.3 86.3001 234.5 85.6001C236.7 84.9001 238.7 83.7001 240.5 82.2001C242.3 80.7001 243.8 78.9001 245 76.8001C246.1 74.7001 246.9 72.4001 247.2 70.0001C247.3 67.7001 247.1 65.4001 246.4 63.3001Z" fill="#F99400"/>
<path d="M225 67.3C224.9 67.3 224.9 67.3 225 67.3C224.9 67.4 224.9 67.4 225 67.3C224.9 67.3 224.9 67.3 224.9 67.3C224.8 67.7 224.6 68.0001 224.5 68.4001C224.4 68.8001 224.2 69.1001 224.1 69.5001C224 69.9001 223.8 70.2001 223.7 70.6001C223.6 71.0001 223.4 71.3001 223.3 71.7001C223.4 71.7001 223.4 71.8 223.5 71.8C223.6 71.8 223.6 71.8001 223.7 71.9001C223.8 71.9001 223.8 71.9001 223.9 72.0001C224 72.0001 224 72.0001 224.1 72.1001C224.3 72.2001 224.5 72.3 224.8 72.3C225 72.4 225.2 72.4001 225.5 72.5001C225.7 72.6001 226 72.6001 226.2 72.7001C226.4 72.7001 226.7 72.8 226.9 72.8C227 72.8 227.1 72.8 227.2 72.8C227.3 72.8 227.4 72.8 227.5 72.8C227.6 72.8 227.7 72.8 227.8 72.8C227.9 72.8 228 72.8001 228.1 72.7001C228.5 72.6001 228.8 72.4001 229 72.2001C229.2 72.0001 229.4 71.7001 229.5 71.4001C229.6 71.1001 229.7 70.8001 229.6 70.5001C229.6 70.2001 229.5 69.9001 229.3 69.7001L229.2 69.6001L229.1 69.5001L229 69.4001L228.9 69.3C228.8 69.2 228.7 69.1001 228.6 69.1001C228.5 69.0001 228.4 69.0001 228.3 68.9001C228.2 68.8001 228.1 68.8001 228 68.7001C227.9 68.6001 227.8 68.6001 227.7 68.5001C227.5 68.4001 227.3 68.3001 227.1 68.2001C226.9 68.1001 226.7 68.0001 226.5 68.0001C226.3 67.9001 226.1 67.9 225.9 67.8C225.7 67.7 225.5 67.7001 225.3 67.6001C225.3 67.6001 225.3 67.6001 225.2 67.6001C225.1 67.6001 225.2 67.6001 225.1 67.6001C225.1 67.4001 225.1 67.4 225 67.3C225 67.3 225 67.4 225 67.3ZM227.2 61.3C227.1 61.6 226.9 62 226.8 62.3C226.7 62.6 226.5 63 226.4 63.3C226.3 63.6 226.1 64 226 64.3C225.9 64.6 225.7 65 225.6 65.3C225.8 65.4 225.9 65.4001 226.1 65.5001C226.3 65.6001 226.4 65.6001 226.6 65.6001C226.8 65.6001 226.9 65.7001 227.1 65.7001C227.3 65.7001 227.4 65.8 227.6 65.8C227.7 65.8 227.7 65.8 227.8 65.8C227.9 65.8 227.9 65.8 228 65.8C228.1 65.8 228.1 65.8 228.2 65.8C228.3 65.8 228.3 65.8 228.4 65.8C228.5 65.8 228.6 65.8 228.6 65.8C228.7 65.8 228.8 65.8 228.8 65.8C228.9 65.8 229 65.8 229 65.8C229.1 65.8 229.2 65.8 229.2 65.8C229.6 65.7 229.9 65.6001 230.1 65.4001C230.3 65.2001 230.5 64.9001 230.6 64.7001C230.7 64.4001 230.8 64.1001 230.8 63.9001C230.8 63.6001 230.7 63.4001 230.6 63.1001C230.5 63.0001 230.5 62.9 230.4 62.8C230.3 62.7 230.3 62.6001 230.2 62.6001C230.1 62.5001 230 62.5001 230 62.4001C230 62.3001 229.8 62.3001 229.7 62.2001C229.5 62.1001 229.4 62.0001 229.2 61.9001C229 61.8001 228.9 61.7001 228.7 61.7001C228.5 61.6001 228.4 61.6001 228.2 61.5001C228 61.4001 227.9 61.4 227.7 61.3C227.6 61.3 227.6 61.3001 227.5 61.2001C227.4 61.2001 227.4 61.2001 227.3 61.1001C227.2 61.0001 227.2 61.1001 227.1 61.0001C227.4 61.3001 227.3 61.3 227.2 61.3ZM226.2 58.4001C226.3 58.1001 226.4 57.9001 226.5 57.6001C226.6 57.3001 226.7 57.1 226.8 56.8C226.9 56.5 227 56.3001 227.1 56.0001C227.2 55.7001 227.3 55.5001 227.4 55.2001C227.6 55.2001 227.7 55.3 227.9 55.3C228.1 55.3 228.2 55.4001 228.4 55.4001C228.6 55.4001 228.7 55.5001 228.9 55.5001C229.1 55.5001 229.2 55.6001 229.4 55.6001C229.3 55.9001 229.2 56.1001 229.1 56.4001C229 56.7001 228.9 56.9001 228.8 57.2001C228.7 57.5001 228.6 57.7001 228.5 58.0001C228.4 58.3001 228.3 58.5 228.2 58.8C228.3 58.8 228.4 58.9001 228.6 58.9001C228.8 58.9001 228.9 59.0001 229 59.0001C229.1 59.0001 229.3 59.1001 229.4 59.1001C229.5 59.1001 229.7 59.2001 229.8 59.2001C229.9 58.9001 230 58.7001 230.1 58.4001C230.2 58.1001 230.3 57.9001 230.4 57.6001C230.5 57.3001 230.6 57.1 230.7 56.8C230.8 56.5 230.9 56.3001 231 56.0001C231.2 56.0001 231.3 56.1001 231.5 56.1001C231.7 56.1001 231.8 56.2001 232 56.2001C232.2 56.2001 232.3 56.3 232.5 56.3C232.7 56.3 232.8 56.4001 233 56.4001C232.9 56.7001 232.8 57.0001 232.7 57.2001C232.6 57.5001 232.5 57.7001 232.4 58.0001C232.3 58.3001 232.2 58.5 232.1 58.8C232 59.1 231.9 59.4001 231.8 59.6001C231.9 59.6001 231.9 59.7001 232 59.7001C232.1 59.7001 232.1 59.8 232.2 59.8C232.3 59.8 232.3 59.9001 232.4 59.9001C232.5 59.9001 232.5 60.0001 232.6 60.0001C232.8 60.1001 232.9 60.2 233.1 60.3C233.3 60.4 233.4 60.5001 233.6 60.6001C233.8 60.7001 233.9 60.8001 234.1 60.9001C234.2 61.0001 234.4 61.1 234.5 61.3C234.6 61.4 234.8 61.6001 234.9 61.7001C235 61.9001 235.1 62.0001 235.2 62.2001C235.3 62.4001 235.4 62.5001 235.4 62.7001C235.5 62.9001 235.5 63.1 235.5 63.3C235.5 63.4 235.5 63.5001 235.5 63.6001C235.5 63.7001 235.5 63.8001 235.5 63.9001C235.5 64.0001 235.5 64.1001 235.5 64.2001C235.5 64.3001 235.5 64.4001 235.4 64.5001C235.4 64.6001 235.3 64.8001 235.3 64.9001C235.3 65.0001 235.2 65.2 235.1 65.3C235 65.4 235 65.6001 234.9 65.7001C234.8 65.8001 234.7 66.0001 234.7 66.1001C234.6 66.3001 234.4 66.5001 234.3 66.6001C234.2 66.7001 234 66.9001 233.8 67.0001C233.6 67.1001 233.4 67.2 233.2 67.3C233 67.4 232.8 67.4001 232.6 67.5001C232.6 67.5001 232.6 67.5001 232.6 67.6001C232.6 67.7001 232.6 67.6001 232.7 67.6001C232.7 67.6001 232.7 67.6001 232.8 67.6001C232.8 67.6001 232.8 67.6001 232.9 67.6001C233 67.7001 233 67.7 233.1 67.8C233.2 67.9 233.2 67.9001 233.3 68.0001C233.4 68.1001 233.4 68.1001 233.5 68.2001C233.6 68.3001 233.6 68.3001 233.7 68.4001C233.8 68.6001 234 68.7001 234.1 68.9001C234.2 69.1001 234.3 69.3001 234.4 69.5001C234.5 69.7001 234.5 69.9001 234.5 70.1001C234.5 70.3001 234.5 70.5 234.5 70.8C234.5 71.2 234.4 71.5001 234.3 71.9001C234.2 72.2001 234.1 72.6001 233.9 72.9001C233.7 73.2001 233.6 73.5 233.3 73.8C233.1 74.1 232.8 74.4001 232.6 74.6001C232.4 74.8001 232.3 74.9001 232.1 75.0001C231.9 75.1001 231.7 75.2 231.6 75.3C231.4 75.4 231.2 75.5001 231 75.5001C230.8 75.6001 230.6 75.6001 230.4 75.6001C230.3 75.6001 230.1 75.6001 230 75.6001C229.9 75.6001 229.7 75.6001 229.6 75.6001C229.5 75.6001 229.3 75.6001 229.2 75.6001C229.1 75.6001 228.9 75.6001 228.8 75.6001C228.7 75.6001 228.6 75.6001 228.5 75.6001C228.4 75.6001 228.3 75.6001 228.2 75.6001C228.1 75.6001 228 75.6001 227.9 75.5001C227.8 75.5001 227.7 75.5001 227.6 75.4001C227.5 75.4001 227.4 75.4 227.3 75.3C227.2 75.3 227.1 75.2001 227 75.2001C226.9 75.2001 226.8 75.1001 226.7 75.1001C226.6 75.1001 226.5 75.0001 226.4 75.0001C226.3 75.3001 226.2 75.6001 226.1 75.9001C226 76.2001 225.9 76.5 225.8 76.8C225.7 77.1 225.6 77.4001 225.5 77.7001C225.4 78.0001 225.3 78.3001 225.2 78.6001C225 78.5001 224.9 78.5001 224.7 78.4001C224.5 78.3001 224.4 78.3001 224.2 78.2001C224 78.1001 223.9 78.1001 223.7 78.0001C223.5 77.9001 223.4 77.9 223.2 77.8C223.3 77.5 223.4 77.2001 223.5 77.0001C223.6 76.7001 223.7 76.4001 223.8 76.2001C223.9 75.9001 224 75.6001 224.1 75.4001C224.2 75.1001 224.3 74.8001 224.4 74.6001C224.3 74.6001 224.1 74.5001 224 74.5001C223.9 74.5001 223.7 74.4001 223.6 74.4001C223.5 74.4001 223.3 74.3 223.2 74.3C223.1 74.3 222.9 74.2001 222.8 74.2001C222.7 74.3001 222.7 74.5001 222.6 74.6001C222.5 74.7001 222.5 74.9001 222.4 75.0001C222.3 75.1001 222.3 75.3001 222.2 75.4001C222.1 75.5001 222.1 75.7 222 75.8C221.9 75.9 221.9 76.1001 221.8 76.2001C221.7 76.3001 221.7 76.5001 221.6 76.6001C221.5 76.7001 221.5 76.9001 221.4 77.0001C221.3 77.1001 221.3 77.3001 221.2 77.4001C221.1 77.4001 221 77.4 220.8 77.3C220.6 77.3 220.5 77.2001 220.3 77.1001C220.1 77.0001 219.9 77.0001 219.7 76.9001C219.5 76.8001 219.4 76.8001 219.3 76.7001C219.4 76.4001 219.5 76.1001 219.6 75.9001C219.7 75.6001 219.8 75.3001 219.9 75.1001C220 74.8001 220.1 74.5 220.2 74.3C220.3 74 220.4 73.7001 220.5 73.5001C220.2 73.4001 219.9 73.3001 219.6 73.2001C219.3 73.1001 219 73.0001 218.7 72.9001C218.4 72.8001 218.1 72.7001 217.8 72.6001C217.5 72.5001 217.2 72.4 216.9 72.3C217 72.1 217.1 71.9001 217.2 71.7001C217.3 71.5001 217.4 71.3001 217.5 71.1001C217.6 70.9001 217.7 70.7001 217.8 70.5001C217.9 70.3001 218 70.1001 218.1 70.0001C218.1 70.0001 218.1 70.0001 218.2 70.0001C218.3 70.0001 218.2 70.0001 218.3 70.0001C218.4 70.0001 218.5 70.1001 218.6 70.1001C218.7 70.1001 218.8 70.2001 218.9 70.2001C219 70.2001 219.1 70.3 219.2 70.3C219.3 70.3 219.4 70.4001 219.5 70.4001C219.5 70.4001 219.5 70.4001 219.6 70.4001C219.6 70.4001 219.6 70.4001 219.7 70.4001C219.8 70.4001 219.7 70.4001 219.8 70.4001C219.8 70.4001 219.8 70.4001 219.9 70.4001C220 70.4001 220.1 70.4001 220.1 70.4001C220.2 70.4001 220.3 70.3 220.3 70.3C220.4 70.3 220.4 70.2001 220.5 70.1001C220.6 70.0001 220.6 69.9 220.6 69.8C220.6 69.7 220.7 69.6001 220.7 69.5001C220.7 69.4001 220.8 69.3001 220.8 69.2001C220.8 69.1001 220.9 69.0001 220.9 68.9001C220.9 68.8001 221 68.7001 221 68.6001C221.1 68.3001 221.2 68.0001 221.4 67.7001C221.5 67.4001 221.6 67.1 221.8 66.8C221.9 66.5 222 66.2001 222.2 65.9001C222.3 65.6001 222.4 65.3001 222.6 65.0001C222.7 64.7001 222.8 64.5001 222.9 64.2001C223 63.9001 223.1 63.7001 223.2 63.4001C223.3 63.1001 223.4 62.9001 223.5 62.6001C223.6 62.3001 223.7 62.1 223.8 61.8C223.8 61.7 223.9 61.6001 223.9 61.5001C223.9 61.4001 224 61.3001 224 61.2001C224 61.1001 224.1 61.0001 224.1 60.9001C224.1 60.8001 224.2 60.7001 224.2 60.6001C224.3 60.5001 224.3 60.3001 224.3 60.2001C224.3 60.1001 224.3 60 224.3 59.8C224.3 59.7 224.2 59.6001 224.1 59.5001C224 59.4001 223.9 59.3 223.8 59.3C223.7 59.3 223.6 59.2001 223.5 59.2001C223.4 59.2001 223.3 59.1001 223.2 59.1001C223.1 59.1001 223 59.0001 222.9 59.0001C222.8 59.0001 222.7 58.9001 222.6 58.9001H222.5H222.4H222.3C222.3 58.9001 222.2 58.9 222.2 58.8C222.3 58.6 222.3 58.5 222.4 58.3C222.5 58.1 222.5 58 222.6 57.8C222.7 57.6 222.7 57.5 222.8 57.3C222.9 57.1 222.9 56.9 223 56.8C223.3 56.9 223.6 57.0001 223.9 57.1001C224.2 57.2001 224.5 57.3001 224.8 57.4001C225.1 57.5001 225.4 57.6001 225.7 57.7001C225.5 58.2001 225.9 58.3001 226.2 58.4001ZM228.8 50.3C226.6 50.3 224.4 50.7001 222.4 51.4001C220.4 52.2001 218.5 53.3001 216.9 54.7001C215.3 56.1001 213.9 57.8001 212.8 59.7001C211.7 61.6001 210.9 63.7001 210.6 65.9001C210.2 68.2001 210.3 70.4001 210.8 72.4001C211.3 74.5001 212.1 76.4001 213.3 78.0001C214.5 79.7001 216 81.1001 217.8 82.1001C219.6 83.2001 221.7 83.8001 224 84.1001C226.3 84.3001 228.6 84 230.8 83.3C233 82.6 235 81.4001 236.8 79.9001C238.6 78.4001 240.1 76.6001 241.3 74.5001C242.4 72.4001 243.2 70.1001 243.5 67.7001C243.8 65.3001 243.6 63.0001 242.9 60.9001C242.3 58.8001 241.2 56.9001 239.9 55.4001C238.6 53.8001 236.9 52.6001 235 51.7001C233.1 50.9001 231.1 50.4 228.8 50.3Z" fill="#FBB040"/>
<path d="M226.7 72.7001C226.7 72.7001 226.6 72.7001 226.7 72.7001C226.6 72.7001 226.6 72.7001 226.7 72.7001C226.6 72.7001 226.6 72.7001 226.6 72.7001C226.4 72.7001 226.1 72.6001 225.9 72.6001C225.7 72.6001 225.4 72.5001 225.2 72.4001C225 72.3001 224.8 72.3001 224.5 72.2001C224.3 72.1001 224.1 72.1001 223.8 72.0001C223.7 72.0001 223.7 72.0001 223.6 71.9001C223.5 71.9001 223.5 71.9001 223.4 71.8001C223.3 71.8001 223.3 71.8001 223.2 71.7001C223.1 71.6001 223.1 71.6001 223 71.6001C223.1 71.2001 223.3 70.9001 223.4 70.5001C223.5 70.1001 223.7 69.8001 223.8 69.4001C223.9 69.0001 224.1 68.7001 224.2 68.3001C224.3 67.9001 224.5 67.6001 224.6 67.2001C224.6 67.2001 224.6 67.2001 224.7 67.2001C224.7 67.2001 224.7 67.2001 224.8 67.2001C224.8 67.2001 224.8 67.2001 224.9 67.2001C225 67.2001 224.9 67.2001 225 67.2001C225.2 67.3001 225.4 67.3001 225.6 67.4001C225.8 67.5001 226 67.5001 226.2 67.6001C226.4 67.7001 226.6 67.7001 226.8 67.8001C227 67.9001 227.2 68.0001 227.4 68.1001C227.5 68.2001 227.6 68.2001 227.7 68.3001C227.8 68.4001 227.9 68.4001 228 68.5001C228.1 68.6001 228.2 68.6001 228.3 68.7001C228.4 68.8001 228.5 68.9001 228.6 68.9001L228.7 69.0001L228.8 69.1001L228.9 69.2001L229 69.3001C229.2 69.5001 229.3 69.8001 229.3 70.1001C229.3 70.4001 229.3 70.7001 229.2 71.0001C229.1 71.3001 228.9 71.6001 228.7 71.8001C228.5 72.0001 228.1 72.2001 227.8 72.3001C227.7 72.3001 227.6 72.3001 227.5 72.4001C227.4 72.4001 227.3 72.4001 227.2 72.4001C227.1 72.4001 227 72.4001 226.9 72.4001C226.8 72.4001 226.8 72.7001 226.7 72.7001ZM228.6 66.0001C228.5 66.0001 228.5 66.0001 228.4 66.0001C228.3 66.0001 228.3 66.0001 228.2 66.0001C228.1 66.0001 228.1 66.0001 228 66.0001C227.9 66.0001 227.9 66.0001 227.8 66.0001C227.6 66.0001 227.5 65.9001 227.3 65.9001C227.1 65.9001 227 65.8001 226.8 65.8001C226.6 65.8001 226.5 65.7001 226.3 65.7001C226.1 65.6001 226 65.6001 225.8 65.5001C225.9 65.2001 226.1 64.8001 226.2 64.5001C226.3 64.2001 226.5 63.8001 226.6 63.5001C226.7 63.2001 226.9 62.8001 227 62.5001C227.1 62.2001 227.3 61.8001 227.4 61.5001C227.5 61.5001 227.5 61.5001 227.6 61.5001C227.7 61.5001 227.7 61.5001 227.8 61.6001C227.9 61.7001 227.9 61.6001 228 61.7001C228.1 61.7001 228.1 61.7001 228.2 61.8001C228.4 61.9001 228.5 61.9001 228.7 62.0001C228.9 62.1001 229 62.1001 229.2 62.2001C229.4 62.3001 229.5 62.3001 229.7 62.4001C229.9 62.5001 230 62.6001 230.2 62.7001C230.3 62.8001 230.4 62.8001 230.5 62.9001C230.6 63.0001 230.7 63.0001 230.7 63.1001C230.8 63.2001 230.8 63.2001 230.9 63.3001C231 63.4001 231 63.5001 231.1 63.6001C231.2 63.8001 231.3 64.1001 231.3 64.4001C231.3 64.7001 231.2 65.0001 231.1 65.2001C231 65.5001 230.8 65.7001 230.6 65.9001C230.4 66.1001 230.1 66.3001 229.7 66.3001C229.6 66.3001 229.5 66.3001 229.5 66.3001C229.4 66.3001 229.3 66.3001 229.3 66.3001C229.2 66.3001 229.1 66.3001 229.1 66.3001C228.7 66.0001 228.6 66.0001 228.6 66.0001ZM227.5 55.1001C227.4 55.4001 227.3 55.6001 227.2 55.9001C227.1 56.2001 227 56.4001 226.9 56.7001C226.8 57.0001 226.7 57.2001 226.6 57.5001C226.5 57.8001 226.4 58.0001 226.3 58.3001C226 58.2001 225.7 58.1001 225.3 58.0001C225 57.9001 224.7 57.8001 224.4 57.7001C224.1 57.6001 223.8 57.5001 223.5 57.4001C223.2 57.3001 222.9 57.2001 222.6 57.1001C222.5 57.3001 222.5 57.5001 222.4 57.6001C222.3 57.8001 222.3 57.9001 222.2 58.1001C222.1 58.3001 222.1 58.4001 222 58.6001C221.9 58.8001 221.9 58.9001 221.8 59.1001C221.8 59.1001 221.9 59.1001 221.9 59.2001C221.9 59.3001 222 59.2001 222 59.2001H222.1H222.2C222.3 59.2001 222.4 59.3001 222.5 59.3001C222.6 59.3001 222.7 59.4001 222.8 59.4001C222.9 59.4001 223 59.5001 223.1 59.5001C223.2 59.5001 223.3 59.6001 223.4 59.6001C223.5 59.7001 223.6 59.7001 223.7 59.8001C223.8 59.9001 223.8 60.0001 223.9 60.1001C223.9 60.2001 224 60.3001 223.9 60.5001C223.9 60.6001 223.9 60.8001 223.8 60.9001C223.8 61.0001 223.7 61.1001 223.7 61.2001C223.7 61.3001 223.6 61.4001 223.6 61.5001C223.6 61.6001 223.5 61.7001 223.5 61.8001C223.5 61.9001 223.4 62.0001 223.4 62.1001C223.3 62.4001 223.2 62.6001 223.1 62.9001C223 63.2001 222.9 63.4001 222.8 63.7001C222.7 64.0001 222.6 64.2001 222.5 64.5001C222.4 64.8001 222.3 65.0001 222.2 65.3001C222.1 65.6001 222 65.9001 221.8 66.2001C221.7 66.5001 221.6 66.8001 221.4 67.1001C221.3 67.4001 221.2 67.7001 221 68.0001C220.9 68.3001 220.8 68.6001 220.6 68.9001C220.6 69.0001 220.5 69.1001 220.5 69.2001C220.5 69.3001 220.4 69.4001 220.4 69.5001C220.4 69.6001 220.3 69.7001 220.3 69.8001C220.3 69.9001 220.2 70.0001 220.2 70.1001C220.2 70.2001 220.1 70.3001 220.1 70.4001C220 70.5001 220 70.5001 219.9 70.6001C219.8 70.6001 219.8 70.7001 219.7 70.7001C219.6 70.7001 219.5 70.7001 219.5 70.7001C219.5 70.7001 219.5 70.7001 219.4 70.7001C219.4 70.7001 219.4 70.7001 219.3 70.7001C219.2 70.7001 219.3 70.7001 219.2 70.7001C219.2 70.7001 219.2 70.7001 219.1 70.7001C219 70.7001 218.9 70.6001 218.8 70.6001C218.7 70.6001 218.6 70.5001 218.5 70.5001C218.4 70.5001 218.3 70.4001 218.2 70.4001C218.1 70.4001 218 70.3001 217.9 70.3001C217.9 70.3001 217.9 70.3001 217.8 70.3001C217.7 70.3001 217.8 70.3001 217.7 70.3001C217.6 70.5001 217.5 70.7001 217.4 70.8001C217.3 70.9001 217.2 71.2001 217.1 71.4001C217 71.6001 216.9 71.8001 216.8 72.0001C216.7 72.2001 216.6 72.4001 216.5 72.6001C216.8 72.7001 217.1 72.8001 217.4 72.9001C217.7 73.0001 218 73.1001 218.3 73.2001C218.6 73.3001 218.9 73.4001 219.2 73.5001C219.5 73.6001 219.8 73.7001 220.1 73.8001C220 74.1001 219.9 74.4001 219.8 74.6001C219.7 74.9001 219.6 75.2001 219.5 75.4001C219.4 75.7001 219.3 76.0001 219.2 76.2001C219.1 76.5001 219 76.8001 218.9 77.0001C219 77.1001 219.2 77.1001 219.3 77.2001C219.5 77.3001 219.7 77.3001 219.9 77.4001C220.1 77.5001 220.3 77.5001 220.4 77.6001C220.6 77.6001 220.7 77.7001 220.8 77.7001C220.9 77.6001 220.9 77.4001 221 77.3001C221.1 77.2001 221.1 77.0001 221.2 76.9001C221.3 76.8001 221.3 76.6001 221.4 76.5001C221.5 76.4001 221.5 76.2001 221.6 76.1001C221.7 76.0001 221.7 75.8001 221.8 75.7001C221.9 75.6001 221.9 75.4001 222 75.3001C222.1 75.2001 222.1 75.0001 222.2 74.9001C222.3 74.8001 222.3 74.6001 222.4 74.5001C222.5 74.5001 222.7 74.6001 222.8 74.6001C222.9 74.6001 223.1 74.7001 223.2 74.7001C223.3 74.7001 223.5 74.8001 223.6 74.8001C223.7 74.8001 223.9 74.9001 224 74.9001C223.9 75.2001 223.8 75.5001 223.7 75.7001C223.6 76.0001 223.5 76.3001 223.4 76.5001C223.3 76.8001 223.2 77.1001 223.1 77.3001C223 77.6001 222.9 77.9001 222.8 78.1001C223 78.2001 223.1 78.2001 223.3 78.3001C223.5 78.4001 223.6 78.4001 223.8 78.5001C224 78.6001 224.1 78.6001 224.3 78.7001C224.5 78.8001 224.6 78.8001 224.8 78.9001C224.9 78.6001 225 78.3001 225.1 78.0001C225.2 77.7001 225.3 77.4001 225.4 77.1001C225.5 76.8001 225.6 76.5001 225.7 76.2001C225.8 75.9001 225.9 75.6001 226 75.3001C226.1 75.3001 226.2 75.3001 226.3 75.4001C226.4 75.4001 226.5 75.5001 226.6 75.5001C226.7 75.5001 226.8 75.6001 226.9 75.6001C227 75.6001 227.1 75.6001 227.2 75.7001C227.3 75.7001 227.4 75.7001 227.5 75.8001C227.6 75.8001 227.7 75.8001 227.8 75.9001C227.9 75.9001 228 75.9001 228.1 75.9001C228.2 75.9001 228.3 75.9001 228.4 75.9001C228.5 75.9001 228.7 75.9001 228.8 75.9001C228.9 75.9001 229.1 75.9001 229.2 75.9001C229.3 75.9001 229.5 75.9001 229.6 75.9001C229.7 75.9001 229.9 75.9001 230 75.9001C230.2 75.9001 230.4 75.8001 230.6 75.8001C230.8 75.7001 231 75.7001 231.2 75.6001C231.4 75.5001 231.6 75.4001 231.7 75.3001C231.9 75.2001 232 75.1001 232.2 74.9001C232.5 74.6001 232.7 74.4001 232.9 74.1001C233.1 73.8001 233.3 73.5001 233.5 73.2001C233.7 72.9001 233.8 72.6001 233.9 72.2001C234 71.9001 234.1 71.5001 234.1 71.1001C234.1 70.9001 234.1 70.7001 234.1 70.4001C234.1 70.2001 234 70.0001 234 69.8001C233.9 69.6001 233.9 69.4001 233.7 69.2001C233.6 69.0001 233.5 68.9001 233.3 68.7001C233.2 68.6001 233.2 68.6001 233.1 68.5001C233 68.4001 233 68.4001 232.9 68.3001C232.8 68.2001 232.8 68.2001 232.7 68.1001C232.6 68.0001 232.6 68.0001 232.5 67.9001C232.5 67.9001 232.5 67.9001 232.4 67.9001C232.4 67.9001 232.4 67.9001 232.3 67.9001C232.3 67.9001 232.3 67.9001 232.2 67.9001C232.1 67.9001 232.2 67.9001 232.2 67.8001C232.4 67.8001 232.6 67.7001 232.8 67.6001C233 67.5001 233.2 67.4001 233.4 67.3001C233.6 67.2001 233.7 67.1001 233.9 66.9001C234.1 66.7001 234.2 66.6001 234.3 66.4001C234.4 66.3001 234.5 66.2001 234.5 66.0001C234.5 65.8001 234.6 65.7001 234.7 65.6001C234.8 65.5001 234.8 65.3001 234.9 65.2001C234.9 65.1001 235 64.9001 235 64.8001C235 64.7001 235.1 64.6001 235.1 64.5001C235.1 64.4001 235.1 64.3001 235.1 64.2001C235.1 64.1001 235.1 64.0001 235.1 63.9001C235.1 63.8001 235.1 63.7001 235.1 63.6001C235.1 63.4001 235.1 63.2001 235 63.0001C234.9 62.8001 234.9 62.6001 234.8 62.5001C234.7 62.3001 234.6 62.2001 234.5 62.0001C234.4 61.8001 234.3 61.7001 234.1 61.6001C234 61.5001 233.8 61.3001 233.7 61.2001C233.6 61.1001 233.4 61.0001 233.2 60.9001C233 60.8001 232.9 60.7001 232.7 60.6001C232.5 60.5001 232.4 60.4001 232.2 60.3001C232.1 60.3001 232.1 60.2001 232 60.2001C231.9 60.2001 231.9 60.1001 231.8 60.1001C231.7 60.1001 231.7 60.0001 231.6 60.0001C231.5 60.0001 231.5 59.9001 231.4 59.9001C231.5 59.6001 231.6 59.3001 231.7 59.1001C231.8 58.8001 231.9 58.6001 232 58.3001C232.1 58.0001 232.2 57.8001 232.3 57.5001C232.4 57.2001 232.5 56.9001 232.6 56.7001C232.4 56.7001 232.3 56.6001 232.1 56.6001C231.9 56.6001 231.8 56.5001 231.6 56.5001C231.4 56.5001 231.3 56.4001 231.1 56.4001C230.9 56.4001 230.8 56.3001 230.6 56.3001C230.5 56.6001 230.4 56.8001 230.3 57.1001C230.2 57.4001 230.1 57.6001 230 57.9001C229.9 58.2001 229.8 58.4001 229.7 58.7001C229.6 59.0001 229.5 59.2001 229.4 59.5001C229.3 59.5001 229.1 59.4001 229 59.4001C228.9 59.4001 228.7 59.3001 228.6 59.3001C228.5 59.3001 228.3 59.2001 228.2 59.2001C228.1 59.2001 228 59.1001 227.8 59.1001C227.9 58.8001 228 58.6001 228.1 58.3001C228.2 58.0001 228.3 57.8001 228.4 57.5001C228.5 57.2001 228.6 57.0001 228.7 56.7001C228.8 56.4001 228.9 56.2001 229 55.9001C228.8 55.9001 228.7 55.8001 228.5 55.8001C228.3 55.8001 228.2 55.7001 228 55.7001C227.8 55.7001 227.7 55.6001 227.5 55.6001C227.3 55.6001 227.6 55.2001 227.5 55.1001Z" fill="#FEFDFD"/>
<path d="M158.1 175.3C158 176.4 157.1 177.2 156 177.2H106.4C105.3 177.2 104.4 176.4 104.3 175.3H158.1Z" fill="#1B2335"/>
<path d="M190.2 40C190.2 39.7 190.2 39.3 190.2 39C190.1 39 189.9 38.9 189.8 38.9C189 38.6 188.5 38 188.4 37.1C188.2 36.1 188.9 34.9 189.9 34.6C190.7 34.3 191.5 34.5 192.2 35.1C192.4 35.3 192.6 35.5 192.7 35.8C192.8 36 192.7 36.2 192.5 36.3C192.3 36.4 192.1 36.3 192 36.1C191.7 35.5 191.2 35.2 190.6 35.2C189.9 35.2 189.3 35.7 189.2 36.4C189 37.3 189.7 38.2 190.7 38.2C191.2 38.2 191.6 38 191.9 37.5C191.9 37.5 191.9 37.4 192 37.4C192.1 37.2 192.3 37.2 192.5 37.3C192.7 37.4 192.7 37.6 192.6 37.8C192.5 38 192.3 38.2 192.1 38.4C191.8 38.6 191.5 38.8 191.2 38.8C191.1 38.8 191.1 38.8 191 38.8C191 39.1 191 39.5 191 39.8C191.1 39.8 191.3 39.8 191.4 39.7C192.7 39.3 193.6 38.5 193.8 37.2C194.2 35.3 192.9 33.6 191.1 33.3C189.5 33 187.9 34 187.4 35.6C187.4 35.7 187.4 35.7 187.4 35.8C187.3 36 187.1 36.1 186.9 36.1C186.7 36 186.6 35.8 186.6 35.6C187 34 188.1 32.9 189.7 32.6C191.3 32.3 192.7 32.8 193.7 34.1C194.1 34.6 194.4 35.3 194.5 36C194.8 37.9 193.7 39.8 191.9 40.4C190 41.1 188 40.3 187 38.6C186.9 38.5 186.8 38.3 186.8 38.1C186.7 37.9 186.8 37.7 186.9 37.6C187.1 37.5 187.3 37.5 187.4 37.7C187.4 37.8 187.5 37.9 187.5 37.9C188 38.9 188.8 39.5 189.8 39.7C190 40 190.1 40 190.2 40Z" fill="#2B3AC9"/>
<path d="M196.899 34.3999C196.999 34.3999 196.999 34.3999 197.099 34.3999C197.599 34.3999 198.199 34.3999 198.699 34.3999C198.999 34.3999 199.299 34.3999 199.599 34.4999C199.899 34.5999 200.199 34.6999 200.399 34.9999C200.599 35.2999 200.599 35.5999 200.599 35.8999C200.599 36.5999 200.099 36.8999 199.499 36.8999C199.399 36.8999 199.399 36.8999 199.399 36.8999C199.599 36.8999 199.799 36.8999 199.999 36.9999C200.499 37.0999 200.799 37.4999 200.899 37.9999C200.899 38.3999 200.899 38.6999 200.599 38.9999C200.399 39.1999 200.199 39.2999 199.999 39.3999C199.699 39.4999 199.399 39.4999 199.099 39.4999C198.399 39.4999 197.799 39.4999 197.099 39.4999H196.999C196.899 37.8999 196.899 36.1999 196.899 34.3999ZM197.499 37.1999C197.499 37.7999 197.499 38.3999 197.499 39.0999H197.599C198.099 39.0999 198.499 39.0999 198.999 39.0999C199.199 39.0999 199.399 39.0999 199.499 39.0999C199.999 38.9999 200.199 38.6999 200.199 38.1999V38.0999C200.199 37.7999 199.999 37.5999 199.799 37.3999C199.699 37.3999 199.599 37.2999 199.499 37.2999C199.199 37.2999 198.999 37.1999 198.699 37.1999C198.299 37.1999 197.999 37.1999 197.599 37.1999C197.599 37.1999 197.599 37.1999 197.499 37.1999ZM197.499 36.6999C198.099 36.6999 198.599 36.6999 198.999 36.6999C199.199 36.6999 199.399 36.5999 199.599 36.5999C199.799 36.4999 199.899 36.3999 199.999 36.1999C199.999 35.9999 199.999 35.8999 199.999 35.6999C199.999 35.3999 199.799 35.1999 199.399 35.0999C199.199 35.0999 198.999 34.9999 198.699 34.9999C198.299 34.9999 197.899 34.9999 197.499 34.9999H197.399C197.499 35.5999 197.499 36.0999 197.499 36.6999Z" fill="#2B3AC9"/>
<path d="M209.6 39.6C209.6 37.9 209.6 36.2 209.6 34.5C209.7 34.5 209.7 34.5 209.8 34.5C210.3 34.5 210.9 34.5 211.4 34.5C211.7 34.5 212 34.5 212.3 34.6C212.6 34.7 212.9 34.8 213.1 35.1C213.4 35.6 213.4 36 213.2 36.5C213.1 36.8 212.8 36.9 212.5 36.9C212.3 36.9 212.2 36.9 212 36.9C212.2 37 212.5 37 212.7 37.1C213.1 37.2 213.4 37.6 213.5 38C213.5 38.2 213.5 38.4 213.5 38.6C213.4 39 213.1 39.3 212.8 39.4C212.5 39.5 212.1 39.6 211.7 39.6C211 39.6 210.4 39.6 209.7 39.6C209.7 39.6 209.7 39.6 209.6 39.6ZM210.2 39.1C210.3 39.1 210.3 39.1 210.4 39.1C210.8 39.1 211.2 39.1 211.6 39.1C211.8 39.1 212 39.1 212.2 39.1C212.5 39 212.8 38.9 212.9 38.5C212.9 38.4 212.9 38.3 212.9 38.2C212.9 37.7 212.6 37.5 212.2 37.3C211.9 37.2 211.7 37.2 211.4 37.2C211 37.2 210.7 37.2 210.3 37.2C210.3 37.2 210.2 37.2 210.1 37.2C210.2 37.8 210.2 38.4 210.2 39.1ZM210.2 36.7C210.8 36.7 211.5 36.7 212.1 36.7C212.4 36.7 212.7 36.5 212.8 36.1C212.9 35.6 212.7 35.3 212.3 35.1C212.2 35.1 212.1 35.1 212.1 35.1C211.5 35 210.9 35.1 210.4 35.1C210.2 35.6 210.2 36.1 210.2 36.7Z" fill="#2B3AC9"/>
<path d="M234 34.5C234.3 34.5 234.7 34.5 235 34.5C235.9 36.1 236.699 37.7 237.599 39.3C237.599 37.7 237.599 36.1 237.599 34.5C237.799 34.5 237.999 34.5 238.199 34.5C238.199 36.2 238.199 37.9 238.199 39.6C237.799 39.6 237.499 39.6 237.099 39.6C236.299 38 235.399 36.4 234.599 34.8C234.599 36.4 234.599 38 234.599 39.6C234.399 39.6 234.2 39.6 234 39.6C234 39.5 234 34.7 234 34.5Z" fill="#2B3AC9"/>
<path d="M229.2 39.7C228.8 39.7 228.3 39.6 227.9 39.4C227.3 39.1 227 38.6 226.9 38.1C226.7 37.3 226.7 36.4999 227 35.7999C227.3 34.9999 227.9 34.6 228.7 34.4C229.1 34.3 229.5 34.3 229.9 34.4C230.7 34.6 231.2 35 231.4 35.7C231.6 36.2 231.7 36.8 231.6 37.4C231.6 37.8 231.5 38.2 231.3 38.5C231 39.1 230.4 39.5 229.7 39.6C229.6 39.7 229.4 39.7 229.2 39.7ZM227.4 37.1C227.4 37.4 227.4 37.8 227.6 38.2C227.8 38.7 228.2 39 228.7 39.1C228.9 39.1 229.2 39.2 229.4 39.2C230.1 39.2 230.7 38.9 231 38C231.1 37.7 231.1 37.5 231.1 37.2C231.1 36.8 231.1 36.4 230.9 36C230.7 35.5 230.3 35.2 229.8 35.1C229.6 35 229.3 35 229.1 35C228.4 35 227.9 35.4 227.6 36C227.4 36.3 227.4 36.7 227.4 37.1Z" fill="#2B3AC9"/>
<path d="M207.399 39.6C207.199 39.6 206.999 39.6 206.799 39.6C206.599 39.1 206.399 38.5 206.199 38C205.499 38 204.699 38 203.999 38C203.799 38.5 203.599 39.1 203.499 39.6C203.299 39.6 203.099 39.6 202.899 39.6C203.499 37.9 204.099 36.2 204.699 34.5C204.899 34.5 204.999 34.5 205.199 34.5C205.399 34.5 205.499 34.5 205.699 34.5C206.199 36.2 206.799 37.9 207.399 39.6ZM206.099 37.5C205.799 36.6 205.499 35.7 205.199 34.8C204.899 35.7 204.599 36.6 204.299 37.5C204.799 37.5 205.399 37.5 206.099 37.5Z" fill="#2B3AC9"/>
<path d="M217.3 37.1001C217.8 36.2001 218.2 35.3001 218.7 34.4001C218.9 34.4001 219.1 34.4001 219.3 34.4001C219.3 34.5001 219.3 34.5001 219.2 34.5001C218.7 35.5001 218.2 36.5001 217.6 37.4001C217.5 37.5001 217.5 37.7 217.5 37.8C217.5 38.3 217.5 38.8001 217.5 39.2001C217.5 39.3001 217.5 39.3001 217.5 39.4001C217.3 39.4001 217.1 39.4001 216.9 39.4001V39.3C216.9 38.8 216.9 38.2001 216.9 37.7001C216.9 37.6001 216.9 37.5001 216.8 37.4001C216.3 36.5001 215.9 35.7 215.4 34.8C215.3 34.6 215.2 34.5 215.1 34.3C215.3 34.3 215.5 34.3 215.8 34.3C216.4 35.3 216.9 36.2001 217.3 37.1001Z" fill="#2B3AC9"/>
<path d="M221.5 34.5C221.7 34.5 221.899 34.5 222.099 34.5C222.099 34.7 222.099 34.9 222.099 35.1C222.099 35.3 222.099 35.5 222.099 35.7C222.099 35.9 222.099 36.1 222.099 36.3C222.099 36.5 222.099 36.7 222.099 36.9C222.099 37.1 222.099 37.3 222.099 37.5C222.099 37.7 222.099 37.9 222.099 38.1C222.099 38.3 222.099 38.5 222.099 38.7C222.099 38.9 222.099 39.1 222.099 39.3C222.999 39.3 224 39.3 224.9 39.3C224.9 39.5 224.9 39.6 224.9 39.8C223.8 39.8 222.7 39.8 221.5 39.8C221.5 37.9 221.5 36.2 221.5 34.5Z" fill="#2B3AC9"/>
<path d="M191.4 36.7C191.4 37.1 191.099 37.4 190.699 37.4C190.299 37.4 190 37.1 190 36.7C190 36.3 190.299 36 190.699 36C191.099 36 191.4 36.4 191.4 36.7Z" fill="#2B3AC9"/>
<path d="M37.8998 97.5001C39.3909 97.5001 40.5997 96.2912 40.5997 94.8001C40.5997 93.3089 39.3909 92.1001 37.8998 92.1001C36.4086 92.1001 35.1997 93.3089 35.1997 94.8001C35.1997 96.2912 36.4086 97.5001 37.8998 97.5001Z" fill="#EAE6EF"/>
<path d="M219.4 121C220.891 121 222.1 119.791 222.1 118.3C222.1 116.809 220.891 115.6 219.4 115.6C217.909 115.6 216.7 116.809 216.7 118.3C216.7 119.791 217.909 121 219.4 121Z" fill="#EAE6EF"/>
<path d="M195.7 16.5L194.2 15L195.7 13.5C196 13.2 196 12.6 195.7 12.3C195.4 12 194.8 12 194.5 12.3L193 13.8L191.5 12.3C191.2 12 190.6 12 190.3 12.3C190 12.6 190 13.2 190.3 13.5L191.8 15L190.3 16.5C190 16.8 190 17.4 190.3 17.7C190.6 18 191.2 18 191.5 17.7L193 16.2L194.5 17.7C194.8 18 195.4 18 195.7 17.7C196 17.4 196.1 16.9 195.7 16.5Z" fill="#EAE6EF"/>
</svg>
