<svg width="296" height="189" viewBox="0 0 296 189" fill="none" xmlns="http://www.w3.org/2000/svg">
<path d="M274.7 120.3C272.5 120 273.3 117.4 273.3 117.4C273.3 117.4 276.9 111.6 281.8 99.9998C286.7 88.3998 281.2 86.7998 281.2 86.7998C280.5 86.4998 276 84.8998 271.3 95.4998C266.1 107 264.3 113.6 264.3 113.6C264.3 113.6 262.9 116 261.2 114.6C259.5 113.1 257.1 108.9 254.4 109.8C251.6 110.8 250.8 114 251.6 118.6C252.4 123.2 253.7 133.5 253.8 134.4C253.9 135.3 253.5 136.7 252.1 135.9C250.8 135.1 243.1 127.3 239.6 131.2C236.1 135.1 240.4 147.6 240.9 149C241.3 150.4 241.1 151 240.4 151.4C239.8 151.8 237.4 148.9 235.1 146.8C232.8 144.7 229.8 142.6 228 145C226.2 147.4 226 157 235.9 172.1L240.6 178.3C240.3 179 240 179.7 239.7 180.4L239.9 180.5C240.2 179.9 240.5 179.2 240.8 178.5L241 178.8L249.4 177.9C267.2 174.9 274.1 168.3 274.7 165.4C275.2 162.4 271.7 161.6 268.6 161.4C265.5 161.2 261.8 161.4 261.7 160.6C261.5 159.9 261.8 159.3 263.1 158.7C264.4 158.1 276.6 152.7 277 147.5C277.5 142.3 266.6 141.9 265.1 141.5C263.6 141.1 264.3 139.8 265.1 139.3C265.9 138.8 274.3 132.8 278.2 130.2C282.1 127.6 284 124.9 282.8 122.2C281.7 119.4 276.9 120.5 274.7 120.3Z" fill="#EAE6EF"/>
<path d="M64.1001 140.8C61.6001 143.5 59.1001 147.2 58.3001 146.8C57.5001 146.4 57.1001 145.7 57.5001 144C57.9001 142.3 61.8001 126.9 57.3001 122.6C52.8001 118.3 44.4001 128.3 42.9001 129.4C41.4001 130.5 40.7001 128.9 40.8001 127.8C40.8001 126.7 41.4001 114.4 41.9001 108.8C42.4001 103.2 41.1001 99.3999 37.7001 98.5999C34.4001 97.7999 31.9001 103.1 30.0001 104.9C28.1001 106.8 26.2001 104 26.2001 104C26.2001 104 23.4001 96.2999 16.1001 83.0999C8.90008 69.8999 3.20005 73.8999 3.20005 73.8999C2.40005 74.2999 -2.39992 77.3999 4.10008 89.5999C11.1001 102.9 15.9001 109.5 15.9001 109.5C15.9001 109.5 17.2001 112.6 14.5001 113.1C11.9001 113.6 6.1001 112.8 5.0001 116C3.8001 119.3 6.30005 122.5 11.2001 125.1C16.1001 127.8 26.7001 134.1 27.7001 134.7C28.6001 135.3 29.6001 136.7 27.9001 137.3C26.2001 137.9 13.2001 139.4 14.3001 145.6C15.4001 151.7 30.4001 157 32.0001 157.6C33.6001 158.2 34.0001 158.9 33.9001 159.8C33.8001 160.7 29.4001 160.8 25.7001 161.4C22.0001 162 17.9001 163.3 18.8001 166.8C19.7001 170.3 28.6001 177.5 50.1001 179.3L59.4001 179.5C59.8001 180.3 60.3001 181.1 60.7001 181.9L60.9001 181.8C60.5001 181.1 60.1001 180.3 59.7001 179.5H60.2001L65.5001 171C75.8001 152.1 74.7001 140.7 72.3001 138C70.0001 135.3 66.6001 138 64.1001 140.8Z" fill="#EAE6EF"/>
<path d="M209.2 19.4C211.7 17.9 214.4 16.7 217.1 16L218.7 8.20001L232 8L233.9 15.8C236.7 16.5 239.4 17.5 241.9 19L248.6 14.6L258.1 23.8L253.9 30.6C255.4 33.1 256.6 35.8 257.3 38.5L265.1 40.1L265.3 53.4L257.5 55.3C256.8 58.1 255.8 60.8 254.3 63.3L258.7 70L249.5 79.5L242.7 75.3C240.2 76.8 237.5 78 234.8 78.7L233.2 86.5L219.9 86.7L218 78.9C215.2 78.2 212.5 77.2 210 75.7L203.3 80.1L193.8 70.9L198 64.1C196.5 61.6 195.3 58.9 194.6 56.2L186.8 54.6L186.6 41.3L194.4 39.4C195.1 36.6 196.1 33.9 197.6 31.4L193.2 24.7L202.4 15.2L209.2 19.4ZM216.3 37C210.8 42.6 211 51.7 216.7 57.1C222.3 62.6 231.4 62.4 236.8 56.7C242.3 51.1 242.1 42 236.4 36.6C230.7 31.2 221.7 31.4 216.3 37Z" fill="#EAE6EF"/>
<path d="M237.4 185.3H59.8998C53.9998 185.3 49.2998 180.6 49.2998 174.7V64.4999C49.2998 58.5999 53.9998 53.8999 59.8998 53.8999H237.4C243.3 53.8999 248 58.5999 248 64.4999V174.7C248 180.5 243.3 185.3 237.4 185.3Z" fill="#1B2335"/>
<path d="M245.8 188.3H52.5C46.4 188.3 41.5 183.4 41.5 177.3V176.8H256.8V177.3C256.8 183.4 251.9 188.3 245.8 188.3Z" fill="#0F131C"/>
<path d="M242.1 59.0999H54.6001V170.1H242.1V59.0999Z" fill="#1B2335"/>
<path d="M129.1 175.6L131.7 179.8H169.3L171.8 175.6H129.1Z" fill="#BCB5C6"/>
<path d="M236.3 169.7H60.9C59.6 169.7 58.5 168.6 58.5 167.3V65.2999C58.5 63.9999 59.6 62.8999 60.9 62.8999H236.3C237.6 62.8999 238.7 63.9999 238.7 65.2999V167.4C238.6 168.7 237.6 169.7 236.3 169.7Z" fill="#EAE6EF"/>
<path d="M238.4 169.9H58.2998L58.4998 70.8999H238.4V169.9Z" fill="white"/>
<path d="M73.3 66.9998C73.3 67.7998 72.7 68.3998 71.9 68.3998C71.1 68.3998 70.5 67.7998 70.5 66.9998C70.5 66.1998 71.1 65.5999 71.9 65.5999C72.6 65.5999 73.3 66.1998 73.3 66.9998Z" fill="#1A2E35"/>
<path d="M64.5997 66.9998C64.5997 67.7998 63.9997 68.3998 63.1997 68.3998C62.3997 68.3998 61.7998 67.7998 61.7998 66.9998C61.7998 66.1998 62.3997 65.5999 63.1997 65.5999C63.8997 65.5999 64.5997 66.1998 64.5997 66.9998Z" fill="#1A2E35"/>
<path d="M68.6998 66.9998C68.6998 67.7998 68.0999 68.3998 67.2999 68.3998C66.4999 68.3998 65.8999 67.7998 65.8999 66.9998C65.8999 66.1998 66.4999 65.5999 67.2999 65.5999C68.0999 65.5999 68.6998 66.1998 68.6998 66.9998Z" fill="#1A2E35"/>
<path d="M246.3 175.6C246.3 175.7 202.2 175.7 147.8 175.7C93.3998 175.7 49.2998 175.6 49.2998 175.6C49.2998 175.5 93.3998 175.5 147.8 175.5C202.2 175.4 246.3 175.5 246.3 175.6Z" fill="#1B2335"/>
<path d="M238.6 86.7998H58.5V127H238.6V86.7998Z" fill="#EAE6EF"/>
<path d="M88.8999 76.2H62.8999V82.9999H88.8999V76.2Z" fill="#EAE6EF"/>
<path d="M234.3 76.2H220.1V82.9999H234.3V76.2Z" fill="#EAE6EF"/>
<path d="M215.9 76.2H192.6V82.9999H215.9V76.2Z" fill="#EAE6EF"/>
<path d="M187.7 76.2H164.4V82.9999H187.7V76.2Z" fill="#EAE6EF"/>
<path d="M226.1 150.8H67.2998V157.9H226.1V150.8Z" fill="#EAE6EF"/>
<path d="M226.1 137.3H67.2998V144.4H226.1V137.3Z" fill="#EAE6EF"/>
<path d="M129 110.3C130.7 108.6 133.4 108.5 135.2 110.1L143.3 117.3C143.8 117.7 144.6 117.7 145 117.3L164.9 98.2C166.6 96.5 169.4 96.6 171 98.4C172.6 100.1 172.5 102.8 170.8 104.4L144.1 129.5C143.6 130 142.8 130 142.4 129.5L129.1 116.9C127.3 115 127.2 112.1 129 110.3Z" fill="#0039D0"/>
<path d="M69.4005 101.9C92.2651 101.9 110.801 83.3644 110.801 60.4998C110.801 37.6353 92.2651 19.0999 69.4005 19.0999C46.5359 19.0999 28.0005 37.6353 28.0005 60.4998C28.0005 83.3644 46.5359 101.9 69.4005 101.9Z" fill="#FF735D"/>
<path d="M69.4005 101.9C92.2651 101.9 110.801 83.3644 110.801 60.4998C110.801 37.6353 92.2651 19.0999 69.4005 19.0999C46.5359 19.0999 28.0005 37.6353 28.0005 60.4998C28.0005 83.3644 46.5359 101.9 69.4005 101.9Z" fill="#5313B7"/>
<path d="M68.3004 99.2997C91.165 99.2997 109.7 80.7643 109.7 57.8997C109.7 35.0352 91.165 16.4998 68.3004 16.4998C45.4358 16.4998 26.9004 35.0352 26.9004 57.8997C26.9004 80.7643 45.4358 99.2997 68.3004 99.2997Z" fill="#0039D0"/>
<path d="M80.8182 87.5756C97.1969 80.6489 104.859 61.7562 97.9324 45.3776C91.0057 28.9989 72.1131 21.3365 55.7344 28.2632C39.3557 35.1899 31.6933 54.0827 38.62 70.4614C45.5467 86.84 64.4395 94.5023 80.8182 87.5756Z" fill="white"/>
<path d="M84.3616 73.9625C93.2264 65.0977 93.2263 50.725 84.3615 41.8602C75.4967 32.9954 61.124 32.9953 52.2592 41.8602C43.3944 50.725 43.3943 65.0977 52.2592 73.9625C61.124 82.8274 75.4967 82.8273 84.3616 73.9625Z" fill="#0039D0"/>
<path d="M73.13 68.9402C79.2106 66.3039 82.0027 59.2373 79.3664 53.1566C76.73 47.076 69.6634 44.2839 63.5828 46.9202C57.5021 49.5566 54.71 56.6232 57.3464 62.7038C59.9827 68.7845 67.0493 71.5766 73.13 68.9402Z" fill="white"/>
<path d="M100.4 24.2998L99.2002 15.4998L108.2 5.7998L108.9 15.3998L100.4 24.2998Z" fill="#22A6FF"/>
<path d="M119.7 17.2997L110.6 16.4998L101.4 25.2997L110.6 26.2997L119.7 17.2997Z" fill="#22A6FF"/>
<path opacity="0.3" d="M68.3003 58.5999L102.3 34.1999C101.2 32.5999 99.5002 30.4999 98.0002 28.8999L68.9003 57.0999L68.3003 58.5999Z" fill="black"/>
<path d="M110.2 13.4997C108.8 14.8997 107.4 16.3997 105.9 17.7997C102.5 21.2997 99.1004 24.6997 95.6004 28.1997C91.5004 32.3997 87.4005 36.4997 83.3005 40.6997C79.7005 44.2997 76.1004 47.8997 72.6004 51.5997C70.9004 53.3997 69.0005 55.0997 67.4005 56.8997C67.4005 56.8997 67.4005 56.9997 67.3005 56.9997C66.3005 57.9997 67.9005 59.5997 68.9005 58.5997C70.3005 57.1997 71.7004 55.6997 73.2004 54.2997C76.6004 50.7997 80.0004 47.3997 83.5004 43.8997C87.6004 39.6997 91.7005 35.5997 95.8005 31.3997C99.4005 27.7997 103 24.1997 106.5 20.4997C108.2 18.6997 110.1 16.9997 111.7 15.1997C111.7 15.1997 111.7 15.0997 111.8 15.0997C112.8 14.0997 111.2 12.4997 110.2 13.4997Z" fill="#1B2335"/>
<path d="M172.2 5.7999C173.691 5.7999 174.9 4.59108 174.9 3.09991C174.9 1.60875 173.691 0.399902 172.2 0.399902C170.709 0.399902 169.5 1.60875 169.5 3.09991C169.5 4.59108 170.709 5.7999 172.2 5.7999Z" fill="#EAE6EF"/>
<path d="M11.9003 56.5999C13.3914 56.5999 14.6002 55.3911 14.6002 53.8999C14.6002 52.4088 13.3914 51.2 11.9003 51.2C10.4091 51.2 9.2002 52.4088 9.2002 53.8999C9.2002 55.3911 10.4091 56.5999 11.9003 56.5999Z" fill="#EAE6EF"/>
<path d="M142.1 22.8998L140.6 21.3998L142.1 19.8998C142.4 19.5998 142.4 18.9999 142.1 18.6999C141.8 18.3999 141.2 18.3999 140.9 18.6999L139.4 20.1999L137.9 18.6999C137.6 18.3999 137 18.3999 136.7 18.6999C136.4 18.9999 136.4 19.5998 136.7 19.8998L138.2 21.3998L136.7 22.8998C136.4 23.1998 136.4 23.7998 136.7 24.0998C137 24.3998 137.6 24.3998 137.9 24.0998L139.4 22.5998L140.9 24.0998C141.2 24.3998 141.8 24.3998 142.1 24.0998C142.4 23.7998 142.4 23.1998 142.1 22.8998Z" fill="#EAE6EF"/>
<path d="M295.6 111.4L294.1 109.9L295.6 108.4C295.9 108.1 295.9 107.5 295.6 107.2C295.3 106.9 294.7 106.9 294.4 107.2L292.9 108.7L291.4 107.2C291.1 106.9 290.5 106.9 290.2 107.2C289.9 107.5 289.9 108.1 290.2 108.4L291.7 109.9L290.2 111.4C289.9 111.7 289.9 112.3 290.2 112.6C290.5 112.9 291.1 112.9 291.4 112.6L292.9 111.1L294.4 112.6C294.7 112.9 295.3 112.9 295.6 112.6C295.9 112.3 296 111.7 295.6 111.4Z" fill="#EAE6EF"/>
<path d="M123.5 43.0998C123.5 42.7998 123.5 42.3998 123.5 42.0998C123.4 42.0998 123.2 41.9998 123.1 41.9998C122.3 41.6998 121.8 41.0999 121.7 40.1999C121.5 39.1999 122.2 37.9999 123.2 37.6999C124 37.3999 124.8 37.5999 125.5 38.1999C125.7 38.3999 125.9 38.5998 126 38.8998C126.1 39.0998 126 39.2998 125.8 39.3998C125.6 39.4998 125.4 39.3999 125.3 39.1999C125 38.5999 124.5 38.2998 123.9 38.2998C123.2 38.2998 122.6 38.7998 122.5 39.4998C122.3 40.3998 123 41.2998 124 41.2998C124.5 41.2998 124.9 41.0998 125.2 40.5998C125.2 40.5998 125.2 40.4998 125.3 40.4998C125.4 40.2998 125.6 40.2998 125.8 40.3998C126 40.4998 126 40.6998 125.9 40.8998C125.8 41.0998 125.6 41.2998 125.4 41.4998C125.1 41.6998 124.8 41.8998 124.5 41.8998C124.4 41.8998 124.4 41.8998 124.3 41.8998C124.3 42.1998 124.3 42.5998 124.3 42.8998C124.4 42.8998 124.6 42.8998 124.7 42.7998C126 42.3998 126.9 41.5998 127.1 40.2998C127.5 38.3998 126.2 36.6998 124.4 36.3998C122.8 36.0998 121.2 37.0999 120.7 38.6999C120.7 38.7999 120.7 38.7998 120.7 38.8998C120.6 39.0998 120.4 39.1999 120.2 39.1999C120 39.0999 119.9 38.8999 119.9 38.6999C120.3 37.0999 121.4 35.9999 123 35.6999C124.6 35.3999 126 35.8999 127 37.1999C127.4 37.6999 127.7 38.3998 127.8 39.0998C128.1 40.9998 127 42.8998 125.2 43.4998C123.3 44.1998 121.3 43.3999 120.3 41.6999C120.2 41.5999 120.1 41.3999 120.1 41.1999C120 40.9999 120.1 40.7999 120.2 40.6999C120.4 40.5999 120.6 40.5998 120.7 40.7998C120.7 40.8998 120.8 40.9998 120.8 40.9998C121.3 41.9998 122.1 42.5998 123.1 42.7998C123.4 43.0998 123.4 43.0998 123.5 43.0998Z" fill="#2B3AC9"/>
<path d="M130.2 37.4998C130.3 37.4998 130.3 37.4998 130.4 37.4998C130.9 37.4998 131.5 37.4998 132 37.4998C132.3 37.4998 132.6 37.4998 132.9 37.5998C133.2 37.6998 133.5 37.7998 133.7 38.0998C133.9 38.3998 133.9 38.6998 133.9 38.9998C133.9 39.6998 133.4 39.9998 132.8 39.9998C132.7 39.9998 132.7 39.9998 132.7 39.9998C132.9 39.9998 133.1 39.9998 133.3 40.0998C133.8 40.1998 134.1 40.5998 134.2 41.0998C134.2 41.4998 134.2 41.7998 133.9 42.0998C133.7 42.2998 133.5 42.3998 133.3 42.4998C133 42.5998 132.7 42.5998 132.4 42.5998C131.7 42.5998 131.1 42.5998 130.4 42.5998H130.3C130.2 40.8998 130.2 39.1998 130.2 37.4998ZM130.8 40.2997C130.8 40.8997 130.8 41.4998 130.8 42.1998H130.9C131.4 42.1998 131.8 42.1998 132.3 42.1998C132.5 42.1998 132.7 42.1998 132.8 42.1998C133.3 42.0998 133.5 41.7997 133.5 41.2997V41.1998C133.5 40.8998 133.3 40.6998 133.1 40.4998C133 40.4998 132.9 40.3997 132.8 40.3997C132.5 40.3997 132.3 40.2997 132 40.2997C131.6 40.2997 131.3 40.2997 130.9 40.2997C131 40.1997 130.9 40.2997 130.8 40.2997ZM130.8 39.6998C130.9 39.6998 130.9 39.6998 130.8 39.6998C131.4 39.6998 131.9 39.6998 132.3 39.6998C132.5 39.6998 132.7 39.5998 132.9 39.5998C133.1 39.4998 133.2 39.3998 133.3 39.1998C133.3 38.9998 133.3 38.8998 133.3 38.6998C133.3 38.3998 133.1 38.1998 132.7 38.0998C132.5 38.0998 132.3 37.9998 132 37.9998C131.6 37.9998 131.2 37.9998 130.8 37.9998H130.7C130.8 38.5998 130.8 39.1998 130.8 39.6998Z" fill="#2B3AC9"/>
<path d="M143 42.5998C143 40.8998 143 39.1998 143 37.4998C143.1 37.4998 143.1 37.4998 143.2 37.4998C143.7 37.4998 144.301 37.4998 144.801 37.4998C145.101 37.4998 145.4 37.4998 145.7 37.5998C146 37.6998 146.3 37.7998 146.5 38.0998C146.8 38.5998 146.8 38.9998 146.6 39.4998C146.5 39.7998 146.201 39.8997 145.901 39.8997C145.701 39.8997 145.601 39.8997 145.401 39.8997C145.601 39.9997 145.9 39.9998 146.1 40.0998C146.5 40.1998 146.801 40.5998 146.901 40.9998C146.901 41.1998 146.901 41.3998 146.901 41.5998C146.801 41.9998 146.5 42.2997 146.2 42.3997C145.9 42.4997 145.5 42.5998 145.1 42.5998C144.4 42.5998 143.8 42.5998 143.1 42.5998C143.1 42.6998 143 42.5998 143 42.5998ZM143.5 42.0998C143.6 42.0998 143.6 42.0998 143.7 42.0998C144.1 42.0998 144.501 42.0998 144.901 42.0998C145.101 42.0998 145.3 42.0998 145.5 42.0998C145.8 41.9998 146.1 41.8998 146.2 41.4998C146.2 41.3998 146.2 41.2998 146.2 41.1998C146.2 40.6998 145.9 40.4997 145.5 40.2997C145.2 40.1997 145 40.1998 144.7 40.1998C144.3 40.1998 144 40.1998 143.6 40.1998C143.6 40.1998 143.501 40.1998 143.401 40.1998C143.501 40.8998 143.5 41.4998 143.5 42.0998ZM143.5 39.6998C144.1 39.6998 144.801 39.6998 145.401 39.6998C145.701 39.6998 146 39.4998 146.1 39.0998C146.2 38.5998 146 38.2998 145.6 38.0998C145.5 38.0998 145.401 38.0998 145.401 38.0998C144.801 37.9998 144.2 38.0998 143.7 38.0998C143.5 38.5998 143.5 39.1998 143.5 39.6998Z" fill="#2B3AC9"/>
<path d="M167.4 37.4998C167.7 37.4998 168.1 37.4998 168.4 37.4998C169.3 39.0998 170.1 40.6997 171 42.2997C171 40.6997 171 39.0998 171 37.4998C171.2 37.4998 171.4 37.4998 171.6 37.4998C171.6 39.1998 171.6 40.8998 171.6 42.5998C171.2 42.5998 170.9 42.5998 170.5 42.5998C169.7 40.9998 168.8 39.3997 168 37.7997C168 39.3997 168 40.9998 168 42.5998C167.8 42.5998 167.6 42.5998 167.4 42.5998C167.3 42.4998 167.3 37.6998 167.4 37.4998Z" fill="#2B3AC9"/>
<path d="M162.5 42.7998C162.1 42.7998 161.6 42.6998 161.2 42.4998C160.6 42.1998 160.3 41.6998 160.2 41.1998C160 40.3998 160 39.5998 160.3 38.8998C160.6 38.0998 161.2 37.6998 162 37.4998C162.4 37.3998 162.8 37.3998 163.2 37.4998C164 37.6998 164.5 38.0998 164.7 38.7998C164.9 39.2998 165 39.8998 164.9 40.4998C164.9 40.8998 164.8 41.2998 164.6 41.5998C164.3 42.1998 163.7 42.5998 163 42.6998C162.9 42.7998 162.7 42.7998 162.5 42.7998ZM160.7 40.0998C160.7 40.3998 160.7 40.7998 160.9 41.1998C161.1 41.6998 161.5 41.9998 162 42.0998C162.2 42.0998 162.5 42.1998 162.7 42.1998C163.4 42.1998 164 41.8998 164.3 40.9998C164.4 40.6998 164.4 40.4998 164.4 40.1998C164.4 39.7998 164.4 39.3998 164.2 38.9998C164 38.4998 163.6 38.1998 163.1 38.0998C162.9 37.9998 162.6 37.9998 162.4 37.9998C161.7 37.9998 161.2 38.3998 160.9 38.9998C160.7 39.3998 160.7 39.6998 160.7 40.0998Z" fill="#2B3AC9"/>
<path d="M140.8 42.5998C140.6 42.5998 140.4 42.5998 140.2 42.5998C140 42.0998 139.8 41.4998 139.6 40.9998C138.9 40.9998 138.1 40.9998 137.4 40.9998C137.2 41.4998 137 42.0998 136.9 42.5998C136.7 42.5998 136.5 42.5998 136.3 42.5998C136.9 40.8998 137.5 39.1998 138.1 37.4998C138.3 37.4998 138.4 37.4998 138.6 37.4998C138.8 37.4998 138.9 37.4998 139.1 37.4998C139.6 39.1998 140.2 40.8998 140.8 42.5998ZM139.4 40.4998C139.1 39.5998 138.8 38.6997 138.5 37.7997C138.2 38.6997 137.9 39.5998 137.6 40.4998C138.2 40.4998 138.8 40.4998 139.4 40.4998Z" fill="#2B3AC9"/>
<path d="M150.7 40.1999C151.2 39.2999 151.6 38.3999 152.1 37.4999C152.3 37.4999 152.5 37.4999 152.7 37.4999C152.7 37.5999 152.7 37.5999 152.6 37.5999C152.1 38.5999 151.6 39.5999 151 40.4999C150.9 40.5999 150.901 40.7999 150.901 40.8999C150.901 41.3999 150.901 41.8999 150.901 42.2999C150.901 42.3999 150.901 42.3999 150.901 42.4999C150.701 42.4999 150.501 42.4999 150.301 42.4999V42.3999C150.301 41.8999 150.301 41.2999 150.301 40.7999C150.301 40.6999 150.3 40.5999 150.2 40.4999C149.7 39.5999 149.301 38.7999 148.801 37.8999C148.701 37.6999 148.6 37.5999 148.5 37.3999C148.7 37.3999 148.9 37.3999 149.2 37.3999C149.7 38.3999 150.2 39.2999 150.7 40.1999Z" fill="#2B3AC9"/>
<path d="M154.9 37.4998C155.1 37.4998 155.3 37.4998 155.5 37.4998C155.5 37.6998 155.5 37.8998 155.5 38.0998C155.5 38.2998 155.5 38.4998 155.5 38.6998C155.5 38.8998 155.5 39.0997 155.5 39.2997C155.5 39.4997 155.5 39.6997 155.5 39.8997C155.5 40.0997 155.5 40.2998 155.5 40.4998C155.5 40.6998 155.5 40.8998 155.5 41.0998C155.5 41.2998 155.5 41.4998 155.5 41.6998C155.5 41.8998 155.5 42.0997 155.5 42.2997C156.4 42.2997 157.4 42.2997 158.3 42.2997C158.3 42.4997 158.3 42.5997 158.3 42.7997C157.2 42.7997 156.1 42.7997 154.9 42.7997C154.9 40.8997 154.9 39.1998 154.9 37.4998Z" fill="#2B3AC9"/>
<path d="M124.7 39.7998C124.7 40.1998 124.4 40.4998 124 40.4998C123.6 40.4998 123.3 40.1998 123.3 39.7998C123.3 39.3998 123.6 39.0998 124 39.0998C124.4 38.9998 124.7 39.3998 124.7 39.7998Z" fill="#2B3AC9"/>
</svg>
