<svg width="1124" height="284" viewBox="0 0 1124 284" fill="none" xmlns="http://www.w3.org/2000/svg">
<path fill-rule="evenodd" clip-rule="evenodd" d="M54.2492 111.167C67.2995 70.0921 105.73 40.3334 151.108 40.3334C207.229 40.3334 252.723 85.8521 252.723 142.001C252.723 194.161 213.463 237.147 162.895 242.991V210.974C185.063 207.217 203.682 193.035 213.535 173.65H185.381C176.859 182.869 164.663 188.642 151.118 188.642C125.357 188.642 104.472 167.76 104.472 142C104.472 116.242 125.357 95.3609 151.118 95.3609C165.066 95.3609 177.585 101.482 186.134 111.185H213.951C202.554 87.9984 178.701 72.0403 151.118 72.0403C112.476 72.0403 81.1497 103.363 81.1497 142C81.1497 176.672 106.373 205.452 139.473 210.996V243.008C99.5555 238.456 66.6594 210.763 54.5169 173.667H30.2142C44.2285 227.369 93.0431 267 151.109 267C220.109 267 276.047 211.037 276.047 142.001C276.046 72.9647 220.108 17 151.108 17C92.7421 17 43.7236 57.0423 30 111.167H54.2492ZM391.791 187.999H364.584V147.766L372.345 147.375H388.637C397.048 147.245 403.554 149.085 408.154 152.897C412.885 156.578 415.252 161.705 415.252 168.279C415.252 174.326 413.148 179.125 408.943 182.675C404.737 186.223 399.02 187.999 391.791 187.999ZM418.015 137.148C421.72 134.697 424.808 131.861 427.278 128.642C431.746 122.858 433.981 116.351 433.981 109.12C433.981 100.574 432.074 93.4748 428.263 87.8232C424.451 82.0381 419.062 77.6995 412.096 74.8074C405.263 71.7835 397.113 70.2715 387.651 70.2715L364.584 70.5326V70.4688H342.109V208.506H393.565C402.765 208.506 410.716 206.995 417.42 203.97C424.122 200.948 429.315 196.543 432.996 190.759C436.675 184.975 438.515 178.007 438.515 169.856C438.515 160.522 436.018 152.897 431.024 146.982C427.649 142.983 423.312 139.705 418.015 137.148ZM364.584 89.2025H386.468C394.09 89.0716 400.006 90.7153 404.211 94.1321C408.548 97.5506 410.716 102.416 410.716 108.725C410.716 114.903 408.811 119.767 405 123.317C401.32 126.736 396.193 128.445 389.622 128.445H364.584V89.2025ZM527.716 197.996L528.274 208.505H548.975L549.566 154.475C549.566 144.22 547.989 135.61 544.834 128.642C541.681 121.673 536.883 116.416 530.442 112.867C524.133 109.316 516.182 107.542 506.588 107.542C499.095 107.542 492.591 108.66 487.069 110.895C481.682 113.129 477.213 116.152 473.665 119.966C470.115 123.778 467.224 127.852 464.99 132.191L485.098 139.29C487.464 135.215 490.421 132.191 493.97 130.219C497.519 128.247 501.594 127.261 506.194 127.261C511.188 127.261 515.197 128.445 518.22 130.81C521.373 133.177 523.674 136.596 525.12 141.065C525.889 143.444 526.453 146.139 526.814 149.15H502.251C489.896 149.15 480.236 151.846 473.27 157.235C466.435 162.626 463.018 170.447 463.018 180.702C463.018 190.298 466.238 197.727 472.679 202.984C479.25 208.243 488.45 210.873 500.28 210.873C512.239 210.873 521.044 207.061 526.697 199.435C527.049 198.963 527.388 198.484 527.716 197.996ZM527.289 167.687V166.109H509.348C500.541 166.109 494.365 167.358 490.816 169.855C487.268 172.222 485.493 175.641 485.493 180.111C485.493 183.922 487.005 186.947 490.028 189.182C493.181 191.284 497.519 192.336 503.038 192.336C507.902 192.336 512.107 191.219 515.657 188.983C519.337 186.618 522.162 183.594 524.133 179.913C526.237 176.1 527.289 172.025 527.289 167.687ZM581.796 208.505V70.4688H603.875V124.309C606.531 120.162 609.75 116.742 613.536 114.05C619.582 109.71 626.746 107.542 635.025 107.542C643.963 107.542 651.717 109.71 658.289 114.05C664.992 118.256 670.184 124.238 673.863 131.994C677.675 139.619 679.581 148.689 679.581 159.207C679.581 169.592 677.675 178.663 673.863 186.42C670.184 194.178 664.992 200.225 658.289 204.563C651.717 208.77 643.963 210.873 635.025 210.873C626.746 210.873 619.582 208.77 613.536 204.563C609.64 201.704 606.342 198.105 603.644 193.763L602.694 208.505H581.796ZM607.031 175.575C604.928 170.842 603.875 165.386 603.875 159.207C603.875 153.028 604.928 147.573 607.031 142.84C609.265 138.107 612.354 134.426 616.297 131.797C620.239 129.167 624.708 127.852 629.703 127.852C635.092 127.852 639.823 129.167 643.897 131.797C647.972 134.426 651.127 138.107 653.361 142.84C655.726 147.573 656.909 153.028 656.909 159.207C656.909 165.386 655.66 170.842 653.164 175.575C650.798 180.307 647.577 184.055 643.504 186.814C639.429 189.444 634.764 190.759 629.505 190.759C624.51 190.759 620.043 189.444 616.1 186.814C612.288 184.055 609.265 180.307 607.031 175.575ZM709.583 248.537C713.527 249.721 717.075 250.312 720.229 250.312C726.802 250.312 732.19 248.998 736.396 246.368C740.601 243.871 744.085 240.255 746.845 235.522C749.736 230.789 752.561 225.268 755.322 218.957L801.06 109.908H777.008L747.804 182.847L717.666 109.908H693.614L737.438 207.752L732.059 220.338C730.744 223.492 728.969 225.86 726.735 227.437C724.632 229.147 722.003 230 718.85 230C717.536 230 715.826 229.607 713.723 228.817C711.62 228.16 709.32 227.24 706.823 226.056L698.542 244.002C702.08 245.838 705.775 247.356 709.583 248.537ZM824.067 208.505V70.4688H846.146V208.505H824.067ZM899.435 204.365C907.188 208.704 915.995 210.873 925.855 210.873C935.58 210.873 944.259 208.704 951.876 204.365C959.501 199.895 965.418 193.783 969.626 186.027C973.825 178.269 975.933 169.33 975.933 159.207C975.933 149.084 973.766 140.145 969.422 132.39C965.222 124.632 959.306 118.585 951.681 114.246C944.055 109.776 935.317 107.542 925.464 107.542C915.604 107.542 906.865 109.776 899.24 114.246C891.615 118.585 885.639 124.632 881.303 132.39C877.095 140.145 874.991 149.084 874.991 159.207C874.991 169.33 877.161 178.269 881.499 186.027C885.834 193.783 891.819 199.895 899.435 204.365ZM940.247 186.618C936.039 189.247 931.245 190.562 925.855 190.562C920.338 190.562 915.408 189.247 911.073 186.618C906.865 183.857 903.516 180.176 901.016 175.575C898.653 170.842 897.463 165.386 897.463 159.207C897.463 153.028 898.653 147.573 901.016 142.84C903.38 138.107 906.669 134.426 910.869 131.797C915.077 129.167 919.939 127.852 925.464 127.852C930.981 127.852 935.844 129.233 940.052 131.994C944.26 134.623 947.541 138.304 949.904 143.037C952.403 147.639 953.653 153.028 953.653 159.207C953.653 165.386 952.471 170.842 950.108 175.575C947.736 180.176 944.455 183.857 940.247 186.618ZM1004.92 109.908H1025.62L1026.67 123.62C1029.28 119.404 1032.47 116.016 1036.26 113.458C1041.92 109.514 1048.62 107.542 1056.38 107.542C1068.34 107.542 1077.53 111.223 1083.98 118.585C1090.55 125.815 1093.83 136.989 1093.83 152.108V208.505H1071.75V158.025C1071.75 150.136 1070.84 144.09 1068.99 139.881C1067.28 135.544 1064.78 132.52 1061.5 130.81C1058.35 129.102 1054.6 128.247 1050.26 128.247C1042.9 128.116 1037.19 130.548 1033.11 135.544C1029.04 140.539 1027 147.704 1027 157.038V208.505H1004.92V109.908Z" fill="white"/>
<path d="M176.692 141.946C176.692 156.108 165.216 167.588 151.06 167.588C136.904 167.588 125.428 156.108 125.428 141.946C125.428 127.785 136.904 116.305 151.06 116.305C165.216 116.305 176.692 127.785 176.692 141.946Z" fill="#FF7C2B"/>
</svg>
