<svg xmlns="http://www.w3.org/2000/svg" viewBox="0 0 313.13 199.97"><defs><style>.cls-1{fill:#f2eff8;}.cls-2{fill:#e9e6ef;}.cls-3{fill:#ddd7e1;}.cls-4{fill:#7cddb8;}.cls-5{fill:#58b790;}.cls-6{fill:#2b3ac8;}.cls-7{fill:#23a6fe;}.cls-8{fill:#ff988a;}.cls-9{fill:#d15b52;}.cls-10{fill:#fff;}.cls-11{fill:#1b2335;}.cls-12{fill:#f78174;}.cls-13{fill:#121e35;}</style></defs><title>Asset 7</title><g id="Layer_2" data-name="Layer 2"><g id="Layer_1-2" data-name="Layer 1"><rect class="cls-1" x="26.69" y="37.72" width="77.7" height="91.1" rx="19" ry="19"/><rect class="cls-1" x="210.14" y="13.49" width="75.56" height="75.56" rx="19" ry="19"/><circle class="cls-2" cx="300.01" cy="103.16" r="3.93"/><path class="cls-2" d="M23.38,149.54a4.14,4.14,0,1,1-4.13,4.13,4.14,4.14,0,0,1,4.13-4.13m0-2.66a6.8,6.8,0,1,0,6.79,6.79,6.79,6.79,0,0,0-6.79-6.79Z"/><path class="cls-2" d="M93.76,4.12l-6.3,2.36a1.2,1.2,0,0,0-.34,2.06l5.18,4.28a1.22,1.22,0,0,0,2-.73l1.11-6.63A1.22,1.22,0,0,0,93.76,4.12Z"/><rect class="cls-3" y="192.72" width="313.13" height="7.26" rx="3.63" ry="3.63"/><polygon class="cls-4" points="266.43 136.59 274.88 150.07 274.88 123.12 266.43 136.59"/><polygon class="cls-5" points="283.34 136.59 274.88 123.12 274.88 150.07 283.34 136.59"/><path class="cls-3" d="M270.68,40.19h-6.75a1.38,1.38,0,0,1,0-2.75h6.75a1.38,1.38,0,0,1,0,2.75Z"/><path class="cls-3" d="M254.43,40.19H225.17a1.38,1.38,0,0,1,0-2.75h29.26a1.38,1.38,0,0,1,0,2.75Z"/><path class="cls-3" d="M270.68,52.64H240.77a1.37,1.37,0,0,1,0-2.74h29.91a1.37,1.37,0,1,1,0,2.74Z"/><path class="cls-3" d="M231.26,52.64h-6.09a1.37,1.37,0,1,1,0-2.74h6.09a1.37,1.37,0,1,1,0,2.74Z"/><path class="cls-3" d="M270.68,65.1H256.33a1.38,1.38,0,0,1,0-2.75h14.35a1.38,1.38,0,0,1,0,2.75Z"/><path class="cls-3" d="M246.83,65.1H225.17a1.38,1.38,0,0,1,0-2.75h21.66a1.38,1.38,0,0,1,0,2.75Z"/><path class="cls-6" d="M259.18,44.94a6.13,6.13,0,1,1,6.12-6.13A6.14,6.14,0,0,1,259.18,44.94Zm0-9.51a3.39,3.39,0,1,0,3.38,3.38A3.38,3.38,0,0,0,259.18,35.43Z"/><path class="cls-6" d="M236,57.39a6.12,6.12,0,1,1,6.13-6.12A6.13,6.13,0,0,1,236,57.39Zm0-9.5a3.38,3.38,0,1,0,3.38,3.38A3.39,3.39,0,0,0,236,47.89Z"/><path class="cls-6" d="M251.58,69.85a6.13,6.13,0,1,1,6.12-6.13A6.14,6.14,0,0,1,251.58,69.85Zm0-9.51A3.39,3.39,0,1,0,255,63.72,3.38,3.38,0,0,0,251.58,60.34Z"/><path class="cls-7" d="M87.44,87.75h0a5.55,5.55,0,0,1,0-8.95h0a4.31,4.31,0,0,0,1.47-5.09,25,25,0,0,0-3.33-5.79,4.37,4.37,0,0,0-5.22-1.37,5.55,5.55,0,0,1-7.75-4.48,4.28,4.28,0,0,0-1.24-2.57,4.42,4.42,0,0,0-2.56-1.26,24.49,24.49,0,0,0-6.55,0,4.36,4.36,0,0,0-3.8,3.83,5.55,5.55,0,0,1-7.75,4.48,4.37,4.37,0,0,0-5.22,1.37,25,25,0,0,0-3.33,5.79,4.31,4.31,0,0,0,1.47,5.09h0a5.55,5.55,0,0,1,0,8.95h0a4.31,4.31,0,0,0-1.47,5.09,25.12,25.12,0,0,0,3.33,5.78A4.37,4.37,0,0,0,50.71,100a5.56,5.56,0,0,1,7.75,4.48h0a4.37,4.37,0,0,0,3.8,3.84,25.64,25.64,0,0,0,6.55,0,4.37,4.37,0,0,0,3.8-3.84h0A5.56,5.56,0,0,1,80.36,100a4.37,4.37,0,0,0,5.22-1.37,25.12,25.12,0,0,0,3.33-5.78A4.31,4.31,0,0,0,87.44,87.75Zm-21.9,4.94A9.43,9.43,0,1,1,75,83.27,9.43,9.43,0,0,1,65.54,92.69Z"/><path class="cls-8" d="M109.71,164.25H79.77a14.23,14.23,0,0,0-14.23,14.24h0a14.23,14.23,0,0,0,14.23,14.23H115Z"/><polygon class="cls-8" points="68.83 169.38 87.41 138.95 114.99 142.68 110.9 178.49 68.83 169.38"/><path class="cls-9" d="M102.3,164.82H79.77a.56.56,0,0,1-.57-.57.57.57,0,0,1,.57-.57H102.3a.57.57,0,0,1,.57.57A.56.56,0,0,1,102.3,164.82Z"/><path class="cls-8" d="M203.42,164.25h29.94a14.23,14.23,0,0,1,14.23,14.24h0a14.23,14.23,0,0,1-14.23,14.23H198.14Z"/><polygon class="cls-8" points="243.99 169.01 220.59 132.96 198.14 142.68 202.23 178.49 243.99 169.01"/><path class="cls-9" d="M233.36,164.82H205.12a.56.56,0,0,1-.57-.57.57.57,0,0,1,.57-.57h28.24a.57.57,0,0,1,.57.57A.56.56,0,0,1,233.36,164.82Z"/><path class="cls-6" d="M207.34,103.16s0,18.41,0,35.55c0,10.33,0,20.21,0,25.33v3.59c0,.2-1.67.35-4.6.46l-1.66.06c-17.6.5-67.62-.09-88.93-.38l-1.76,0-8-.11V107.16c1-1,2-1.94,3.07-2.83l.63-.55.32-.27.41-.34a78.5,78.5,0,0,1,32-15.47,73.74,73.74,0,0,1,15.31-2.12,87,87,0,0,1,16.38,1.56C193,91.43,207.34,103.16,207.34,103.16Z"/><path class="cls-6" d="M106.74,103.16S90.54,116.24,73.46,145c0,0,3.69,16.66,35.5,19.21Z"/><path class="cls-6" d="M207.34,103.16s16.2,13.08,33.28,41.88c0,0-3.69,16.66-35.5,19.21Z"/><rect class="cls-2" x="102.3" y="122.91" width="105.01" height="69.81" rx="4.76" ry="4.76"/><path class="cls-10" d="M178.79,156.88a7.05,7.05,0,0,0-5.66,2.85l-7.53-4.35a8.11,8.11,0,0,0,.71-3.3,8,8,0,0,0-.7-3.28l5.25-3a4.5,4.5,0,1,0-1.05-2.9,4.63,4.63,0,0,0,.25,1.5l-5.25,3a8.07,8.07,0,0,0-5.74-3.33v-4.31a3.27,3.27,0,1,0-1.62,0v4.31a8.08,8.08,0,0,0-5.72,3.31l-9.34-5.4a6.59,6.59,0,0,0,.5-2.52,6.47,6.47,0,1,0-1.31,3.92l9.35,5.4a7.88,7.88,0,0,0-.71,3.3,8.12,8.12,0,0,0,.69,3.27l-19.2,11a4.5,4.5,0,1,0,1.06,2.9,4.42,4.42,0,0,0-.26-1.5l19.21-11a8,8,0,0,0,5.73,3.32v10.3a6.17,6.17,0,1,0,1.62,0v-10.3a8,8,0,0,0,5.72-3.3l7.53,4.35a7,7,0,1,0,6.47-4.25Zm-7.37-14a2.88,2.88,0,1,1,.88,2.08,3,3,0,0,1-.8-1.4A3,3,0,0,1,171.42,142.89Zm-35,1.45a4.88,4.88,0,1,1,4.88-4.88,4.88,4.88,0,0,1-1.12,3.1A4.85,4.85,0,0,1,136.4,144.34Zm-5.25,24.91a2.89,2.89,0,1,1-2.88-2.88,2.91,2.91,0,0,1,2.8,2.21A2.93,2.93,0,0,1,131.15,169.25Zm25.46-32.66a1.65,1.65,0,1,1,3.3,0,1.64,1.64,0,0,1-1.65,1.66,1.71,1.71,0,0,1-.81-.21A1.68,1.68,0,0,1,156.61,136.59Zm6.21,39.91a4.56,4.56,0,1,1-5.37-4.49,5.54,5.54,0,0,1,.81-.07,5.31,5.31,0,0,1,.81.07A4.57,4.57,0,0,1,162.82,176.5Zm16-7.14a5.44,5.44,0,0,1-5.43-5.43,5.45,5.45,0,0,1,1.19-3.39,5.43,5.43,0,1,1,4.24,8.82Z"/><path class="cls-2" d="M159.07,158.46a7,7,0,0,1-.81,0,7.34,7.34,0,0,1-.81,0,6.4,6.4,0,0,1-5.12-3.92,6.42,6.42,0,0,1,.82-6.35,6.41,6.41,0,0,1,4.3-2.49,7.34,7.34,0,0,1,.81,0,7,7,0,0,1,.81,0,6.42,6.42,0,0,1,4.32,2.51,6.3,6.3,0,0,1,.81,1.4,6.46,6.46,0,0,1,0,5,6.4,6.4,0,0,1-.81,1.39A6.49,6.49,0,0,1,159.07,158.46Z"/><path class="cls-7" d="M154.55,151.32h0a1,1,0,0,1,0,1.52h0a.74.74,0,0,0-.25.86,4.56,4.56,0,0,0,.57,1,.73.73,0,0,0,.88.23.94.94,0,0,1,1.31.76.73.73,0,0,0,.65.65,4.91,4.91,0,0,0,.55,0,5.09,5.09,0,0,0,.56,0,.73.73,0,0,0,.64-.65.94.94,0,0,1,1.31-.76.74.74,0,0,0,.89-.23,4.14,4.14,0,0,0,.56-1,.72.72,0,0,0-.25-.86h0a1,1,0,0,1,0-1.52h0a.72.72,0,0,0,.25-.86,3.78,3.78,0,0,0-.56-1,.76.76,0,0,0-.89-.24.93.93,0,0,1-1.31-.75h0a.73.73,0,0,0-.64-.65,3.43,3.43,0,0,0-.56,0,3.31,3.31,0,0,0-.55,0,.74.74,0,0,0-.65.65h0a.93.93,0,0,1-1.31.75.75.75,0,0,0-.88.24,4.12,4.12,0,0,0-.57,1A.74.74,0,0,0,154.55,151.32Zm3.71-.84a1.6,1.6,0,1,1,0,3.19,1.6,1.6,0,0,1,0-3.19Z"/><path class="cls-11" d="M172.41,8.61S186,6.3,186.58,20.31s-5.85,28.48-5.85,28.48S144.37,4.43,172.41,8.61Z"/><path class="cls-11" d="M172.41,8.61s-12.08-15-30.84-5.44S126.93,30.46,115.85,32l11.27,14.86Z"/><rect class="cls-8" x="144.26" y="72.84" width="20.6" height="23.07"/><path class="cls-12" d="M143.25,71.59s1.82,11.47,10.45,11.67c11.34.28,11.15-11.16,11.15-11.16s-1.54,3.37-10.31,3.38C144.76,75.49,143.25,71.59,143.25,71.59Z"/><ellipse class="cls-11" cx="154.6" cy="34.13" rx="28.65" ry="29.38"/><path class="cls-8" d="M179.36,44.85a5.09,5.09,0,0,1,6.31-1.67c4.26,1.61,2.33,11.94-4,13.26a5,5,0,0,1-4.08-1.07S179.11,47.74,179.36,44.85Z"/><path class="cls-9" d="M178.74,51.27a.33.33,0,0,1-.17,0,.39.39,0,0,1-.18-.52c2.64-5.49,6.53-4.27,6.56-4.25a.38.38,0,0,1,.25.49.39.39,0,0,1-.49.24c-.14,0-3.29-1-5.62,3.86A.39.39,0,0,1,178.74,51.27Z"/><path class="cls-8" d="M130.51,44.85a5.11,5.11,0,0,0-6.32-1.67c-4.25,1.61-2.33,11.94,4.05,13.26a5,5,0,0,0,4.08-1.07S130.75,47.74,130.51,44.85Z"/><path class="cls-9" d="M131.13,51.27a.37.37,0,0,1-.35-.22c-2.34-4.85-5.49-3.9-5.63-3.86a.38.38,0,0,1-.24-.73s3.92-1.24,6.57,4.25a.39.39,0,0,1-.19.52A.32.32,0,0,1,131.13,51.27Z"/><path class="cls-8" d="M179.76,35.94c0,6.62-.68,20.48-5,28.7-4,7.72-10.69,11.87-19.43,12.12s-15.24-3-20.46-13-5-27.72-5-27.72,0-23.66,24.65-23.66C180.53,12.41,179.76,35.94,179.76,35.94Z"/><path class="cls-13" d="M130.51,44.85s5.26-11.55.62-19.86C131.13,25,126.92,38.36,130.51,44.85Z"/><path class="cls-13" d="M179.28,44.85S174,33.3,178.66,25C178.66,25,182.86,38.36,179.28,44.85Z"/><path class="cls-11" d="M167.68,23.31c-.36-.15-7.9,19.52-36.63,13.88,0,0-6.06-19.3,16.24-26.62s27.46,7.8,27.46,7.8Z"/><path class="cls-11" d="M167.68,23.31s-1.5,13.24,11.6,21.54c0,0,3.46-13.63-.54-22.63s-12.26-7.33-12.26-7.33Z"/><path class="cls-8" d="M170.43,87.14c-.68,7.6-7.52,13.56-15.87,13.56-8.15,0-14.86-5.67-15.82-13a73.74,73.74,0,0,1,15.31-2.12A87,87,0,0,1,170.43,87.14Z"/></g></g></svg>