<svg xmlns="http://www.w3.org/2000/svg" viewBox="0 0 294.02 205.21"><defs><style>.cls-1{fill:#f2eff8;}.cls-2{fill:#e9e6ef;}.cls-3{fill:#fff;}.cls-4{fill:#182ca0;}.cls-5{fill:#2b3ac8;}.cls-6{fill:#0088d3;}.cls-7{fill:#23a6fe;}.cls-8{fill:#ddd7e1;}</style></defs><title>Asset 6</title><g id="Layer_2" data-name="Layer 2"><g id="Layer_1-2" data-name="Layer 1"><rect class="cls-1" x="1.57" y="43.5" width="285.45" height="113.31" rx="56.66" ry="56.66"/><circle class="cls-2" cx="26.97" cy="30.66" r="3.93"/><path class="cls-3" d="M39.69,78.17a4.13,4.13,0,1,1-4.13,4.13,4.14,4.14,0,0,1,4.13-4.13m0-2.66a6.79,6.79,0,1,0,6.8,6.79,6.79,6.79,0,0,0-6.8-6.79Z"/><path class="cls-3" d="M246.31,102.27l.7-6.68a1.21,1.21,0,0,0-1.7-1.23l-6.14,2.73a1.21,1.21,0,0,0-.21,2.09l5.43,3.95A1.22,1.22,0,0,0,246.31,102.27Z"/><path class="cls-4" d="M260.45,23l-5.14-1.77.27.74c-11.59-1-22.62,7.8-25,20.4-1.94,10.16,2.31,19.75,9.94,24.48l-.83.3,4.63,1.54a20.33,20.33,0,0,0,3.68,1c12.13,2,24-7.12,26.51-20.25C276.75,37.59,270.6,26.5,260.45,23Z"/><path class="cls-5" d="M246.56,46.83a2.78,2.78,0,0,1-2.14-3.38A3,3,0,0,1,247.74,41a2.78,2.78,0,0,1,2.13,3.41,3,3,0,0,1-3.27,2.46h0M234,40.12a1.14,1.14,0,0,1-.76-.46,1.57,1.57,0,0,1-.34-1.13,4.26,4.26,0,0,1,.51-1.32c.16-.33.32-.66.5-1a16,16,0,0,1,1.17-1.82l.14-.19.14-.17A17.22,17.22,0,0,1,240,29.87a16.47,16.47,0,0,1,3.36-1.55,14.28,14.28,0,0,1,3.47-.66,13.81,13.81,0,0,1,1.93,0,13.29,13.29,0,0,1,1.56.17l.57.1a12.79,12.79,0,0,1,1.92.56,13.08,13.08,0,0,1,3.47,1.91,16.4,16.4,0,0,1,3.92,4.44,15.16,15.16,0,0,1,2,6.07,17.61,17.61,0,0,1,.1,2.62,19.08,19.08,0,0,1-1.12,6l-.1.23a16.1,16.1,0,0,1-2.46,4.3A18.3,18.3,0,0,1,254,58.26a14.15,14.15,0,0,1-5,2,15.65,15.65,0,0,1-5.3,0l-.77-.14a5.45,5.45,0,0,1-.58-.14,13.51,13.51,0,0,1-2.34-.82,13.72,13.72,0,0,1-4.91-3.95,17,17,0,0,1-2-3.14,14.86,14.86,0,0,1-1.27-4,5.6,5.6,0,0,1-.07-.59A1.59,1.59,0,0,1,232.89,46a1.28,1.28,0,0,1,.66-.08,1,1,0,0,1,.52.25,1.72,1.72,0,0,1,.6,1,16,16,0,0,0,.74,2.56,12,12,0,0,0,1,2.1,11.52,11.52,0,0,0,4.15,4,11.1,11.1,0,0,0,1.81.86L243,57l.05-.18c.07-.3.13-.62.19-.93.09-.54.21-1.07.31-1.6.06-.35.14-.71.21-1.07s0-.41-.26-.53a9.11,9.11,0,0,1-2.43-1.57,7.9,7.9,0,0,1-2.35-3.94,11.44,11.44,0,0,1-.35-3.1,9.36,9.36,0,0,1,.32-2.09,9.93,9.93,0,0,1,3.39-5.18A8.74,8.74,0,0,1,246,35a8.89,8.89,0,0,1,2-.1,5.47,5.47,0,0,1,.72.08,7.81,7.81,0,0,1,3.46,1.46,8.19,8.19,0,0,1,1.93,2.05,8.41,8.41,0,0,1,1.17,2.65,2.75,2.75,0,0,1,.14.81,1.57,1.57,0,0,1-1.5,1.6h-.24a1.35,1.35,0,0,1-1-.81,1.21,1.21,0,0,1-.12-.38,6,6,0,0,0-.71-1.75A5.18,5.18,0,0,0,249,38.24a5.26,5.26,0,0,0-.93-.23A5.4,5.4,0,0,0,244,39a6.6,6.6,0,0,0-1.93,8.48,5.22,5.22,0,0,0,2.83,2.39,5,5,0,0,0,1,.25,5.41,5.41,0,0,0,3.16-.49A6.21,6.21,0,0,0,251.14,48a2.29,2.29,0,0,1,.63-.54,1.33,1.33,0,0,1,1.88.73,1.58,1.58,0,0,1-.28,1.61,9.51,9.51,0,0,1-1.58,1.59,8.62,8.62,0,0,1-3.43,1.66c-.4.09-.82.12-1.22.18l-.21,0-.2.09-.1.14-.74,3.87v.1c.11,0,.22,0,.33,0,.43,0,.87,0,1.29-.08a15.29,15.29,0,0,0,2.66-.61A13.46,13.46,0,0,0,253,55.46a12.39,12.39,0,0,0,3.55-3.34,16.07,16.07,0,0,0,1.88-3.43,13.93,13.93,0,0,0,.6-1.79,13.93,13.93,0,0,0,.43-4.57,13.35,13.35,0,0,0-1.44-5.2,12.05,12.05,0,0,0-3.38-4.07,11.37,11.37,0,0,0-3-1.68,10.21,10.21,0,0,0-1.7-.47l-.39-.07a11.62,11.62,0,0,0-5.56.47,12.93,12.93,0,0,0-4.05,2.21,13.7,13.7,0,0,0-2.68,2.85A14.45,14.45,0,0,0,235.7,39a2.94,2.94,0,0,1-.25.46,1.44,1.44,0,0,1-1.14.65,1.67,1.67,0,0,1-.32,0m17.7-19.8c-12.12-1.95-24,7.11-26.51,20.25s5.3,25.35,17.42,27.3,24-7.12,26.51-20.25-5.28-25.35-17.42-27.3"/><path class="cls-3" d="M250.31,27.84a13.29,13.29,0,0,0-1.56-.17,13.81,13.81,0,0,0-1.93,0,14.28,14.28,0,0,0-3.47.66A16.47,16.47,0,0,0,240,29.87a17.22,17.22,0,0,0-4.64,4.18l-.14.17-.14.19a16,16,0,0,0-1.17,1.82c-.18.32-.34.65-.5,1a4.26,4.26,0,0,0-.51,1.32,1.57,1.57,0,0,0,.34,1.13,1.14,1.14,0,0,0,.76.46,1.67,1.67,0,0,0,.32,0,1.44,1.44,0,0,0,1.14-.65,2.94,2.94,0,0,0,.25-.46,14.45,14.45,0,0,1,1.5-2.66,13.7,13.7,0,0,1,2.68-2.85,12.93,12.93,0,0,1,4.05-2.21,11.62,11.62,0,0,1,5.56-.47l.39.07a10.21,10.21,0,0,1,1.7.47,11.37,11.37,0,0,1,3,1.68A12.05,12.05,0,0,1,258,37.13a13.35,13.35,0,0,1,1.44,5.2A13.93,13.93,0,0,1,259,46.9a13.93,13.93,0,0,1-.6,1.79,16.07,16.07,0,0,1-1.88,3.43A12.39,12.39,0,0,1,253,55.46a13.46,13.46,0,0,1-2.83,1.32,15.29,15.29,0,0,1-2.66.61c-.42.06-.86.06-1.29.08-.11,0-.22,0-.33,0v-.1l.74-3.87.1-.14.2-.09.21,0c.4-.06.82-.09,1.22-.18a8.62,8.62,0,0,0,3.43-1.66,9.51,9.51,0,0,0,1.58-1.59,1.58,1.58,0,0,0,.28-1.61,1.33,1.33,0,0,0-1.88-.73,2.29,2.29,0,0,0-.63.54A6.21,6.21,0,0,1,249,49.67a5.41,5.41,0,0,1-3.16.49,5,5,0,0,1-1-.25,5.22,5.22,0,0,1-2.83-2.39A6.6,6.6,0,0,1,244,39a5.4,5.4,0,0,1,4.07-1,5.26,5.26,0,0,1,.93.23,5.18,5.18,0,0,1,2.84,2.36,6,6,0,0,1,.71,1.75,1.21,1.21,0,0,0,.12.38,1.35,1.35,0,0,0,1,.81h.24a1.57,1.57,0,0,0,1.5-1.6,2.75,2.75,0,0,0-.14-.81,8.41,8.41,0,0,0-1.17-2.65,8.19,8.19,0,0,0-1.93-2.05A7.81,7.81,0,0,0,248.69,35a5.47,5.47,0,0,0-.72-.08,8.89,8.89,0,0,0-2,.1,8.74,8.74,0,0,0-3.87,1.82A9.93,9.93,0,0,0,238.72,42a9.36,9.36,0,0,0-.32,2.09,11.44,11.44,0,0,0,.35,3.1,7.9,7.9,0,0,0,2.35,3.94,9.11,9.11,0,0,0,2.43,1.57c.27.12.32.23.26.53s-.15.72-.21,1.07c-.1.53-.22,1.06-.31,1.6-.06.31-.12.63-.19.93L243,57l-.65-.23a11.1,11.1,0,0,1-1.81-.86,11.52,11.52,0,0,1-4.15-4,12,12,0,0,1-1-2.1,16,16,0,0,1-.74-2.56,1.72,1.72,0,0,0-.6-1,1,1,0,0,0-.52-.25,1.28,1.28,0,0,0-.66.08,1.59,1.59,0,0,0-1.06,1.54,5.6,5.6,0,0,0,.07.59,14.86,14.86,0,0,0,1.27,4,17,17,0,0,0,2,3.14,13.72,13.72,0,0,0,4.91,3.95,13.51,13.51,0,0,0,2.34.82,5.45,5.45,0,0,0,.58.14l.77.14a15.65,15.65,0,0,0,5.3,0,14.15,14.15,0,0,0,5-2,18.3,18.3,0,0,0,4.61-4.18,16.1,16.1,0,0,0,2.46-4.3l.1-.23a19.08,19.08,0,0,0,1.12-6,17.61,17.61,0,0,0-.1-2.62,15.16,15.16,0,0,0-2-6.07,16.4,16.4,0,0,0-3.92-4.44,13.08,13.08,0,0,0-3.47-1.91,12.79,12.79,0,0,0-1.92-.56l-.57-.1"/><path class="cls-3" d="M247.74,41a3,3,0,0,0-3.32,2.49,2.78,2.78,0,0,0,2.14,3.38h0a3,3,0,0,0,3.27-2.46A2.78,2.78,0,0,0,247.74,41"/><path class="cls-2" d="M31.76,119.64h0a5.94,5.94,0,0,1-9.56,0h0a4.59,4.59,0,0,0-5.43-1.57,27,27,0,0,0-6.18,3.55,4.66,4.66,0,0,0-1.46,5.58,5.94,5.94,0,0,1-4.78,8.28,4.57,4.57,0,0,0-2.75,1.31,4.76,4.76,0,0,0-1.35,2.75,26.59,26.59,0,0,0,0,7,4.65,4.65,0,0,0,4.1,4.06,5.93,5.93,0,0,1,4.78,8.28,4.66,4.66,0,0,0,1.46,5.58A27,27,0,0,0,16.75,168a4.59,4.59,0,0,0,5.43-1.57h0a5.93,5.93,0,0,1,9.56,0h0A4.59,4.59,0,0,0,37.19,168a26.83,26.83,0,0,0,6.18-3.55,4.67,4.67,0,0,0,1.46-5.58,5.93,5.93,0,0,1,4.78-8.28h0a4.66,4.66,0,0,0,4.1-4.06,26.59,26.59,0,0,0,0-7,4.66,4.66,0,0,0-4.1-4.06h0a5.94,5.94,0,0,1-4.78-8.28,4.67,4.67,0,0,0-1.46-5.58,26.83,26.83,0,0,0-6.18-3.55A4.59,4.59,0,0,0,31.76,119.64ZM37,143A10.07,10.07,0,1,1,27,133,10.06,10.06,0,0,1,37,143Z"/><path class="cls-5" d="M144.81,204.91c-.84.69-1.61,0-2.34-.2q-30.61-9.15-61.23-18.38l-9.67-2.88V126.36l54.29,13.52c.53-.59,1-1,1.33-1.49,4.15-5.83,8.25-11.7,12.45-17.49,1.45-2,2.63-4.22,4.5-5.9,0,.53,0,1.06,0,1.59q0,42.69,0,85.37C144.16,203,143.79,204.11,144.81,204.91Z"/><path class="cls-4" d="M144.81,204.91c-1-.8-.65-1.94-.65-2.95q0-42.69,0-85.37c0-.53,0-1.06,0-1.59h.45a8.72,8.72,0,0,0,.54,1q7.16,10,14.36,20c.95,1.32,1.58,2.93,3.13,3.84l54.1-13.46v57c-2.72,1.1-5.49,1.76-8.21,2.58q-31,9.32-61.94,18.59C146,204.67,145.4,204.78,144.81,204.91Z"/><path class="cls-6" d="M216.72,126.37l-54.1,13.46c-1.55-.91-2.18-2.52-3.13-3.84q-7.23-10-14.36-20a8.72,8.72,0,0,1-.54-1c0-.15,0-.29,0-.44l13.7-2.86c16.43-3.46,32.85-6.9,49.26-10.43,1.56-.34,3.35-.13,4.64-1.42a2.68,2.68,0,0,1,1.9,1.08q10,10,19.94,20.06c.15.16.26.36.61.83Z"/><path class="cls-7" d="M144.6,114.56c0,.15,0,.29,0,.44h-.45c-1.87,1.68-3,3.9-4.5,5.9-4.2,5.79-8.3,11.66-12.45,17.49-.35.48-.8.9-1.33,1.49L71.57,126.36,54,121.88c-.07-.8.48-1,.82-1.38q9.46-9.56,19-19.07c.55-.55.92-1.45,1.94-1.36a1.91,1.91,0,0,0,.57.35q13.89,2.92,27.78,5.82c8.31,1.73,16.64,3.38,24.92,5.21,4.62,1,9.31,1.73,13.85,3.08Z"/><path class="cls-2" d="M144.6,114.56l-1.8,0,1.34-1V87.35a1.73,1.73,0,0,0-.72-1.56c2.24-.7,4.28.41,6.36.84,14.16,2.88,28.31,5.9,42.45,8.9,6.66,1.41,13.31,2.88,20,4.32-1.29,1.29-3.08,1.08-4.64,1.42-16.41,3.53-32.83,7-49.26,10.43Z"/><path class="cls-8" d="M143.42,85.79a1.73,1.73,0,0,1,.72,1.56v26.21l-1.34,1c-4.54-1.35-9.23-2.06-13.85-3.08-8.28-1.83-16.61-3.48-24.92-5.21q-13.89-2.89-27.78-5.82a1.91,1.91,0,0,1-.57-.35c4.88-1.31,9.86-2.18,14.8-3.22Q115.73,91.5,141,86.22C141.78,86.05,142.6,85.93,143.42,85.79Z"/><path class="cls-2" d="M148.84,16.05h17.5c1.13,1.1,2.21,2.13,3.26,3.19a.72.72,0,0,1,0,1.13c-1.26,1.27-2.55,2.52-3.89,3.84l-2-2.27-2.17,2.39-2.14-2.26-2.05,2.2L155.25,22l-2.73,2.83h-3.7a8.7,8.7,0,0,1-7.45,4.43A8.27,8.27,0,0,1,135,26.72a8.8,8.8,0,1,1,13.8-10.67ZM135,20.44a2.35,2.35,0,0,0,2.31,2.3,2.34,2.34,0,0,0,0-4.68A2.34,2.34,0,0,0,135,20.44Z"/><path class="cls-8" d="M206,53.67H170.76a6.15,6.15,0,0,0-6.15,6.15V82.29a6.15,6.15,0,0,0,6.15,6.15h4v8a.94.94,0,0,0,1.61.67L185,88.44h21a6.15,6.15,0,0,0,6.15-6.15V59.82A6.16,6.16,0,0,0,206,53.67Z"/><rect class="cls-3" x="172.85" y="62.81" width="31" height="2.7" rx="1.35" ry="1.35"/><rect class="cls-3" x="172.85" y="69.95" width="31" height="2.7" rx="1.35" ry="1.35"/><rect class="cls-3" x="172.85" y="77.09" width="21.01" height="2.7" rx="1.35" ry="1.35"/><path class="cls-7" d="M275,106.6A19.07,19.07,0,1,0,294,125.67,19.09,19.09,0,0,0,275,106.6Zm15.84,17.49h-7.12c-.19-5-1.25-10-3.12-13.32A15.94,15.94,0,0,1,290.79,124.09ZM275,141.59c-2.21,0-5.25-5.42-5.57-14.35h11.14C280.2,136.17,277.16,141.59,275,141.59Zm-5.57-17.5c.32-8.92,3.36-14.34,5.57-14.34s5.25,5.42,5.57,14.34Zm0-13.32c-1.87,3.36-2.93,8.34-3.12,13.32h-7.12A15.94,15.94,0,0,1,269.35,110.77Zm-10.24,16.47h7.12c.19,5,1.25,10,3.12,13.33A16,16,0,0,1,259.11,127.24Zm21.44,13.33c1.87-3.37,2.93-8.35,3.12-13.33h7.12A16,16,0,0,1,280.55,140.57Z"/><path class="cls-6" d="M115.87,42.37a1.31,1.31,0,0,1-.62.07q-19.77,0-39.54,0a6,6,0,0,0-5.89,5c-.33,2.08-.77,4.15-1.14,6.22q-.71,3.86-1.39,7.7-.58,3.15-1.16,6.3c-.44,2.42-.87,4.85-1.31,7.27a.88.88,0,0,1-.18.52l-.61,0c-.09-.11-.22-.08-.34-.05a6,6,0,0,1-5-6q0-10,0-19.94c0-5.29,0-10.57,0-15.86a6,6,0,0,1,6.12-6.14c3.76,0,7.53,0,11.29,0h3.26a.76.76,0,0,1,.63.25c1.8,1.81,3.62,3.61,5.42,5.42a1.06,1.06,0,0,0,.83.35q11.76,0,23.53,0a5.94,5.94,0,0,1,5.84,4.29,5,5,0,0,1,.24,1.44Z"/><path class="cls-1" d="M107.53,3.94V48.21a3.94,3.94,0,0,1-3.94,3.94H71A3.93,3.93,0,0,1,67,48.21V13.15a4,4,0,0,1,.35-1.63,4.22,4.22,0,0,1,.8-1.16L77.4,1.15a4.22,4.22,0,0,1,1.16-.8A4,4,0,0,1,80.19,0h23.4A3.94,3.94,0,0,1,107.53,3.94Z"/><path class="cls-8" d="M78.56.35V7.58a4,4,0,0,1-3.94,3.94H67.39a4.22,4.22,0,0,1,.8-1.16L77.4,1.15A4.22,4.22,0,0,1,78.56.35Z"/><path class="cls-8" d="M99.67,19.22H74.9a1,1,0,1,1,0-2H99.67a1,1,0,1,1,0,2Z"/><path class="cls-8" d="M99.67,25.66H74.9a1,1,0,1,1,0-2H99.67a1,1,0,1,1,0,2Z"/><path class="cls-8" d="M99.67,32.09H74.9a1,1,0,1,1,0-2H99.67a1,1,0,1,1,0,2Z"/><path class="cls-8" d="M87.28,38.52H74.9a1,1,0,1,1,0-2H87.28a1,1,0,1,1,0,2Z"/><path class="cls-7" d="M115.87,42.37a6.34,6.34,0,0,0,1.37.17,6,6,0,0,1,4.92,5.65,11.09,11.09,0,0,1-.32,2.43q-.68,3.81-1.36,7.62c-.4,2.26-.81,4.51-1.21,6.76-.34,1.91-.64,3.81-1,5.71A5.83,5.83,0,0,1,114.68,75a7.35,7.35,0,0,1-3.15.47H65.07l-.43,0a.88.88,0,0,0,.18-.52c.44-2.42.87-4.85,1.31-7.27q.57-3.15,1.16-6.3.69-3.84,1.39-7.7c.37-2.07.81-4.14,1.14-6.22a6,6,0,0,1,5.89-5q19.77,0,39.54,0A1.31,1.31,0,0,0,115.87,42.37Z"/></g></g></svg>