<svg xmlns="http://www.w3.org/2000/svg" viewBox="0 0 259.34 166.94"><defs><style>.cls-1{fill:#e9e6ef;}.cls-2{fill:#f2eff8;}.cls-3{fill:#7cddb8;}.cls-4{fill:#58b790;}.cls-5{fill:#2b3ac8;}.cls-6{fill:#ddd7e1;}.cls-7{fill:#23a6fe;}.cls-8{fill:#50c1ff;}.cls-9{fill:#0095e8;}</style></defs><title>Asset 5</title><g id="Layer_2" data-name="Layer 2"><g id="Layer_1-2" data-name="Layer 1"><path class="cls-1" d="M237.12,100.12l-.44.45c-.81.8-1.59,1.63-2.42,2.4a1.28,1.28,0,0,0,0,2q6.75,6.72,13.47,13.46c.47.47.93.95,1.41,1.41a1.14,1.14,0,0,0,1.79,0l2.53-2.53.42-.42c.14.14.26.23.36.33,1.16,1.15,2.32,2.3,3.46,3.46a5.42,5.42,0,0,1,.83,6.69,6.31,6.31,0,0,1-.91,1.15l-16.15,16.17-12,12a5.38,5.38,0,0,1-6.67.86,5.19,5.19,0,0,1-1-.71c-1.26-1.23-2.5-2.49-3.74-3.73a2.26,2.26,0,0,1-.16-.21,4,4,0,0,1,.33-.37l2.57-2.58a1.13,1.13,0,0,0,0-1.82l-14.91-14.92a1.17,1.17,0,0,0-1.87,0l-2.45,2.46-.43.42a3.6,3.6,0,0,1-.35-.29c-1.17-1.16-2.34-2.32-3.5-3.5a5.42,5.42,0,0,1,0-7.75c3.55-3.58,7.12-7.13,10.69-10.7L225.5,96.36a5.42,5.42,0,0,1,6.11-1.24,5.76,5.76,0,0,1,1.56,1c1.29,1.23,2.53,2.51,3.79,3.77A1.58,1.58,0,0,1,237.12,100.12ZM219.2,118.05h0l-5.14,5.14-4.3,4.31a1.15,1.15,0,0,0,0,1.79l.4.41,8.93,8.92c1.85,1.85,3.69,3.7,5.54,5.54a1.2,1.2,0,0,0,2,0l.88-.89q8.88-8.88,17.78-17.75a1.28,1.28,0,0,0,0-1.93c-4.06-4-8.1-8.09-12.14-12.13l-2.82-2.82a1.12,1.12,0,0,0-1.67,0l-.32.32Zm30.86,7.77,2.55,2.55,2.56-2.55-2.56-2.56Zm-3.87,3.88-2.55,2.55a19.78,19.78,0,0,0,2.58,2.52l2.53-2.52Zm-6.43,6.43-2.56,2.57,2.55,2.55,2.56-2.57Zm-9,9,2.55,2.55a19.78,19.78,0,0,0,2.52-2.59l-2.52-2.52Zm-1.31,6.44L226.89,149l-2.55,2.55,2.55,2.56Zm1.28-50.17-2.56-2.56-2.53,2.53a18,18,0,0,0,2.59,2.54Zm-9,9,2.56-2.55-2.55-2.55-2.56,2.56Zm-3.86,3.9-2.56-2.57-2.53,2.53a18,18,0,0,0,2.58,2.54Zm-11.55,6.41,2.56,2.56,2.53-2.53a17.49,17.49,0,0,0-2.59-2.54Zm-3.87,3.89-2.56,2.56,2.53,2.53A17.18,17.18,0,0,0,205,127l-2.28-2.27A2.81,2.81,0,0,0,202.45,124.56Z"/><path class="cls-2" d="M219.07,138.62c1.85,1.85,3.69,3.7,5.54,5.54a1.2,1.2,0,0,0,2,0l.88-.89q8.88-8.88,17.78-17.75a1.28,1.28,0,0,0,0-1.93c-4.06-4-8.1-8.09-12.14-12.13l-2.82-2.82a1.12,1.12,0,0,0-1.67,0l-.32.32-9.12,9.12h0l-5.14,5.14-4.3,4.31a1.15,1.15,0,0,0,0,1.79l.4.41Z"/><circle class="cls-1" cx="103.64" cy="3.93" r="3.93"/><path class="cls-1" d="M245.7,83.26l.7-6.68a1.2,1.2,0,0,0-1.69-1.23l-6.14,2.73a1.22,1.22,0,0,0-.22,2.09l5.44,4A1.21,1.21,0,0,0,245.7,83.26Z"/><path class="cls-1" d="M30.33,128h0a4.52,4.52,0,0,1-7.26,0h0a3.5,3.5,0,0,0-4.13-1.19,20.61,20.61,0,0,0-4.7,2.69,3.54,3.54,0,0,0-1.11,4.24A4.51,4.51,0,0,1,9.49,140a3.52,3.52,0,0,0-2.09,1,3.62,3.62,0,0,0-1,2.09,20.74,20.74,0,0,0,0,5.3,3.56,3.56,0,0,0,3.12,3.09,4.51,4.51,0,0,1,3.63,6.29A3.53,3.53,0,0,0,14.23,162a20.28,20.28,0,0,0,4.7,2.7,3.5,3.5,0,0,0,4.13-1.19h0a4.5,4.5,0,0,1,7.26,0h0a3.49,3.49,0,0,0,4.13,1.19,20.22,20.22,0,0,0,4.69-2.7,3.53,3.53,0,0,0,1.11-4.23,4.51,4.51,0,0,1,3.63-6.29h0A3.56,3.56,0,0,0,47,148.41a20.74,20.74,0,0,0,0-5.3A3.56,3.56,0,0,0,43.89,140h0a4.51,4.51,0,0,1-3.63-6.29,3.54,3.54,0,0,0-1.11-4.24,20.55,20.55,0,0,0-4.69-2.69A3.49,3.49,0,0,0,30.33,128Zm4,17.77a7.65,7.65,0,1,1-7.65-7.64A7.66,7.66,0,0,1,34.34,145.76Z"/><path class="cls-1" d="M24.2,21.9h0A7.19,7.19,0,0,1,21,33.05h0a5.6,5.6,0,0,0-3.66,5.81,32.31,32.31,0,0,0,2.06,8.39,5.67,5.67,0,0,0,6,3.59,7.19,7.19,0,0,1,8,8.35A5.56,5.56,0,0,0,34,62.84a5.71,5.71,0,0,0,2.74,2.5,32.56,32.56,0,0,0,8.14,2.35A5.65,5.65,0,0,0,51,64.28a7.2,7.2,0,0,1,11.26-2.79,5.64,5.64,0,0,0,7,.17,32.4,32.4,0,0,0,6.22-6,5.58,5.58,0,0,0,0-6.86h0a7.19,7.19,0,0,1,3.21-11.14h0a5.56,5.56,0,0,0,3.66-5.8,32.31,32.31,0,0,0-2.06-8.39,5.67,5.67,0,0,0-6-3.59,7.2,7.2,0,0,1-8-8.35h0a5.65,5.65,0,0,0-3.35-6.14A32.56,32.56,0,0,0,54.78,3a5.67,5.67,0,0,0-6.11,3.41h0A7.2,7.2,0,0,1,37.42,9.21a5.69,5.69,0,0,0-7-.18,33,33,0,0,0-6.22,6A5.61,5.61,0,0,0,24.2,21.9Zm29,1.72A12.21,12.21,0,1,1,38.13,32,12.21,12.21,0,0,1,53.24,23.62Z"/><polygon class="cls-3" points="0 92.63 8.45 106.1 8.45 79.16 0 92.63"/><polygon class="cls-4" points="16.9 92.63 8.45 79.16 8.45 106.1 16.9 92.63"/><path class="cls-5" d="M49.85,112.74v20.12a9.52,9.52,0,0,0,9.52,9.52H205.25a9.52,9.52,0,0,0,9.52-9.52V112.74Z"/><path class="cls-2" d="M49.85,112.74V34.86a9.06,9.06,0,0,1,.1-1.38,10,10,0,0,1,.57-2.13,9.54,9.54,0,0,1,8.85-6H205.25a9.52,9.52,0,0,1,9.52,9.51v77.88Z"/><path class="cls-6" d="M150.66,65.05,122.71,50.34a4.52,4.52,0,0,0-6.62,4V83.75a4.51,4.51,0,0,0,6.62,4l28-14.7A4.52,4.52,0,0,0,150.66,65.05Z"/><rect class="cls-7" x="83.81" y="126.46" width="106" height="2.19" rx="1.1" ry="1.1"/><rect class="cls-1" x="97.19" y="124.19" width="12.92" height="6.75" rx="3.37" ry="3.37"/><circle class="cls-1" cx="74.97" cy="127.56" r="2.47"/><circle class="cls-3" cx="198.65" cy="127.56" r="2.47"/><circle class="cls-7" cx="65.97" cy="127.56" r="2.47"/><polygon class="cls-7" points="173.45 166.94 165.64 159.13 157.83 166.94 150.02 159.13 142.21 166.94 134.4 159.13 127.5 166.02 125.66 164.18 134.4 155.44 142.21 163.26 150.02 155.44 157.83 163.26 165.64 155.44 173.45 163.26 177.82 158.89 179.66 160.73 173.45 166.94"/><polygon class="cls-8" points="203.51 49.1 212.02 55.96 208.42 65.76 199.69 58.93 203.51 49.1"/><polygon class="cls-7" points="225.15 33.98 203.51 49.1 212.02 55.96 233.66 40.84 225.15 33.98"/><polygon class="cls-9" points="208.42 65.76 212.02 55.96 233.66 40.84 230.07 50.64 208.42 65.76"/><path class="cls-3" d="M179.66,21.22a4.13,4.13,0,1,1-4.13,4.13,4.13,4.13,0,0,1,4.13-4.13m0-2.66a6.79,6.79,0,1,0,6.79,6.79,6.79,6.79,0,0,0-6.79-6.79Z"/></g></g></svg>