<svg xmlns="http://www.w3.org/2000/svg" viewBox="0 0 275.74 156.12"><defs><style>.cls-1{fill:#e9e6ef;}.cls-2{fill:#7cddb8;}.cls-3{fill:#58b790;}.cls-4{fill:#f2eff8;}.cls-5{fill:#ddd7e1;}.cls-6{fill:#2b3ac8;}.cls-7{fill:#fff;}.cls-8{fill:#23a6fe;}.cls-9{fill:#50c1ff;}.cls-10{fill:#0095e8;}.cls-11{fill:#d17b09;}.cls-12{fill:#f99400;}</style></defs><title>Asset 4</title><g id="Layer_2" data-name="Layer 2"><g id="Layer_1-2" data-name="Layer 1"><circle class="cls-1" cx="66.52" cy="29.56" r="3.93"/><path class="cls-1" d="M275,73.16l.7-6.68A1.2,1.2,0,0,0,274,65.25L267.9,68a1.22,1.22,0,0,0-.22,2.09L273.12,74A1.2,1.2,0,0,0,275,73.16Z"/><polygon class="cls-2" points="5.13 16.09 13.59 29.56 13.59 2.62 5.13 16.09"/><polygon class="cls-3" points="22.04 16.09 13.59 2.62 13.59 29.56 22.04 16.09"/><path class="cls-4" d="M217.22,55A49,49,0,0,0,125,33.43,26.2,26.2,0,0,0,86.3,54.58a36.75,36.75,0,0,0,15.06,70.28H210.24a35.29,35.29,0,0,0,7-69.89Z"/><path class="cls-5" d="M184.73,38.08h0a7.3,7.3,0,0,1,0,11.75h0a5.67,5.67,0,0,0-1.93,6.69,33.19,33.19,0,0,0,4.36,7.59,5.75,5.75,0,0,0,6.86,1.8,7.29,7.29,0,0,1,10.18,5.87,5.57,5.57,0,0,0,1.62,3.38,5.73,5.73,0,0,0,3.37,1.66,33,33,0,0,0,8.58,0,5.73,5.73,0,0,0,5-5,7.29,7.29,0,0,1,10.18-5.87,5.74,5.74,0,0,0,6.85-1.8,32.86,32.86,0,0,0,4.37-7.59,5.68,5.68,0,0,0-1.93-6.69h0a7.3,7.3,0,0,1,0-11.75h0a5.67,5.67,0,0,0,1.93-6.68,32.65,32.65,0,0,0-4.37-7.59,5.74,5.74,0,0,0-6.85-1.8,7.3,7.3,0,0,1-10.18-5.88h0a5.74,5.74,0,0,0-5-5,33,33,0,0,0-8.58,0,5.74,5.74,0,0,0-5,5h0A7.3,7.3,0,0,1,194,22a5.75,5.75,0,0,0-6.86,1.8,33,33,0,0,0-4.36,7.59A5.65,5.65,0,0,0,184.73,38.08Zm28.75-6.49A12.37,12.37,0,1,1,201.11,44,12.37,12.37,0,0,1,213.48,31.59Z"/><rect class="cls-6" x="39.85" y="70.22" width="105.23" height="68.38" rx="12.09" ry="12.09"/><path class="cls-7" d="M77.24,115H68l-2.09,8h-7.5L68.9,85.84h7.45L86.88,123H79.36Zm-7.81-5.66h6.33L72.67,97.5h-.15Z"/><path class="cls-7" d="M97.06,109.54V123H89.87V85.84h12.42a12,12,0,0,1,8.85,3.28,11.64,11.64,0,0,1,3.27,8.59,11.57,11.57,0,0,1-3.27,8.58,12,12,0,0,1-8.85,3.25Zm0-5.64h5.23a4.27,4.27,0,0,0,3.69-1.73,7.33,7.33,0,0,0,1.26-4.41A7.63,7.63,0,0,0,106,93.25a4.25,4.25,0,0,0-3.69-1.77H97.06Z"/><path class="cls-7" d="M126.57,123h-7.16V85.84h7.16Z"/><path class="cls-6" d="M120.65,134.35v19.91a1.86,1.86,0,0,1-3.18,1.31L96,134.06Z"/><circle class="cls-8" cx="41.48" cy="74.02" r="21.1"/><path class="cls-7" d="M38.48,83.62h-.07a2.24,2.24,0,0,1-1.65-.8l-8.12-9.67a2.25,2.25,0,1,1,3.44-2.9L38.6,78,51,65.11a2.25,2.25,0,0,1,3.25,3.12L40.11,82.93A2.23,2.23,0,0,1,38.48,83.62Z"/><path class="cls-5" d="M176,149.76a6.37,6.37,0,1,0,8.79-5.89V132H180v11.92A6.37,6.37,0,0,0,176,149.76Zm6.38-2.74a2.72,2.72,0,0,1,2.41,1.46,2.65,2.65,0,0,1,.33,1.28,2.75,2.75,0,0,1-5.5,0,2.71,2.71,0,0,1,.34-1.33A2.76,2.76,0,0,1,182.39,147Z"/><path class="cls-8" d="M163.67,143.59a5.23,5.23,0,0,0-1.48-.2,6.37,6.37,0,1,0,6.36,6.37,6.19,6.19,0,0,0-1-3.35l4.27-5.88V132H167v7Zm1.23,6.54a2.74,2.74,0,1,1-3.91-2.84,2.68,2.68,0,0,1,1.2-.27,2.74,2.74,0,0,1,2.74,2.74C164.93,149.89,164.91,150,164.9,150.13Z"/><path class="cls-8" d="M197.18,146.41a6.19,6.19,0,0,0-1,3.35,6.37,6.37,0,1,0,6.36-6.37,5.23,5.23,0,0,0-1.48.2L197.74,139v-7h-4.83v8.58Zm6.59.87a2.75,2.75,0,1,1-3.91,2.85h0c0-.12,0-.23,0-.36a2.76,2.76,0,0,1,3.93-2.48Z"/><polygon class="cls-9" points="150.81 15.12 142.29 21.98 145.89 31.77 154.62 24.95 150.81 15.12"/><polygon class="cls-8" points="129.16 0 150.81 15.12 142.29 21.98 120.65 6.86 129.16 0"/><polygon class="cls-10" points="145.89 31.77 142.29 21.98 120.65 6.86 124.24 16.66 145.89 31.77"/><path class="cls-11" d="M223.91,110.46c4.72-12,17.86-19.16,29.34-15.95a19.54,19.54,0,0,1,4.44,1.87l.13-1.06L262,99.8h0c5.12,5.5,6.75,14,3.48,22.32-4.73,12-17.86,19.17-29.34,15.95a18.9,18.9,0,0,1-9-5.56h0l-3.55-3.8.82-.19A22,22,0,0,1,223.91,110.46Z"/><path class="cls-12" d="M239.74,113.22l-1.85-.51a.8.8,0,0,0-.15,0l-2.15,5.46.17,0,2.49.69c.47.13.95.25,1.42.36a4.64,4.64,0,0,0,1.58.07,2.52,2.52,0,0,0,1.87-1.19,4.72,4.72,0,0,0,.7-2,1.62,1.62,0,0,0-.36-1.25,2.31,2.31,0,0,0-.67-.57,7.87,7.87,0,0,0-1.89-.79l-1.16-.33m2.49-8.9-.93-.25-.16,0-1.8,4.57.2.06,2.67.74a7.75,7.75,0,0,0,1.27.27,3.91,3.91,0,0,0,1.23,0,1.75,1.75,0,0,0,1.08-.71,4.17,4.17,0,0,0,.71-1.58,1.7,1.7,0,0,0,0-1,1.74,1.74,0,0,0-.79-.84,6.62,6.62,0,0,0-1.62-.68l-1.84-.53m2.73-3.71,1.21-3.08,2.39.66c-.07.18-.14.36-.2.54l-.21.53-.21.54-.22.54-.2.53-.22.55.29.15A6.7,6.7,0,0,1,249.5,103a5.1,5.1,0,0,1,1.08,5,7.45,7.45,0,0,1-1.14,2.44,6.13,6.13,0,0,1-2.33,2l-.19.1,0,0,.07.11a5.21,5.21,0,0,1,1,4.51,9.11,9.11,0,0,1-1.89,3.92,6.63,6.63,0,0,1-3.8,2.32,8.64,8.64,0,0,1-2.68.12l-.9-.11-1.23,3.14c-.09,0-.8-.18-1.43-.36a9.64,9.64,0,0,1-1-.3l1.22-3.08-2.25-.63-1.22,3.1-1-.28-1.36-.38,1.22-3.12-4.45-1.25,1.21-3.09.18,0,1.59.44a.82.82,0,0,0,.88-.28,1.92,1.92,0,0,0,.17-.26,1.21,1.21,0,0,0,0-.14l5.59-14.23a2,2,0,0,0,.08-.22.69.69,0,0,0-.48-.88l-.52-.14-1.05-.3-.19,0,1.21-3.09.44.11.17,0,.14,0,.14,0,.29.08.6.17.87.24.89.25.91.26,1.22-3.1,2.38.66c-.12.35-.26.69-.4,1s-.26.68-.4,1l-.41,1,2.25.62m4-10.71c-11.48-3.22-24.62,3.93-29.34,15.95s.75,24.39,12.24,27.61,24.62-3.93,29.34-16-.76-24.39-12.24-27.61"/><path class="cls-7" d="M235.76,118.19l-.17,0,2.15-5.46a.8.8,0,0,1,.15,0l1.85.51,1.16.33a7.87,7.87,0,0,1,1.89.79,2.31,2.31,0,0,1,.67.57,1.62,1.62,0,0,1,.36,1.25,4.72,4.72,0,0,1-.7,2,2.52,2.52,0,0,1-1.87,1.19,4.64,4.64,0,0,1-1.58-.07c-.47-.11-.95-.23-1.42-.36l-2.49-.69m3.78-9.53-.2-.06,1.8-4.57.16,0,.93.25,1.84.53a6.62,6.62,0,0,1,1.62.68,1.74,1.74,0,0,1,.79.84,1.7,1.7,0,0,1,0,1,4.17,4.17,0,0,1-.71,1.58,1.75,1.75,0,0,1-1.08.71,3.91,3.91,0,0,1-1.23,0,7.75,7.75,0,0,1-1.27-.27l-2.67-.74m2-12.43-1.22,3.1-.91-.26-.89-.25-.87-.24-.6-.17-.29-.08-.14,0-.14,0-.17,0-.44-.11-1.21,3.09.19,0,1.05.3.52.14a.69.69,0,0,1,.48.88,2,2,0,0,1-.08.22L231.23,117a1.21,1.21,0,0,1,0,.14,1.92,1.92,0,0,1-.17.26.82.82,0,0,1-.88.28l-1.59-.44-.18,0-1.21,3.09,4.45,1.25-1.22,3.12,1.36.38,1,.28,1.22-3.1,2.25.63L235,125.93a9.64,9.64,0,0,0,1,.3c.63.18,1.34.36,1.43.36l1.23-3.14.9.11a8.64,8.64,0,0,0,2.68-.12,6.63,6.63,0,0,0,3.8-2.32,9.11,9.11,0,0,0,1.89-3.92,5.21,5.21,0,0,0-1-4.51l-.07-.11,0,0,.19-.1a6.13,6.13,0,0,0,2.33-2,7.45,7.45,0,0,0,1.14-2.44,5.1,5.1,0,0,0-1.08-5,6.7,6.7,0,0,0-1.91-1.42l-.29-.15.22-.55.2-.53.22-.54.21-.54.21-.53c.06-.18.13-.36.2-.54l-2.39-.66L245,100.61l-2.25-.62.41-1c.14-.34.27-.67.4-1s.28-.68.4-1l-2.38-.66"/><path class="cls-1" d="M6.79,107.55a4.13,4.13,0,1,1-4.13,4.13,4.13,4.13,0,0,1,4.13-4.13m0-2.66a6.79,6.79,0,1,0,6.8,6.79,6.79,6.79,0,0,0-6.8-6.79Z"/><path class="cls-7" d="M176,90.3a4.14,4.14,0,1,1-4.13,4.13A4.14,4.14,0,0,1,176,90.3m0-2.66a6.8,6.8,0,1,0,6.79,6.79A6.79,6.79,0,0,0,176,87.64Z"/></g></g></svg>