<svg xmlns="http://www.w3.org/2000/svg" viewBox="0 0 322.26 197.2"><defs><style>.cls-1{fill:#f2eff8;}.cls-2{fill:#e9e6ef;}.cls-3{fill:#ddd7e1;}.cls-4{fill:#fff;}.cls-5{fill:#23a6fe;}.cls-6{fill:#e86b62;}.cls-7{fill:#f78174;}.cls-8{fill:#ff988a;}.cls-9{fill:#fff7eb;}.cls-10{fill:#7cddb8;}.cls-11{fill:#58b790;}.cls-12{fill:#182ca0;}.cls-13{fill:#2b3ac8;}</style></defs><title>Asset 3</title><g id="Layer_2" data-name="Layer 2"><g id="Layer_1-2" data-name="Layer 1"><rect class="cls-1" x="184.96" y="69.02" width="132.67" height="71.11" rx="19" ry="19"/><circle class="cls-2" cx="155.62" cy="3.93" r="3.93"/><path class="cls-2" d="M47.55,36a4.14,4.14,0,1,1-4.13,4.14A4.15,4.15,0,0,1,47.55,36m0-2.66a6.8,6.8,0,1,0,6.8,6.8,6.8,6.8,0,0,0-6.8-6.8Z"/><path class="cls-2" d="M312.36,53.52l.7-6.69a1.21,1.21,0,0,0-1.69-1.23l-6.14,2.74a1.21,1.21,0,0,0-.22,2.08l5.44,3.95A1.21,1.21,0,0,0,312.36,53.52Z"/><path class="cls-3" d="M283.22,3.65H248a6.15,6.15,0,0,0-6.15,6.15V32.27A6.15,6.15,0,0,0,248,38.42h4v7.95a.94.94,0,0,0,1.61.67l8.63-8.62h21a6.15,6.15,0,0,0,6.15-6.15V9.8A6.15,6.15,0,0,0,283.22,3.65Z"/><rect class="cls-4" x="250.13" y="12.79" width="31" height="2.7" rx="1.35" ry="1.35"/><rect class="cls-4" x="250.13" y="19.93" width="31" height="2.7" rx="1.35" ry="1.35"/><rect class="cls-4" x="250.13" y="27.07" width="21.01" height="2.7" rx="1.35" ry="1.35"/><path class="cls-3" d="M147.75,61.61h0a9.3,9.3,0,0,1,0,15h0a7.22,7.22,0,0,0-2.46,8.52,42,42,0,0,0,5.57,9.68,7.3,7.3,0,0,0,8.74,2.3,9.3,9.3,0,0,1,13,7.49,7.19,7.19,0,0,0,2.07,4.32A7.45,7.45,0,0,0,179,111a41.81,41.81,0,0,0,11,0,7.32,7.32,0,0,0,6.36-6.43,9.3,9.3,0,0,1,13-7.49,7.3,7.3,0,0,0,8.74-2.3,41.66,41.66,0,0,0,5.57-9.68,7.22,7.22,0,0,0-2.46-8.52h0a9.29,9.29,0,0,1,0-15h0a7.23,7.23,0,0,0,2.46-8.53A42.08,42.08,0,0,0,218,43.4a7.34,7.34,0,0,0-8.74-2.29,9.3,9.3,0,0,1-13-7.49h0a7.32,7.32,0,0,0-6.36-6.42,41.81,41.81,0,0,0-11,0,7.32,7.32,0,0,0-6.37,6.42h0a9.3,9.3,0,0,1-13,7.49,7.34,7.34,0,0,0-8.74,2.29,42.45,42.45,0,0,0-5.57,9.68A7.23,7.23,0,0,0,147.75,61.61Zm36.67-8.28a15.78,15.78,0,1,1-15.77,15.78A15.78,15.78,0,0,1,184.42,53.33Z"/><path class="cls-5" d="M117.47,15.88h0a6.14,6.14,0,0,1-9.9,0h0a4.79,4.79,0,0,0-5.63-1.63,27.63,27.63,0,0,0-6.4,3.69A4.82,4.82,0,0,0,94,23.72a6.15,6.15,0,0,1-5,8.58,4.78,4.78,0,0,0-2.85,1.36,4.91,4.91,0,0,0-1.39,2.85,27.35,27.35,0,0,0,0,7.23A4.82,4.82,0,0,0,89,48a6.15,6.15,0,0,1,5,8.58,4.82,4.82,0,0,0,1.52,5.78,27.63,27.63,0,0,0,6.4,3.69,4.79,4.79,0,0,0,5.63-1.63h0a6.14,6.14,0,0,1,9.9,0h0A4.79,4.79,0,0,0,123.1,66a27.63,27.63,0,0,0,6.4-3.69A4.83,4.83,0,0,0,131,56.53,6.15,6.15,0,0,1,136,48h0a4.84,4.84,0,0,0,4.25-4.21,28.52,28.52,0,0,0,0-7.23A4.84,4.84,0,0,0,136,32.3h0A6.15,6.15,0,0,1,131,23.72a4.83,4.83,0,0,0-1.52-5.78,27.63,27.63,0,0,0-6.4-3.69A4.79,4.79,0,0,0,117.47,15.88Zm5.47,24.25A10.43,10.43,0,1,1,112.51,29.7,10.43,10.43,0,0,1,122.94,40.13Z"/><path class="cls-2" d="M290.69,155.33h0a3.71,3.71,0,0,1-6,0h0a2.85,2.85,0,0,0-3.38-1,17,17,0,0,0-3.85,2.21,2.91,2.91,0,0,0-.91,3.48,3.69,3.69,0,0,1-3,5.15,2.93,2.93,0,0,0-2.55,2.53,15.84,15.84,0,0,0,0,4.35,2.88,2.88,0,0,0,2.55,2.53,3.7,3.7,0,0,1,3,5.16,2.89,2.89,0,0,0,.91,3.47,16.71,16.71,0,0,0,3.85,2.22,2.88,2.88,0,0,0,3.38-1h0a3.71,3.71,0,0,1,6,0h0a2.9,2.9,0,0,0,3.39,1,17.14,17.14,0,0,0,3.85-2.22,2.9,2.9,0,0,0,.91-3.47,3.7,3.7,0,0,1,3-5.16h0a2.9,2.9,0,0,0,2.55-2.53,17,17,0,0,0,0-4.35,2.92,2.92,0,0,0-2.55-2.53h0a3.69,3.69,0,0,1-3-5.15,2.92,2.92,0,0,0-.91-3.48,17.49,17.49,0,0,0-3.85-2.21A2.87,2.87,0,0,0,290.69,155.33ZM294,169.9a6.27,6.27,0,1,1-6.27-6.27A6.27,6.27,0,0,1,294,169.9Z"/><path class="cls-6" d="M179.24,132.6s18.11-7.79,30.95-16.28S234,114.26,235,120.68s-36,26.13-36,26.13Z"/><path class="cls-7" d="M201.25,137.64s20.63-11.23,30.95-17.88,21.74-5.8,24.85,2.6S211.56,159,211.56,159Z"/><path class="cls-8" d="M65.83,129.29s23.61-6.35,57.43-16.92,36.07,13.52,62.46,18.32c20.87,3.8,32.56.63,31,16.27,0,0,21.54-9.38,35.79-21.37s27.1-4.52,24.32,3.47S221.19,175,207.9,182.35s-31.87,11.46-60.52-8.94c-23.06-16.42-81.52,20.38-81.55,20.4h0Z"/><path class="cls-6" d="M215.21,147.2c-6.36,7.49-16.62,7.33-25.54,5.89-9.4-1.51-18.75-3.35-28.12-5-2-.37-2.87,2.72-.85,3.08,10.65,1.92,21.35,4.33,32.1,5.6,8.85,1,18.57-.09,24.68-7.28,1.32-1.56-.93-3.83-2.27-2.26Z"/><path class="cls-9" d="M205.66,139.63a8,8,0,0,0-3.43,4.82,3.7,3.7,0,0,0,2.71,4.93,8.13,8.13,0,0,0,3.06.37,4.4,4.4,0,0,0,4.3-3.12,17.5,17.5,0,0,0,.9-4.78,5,5,0,0,0-.08-2C212.24,137.09,207.29,138.58,205.66,139.63Z"/><rect class="cls-1" x="15.15" y="83.4" width="79.42" height="113.79" rx="19" ry="19"/><polygon class="cls-10" points="54.56 88.98 63.02 102.46 63.02 75.51 54.56 88.98"/><polygon class="cls-11" points="71.47 88.98 63.02 75.51 63.02 102.46 71.47 88.98"/><polygon class="cls-5" points="316.05 100.48 308.24 92.67 300.43 100.48 292.62 92.67 284.8 100.48 276.99 92.67 270.1 99.56 268.26 97.72 276.99 88.98 284.8 96.8 292.62 88.98 300.43 96.8 308.24 88.98 316.05 96.8 320.42 92.43 322.26 94.27 316.05 100.48"/><path class="cls-12" d="M46.84,115.21l-6.74-2.33.35,1c-15.19-1.32-29.64,10.23-32.8,26.74-2.54,13.31,3,25.88,13,32.08l-1.09.39,6.07,2a27.08,27.08,0,0,0,4.82,1.27c15.9,2.56,31.45-9.32,34.74-26.53C68.19,134.3,60.13,119.77,46.84,115.21Z"/><path class="cls-13" d="M28.63,146.4A3.64,3.64,0,0,1,25.82,142a3.93,3.93,0,0,1,4.35-3.27,3.63,3.63,0,0,1,2.8,4.47,3.88,3.88,0,0,1-4.29,3.22h-.05m-16.47-8.78a1.55,1.55,0,0,1-1-.61,2.09,2.09,0,0,1-.45-1.48,6.53,6.53,0,0,1,.67-1.73c.21-.44.42-.86.65-1.28a21.67,21.67,0,0,1,1.55-2.39l.18-.25.18-.22A22.78,22.78,0,0,1,20,124.18a21.83,21.83,0,0,1,4.4-2,18.3,18.3,0,0,1,4.55-.87,16.57,16.57,0,0,1,2.54,0,19.87,19.87,0,0,1,2,.22c.25,0,.49.08.74.14a18.14,18.14,0,0,1,2.52.72,17.23,17.23,0,0,1,4.54,2.51,21.3,21.3,0,0,1,5.14,5.82,19.72,19.72,0,0,1,2.66,7.95,23.1,23.1,0,0,1,.13,3.43A24.75,24.75,0,0,1,47.81,150l-.12.3a21.19,21.19,0,0,1-3.23,5.64,24.18,24.18,0,0,1-6,5.48A18.47,18.47,0,0,1,31.9,164a18,18,0,0,1-3.35.33,20.26,20.26,0,0,1-3.58-.26c-.34-.05-.68-.12-1-.19s-.5-.11-.76-.18a17.19,17.19,0,0,1-3.07-1.08,17.82,17.82,0,0,1-6.43-5.18,21.77,21.77,0,0,1-2.61-4.1,19.33,19.33,0,0,1-1.66-5.21,6.41,6.41,0,0,1-.09-.78,2.07,2.07,0,0,1,1.39-2,1.78,1.78,0,0,1,.87-.11,1.44,1.44,0,0,1,.68.33,2.34,2.34,0,0,1,.78,1.35,21.2,21.2,0,0,0,1,3.36A15.9,15.9,0,0,0,15.35,153a15,15,0,0,0,5.43,5.29,14.67,14.67,0,0,0,2.37,1.12c.28.11.56.2.85.3l.07-.24c.09-.39.17-.81.25-1.22.12-.7.27-1.4.4-2.09.09-.46.19-.93.28-1.4s0-.54-.34-.7A11.93,11.93,0,0,1,21.47,152a10.24,10.24,0,0,1-3.07-5.16,14.11,14.11,0,0,1-.46-4.06,12.19,12.19,0,0,1,.41-2.74,13.08,13.08,0,0,1,4.45-6.79,10.75,10.75,0,0,1,7.68-2.52c.32,0,.63.06.94.11A10.39,10.39,0,0,1,36,132.8a10.76,10.76,0,0,1,2.53,2.68A11,11,0,0,1,40,139,3.81,3.81,0,0,1,40.2,140a2.05,2.05,0,0,1-2,2.09,1.13,1.13,0,0,1-.32,0A1.7,1.7,0,0,1,36.65,141a1.72,1.72,0,0,1-.16-.5,8.33,8.33,0,0,0-.92-2.29,6.79,6.79,0,0,0-3.73-3.1,7.06,7.06,0,0,0-6.55,1,8.65,8.65,0,0,0-2.53,11.11,6.88,6.88,0,0,0,3.71,3.14,7.22,7.22,0,0,0,1.25.33,7.13,7.13,0,0,0,4.14-.65A8.1,8.1,0,0,0,34.63,148a2.93,2.93,0,0,1,.83-.71,1.81,1.81,0,0,1,1.1-.19,1.79,1.79,0,0,1,1.37,1.15,2.07,2.07,0,0,1-.38,2.11,12.35,12.35,0,0,1-2.07,2.08A11.29,11.29,0,0,1,31,154.57c-.52.12-1.07.17-1.6.24l-.27.05-.27.12-.13.18-1,5.08v.13a3.24,3.24,0,0,0,.44,0c.56,0,1.13,0,1.69-.1a20.36,20.36,0,0,0,3.48-.8,17.34,17.34,0,0,0,3.71-1.73,16.28,16.28,0,0,0,4.65-4.38,21.32,21.32,0,0,0,2.46-4.5A18.93,18.93,0,0,0,45,146.5a21,21,0,0,0,.46-2.34,17.87,17.87,0,0,0,.1-3.65,17.59,17.59,0,0,0-1.88-6.82,15.9,15.9,0,0,0-4.43-5.32,14.53,14.53,0,0,0-4-2.2,12.93,12.93,0,0,0-2.23-.63l-.49-.08a15.25,15.25,0,0,0-7.29.61A17.25,17.25,0,0,0,19.87,129a18.41,18.41,0,0,0-3.51,3.75,19.37,19.37,0,0,0-2,3.47,3.25,3.25,0,0,1-.33.61,1.85,1.85,0,0,1-1.49.85,2.82,2.82,0,0,1-.42,0m23.2-25.95C19.47,109.12,3.91,121,.62,138.2S7.55,171.42,23.44,174s31.45-9.32,34.74-26.53-6.92-33.22-22.82-35.78"/><path class="cls-4" d="M33.55,121.52a19.87,19.87,0,0,0-2-.22,16.57,16.57,0,0,0-2.54,0,18.3,18.3,0,0,0-4.55.87,21.83,21.83,0,0,0-4.4,2,22.78,22.78,0,0,0-6.08,5.48l-.18.22-.18.25A21.67,21.67,0,0,0,12,132.52c-.23.42-.44.84-.65,1.28a6.53,6.53,0,0,0-.67,1.73,2.09,2.09,0,0,0,.45,1.48,1.55,1.55,0,0,0,1,.61,2.82,2.82,0,0,0,.42,0,1.85,1.85,0,0,0,1.49-.85,3.25,3.25,0,0,0,.33-.61,19.37,19.37,0,0,1,2-3.47A18.41,18.41,0,0,1,19.87,129a17.25,17.25,0,0,1,5.32-2.89,15.25,15.25,0,0,1,7.29-.61l.49.08a12.93,12.93,0,0,1,2.23.63,14.53,14.53,0,0,1,4,2.2,15.9,15.9,0,0,1,4.43,5.32,17.59,17.59,0,0,1,1.88,6.82,17.87,17.87,0,0,1-.1,3.65A21,21,0,0,1,45,146.5a18.93,18.93,0,0,1-.79,2.34,21.32,21.32,0,0,1-2.46,4.5,16.28,16.28,0,0,1-4.65,4.38,17.34,17.34,0,0,1-3.71,1.73,20.36,20.36,0,0,1-3.48.8c-.56.08-1.13.07-1.69.1a3.24,3.24,0,0,1-.44,0v-.13l1-5.08.13-.18.27-.12.27-.05c.53-.07,1.08-.12,1.6-.24a11.29,11.29,0,0,0,4.49-2.17,12.35,12.35,0,0,0,2.07-2.08,2.07,2.07,0,0,0,.38-2.11,1.79,1.79,0,0,0-1.37-1.15,1.81,1.81,0,0,0-1.1.19,2.93,2.93,0,0,0-.83.71,8.1,8.1,0,0,1-2.77,2.17,7.13,7.13,0,0,1-4.14.65,7.22,7.22,0,0,1-1.25-.33,6.88,6.88,0,0,1-3.71-3.14,8.65,8.65,0,0,1,2.53-11.11,7.06,7.06,0,0,1,6.55-1,6.79,6.79,0,0,1,3.73,3.1,8.33,8.33,0,0,1,.92,2.29,1.72,1.72,0,0,0,.16.5,1.7,1.7,0,0,0,1.27,1.05,1.13,1.13,0,0,0,.32,0,2.05,2.05,0,0,0,2-2.09A3.81,3.81,0,0,0,40,139a11,11,0,0,0-1.53-3.47A10.76,10.76,0,0,0,36,132.8a10.39,10.39,0,0,0-4.54-1.92c-.31,0-.62-.08-.94-.11a10.75,10.75,0,0,0-7.68,2.52,13.08,13.08,0,0,0-4.45,6.79,12.19,12.19,0,0,0-.41,2.74,14.11,14.11,0,0,0,.46,4.06A10.24,10.24,0,0,0,21.47,152a11.93,11.93,0,0,0,3.19,2.06c.35.16.42.3.34.7s-.19.94-.28,1.4c-.13.69-.28,1.39-.4,2.09-.08.41-.16.83-.25,1.22l-.07.24c-.29-.1-.57-.19-.85-.3a14.67,14.67,0,0,1-2.37-1.12A15,15,0,0,1,15.35,153,15.9,15.9,0,0,1,14,150.29a21.2,21.2,0,0,1-1-3.36,2.34,2.34,0,0,0-.78-1.35,1.44,1.44,0,0,0-.68-.33,1.78,1.78,0,0,0-.87.11,2.07,2.07,0,0,0-1.39,2,6.41,6.41,0,0,0,.09.78,19.33,19.33,0,0,0,1.66,5.21,21.77,21.77,0,0,0,2.61,4.1,17.82,17.82,0,0,0,6.43,5.18,17.19,17.19,0,0,0,3.07,1.08c.26.07.5.13.76.18s.68.14,1,.19a20.26,20.26,0,0,0,3.58.26A18,18,0,0,0,31.9,164a18.47,18.47,0,0,0,6.52-2.63,24.18,24.18,0,0,0,6-5.48,21.19,21.19,0,0,0,3.23-5.64l.12-.3a24.75,24.75,0,0,0,1.47-7.88,23.1,23.1,0,0,0-.13-3.43,19.72,19.72,0,0,0-2.66-7.95,21.3,21.3,0,0,0-5.14-5.82,17.23,17.23,0,0,0-4.54-2.51,18.14,18.14,0,0,0-2.52-.72c-.25-.06-.49-.1-.74-.14"/><path class="cls-4" d="M30.17,138.72A3.93,3.93,0,0,0,25.82,142a3.64,3.64,0,0,0,2.81,4.41h.05A3.88,3.88,0,0,0,33,143.19a3.63,3.63,0,0,0-2.8-4.47"/></g></g></svg>