<svg width="258" height="188" viewBox="0 0 258 188" fill="none" xmlns="http://www.w3.org/2000/svg">
<path d="M249.3 84.5999C250.4 86.3999 251.2 88.3999 251.8 90.3999L257.5 91.5999L257.7 101.2L252 102.6C251.5 104.6 250.7 106.6 249.7 108.5L252.9 113.4L246.2 120.3L241.2 117.3C239.4 118.4 237.4 119.2 235.4 119.8L234.2 125.5L224.6 125.7L223.2 120C221.2 119.5 219.2 118.7 217.3 117.7L212.4 120.9L205.5 114.2L208.5 109.2C207.4 107.4 206.6 105.4 206 103.4L200.3 102.2L200.1 92.5999L205.8 91.1999C206.3 89.1999 207.1 87.1999 208.1 85.2999L204.9 80.3999L211.6 73.4999L216.6 76.4999C218.4 75.3999 220.4 74.5999 222.4 73.9999L223.6 68.2999L233.2 68.0999L234.6 73.7999C236.6 74.2999 238.6 75.0999 240.5 76.0999L245.4 72.8999L252.3 79.5999L249.3 84.5999ZM236.4 89.6999C232.3 85.6999 225.7 85.7999 221.8 89.9999C217.8 94.0999 217.9 100.7 222.1 104.6C226.2 108.6 232.8 108.5 236.7 104.3C240.6 100.2 240.5 93.6999 236.4 89.6999Z" fill="#22A6FF"/>
<path d="M205.2 30.7998H53.5002C48.1002 30.7998 43.8003 35.1998 43.8003 40.4998V128.6H215V40.4998C215 35.1998 210.6 30.7998 205.2 30.7998Z" fill="#1B2335"/>
<path d="M50.9004 119.1V40.3999C50.9004 38.9999 52.0004 37.8999 53.4004 37.8999H205.5C206.9 37.8999 208 38.9999 208 40.3999V119.1C208 120.5 206.9 121.6 205.5 121.6H53.4004C52.0004 121.6 50.9004 120.4 50.9004 119.1Z" fill="white"/>
<path d="M151.4 167.4H150.5C144.1 159 144.8 147.5 144.8 147.5H129.5H114C114 147.5 114.7 159 108.3 167.4H107.4C106.6 167.4 105.9 168.1 105.9 168.9V169.2C105.9 170 106.6 170.7 107.4 170.7H151.4C152.2 170.7 152.9 170 152.9 169.2V169C152.9 168.1 152.2 167.4 151.4 167.4Z" fill="#DCD7E0"/>
<path d="M113.8 152.8H145C144.6 149.7 144.7 147.5 144.7 147.5H129.4H114C114 147.5 114.2 149.7 113.8 152.8Z" fill="#BCB5C6"/>
<path d="M43.8003 138.7C43.8003 143.6 47.7002 147.5 52.6002 147.5H206.2C211.1 147.5 215 143.6 215 138.7V128.6H43.8003V138.7V138.7Z" fill="#EAE6EF"/>
<path d="M129.4 142C131.554 142 133.3 140.254 133.3 138.1C133.3 135.946 131.554 134.2 129.4 134.2C127.246 134.2 125.5 135.946 125.5 138.1C125.5 140.254 127.246 142 129.4 142Z" fill="#DCD7E0"/>
<path d="M129.4 140.8C127.5 140.8 125.9 139.4 125.6 137.5C125.6 137.7 125.5 137.9 125.5 138.1C125.5 140.2 127.2 142 129.4 142C131.6 142 133.3 140.3 133.3 138.1C133.3 137.9 133.3 137.7 133.2 137.5C132.9 139.4 131.3 140.8 129.4 140.8Z" fill="#BCB5C6"/>
<path d="M68.4004 184H190.4L181.2 175.2H77.5004L68.4004 184Z" fill="#EAE6EF"/>
<path d="M187.2 187.7H71.5002C69.8002 187.7 68.3003 186.3 68.3003 184.5V184H190.3V184.6C190.4 186.3 189 187.7 187.2 187.7Z" fill="#DCD7E0"/>
<path d="M73.5 182.4L79.3 176.8H179.5L185.3 182.4H73.5Z" fill="#1B2335"/>
<path d="M184.4 179.2H176.8L173.7 175.7L173.1 176.2L175.7 179.2H170.9L168.2 175.7L167.6 176.2L169.9 179.2H165L162.7 175.7L162 176.1L164.1 179.2H159.1L157.2 175.7L156.5 176.1L158.2 179.2H153.3L151.7 175.8L151 176.1L152.4 179.2H147.4L146.3 175.8L145.5 176L146.5 179.2H141.5L140.8 175.8L140 176L140.7 179.2H135.6L135.3 175.9L134.5 176L134.8 179.2H129.8V175.9H129V179.2H123.9L124.3 176L123.5 175.9L123.1 179.2H118.1L118.8 176L118 175.8L117.2 179.2H112.2L113.3 176L112.5 175.8L111.4 179.2H106.4L107.8 176.1L107 175.8L105.5 179.2H100.5L102.2 176.1L101.5 175.7L99.6003 179.2H94.7003L96.7003 176.1L96.1003 175.7L93.7003 179.2H88.9004L91.2003 176.2L90.6003 175.7L87.9004 179.2H83.0004L85.7003 176.2L85.1003 175.7L82.0004 179.2H74.9004V180H81.3004L78.6003 183.1L79.2003 183.6L82.3004 180H87.2003L84.9004 183.1L85.5004 183.6L88.3004 180H93.2003L91.2003 183.1L91.9004 183.6L94.2003 180H99.2003L97.5004 183.1L98.2003 183.5L100.1 180H105.1L103.8 183.2L104.5 183.5L106 180H111.1L110.1 183.2L110.8 183.5L112 180H117.1L116.4 183.2L117.2 183.4L117.9 180H123L122.7 183.3L123.5 183.4L123.8 180H129V183.3H129.8V180H134.9L135.3 183.4L136.1 183.3L135.7 180H140.9L141.6 183.4L142.4 183.2L141.7 180H146.8L147.9 183.5L148.7 183.2L147.7 180H152.7L154.3 183.5L155 183.2L153.6 180H158.7L160.6 183.5L161.3 183.1L159.6 180H164.6L166.9 183.6L167.6 183.1L165.6 180H170.5L173.2 183.6L173.9 183.1L171.5 180H176.4L179.6 183.6L180.2 183.1L177.5 180H184.4V179.2Z" fill="#EAE6EF"/>
<path d="M84.2003 119.6C83.0003 115.8 81.1003 112.3 78.6003 109.4C77.0003 107.5 75.1003 105.8 73.0003 104.5L67.0003 100.6L67.5003 101.8C64.6003 100.7 61.5003 100.1 58.2003 99.9998C54.1003 99.8998 50.1003 100.7 46.4003 102.1C42.7003 103.5 39.3004 105.6 36.3004 108.2C33.3004 110.8 30.7003 113.9 28.7003 117.4C26.7003 120.9 25.3003 124.8 24.6003 128.9C23.9003 133.1 24.1003 137.1 24.9003 140.9C25.8003 144.7 27.3003 148.2 29.5003 151.2C30.1003 152.1 30.8003 152.9 31.5003 153.6H30.1003L36.7003 158C37.1003 158.3 37.5003 158.5 37.9003 158.7C41.3003 160.7 45.1003 161.9 49.4003 162.3C53.7003 162.7 57.9003 162.1 61.9003 160.8C65.9003 159.5 69.7003 157.3 73.0003 154.6C76.3003 151.8 79.1003 148.5 81.2003 144.6C83.3003 140.8 84.7004 136.6 85.3004 132.1C85.8004 127.7 85.4003 123.5 84.2003 119.6Z" fill="#F99400"/>
<path d="M44.5003 127C44.4003 127 44.4003 127 44.4003 127C44.4003 127 44.4004 127 44.3004 127C44.2004 127 44.3003 127 44.2003 127C43.9003 127.7 43.7003 128.3 43.4003 129C43.1003 129.7 42.9003 130.4 42.6003 131C42.3003 131.7 42.1004 132.4 41.8004 133C41.5004 133.7 41.3003 134.4 41.0003 135C41.1003 135.1 41.2004 135.1 41.3004 135.2C41.4004 135.2 41.5003 135.3 41.6003 135.3C41.7003 135.3 41.8003 135.4 41.9003 135.4C42.0003 135.4 42.1003 135.5 42.2003 135.5C42.6003 135.6 43.0003 135.8 43.4003 135.9C43.8003 136 44.2003 136.2 44.6003 136.3C45.0003 136.4 45.4003 136.5 45.9003 136.6C46.3003 136.7 46.8003 136.7 47.2003 136.8C47.2003 136.8 47.2004 136.8 47.3004 136.8C47.3004 136.8 47.3003 136.8 47.4003 136.8C47.4003 136.8 47.4003 136.8 47.5003 136.8C47.5003 136.8 47.5003 136.8 47.6003 136.8C47.8003 136.8 48.0003 136.8 48.2003 136.8C48.4003 136.8 48.6004 136.8 48.8004 136.8C49.0004 136.8 49.2003 136.8 49.4003 136.7C49.6003 136.7 49.8003 136.6 50.0003 136.6C50.7003 136.4 51.3003 136.1 51.7003 135.7C52.2003 135.3 52.5003 134.7 52.7003 134.2C52.9003 133.6 53.0003 133 52.9003 132.4C52.8003 131.8 52.6004 131.3 52.3004 130.8C52.2004 130.7 52.2003 130.7 52.1003 130.6C52.0003 130.5 52.0003 130.5 51.9003 130.4C51.8003 130.3 51.8003 130.3 51.7003 130.2C51.6003 130.1 51.6003 130.1 51.5003 130C51.3003 129.8 51.1003 129.7 51.0003 129.5C50.8003 129.4 50.6003 129.2 50.4003 129.1C50.2003 129 50.0004 128.9 49.8004 128.7C49.6004 128.6 49.4003 128.5 49.2003 128.4C48.8003 128.2 48.5003 128.1 48.1003 127.9C47.7003 127.8 47.4003 127.6 47.0003 127.5C46.6003 127.4 46.3003 127.3 45.9003 127.1C45.5003 127 45.1004 126.9 44.8004 126.8H44.7003H44.6003H44.5003C44.6003 127.1 44.6003 127 44.5003 127ZM48.7003 115.8C48.5003 116.4 48.2003 117 48.0003 117.6C47.8003 118.2 47.5004 118.8 47.3004 119.4C47.1004 120 46.8003 120.6 46.6003 121.2C46.4003 121.8 46.1003 122.4 45.9003 123C45.9003 123 45.9003 123 46.0003 123C46.0003 123 46.0003 123 46.1003 123C46.1003 123 46.1003 123 46.2003 123C46.2003 123 46.2004 123 46.3004 123C46.6004 123.1 46.9003 123.2 47.1003 123.3C47.4003 123.4 47.7003 123.5 48.0003 123.6C48.3003 123.7 48.6003 123.8 48.9003 123.8C49.2003 123.9 49.5004 123.9 49.8004 124C49.9004 124 50.1003 124.1 50.2003 124.1C50.3003 124.1 50.5003 124.1 50.6003 124.2C50.7003 124.2 50.9003 124.2 51.0003 124.2C51.1003 124.2 51.3003 124.2 51.4003 124.2C51.5003 124.2 51.7004 124.2 51.8004 124.2C51.9004 124.2 52.1003 124.2 52.2003 124.2C52.3003 124.2 52.5003 124.2 52.6003 124.2C52.7003 124.2 52.9003 124.2 53.0003 124.1C53.7003 124 54.2003 123.7 54.7003 123.3C55.1003 122.9 55.5003 122.4 55.7003 121.9C55.9003 121.4 56.0003 120.8 56.0003 120.3C56.0003 119.8 55.9003 119.3 55.6003 118.9C55.5003 118.7 55.4004 118.6 55.3004 118.4C55.2004 118.3 55.1003 118.1 54.9003 118C54.8003 117.9 54.6003 117.8 54.5003 117.6C54.4003 117.5 54.2003 117.4 54.0003 117.3C53.7003 117.1 53.4003 117 53.1003 116.8C52.8003 116.7 52.5003 116.5 52.2003 116.4C51.9003 116.3 51.6004 116.2 51.3004 116.1C51.0004 116 50.7004 115.9 50.3004 115.8C50.2004 115.8 50.1003 115.7 49.9003 115.7C49.8003 115.7 49.7003 115.6 49.5003 115.6C49.4003 115.6 49.2003 115.5 49.1003 115.5C49.0003 115.9 48.9003 115.8 48.7003 115.8ZM46.8004 110.4C47.0004 109.9 47.2003 109.4 47.4003 108.9C47.6003 108.4 47.8003 107.9 48.0003 107.4C48.2003 106.9 48.4003 106.4 48.6003 105.9C48.8003 105.4 49.0003 104.9 49.2003 104.4C49.5003 104.5 49.8003 104.6 50.1003 104.7C50.4003 104.8 50.7003 104.9 51.0003 105C51.3003 105.1 51.6003 105.2 51.9003 105.3C52.2003 105.4 52.5004 105.5 52.8004 105.6C52.6004 106.1 52.4003 106.6 52.2003 107.1C52.0003 107.6 51.8003 108.1 51.6003 108.6C51.4003 109.1 51.2003 109.6 51.0003 110.1C50.8003 110.6 50.6003 111.1 50.4003 111.6C50.6003 111.7 50.9003 111.8 51.1003 111.8C51.3003 111.9 51.6004 111.9 51.8004 112C52.0004 112.1 52.3003 112.1 52.5003 112.2C52.7003 112.3 53.0003 112.3 53.2003 112.4C53.4003 111.9 53.6004 111.4 53.8004 110.9C54.0004 110.4 54.2003 109.9 54.4003 109.4C54.6003 108.9 54.8003 108.4 55.0003 107.9C55.2003 107.4 55.4003 106.9 55.6003 106.4C55.9003 106.5 56.2003 106.6 56.5003 106.7C56.8003 106.8 57.1003 106.9 57.4003 107C57.7003 107.1 58.0004 107.2 58.3004 107.3C58.6004 107.4 58.9003 107.5 59.2003 107.6C59.0003 108.1 58.8003 108.6 58.6003 109.1C58.4003 109.6 58.2003 110.1 58.0003 110.6C57.8003 111.1 57.6003 111.6 57.4003 112.1C57.2003 112.6 57.0004 113.1 56.8004 113.6C56.9004 113.7 57.0003 113.7 57.2003 113.8C57.3003 113.9 57.4003 113.9 57.5003 114C57.6003 114.1 57.7004 114.1 57.8004 114.2C57.9004 114.3 58.0003 114.3 58.1003 114.4C58.4003 114.6 58.7003 114.7 59.0003 114.9C59.3003 115.1 59.6003 115.2 59.9003 115.4C60.2003 115.6 60.5003 115.8 60.7003 116C61.0003 116.2 61.2003 116.4 61.5003 116.7C61.8003 117 62.0003 117.2 62.2003 117.5C62.4003 117.8 62.6004 118.1 62.8004 118.4C63.0004 118.7 63.1003 119 63.2003 119.4C63.3003 119.7 63.4003 120.1 63.4003 120.5C63.4003 120.7 63.4003 120.9 63.4003 121.1C63.4003 121.3 63.4003 121.5 63.4003 121.7C63.4003 121.9 63.3004 122.1 63.3004 122.3C63.3004 122.5 63.2003 122.7 63.2003 122.9C63.1003 123.2 63.1003 123.4 63.0003 123.7C62.9003 124 62.8003 124.2 62.7003 124.5C62.6003 124.7 62.5004 125 62.3004 125.2C62.2004 125.4 62.0003 125.7 61.9003 125.9C61.7003 126.2 61.4003 126.5 61.1003 126.8C60.8003 127.1 60.5003 127.3 60.2003 127.5C59.9003 127.7 59.5003 127.9 59.2003 128C58.8003 128.1 58.5003 128.3 58.1003 128.4L58.0003 128.5C58.0003 128.5 58.0003 128.6 58.1003 128.6L58.2003 128.7C58.2003 128.7 58.3004 128.7 58.3004 128.8C58.3004 128.8 58.4003 128.8 58.4003 128.9C58.5003 129 58.7004 129.1 58.8004 129.2C58.9004 129.3 59.1003 129.4 59.2003 129.5C59.3003 129.6 59.4003 129.7 59.6003 129.8C59.7003 129.9 59.8003 130 59.9003 130.2C60.2003 130.5 60.4003 130.8 60.6003 131.1C60.8003 131.4 60.9003 131.8 61.1003 132.1C61.2003 132.5 61.3004 132.8 61.3004 133.2C61.3004 133.6 61.3004 134 61.3004 134.4C61.2004 135.1 61.1003 135.7 60.9003 136.4C60.7003 137 60.5003 137.6 60.2003 138.2C59.9003 138.8 59.6003 139.3 59.2003 139.9C58.8003 140.4 58.4003 140.9 57.9003 141.4C57.6003 141.7 57.3003 141.9 57.0003 142.1C56.7003 142.3 56.3003 142.5 56.0003 142.7C55.7003 142.9 55.3003 143 54.9003 143.1C54.5003 143.2 54.2004 143.3 53.8004 143.3C53.6004 143.3 53.3003 143.4 53.1003 143.4C52.9003 143.4 52.6003 143.4 52.4003 143.4C52.2003 143.4 51.9003 143.4 51.7003 143.4C51.5003 143.4 51.2003 143.4 51.0003 143.4C50.8003 143.4 50.6003 143.4 50.4003 143.3C50.2003 143.3 50.0004 143.3 49.8004 143.2C49.6004 143.2 49.4003 143.1 49.2003 143.1C49.0003 143.1 48.8003 143 48.6003 143C48.4003 143 48.2003 142.9 48.0003 142.9C47.8003 142.9 47.6003 142.8 47.4003 142.8C47.2003 142.8 47.0004 142.7 46.8004 142.7C46.6004 142.7 46.4003 142.6 46.2003 142.6C46.0003 143.1 45.8003 143.7 45.6003 144.2C45.4003 144.7 45.2003 145.3 45.0003 145.8C44.8003 146.3 44.6003 146.9 44.4003 147.4C44.2003 147.9 44.0004 148.5 43.8004 149C43.5004 148.9 43.2003 148.8 42.9003 148.7C42.6003 148.6 42.3003 148.5 42.0003 148.4C41.7003 148.3 41.4003 148.2 41.1003 148.1C40.8003 148 40.5003 147.9 40.2003 147.8C40.4003 147.3 40.6004 146.8 40.8004 146.2C41.0004 145.7 41.2003 145.2 41.4003 144.6C41.6003 144.1 41.8003 143.6 42.0003 143C42.2003 142.5 42.4003 142 42.6003 141.4C42.4003 141.3 42.1003 141.2 41.9003 141.1C41.7003 141 41.4003 140.9 41.2003 140.8C41.0003 140.7 40.7003 140.6 40.5003 140.6C40.3003 140.5 40.0004 140.4 39.8004 140.3C39.7004 140.6 39.6003 140.8 39.5003 141.1C39.4003 141.4 39.3003 141.6 39.2003 141.9C39.1003 142.2 39.0003 142.4 38.9003 142.7C38.8003 143 38.7003 143.2 38.6003 143.5C38.5003 143.8 38.4004 144 38.3004 144.3C38.2004 144.6 38.1003 144.8 38.0003 145.1C37.9003 145.4 37.8003 145.6 37.7003 145.9C37.6003 146.2 37.5003 146.4 37.4003 146.7C37.3003 146.7 37.0004 146.6 36.8004 146.6C36.5004 146.5 36.2004 146.4 35.8004 146.3C35.4004 146.2 35.1004 146 34.8004 145.9C34.5004 145.8 34.2003 145.7 34.0003 145.6C34.2003 145.1 34.4003 144.6 34.6003 144.1C34.8003 143.6 35.0003 143.1 35.2003 142.6C35.4003 142.1 35.6004 141.6 35.8004 141C36.0004 140.5 36.2003 140 36.4003 139.4C35.8003 139.2 35.2003 139 34.7003 138.8C34.1003 138.6 33.5003 138.4 33.0003 138.2C32.4003 138 31.8004 137.8 31.3004 137.6C30.7004 137.4 30.1003 137.2 29.6003 137C29.8003 136.6 30.0003 136.3 30.2003 136C30.4003 135.7 30.6004 135.3 30.8004 135C31.0004 134.7 31.2003 134.3 31.4003 134C31.6003 133.7 31.8003 133.3 32.0003 133C32.0003 133 32.0003 133 32.1003 133H32.2003H32.3004H32.4003H32.5003C32.7003 133.1 32.8003 133.1 33.0003 133.2C33.2003 133.3 33.3003 133.3 33.5003 133.4C33.7003 133.5 33.8003 133.5 34.0003 133.6C34.2003 133.7 34.3003 133.7 34.5003 133.8H34.6003H34.7003H34.8004H34.9003C35.1003 133.8 35.2003 133.8 35.4003 133.8C35.5003 133.8 35.7004 133.7 35.8004 133.6C35.9004 133.5 36.0003 133.4 36.1003 133.3C36.2003 133.2 36.3003 133 36.4003 132.8C36.5003 132.6 36.5003 132.5 36.6003 132.3C36.7003 132.1 36.7004 132 36.8004 131.8C36.9004 131.6 36.9003 131.5 37.0003 131.3C37.1003 131.1 37.1003 131 37.2003 130.8C37.4003 130.2 37.6003 129.7 37.9003 129.1C38.1003 128.5 38.3003 128 38.6003 127.4C38.8003 126.8 39.0004 126.3 39.3004 125.7C39.5004 125.1 39.7003 124.6 40.0003 124C40.2003 123.5 40.4003 123 40.6003 122.6C40.8003 122.1 41.0003 121.6 41.2003 121.2C41.4003 120.7 41.6004 120.2 41.8004 119.8C42.0004 119.3 42.2003 118.9 42.4003 118.4C42.5003 118.2 42.5003 118.1 42.6003 117.9C42.7003 117.7 42.7004 117.6 42.8004 117.4C42.9004 117.2 42.9003 117.1 43.0003 116.9C43.1003 116.7 43.1003 116.6 43.2003 116.4C43.3003 116.1 43.3003 115.9 43.4003 115.7C43.4003 115.5 43.4004 115.3 43.3004 115.1C43.2004 114.9 43.1003 114.7 43.0003 114.6C42.9003 114.4 42.7003 114.3 42.4003 114.2C42.2003 114.1 42.0003 114 41.9003 114C41.7003 113.9 41.5004 113.9 41.3004 113.8C41.1004 113.7 40.9003 113.7 40.7003 113.6C40.5003 113.5 40.3003 113.5 40.1003 113.4C40.0003 113.4 40.0003 113.4 39.9003 113.4C39.8003 113.4 39.8003 113.4 39.7003 113.4C39.6003 113.4 39.6003 113.4 39.5003 113.3C39.4003 113.3 39.4004 113.2 39.3004 113.2C39.4004 112.9 39.5003 112.6 39.7003 112.3C39.8003 112 39.9003 111.7 40.1003 111.4C40.2003 111.1 40.4003 110.8 40.5003 110.4C40.6003 110.1 40.8003 109.8 40.9003 109.4C41.5003 109.6 42.1003 109.7 42.6003 109.9C43.2003 110.1 43.8004 110.3 44.3004 110.4C44.9004 110.6 45.5003 110.8 46.1003 110.9C45.6003 110.1 46.2004 110.3 46.8004 110.4ZM51.7003 95.5999C47.6003 95.4999 43.6003 96.2999 39.9003 97.6999C36.2003 99.0999 32.8004 101.2 29.8004 103.8C26.8004 106.4 24.2003 109.5 22.2003 113C20.2003 116.5 18.8003 120.4 18.1003 124.5C17.4003 128.7 17.6003 132.7 18.4003 136.5C19.3003 140.3 20.8003 143.8 23.0003 146.8C25.2003 149.9 28.0003 152.5 31.4003 154.4C34.8003 156.4 38.6003 157.6 42.9003 158C47.2003 158.4 51.4003 157.8 55.4003 156.5C59.4003 155.2 63.2003 153 66.5003 150.3C69.8003 147.5 72.6003 144.2 74.7003 140.3C76.8003 136.5 78.2004 132.3 78.8004 127.8C79.3004 123.3 78.9004 119.1 77.8004 115.2C76.6004 111.4 74.7003 107.9 72.2003 105C69.7003 102.1 66.7003 99.7999 63.2003 98.1999C59.6003 96.5999 55.8003 95.5999 51.7003 95.5999Z" fill="#FBB040"/>
<path d="M47.7004 137C47.6004 137 47.6005 137 47.6005 137C47.6005 137 47.6005 137 47.5005 137C47.5005 137 47.5005 137 47.4005 137C47.0005 137 46.5005 136.9 46.1005 136.8C45.7005 136.7 45.3005 136.6 44.8005 136.5C44.4005 136.4 44.0005 136.3 43.6005 136.1C43.2005 136 42.8005 135.8 42.4005 135.7C42.3005 135.7 42.2005 135.6 42.1005 135.6C42.0005 135.6 41.9005 135.5 41.8005 135.5C41.7005 135.5 41.6005 135.4 41.5005 135.4C41.4005 135.4 41.3004 135.3 41.2004 135.2C41.5004 134.5 41.7005 133.8 42.0005 133.2C42.3005 132.5 42.5005 131.8 42.8005 131.2C43.1005 130.5 43.3005 129.8 43.6005 129.2C43.9005 128.5 44.1005 127.8 44.4005 127.2C44.4005 127.2 44.4005 127.2 44.5005 127.2C44.6005 127.2 44.5005 127.2 44.6005 127.2C44.6005 127.2 44.6004 127.2 44.7004 127.2C44.8004 127.2 44.7005 127.2 44.8005 127.2H44.9005H45.0005H45.1005H45.2004C45.6004 127.3 46.0005 127.4 46.3005 127.5C46.7005 127.6 47.1005 127.7 47.4005 127.9C47.8005 128 48.1005 128.2 48.5005 128.3C48.9005 128.4 49.2005 128.6 49.6005 128.8C49.8005 128.9 50.0004 129 50.2004 129.1C50.4004 129.2 50.6005 129.3 50.8005 129.5C51.0005 129.6 51.2005 129.8 51.4005 129.9C51.6005 130 51.8005 130.2 51.9005 130.4C52.0005 130.5 52.0005 130.5 52.1005 130.6C52.2005 130.7 52.2005 130.7 52.3005 130.8C52.4005 130.9 52.4005 130.9 52.5005 131C52.6005 131.1 52.6004 131.1 52.7004 131.2C53.0004 131.6 53.2005 132.2 53.3005 132.8C53.4005 133.4 53.3005 134 53.1005 134.6C52.9005 135.2 52.6005 135.7 52.1005 136.1C51.6005 136.5 51.1005 136.9 50.4005 137C50.2005 137 50.0005 137.1 49.8005 137.1C49.6005 137.1 49.4004 137.1 49.2004 137.2C49.0004 137.2 48.8005 137.2 48.6005 137.2C48.1005 137 47.9004 137 47.7004 137ZM51.2004 124.5C51.1004 124.5 50.9005 124.5 50.8005 124.5C50.7005 124.5 50.5005 124.5 50.4005 124.5C50.3005 124.5 50.1005 124.5 50.0005 124.4C49.9005 124.4 49.7005 124.4 49.6005 124.3C49.3005 124.2 49.0004 124.2 48.7004 124.1C48.4004 124 48.1005 123.9 47.8005 123.9C47.5005 123.8 47.2005 123.7 46.9005 123.6C46.6005 123.5 46.3005 123.4 46.1005 123.3C46.1005 123.3 46.1005 123.3 46.0005 123.3C46.0005 123.3 46.0005 123.3 45.9005 123.3C45.9005 123.3 45.9005 123.3 45.8005 123.3C45.8005 123.3 45.8004 123.3 45.7004 123.3C45.9004 122.7 46.2005 122.1 46.4005 121.5C46.6005 120.9 46.9005 120.3 47.1005 119.7C47.3005 119.1 47.6005 118.5 47.8005 117.9C48.0005 117.3 48.3005 116.7 48.5005 116.1C48.6005 116.1 48.8005 116.1 48.9005 116.2C49.0005 116.2 49.2005 116.3 49.3005 116.3C49.4005 116.3 49.6004 116.4 49.7004 116.4C49.8004 116.4 49.9005 116.5 50.1005 116.5C50.4005 116.6 50.7005 116.7 51.1005 116.8C51.4005 116.9 51.7005 117 52.0005 117.1C52.3005 117.2 52.6005 117.4 52.9005 117.5C53.2005 117.6 53.5005 117.8 53.8005 118C54.0005 118.1 54.1005 118.2 54.3005 118.3C54.4005 118.4 54.6004 118.5 54.7004 118.7C54.8004 118.8 55.0005 119 55.1005 119.1C55.2005 119.2 55.3005 119.4 55.4005 119.6C55.6005 120 55.8005 120.5 55.8005 121C55.8005 121.5 55.7005 122.1 55.5005 122.6C55.3005 123.1 54.9005 123.6 54.5005 124C54.1005 124.4 53.5005 124.7 52.8005 124.8C52.6005 124.8 52.5005 124.9 52.4005 124.9C52.3005 124.9 52.1005 124.9 52.0005 124.9C51.9005 124.9 51.7005 124.9 51.6005 124.9C51.5005 124.5 51.3004 124.5 51.2004 124.5ZM49.2004 104.4C49.0004 104.9 48.8005 105.4 48.6005 105.9C48.4005 106.4 48.2005 106.9 48.0005 107.4C47.8005 107.9 47.6005 108.4 47.4005 108.9C47.2005 109.4 47.0005 109.9 46.8005 110.4C46.2005 110.2 45.6005 110.1 45.0005 109.9C44.4005 109.7 43.8004 109.5 43.2004 109.4C42.6004 109.2 42.0005 109 41.5005 108.9C40.9005 108.7 40.3005 108.6 39.8005 108.4C39.7005 108.7 39.5005 109.1 39.4005 109.4C39.3005 109.7 39.1005 110 39.0005 110.4C38.9005 110.7 38.8005 111 38.6005 111.3C38.5005 111.6 38.4004 111.9 38.2004 112.2C38.3004 112.2 38.3005 112.3 38.4005 112.3C38.5005 112.3 38.5005 112.3 38.6005 112.4C38.7005 112.5 38.7005 112.4 38.8005 112.4C38.9005 112.4 38.9005 112.4 39.0005 112.4C39.2005 112.5 39.4005 112.5 39.6005 112.6C39.8005 112.7 40.0004 112.7 40.2004 112.8C40.4004 112.9 40.6005 112.9 40.8005 113C41.0005 113.1 41.2005 113.1 41.3005 113.2C41.5005 113.3 41.7005 113.4 41.9005 113.6C42.0005 113.8 42.2004 113.9 42.2004 114.1C42.3004 114.3 42.3005 114.5 42.3005 114.7C42.3005 114.9 42.2005 115.2 42.1005 115.4C42.0005 115.6 42.0005 115.7 41.9005 115.9C41.8005 116.1 41.8004 116.2 41.7004 116.4C41.6004 116.6 41.6005 116.7 41.5005 116.9C41.4005 117.1 41.4005 117.2 41.3005 117.4C41.1005 117.9 40.9004 118.3 40.7004 118.8C40.5004 119.3 40.3005 119.7 40.1005 120.2C39.9005 120.7 39.7005 121.2 39.5005 121.6C39.3005 122.1 39.1005 122.6 38.9005 123C38.7005 123.6 38.5004 124.1 38.2004 124.7C38.0004 125.3 37.8005 125.8 37.5005 126.4C37.3005 127 37.1005 127.5 36.8005 128.1C36.6005 128.7 36.4005 129.2 36.1005 129.8C36.0005 130 36.0005 130.1 35.9005 130.3C35.8005 130.5 35.8004 130.6 35.7004 130.8C35.6004 131 35.6005 131.1 35.5005 131.3C35.4005 131.5 35.4005 131.6 35.3005 131.8C35.2005 132 35.1005 132.2 35.0005 132.3C34.9005 132.4 34.8004 132.6 34.7004 132.6C34.6004 132.7 34.4005 132.8 34.3005 132.8C34.2005 132.8 34.0005 132.9 33.8005 132.8H33.7004H33.6005H33.5005H33.4005C33.2005 132.8 33.1005 132.7 32.9005 132.6C32.7005 132.5 32.6005 132.5 32.4005 132.4C32.2005 132.3 32.1005 132.3 31.9005 132.2C31.7005 132.1 31.6005 132.1 31.4005 132H31.3005H31.2004H31.1005H31.0005C31.0005 132 31.0005 132 30.9005 132C30.7005 132.3 30.5005 132.7 30.3005 133C30.1005 133.3 29.9004 133.7 29.7004 134C29.5004 134.3 29.3005 134.7 29.1005 135C28.9005 135.3 28.7005 135.7 28.5005 136C29.1005 136.2 29.7004 136.4 30.2004 136.6C30.8004 136.8 31.4005 137 31.9005 137.2C32.5005 137.4 33.1005 137.6 33.6005 137.8C34.2005 138 34.8005 138.2 35.3005 138.4C35.1005 138.9 34.9004 139.4 34.7004 140C34.5004 140.5 34.3005 141 34.1005 141.6C33.9005 142.1 33.7005 142.6 33.5005 143.1C33.3005 143.6 33.1005 144.1 32.9005 144.6C33.1005 144.7 33.4004 144.8 33.7004 144.9C34.0004 145 34.4004 145.2 34.7004 145.3C35.1004 145.4 35.4004 145.5 35.7004 145.6C36.0004 145.7 36.2005 145.7 36.3005 145.7C36.4005 145.4 36.5005 145.2 36.6005 144.9C36.7005 144.6 36.8005 144.4 36.9005 144.1C37.0005 143.8 37.1004 143.6 37.2004 143.3C37.3004 143 37.4005 142.8 37.5005 142.5C37.6005 142.2 37.7005 142 37.8005 141.7C37.9005 141.4 38.0005 141.2 38.1005 140.9C38.2005 140.6 38.3005 140.4 38.4005 140.1C38.5005 139.8 38.6004 139.6 38.7004 139.3C38.9004 139.4 39.2005 139.5 39.4005 139.6C39.6005 139.7 39.9005 139.8 40.1005 139.8C40.3005 139.9 40.6005 140 40.8005 140.1C41.0005 140.2 41.3005 140.3 41.5005 140.4C41.3005 140.9 41.1005 141.4 40.9005 142C40.7005 142.5 40.5005 143 40.3005 143.6C40.1005 144.1 39.9004 144.6 39.7004 145.2C39.5004 145.7 39.3005 146.2 39.1005 146.8C39.4005 146.9 39.7005 147 40.0005 147.1C40.3005 147.2 40.6005 147.3 40.9005 147.4C41.2005 147.5 41.5005 147.6 41.8005 147.7C42.1005 147.8 42.4004 147.9 42.7004 148C42.9004 147.5 43.1005 146.9 43.3005 146.4C43.5005 145.9 43.7005 145.3 43.9005 144.8C44.1005 144.3 44.3005 143.7 44.5005 143.2C44.7005 142.7 44.9005 142.1 45.1005 141.6C45.3005 141.6 45.5004 141.7 45.7004 141.7C45.9004 141.7 46.1005 141.8 46.3005 141.8C46.5005 141.8 46.7005 141.9 46.9005 141.9C47.1005 141.9 47.3005 142 47.5005 142C47.7005 142 47.9005 142.1 48.1005 142.1C48.3005 142.1 48.5004 142.2 48.7004 142.2C48.9004 142.2 49.1005 142.3 49.3005 142.3C49.5005 142.3 49.7005 142.3 49.9005 142.4C50.1005 142.4 50.4005 142.4 50.6005 142.4C50.8005 142.4 51.1005 142.4 51.3005 142.4C51.5005 142.4 51.8005 142.4 52.0005 142.4C52.2005 142.4 52.5004 142.4 52.7004 142.3C53.1004 142.2 53.4005 142.2 53.8005 142.1C54.2005 142 54.5005 141.9 54.9005 141.7C55.2005 141.5 55.6005 141.4 55.9005 141.1C56.2005 140.9 56.5005 140.6 56.8005 140.4C57.3005 139.9 57.7005 139.4 58.1005 138.9C58.5005 138.4 58.8005 137.8 59.1005 137.2C59.4005 136.6 59.6005 136 59.8005 135.4C60.0005 134.8 60.1004 134.1 60.2004 133.4C60.2004 133 60.3004 132.6 60.2004 132.2C60.2004 131.8 60.1005 131.4 60.0005 131.1C59.9005 130.7 59.7005 130.4 59.5005 130.1C59.3005 129.8 59.1005 129.5 58.8005 129.2C58.7005 129.1 58.6005 129 58.5005 128.8C58.4005 128.7 58.3005 128.6 58.1005 128.5C58.0005 128.4 57.9004 128.3 57.7004 128.2C57.6004 128.1 57.4005 128 57.3005 127.9C57.3005 127.9 57.2004 127.9 57.2004 127.8C57.2004 127.8 57.1005 127.8 57.1005 127.7L57.0005 127.6L56.9005 127.5L57.0005 127.4C57.4005 127.3 57.8005 127.2 58.1005 127C58.5005 126.9 58.8005 126.7 59.1005 126.5C59.4005 126.3 59.7005 126.1 60.0005 125.8C60.3005 125.5 60.6005 125.2 60.8005 124.9C61.0005 124.7 61.1004 124.4 61.2004 124.2C61.3004 124 61.5005 123.7 61.6005 123.5C61.7005 123.3 61.8005 123 61.9005 122.7C62.0005 122.4 62.1005 122.2 62.1005 121.9C62.2005 121.7 62.2004 121.5 62.2004 121.3C62.2004 121.1 62.3005 120.9 62.3005 120.7C62.3005 120.5 62.3005 120.3 62.3005 120.1C62.3005 119.9 62.3005 119.7 62.3005 119.5C62.3005 119.1 62.2005 118.8 62.1005 118.4C62.0005 118.1 61.9004 117.7 61.7004 117.4C61.5004 117.1 61.4005 116.8 61.1005 116.5C60.9005 116.2 60.7005 115.9 60.4005 115.7C60.2005 115.5 59.9005 115.2 59.6005 115C59.3005 114.8 59.0005 114.6 58.8005 114.4C58.5005 114.2 58.2005 114 57.9005 113.9C57.6005 113.7 57.3005 113.6 57.0005 113.4C56.9005 113.3 56.8004 113.3 56.7004 113.2C56.6004 113.1 56.5005 113.1 56.4005 113C56.3005 112.9 56.2005 112.9 56.1005 112.8C56.0005 112.7 55.9004 112.7 55.7004 112.6C55.9004 112.1 56.1005 111.6 56.3005 111.1C56.5005 110.6 56.7005 110.1 56.9005 109.6C57.1005 109.1 57.3005 108.6 57.5005 108.1C57.7005 107.6 57.9005 107.1 58.1005 106.6C57.8005 106.5 57.5004 106.4 57.2004 106.3C56.9004 106.2 56.6005 106.1 56.3005 106C56.0005 105.9 55.7005 105.8 55.4005 105.7C55.1005 105.6 54.8005 105.5 54.5005 105.4C54.3005 105.9 54.1005 106.4 53.9005 106.9C53.7005 107.4 53.5005 107.9 53.3005 108.4C53.1005 108.9 52.9004 109.4 52.7004 109.9C52.5004 110.4 52.3005 110.9 52.1005 111.4C51.9005 111.3 51.6005 111.2 51.4005 111.2C51.2005 111.1 50.9004 111.1 50.7004 111C50.5004 110.9 50.2005 110.9 50.0005 110.8C49.8005 110.7 49.5005 110.7 49.3005 110.6C49.5005 110.1 49.7005 109.6 49.9005 109.1C50.1005 108.6 50.3005 108.1 50.5005 107.6C50.7005 107.1 50.9005 106.6 51.1005 106.1C51.3005 105.6 51.5004 105.1 51.7004 104.6C51.4004 104.5 51.1005 104.4 50.8005 104.3C50.5005 104.2 50.2005 104.1 49.9005 104C49.6005 103.9 49.3005 103.8 49.0005 103.7C49.7005 104.6 49.5004 104.5 49.2004 104.4Z" fill="#FEFDFD"/>
<path d="M192.2 16.8V81.3C192.2 84.5 189.6 87 186.5 87H139C135.8 87 133.3 84.4 133.3 81.3V30.2C133.3 29.4 133.5 28.6 133.8 27.8C134.1 27.2 134.5 26.6 135 26.1L148.4 12.7C148.9 12.2 149.5 11.8 150.1 11.5C150.8 11.2 151.6 11 152.5 11H186.6C189.7 11 192.2 13.6 192.2 16.8Z" fill="#F3EFF9"/>
<path d="M150 11.5V22C150 25.2 147.4 27.7 144.3 27.7H133.8C134.1 27.1 134.5 26.5 135 26L148.4 12.6C148.8 12.2 149.4 11.8 150 11.5Z" fill="#DCD7E0"/>
<path d="M180.8 39H144.7C143.9 39 143.3 38.3999 143.3 37.5999C143.3 36.7999 143.9 36.2 144.7 36.2H180.8C181.6 36.2 182.2 36.7999 182.2 37.5999C182.2 38.3999 181.6 39 180.8 39Z" fill="#DCD7E0"/>
<path d="M180.8 48.3999H144.7C143.9 48.3999 143.3 47.7999 143.3 46.9999C143.3 46.1999 143.9 45.5999 144.7 45.5999H180.8C181.6 45.5999 182.2 46.1999 182.2 46.9999C182.2 47.6999 181.6 48.3999 180.8 48.3999Z" fill="#DCD7E0"/>
<path d="M180.8 57.8H144.7C143.9 57.8 143.3 57.2 143.3 56.4C143.3 55.6 143.9 55 144.7 55H180.8C181.6 55 182.2 55.6 182.2 56.4C182.2 57.1 181.6 57.8 180.8 57.8Z" fill="#DCD7E0"/>
<path d="M162.7 67.1H144.7C143.9 67.1 143.3 66.5 143.3 65.7C143.3 64.9 143.9 64.3 144.7 64.3H162.7C163.5 64.3 164.1 64.9 164.1 65.7C164.1 66.5 163.5 67.1 162.7 67.1Z" fill="#DCD7E0"/>
<path d="M253.9 6.2998H234.4C232.4 6.2998 230.7 7.9998 230.7 9.9998V33.5998C230.7 34.3998 230.9 35.0998 231.3 35.6998C231.9 36.5998 232.9 37.1998 234 37.2998C234.1 37.2998 234.3 37.2998 234.4 37.2998H253.9C254 37.2998 254.2 37.2998 254.3 37.2998C255.4 37.1998 256.4 36.5998 257 35.6998C257.4 35.0998 257.6 34.3998 257.6 33.5998V10.0998C257.7 7.9998 256 6.2998 253.9 6.2998Z" fill="#DCD7E0"/>
<path d="M227.4 31.4998C225.6 31.4998 224.1 29.9998 224.1 28.1998V4.5998C224.1 2.7998 225.6 1.2998 227.4 1.2998H238.6C239.1 1.2998 239.6 1.3998 240 1.5998C240.4 1.7998 240.7 1.9998 241 2.2998L249.3 10.5998C249.6 10.8998 249.8 11.1998 250 11.5998C250.2 11.9998 250.3 12.4998 250.3 12.9998V28.2998C250.3 30.0998 248.8 31.5998 247 31.5998H227.4V31.4998Z" fill="#F3EFF9"/>
<path d="M238.6 1.6999C239 1.6999 239.4 1.7999 239.8 1.9999C240.1 2.0999 240.4 2.2999 240.7 2.5999L249 10.8999C249.2 11.0999 249.4 11.3999 249.6 11.7999C249.8 12.1999 249.9 12.5999 249.9 12.9999V28.2999C249.9 29.8999 248.6 31.2999 246.9 31.2999H227.4C225.8 31.2999 224.4 29.9999 224.4 28.2999V4.5999C224.4 2.9999 225.7 1.5999 227.4 1.5999H238.6M238.6 0.899902H227.4C225.4 0.899902 223.7 2.5999 223.7 4.5999V28.1999C223.7 30.1999 225.4 31.8999 227.4 31.8999H246.9C248.9 31.8999 250.6 30.1999 250.6 28.1999V12.9999C250.6 12.4999 250.5 11.8999 250.3 11.4999C250.1 11.0999 249.9 10.6999 249.6 10.3999L241.3 2.0999C241 1.7999 240.6 1.4999 240.2 1.3999C239.6 0.999902 239.1 0.899902 238.6 0.899902Z" fill="#DCD7E0"/>
<path d="M250.3 11.3998H243.2C241.5 11.3998 240.2 10.0998 240.2 8.3998V1.2998C240.6 1.4998 241 1.6998 241.3 1.9998L249.6 10.2998C249.8 10.6998 250.1 10.9998 250.3 11.3998Z" fill="#DCD7E0"/>
<path d="M235 11.8H229.9C229.4 11.8 229 11.4 229 10.9C229 10.4 229.4 10 229.9 10H235C235.5 10 235.9 10.4 235.9 10.9C235.9 11.4 235.5 11.8 235 11.8Z" fill="#DCD7E0"/>
<path d="M244.3 17.3H230C229.5 17.3 229.1 16.9 229.1 16.4C229.1 15.9 229.5 15.5 230 15.5H244.3C244.8 15.5 245.2 15.9 245.2 16.4C245.2 16.9 244.8 17.3 244.3 17.3Z" fill="#DCD7E0"/>
<path d="M244.3 22.6999H230C229.5 22.6999 229.1 22.2999 229.1 21.7999C229.1 21.2999 229.5 20.8999 230 20.8999H244.3C244.8 20.8999 245.2 21.2999 245.2 21.7999C245.2 22.2999 244.8 22.6999 244.3 22.6999Z" fill="#DCD7E0"/>
<path d="M231.1 156.8C232.592 156.8 233.8 155.591 233.8 154.1C233.8 152.609 232.592 151.4 231.1 151.4C229.609 151.4 228.4 152.609 228.4 154.1C228.4 155.591 229.609 156.8 231.1 156.8Z" fill="#EAE6EF"/>
<path d="M3.40027 102.4C4.89144 102.4 6.10022 101.191 6.10022 99.7C6.10022 98.2088 4.89144 97 3.40027 97C1.9091 97 0.700195 98.2088 0.700195 99.7C0.700195 101.191 1.9091 102.4 3.40027 102.4Z" fill="#EAE6EF"/>
<path d="M120.1 7.39985L118.6 5.89985L120.1 4.39985C120.4 4.09985 120.4 3.49985 120.1 3.19985C119.8 2.89985 119.2 2.89985 118.9 3.19985L117.4 4.69985L115.9 3.19985C115.6 2.89985 115 2.89985 114.7 3.19985C114.4 3.49985 114.4 4.09985 114.7 4.39985L116.2 5.89985L114.7 7.39985C114.4 7.69985 114.4 8.29985 114.7 8.59985C115 8.89985 115.6 8.89985 115.9 8.59985L117.4 7.09985L118.9 8.59985C119.2 8.89985 119.8 8.89985 120.1 8.59985C120.5 8.29985 120.5 7.69985 120.1 7.39985Z" fill="#EAE6EF"/>
<path d="M102 16.9V67.5C102 67.7 102 68 102 68.2C101.9 68.6 101.8 69 101.7 69.3C101 71.1 99.2003 72.4 97.1003 72.4H21.8004C19.1004 72.4 16.9004 70.2 16.9004 67.5V16.9C16.9004 14.2 19.1004 12 21.8004 12H97.1003C99.8003 12 102 14.2 102 16.9Z" fill="#0039D0"/>
<path d="M102 23.8V67.6C102 67.8 102 68.1001 102 68.3001C101.9 68.7001 101.8 69.1001 101.7 69.4001C101 71.2001 99.2003 72.5 97.1003 72.5H21.8004C19.1004 72.5 16.9004 70.3 16.9004 67.6V23.8H102Z" fill="#F3EFF9"/>
<path d="M23.3007 19.5001C24.2395 19.5001 25.0006 18.739 25.0006 17.8001C25.0006 16.8612 24.2395 16.1001 23.3007 16.1001C22.3618 16.1001 21.6006 16.8612 21.6006 17.8001C21.6006 18.739 22.3618 19.5001 23.3007 19.5001Z" fill="#22A6FF"/>
<path d="M30.0002 19.5001C30.9391 19.5001 31.7002 18.739 31.7002 17.8001C31.7002 16.8612 30.9391 16.1001 30.0002 16.1001C29.0614 16.1001 28.3003 16.8612 28.3003 17.8001C28.3003 18.739 29.0614 19.5001 30.0002 19.5001Z" fill="#F3EFF9"/>
<path d="M36.7004 19.5001C37.6393 19.5001 38.4005 18.739 38.4005 17.8001C38.4005 16.8612 37.6393 16.1001 36.7004 16.1001C35.7616 16.1001 35.0005 16.8612 35.0005 17.8001C35.0005 18.739 35.7616 19.5001 36.7004 19.5001Z" fill="#FBB040"/>
<path d="M23.3002 76.2999C31.6949 76.2999 38.5001 69.4946 38.5001 61.0999C38.5001 52.7052 31.6949 45.8999 23.3002 45.8999C14.9054 45.8999 8.1001 52.7052 8.1001 61.0999C8.1001 69.4946 14.9054 76.2999 23.3002 76.2999Z" fill="#22A6FF"/>
<path d="M21.0999 67.9998C20.5999 67.9998 20.2 67.7998 19.9 67.3998L13.9999 60.3998C13.3999 59.6998 13.4999 58.6998 14.1999 58.0998C14.8999 57.4998 15.8999 57.5998 16.4999 58.2998L21.1999 63.8998L30.0999 54.5998C30.6999 53.9998 31.8 53.8998 32.4 54.5998C33 55.1998 33.1 56.2998 32.4 56.8998L22.1999 67.4998C21.9999 67.8998 21.5999 67.9998 21.0999 67.9998Z" fill="white"/>
<path d="M190 101.4H108.2C106.9 101.4 105.9 100.4 105.9 99.0998C105.9 97.7998 106.9 96.7998 108.2 96.7998H190C191.3 96.7998 192.3 97.7998 192.3 99.0998C192.2 100.4 191.2 101.4 190 101.4Z" fill="#F3EFF9"/>
<path d="M169.3 111.8H108.1C106.8 111.8 105.8 110.8 105.8 109.5C105.8 108.2 106.8 107.2 108.1 107.2H169.3C170.6 107.2 171.6 108.2 171.6 109.5C171.5 110.8 170.5 111.8 169.3 111.8Z" fill="#F3EFF9"/>
<path d="M67.3003 87.7998C67.3003 87.4998 67.3003 87.0998 67.3003 86.7998C67.2003 86.7998 67.0003 86.6998 66.9003 86.6998C66.1003 86.3998 65.6002 85.7998 65.5002 84.8998C65.3002 83.8998 66.0002 82.6998 67.0002 82.3998C67.8002 82.0998 68.6003 82.2998 69.3003 82.8998C69.5003 83.0998 69.7003 83.2998 69.8003 83.5998C69.9003 83.7998 69.8002 83.9998 69.6002 84.0998C69.4002 84.1998 69.2002 84.0998 69.1002 83.8998C68.8002 83.2998 68.3002 82.9998 67.7002 82.9998C67.0002 82.9998 66.4003 83.4998 66.3003 84.1998C66.1003 85.0998 66.8003 85.9998 67.8003 85.9998C68.3003 85.9998 68.7002 85.7998 69.0002 85.2998C69.0002 85.2998 69.0002 85.1998 69.1002 85.1998C69.2002 84.9998 69.4002 84.9998 69.6002 85.0998C69.8002 85.1998 69.8002 85.3998 69.7002 85.5998C69.6002 85.7998 69.4002 85.9998 69.2002 86.1998C68.9002 86.3998 68.6003 86.5998 68.3003 86.5998C68.2003 86.5998 68.2002 86.5998 68.1002 86.5998C68.1002 86.8998 68.1002 87.2998 68.1002 87.5998C68.2002 87.5998 68.4002 87.5998 68.5002 87.4998C69.8002 87.0998 70.7003 86.2998 70.9003 84.9998C71.3003 83.0998 70.0002 81.3998 68.2002 81.0998C66.6002 80.7998 65.0002 81.7998 64.5002 83.3998C64.5002 83.4998 64.5002 83.4998 64.5002 83.5998C64.4002 83.7998 64.2002 83.8998 64.0002 83.8998C63.8002 83.7998 63.7002 83.5998 63.7002 83.3998C64.1002 81.7998 65.2003 80.6998 66.8003 80.3998C68.4003 80.0998 69.8003 80.5998 70.8003 81.8998C71.2003 82.3998 71.5002 83.0998 71.6002 83.7998C71.9002 85.6998 70.8002 87.5998 69.0002 88.1998C67.1002 88.8998 65.1002 88.0998 64.1002 86.3998C64.0002 86.2998 63.9003 86.0998 63.9003 85.8998C63.8003 85.6998 63.9002 85.4998 64.0002 85.3998C64.2002 85.2998 64.4002 85.2998 64.5002 85.4998C64.5002 85.5998 64.6002 85.6998 64.6002 85.6998C65.1002 86.6998 65.9003 87.2998 66.9003 87.4998C67.1003 87.7998 67.2003 87.7998 67.3003 87.7998Z" fill="#2B3AC9"/>
<path d="M74 82.1997C74.1 82.1997 74.1 82.1997 74.2 82.1997C74.7 82.1997 75.3 82.1997 75.8 82.1997C76.1 82.1997 76.4 82.1997 76.7 82.2997C77 82.3997 77.3 82.4997 77.5 82.7997C77.7 83.0997 77.7 83.3997 77.7 83.6997C77.7 84.3997 77.2 84.6997 76.6 84.6997C76.5 84.6997 76.5 84.6997 76.5 84.6997C76.7 84.6997 76.9 84.6997 77.1 84.7997C77.6 84.8997 77.9 85.2997 78 85.7997C78 86.1997 78 86.4997 77.7 86.7997C77.5 86.9997 77.3 87.0997 77.1 87.1997C76.8 87.2997 76.5 87.2997 76.2 87.2997C75.5 87.2997 74.9 87.2997 74.2 87.2997H74.1C74 85.6997 74 83.9997 74 82.1997ZM74.6 84.9997C74.6 85.5997 74.6 86.1997 74.6 86.8997H74.7C75.2 86.8997 75.6 86.8997 76.1 86.8997C76.3 86.8997 76.5 86.8997 76.6 86.8997C77.1 86.7997 77.3 86.4997 77.3 85.9997V85.8997C77.3 85.5997 77.1 85.3997 76.9 85.1997C76.8 85.1997 76.7 85.0997 76.6 85.0997C76.3 85.0997 76.1 84.9997 75.8 84.9997C75.4 84.9997 75.1 84.9997 74.7 84.9997C74.7 84.9997 74.6 84.9997 74.6 84.9997ZM74.6 84.4997C75.2 84.4997 75.7 84.4997 76.1 84.4997C76.3 84.4997 76.5 84.3997 76.7 84.3997C76.9 84.2997 77 84.1997 77.1 83.9997C77.1 83.7997 77.1 83.6997 77.1 83.4997C77.1 83.1997 76.9 82.9997 76.5 82.8997C76.3 82.8997 76.1 82.7997 75.8 82.7997C75.4 82.7997 75 82.7997 74.6 82.7997H74.5C74.6 83.2997 74.6 83.8997 74.6 84.4997Z" fill="#2B3AC9"/>
<path d="M86.7002 87.3998C86.7002 85.6998 86.7002 83.9998 86.7002 82.2998C86.8002 82.2998 86.8003 82.2998 86.9003 82.2998C87.4003 82.2998 88.0002 82.2998 88.5002 82.2998C88.8002 82.2998 89.1003 82.2998 89.4003 82.3998C89.7003 82.4998 90.0002 82.5998 90.2002 82.8998C90.5002 83.3998 90.5003 83.7998 90.3003 84.2998C90.2003 84.5998 89.9002 84.6998 89.6002 84.6998C89.4002 84.6998 89.3002 84.6998 89.1002 84.6998C89.3002 84.7998 89.6003 84.7998 89.8003 84.8998C90.2003 84.9998 90.5002 85.3998 90.6002 85.7998C90.6002 85.9998 90.6002 86.1998 90.6002 86.3998C90.5002 86.7998 90.2003 87.0998 89.9003 87.1998C89.6003 87.2998 89.2003 87.3998 88.8003 87.3998C88.1003 87.3998 87.5003 87.3998 86.8003 87.3998C86.8003 87.3998 86.8002 87.3998 86.7002 87.3998ZM87.3003 86.8998C87.4003 86.8998 87.4002 86.8998 87.5002 86.8998C87.9002 86.8998 88.3002 86.8998 88.7002 86.8998C88.9002 86.8998 89.1003 86.8998 89.3003 86.8998C89.6003 86.7998 89.9002 86.6998 90.0002 86.2998C90.0002 86.1998 90.0002 86.0998 90.0002 85.9998C90.0002 85.4998 89.7003 85.2998 89.3003 85.0998C89.0003 84.9998 88.8002 84.9998 88.5002 84.9998C88.1002 84.9998 87.8003 84.9998 87.4003 84.9998C87.4003 84.9998 87.3002 84.9998 87.2002 84.9998C87.3002 85.5998 87.3003 86.1998 87.3003 86.8998ZM87.3003 84.4998C87.9003 84.4998 88.6002 84.4998 89.2002 84.4998C89.5002 84.4998 89.8003 84.2998 89.9003 83.8998C90.0003 83.3998 89.8003 83.0998 89.4003 82.8998C89.3003 82.8998 89.2002 82.8998 89.2002 82.8998C88.6002 82.7998 88.0002 82.8998 87.5002 82.8998C87.3002 83.2998 87.3003 83.8998 87.3003 84.4998Z" fill="#2B3AC9"/>
<path d="M111.1 82.1997C111.4 82.1997 111.8 82.1997 112.1 82.1997C113 83.7997 113.8 85.3997 114.7 86.9997C114.7 85.3997 114.7 83.7997 114.7 82.1997C114.9 82.1997 115.1 82.1997 115.3 82.1997C115.3 83.8997 115.3 85.5997 115.3 87.2997C114.9 87.2997 114.6 87.2997 114.2 87.2997C113.4 85.6997 112.5 84.0997 111.7 82.4997C111.7 84.0997 111.7 85.6997 111.7 87.2997C111.5 87.2997 111.3 87.2997 111.1 87.2997C111.1 87.1997 111.1 82.3997 111.1 82.1997Z" fill="#2B3AC9"/>
<path d="M106.3 87.4998C105.9 87.4998 105.4 87.3998 105 87.1998C104.4 86.8998 104.1 86.3998 104 85.8998C103.8 85.0998 103.8 84.2998 104.1 83.5998C104.4 82.7998 105 82.3998 105.8 82.1998C106.2 82.0998 106.6 82.0998 107 82.1998C107.8 82.3998 108.3 82.7998 108.5 83.4998C108.7 83.9998 108.8 84.5998 108.7 85.1998C108.7 85.5998 108.6 85.9998 108.4 86.2998C108.1 86.8998 107.5 87.2998 106.8 87.3998C106.7 87.4998 106.5 87.4998 106.3 87.4998ZM104.4 84.8998C104.4 85.1998 104.4 85.5998 104.6 85.9998C104.8 86.4998 105.2 86.7998 105.7 86.8998C105.9 86.8998 106.2 86.9998 106.4 86.9998C107.1 86.9998 107.7 86.6998 108 85.7998C108.1 85.4998 108.1 85.2998 108.1 84.9998C108.1 84.5998 108.1 84.1998 107.9 83.7998C107.7 83.2998 107.3 82.9998 106.8 82.8998C106.6 82.7998 106.3 82.7998 106.1 82.7998C105.4 82.7998 104.9 83.1998 104.6 83.7998C104.5 84.0998 104.4 84.4998 104.4 84.8998Z" fill="#2B3AC9"/>
<path d="M84.5 87.3998C84.3 87.3998 84.1 87.3998 83.9 87.3998C83.7 86.8998 83.5 86.2998 83.3 85.7998C82.6 85.7998 81.8 85.7998 81.1 85.7998C80.9 86.2998 80.7 86.8998 80.6 87.3998C80.4 87.3998 80.2 87.3998 80 87.3998C80.6 85.6998 81.2 83.9998 81.8 82.2998C82 82.2998 82.1 82.2998 82.3 82.2998C82.5 82.2998 82.6 82.2998 82.8 82.2998C83.3 83.8998 83.9 85.5998 84.5 87.3998ZM83.1 85.2998C82.8 84.3998 82.5 83.4998 82.2 82.5998C81.9 83.4998 81.6 84.3998 81.3 85.2998C81.9 85.2998 82.5 85.2998 83.1 85.2998Z" fill="#2B3AC9"/>
<path d="M94.4003 84.8999C94.9003 83.9999 95.3003 83.0999 95.8003 82.1999C96.0003 82.1999 96.2003 82.1999 96.4003 82.1999C96.4003 82.2999 96.4003 82.2999 96.3003 82.2999C95.8003 83.2999 95.3002 84.2999 94.7002 85.1999C94.6002 85.2999 94.6002 85.4999 94.6002 85.5999C94.6002 86.0999 94.6002 86.5999 94.6002 86.9999C94.6002 87.0999 94.6002 87.0999 94.6002 87.1999C94.4002 87.1999 94.2002 87.1999 94.0002 87.1999V87.0999C94.0002 86.5999 94.0002 85.9999 94.0002 85.4999C94.0002 85.3999 94.0003 85.2999 93.9003 85.1999C93.4003 84.2999 93.0002 83.4999 92.5002 82.5999C92.4002 82.3999 92.3002 82.2999 92.2002 82.0999C92.4002 82.0999 92.6003 82.0999 92.9003 82.0999C93.5003 83.0999 93.9003 83.9999 94.4003 84.8999Z" fill="#2B3AC9"/>
<path d="M98.6001 82.1997C98.8001 82.1997 99.0001 82.1997 99.2001 82.1997C99.2001 82.3997 99.2001 82.5997 99.2001 82.7997C99.2001 82.9997 99.2001 83.1997 99.2001 83.3997C99.2001 83.5997 99.2001 83.7997 99.2001 83.9997C99.2001 84.1997 99.2001 84.3997 99.2001 84.5997C99.2001 84.7997 99.2001 84.9997 99.2001 85.1997C99.2001 85.3997 99.2001 85.5997 99.2001 85.7997C99.2001 85.9997 99.2001 86.1997 99.2001 86.3997C99.2001 86.5997 99.2001 86.7997 99.2001 86.9997C100.1 86.9997 101.1 86.9997 102 86.9997C102 87.1997 102 87.2997 102 87.4997C100.9 87.4997 99.8001 87.4997 98.6001 87.4997C98.6001 85.6997 98.6001 83.9997 98.6001 82.1997Z" fill="#2B3AC9"/>
<path d="M68.4 84.4998C68.4 84.8998 68.1 85.1998 67.7 85.1998C67.3 85.1998 67 84.8998 67 84.4998C67 84.0998 67.3 83.7998 67.7 83.7998C68.1 83.7998 68.4 84.0998 68.4 84.4998Z" fill="#2B3AC9"/>
</svg>
