<?xml version="1.0" encoding="UTF-8"?>
<svg width="7577px" height="1780px" viewBox="0 0 7577 1780" version="1.1" xmlns="http://www.w3.org/2000/svg" xmlns:xlink="http://www.w3.org/1999/xlink">
    <title>Group</title>
    <g id="Page-1" stroke="none" stroke-width="1" fill="none" fill-rule="evenodd">
        <g id="Group" transform="translate(0.336000, 0.000000)">
            <path d="M2302.904,1363.42 L2302.904,1217.42 L2576.694,1217.42 C2628.184,1217.42 2668.894,1204.78 2698.854,1179.51 C2728.804,1154.24 2743.784,1120.08 2743.784,1077.02 C2743.784,1030.22 2726.934,993.72 2693.234,967.51 C2660.474,940.37 2614.134,927.27 2554.234,928.2 L2302.904,928.2 L2302.904,799.04 L2472.794,801.85 C2561.724,801.85 2638.944,812.15 2704.464,832.74 C2769.994,852.39 2820.544,883.28 2856.114,925.4 C2891.684,967.51 2909.464,1021.8 2909.464,1088.25 C2909.464,1146.28 2896.364,1195.89 2870.154,1237.07 C2843.944,1278.25 2806.964,1309.61 2759.224,1331.13 C2711.484,1352.66 2654.854,1363.42 2589.334,1363.42 L2302.904,1363.42 Z M2222.864,1363.42 L2222.864,380.67 L2382.934,380.67 L2382.934,1363.42 L2222.864,1363.42 Z M2298.684,935.22 L2298.684,793.43 L2561.254,793.43 C2608.054,793.43 2644.564,781.26 2670.774,756.92 C2697.914,731.65 2711.484,697.02 2711.484,653.03 C2711.484,608.11 2696.044,573.48 2665.154,549.14 C2635.204,524.81 2593.074,513.11 2538.784,514.04 L2298.684,514.04 L2298.684,382.073 L2547.214,379.266 C2614.604,379.266 2672.644,390.029 2721.314,411.556 C2770.924,432.147 2809.304,463.034 2836.454,504.22 C2863.594,544.46 2877.174,595 2877.174,655.84 C2877.174,707.32 2861.254,753.65 2829.434,794.83 C2798.544,835.08 2754.084,866.9 2696.044,890.3 C2638.944,913.7 2571.544,925.4 2493.854,925.4 L2298.684,935.22 Z" id="Shape" fill="#3B82F6" fill-rule="nonzero"></path>
            <path d="M3548.754,1363.42 L3541.734,1231.45 L3541.734,1002.61 C3541.734,954.88 3536.584,915.1 3526.284,883.28 C3515.994,851.46 3499.604,827.12 3477.144,810.27 C3455.614,793.43 3427.064,785 3391.494,785 C3358.734,785 3329.714,792.02 3304.444,806.06 C3279.164,820.1 3258.104,841.63 3241.254,870.64 L3098.044,820.1 C3113.954,789.21 3134.544,760.2 3159.824,733.06 C3185.094,705.91 3216.924,684.39 3255.294,668.48 C3294.614,652.57 3340.944,644.61 3394.304,644.61 C3462.634,644.61 3519.264,657.24 3564.194,682.52 C3610.064,707.79 3644.234,745.22 3666.694,794.83 C3689.164,844.44 3700.394,905.74 3700.394,978.75 L3696.184,1363.42 L3548.754,1363.42 Z M3349.374,1380.27 C3265.124,1380.27 3199.604,1361.55 3152.804,1324.11 C3106.934,1286.68 3084.004,1233.79 3084.004,1165.47 C3084.004,1092.46 3108.334,1036.78 3157.014,998.4 C3206.624,960.03 3275.424,940.84 3363.414,940.84 L3551.564,940.84 L3551.564,1061.58 L3413.964,1061.58 C3351.244,1061.58 3307.254,1070.47 3281.974,1088.25 C3256.704,1105.1 3244.064,1129.44 3244.064,1161.26 C3244.064,1188.4 3254.834,1209.93 3276.364,1225.84 C3298.824,1240.81 3329.714,1248.3 3369.024,1248.3 C3403.664,1248.3 3433.614,1240.35 3458.894,1224.43 C3485.104,1207.59 3505.224,1186.06 3519.264,1159.85 C3534.244,1132.71 3541.734,1103.7 3541.734,1072.81 L3599.294,1072.81 C3599.294,1168.28 3578.704,1243.62 3537.524,1298.84 C3497.264,1353.13 3434.554,1380.27 3349.374,1380.27 Z" id="Shape" fill="#3B82F6" fill-rule="nonzero"></path>
            <path d="M3929.844,1363.42 L3929.844,380.67 L4087.094,380.67 L4087.094,1232.86 L4078.674,1363.42 L3929.844,1363.42 Z M4308.944,1380.27 C4249.974,1380.27 4198.954,1365.3 4155.894,1335.35 C4113.774,1304.46 4081.484,1261.41 4059.014,1206.18 C4036.554,1150.96 4025.314,1086.38 4025.314,1012.44 C4025.314,937.56 4036.554,872.98 4059.014,818.7 C4081.484,763.48 4113.774,720.89 4155.894,690.94 C4198.954,660.05 4249.974,644.61 4308.944,644.61 C4372.594,644.61 4427.824,660.05 4474.624,690.94 C4522.364,720.89 4559.334,763.48 4585.544,818.7 C4612.694,872.98 4626.264,937.56 4626.264,1012.44 C4626.264,1086.38 4612.694,1150.96 4585.544,1206.18 C4559.334,1261.41 4522.364,1304.46 4474.624,1335.35 C4427.824,1365.3 4372.594,1380.27 4308.944,1380.27 Z M4269.624,1237.07 C4307.074,1237.07 4340.304,1227.71 4369.324,1208.99 C4398.334,1189.34 4421.274,1162.66 4438.124,1128.97 C4455.904,1095.27 4464.794,1056.43 4464.794,1012.44 C4464.794,968.45 4456.374,929.61 4439.524,895.91 C4423.614,862.22 4401.144,836.01 4372.124,817.29 C4343.114,798.57 4309.414,789.21 4271.034,789.21 C4235.464,789.21 4203.634,798.57 4175.554,817.29 C4147.474,836.01 4125.474,862.22 4109.564,895.91 C4094.584,929.61 4087.094,968.45 4087.094,1012.44 C4087.094,1056.43 4094.584,1095.27 4109.564,1128.97 C4125.474,1162.66 4147.004,1189.34 4174.154,1208.99 C4202.234,1227.71 4234.054,1237.07 4269.624,1237.07 Z" id="Shape" fill="#3B82F6" fill-rule="nonzero"></path>
            <path d="M4915.844,1661.06 C4893.384,1661.06 4868.114,1656.85 4840.024,1648.42 C4812.884,1640 4786.674,1629.24 4761.394,1616.13 L4820.374,1488.37 C4838.154,1496.8 4854.534,1503.35 4869.514,1508.03 C4884.494,1513.65 4896.664,1516.45 4906.024,1516.45 C4928.484,1516.45 4947.204,1510.37 4962.184,1498.2 C4978.094,1486.97 4990.734,1470.12 5000.094,1447.66 L5082.934,1253.92 L5320.224,661.46 L5491.524,661.46 L5165.774,1437.83 C5146.114,1482.76 5125.994,1522.07 5105.404,1555.76 C5085.744,1589.46 5060.934,1615.2 5030.984,1632.98 C5001.034,1651.7 4962.654,1661.06 4915.844,1661.06 Z M5040.814,1363.42 L4726.294,661.46 L4897.594,661.46 L5141.904,1252.51 L5192.454,1363.42 L5040.814,1363.42 Z" id="Shape" fill="#3B82F6" fill-rule="nonzero"></path>
            <polygon id="Path" fill="#3B82F6" fill-rule="nonzero" points="5655.334 1363.42 5655.334 380.67 5812.584 380.67 5812.584 1363.42"></polygon>
            <path d="M6380.294,1380.27 C6310.094,1380.27 6247.374,1364.83 6192.154,1333.94 C6137.864,1302.12 6095.274,1258.6 6064.384,1203.38 C6033.494,1148.15 6018.044,1084.51 6018.044,1012.44 C6018.044,940.37 6033.024,876.73 6062.974,821.51 C6093.864,766.28 6136.454,723.23 6190.744,692.34 C6245.034,660.52 6307.284,644.61 6377.494,644.61 C6447.694,644.61 6509.944,660.52 6564.234,692.34 C6618.524,723.23 6660.644,766.28 6690.604,821.51 C6721.494,876.73 6736.934,940.37 6736.934,1012.44 C6736.934,1084.51 6721.964,1148.15 6692.004,1203.38 C6662.054,1258.6 6619.934,1302.12 6565.634,1333.94 C6511.344,1364.83 6449.564,1380.27 6380.294,1380.27 Z M6380.294,1235.67 C6418.674,1235.67 6452.844,1226.31 6482.794,1207.59 C6512.754,1187.93 6536.154,1161.73 6553.004,1128.97 C6569.854,1095.27 6578.274,1056.43 6578.274,1012.44 C6578.274,968.45 6569.384,930.08 6551.594,897.32 C6534.744,863.62 6511.344,837.42 6481.394,818.7 C6451.444,799.04 6416.804,789.21 6377.494,789.21 C6338.174,789.21 6303.544,798.57 6273.584,817.29 C6243.634,836.01 6220.234,862.22 6203.384,895.91 C6186.534,929.61 6178.114,968.45 6178.114,1012.44 C6178.114,1056.43 6186.534,1095.27 6203.384,1128.97 C6221.174,1161.73 6245.034,1187.93 6274.994,1207.59 C6305.884,1226.31 6340.984,1235.67 6380.294,1235.67 Z" id="Shape" fill="#3B82F6" fill-rule="nonzero"></path>
            <path d="M6943.414,1363.42 L6943.414,661.46 L7090.844,661.46 L7100.674,790.62 L7100.674,1363.42 L6943.414,1363.42 Z M7419.404,1363.42 L7419.404,1004.02 L7576.654,961.9 L7576.654,1363.42 L7419.404,1363.42 Z M7419.404,1004.02 C7419.404,947.86 7412.844,904.81 7399.744,874.85 C7387.574,843.97 7369.784,822.44 7346.384,810.27 C7323.924,798.11 7297.244,792.02 7266.354,792.02 C7213.934,791.09 7173.214,808.4 7144.194,843.97 C7115.184,879.53 7100.674,930.54 7100.674,997 L7041.704,997 C7041.704,923.06 7052.464,859.88 7073.994,807.47 C7095.524,754.12 7126.414,713.87 7166.664,686.73 C7206.914,658.65 7254.654,644.61 7309.884,644.61 C7395.064,644.61 7460.584,670.82 7506.454,723.23 C7553.254,774.71 7576.654,854.26 7576.654,961.9 L7419.404,1004.02 Z" id="Shape" fill="#3B82F6" fill-rule="nonzero"></path>
            <path d="M863.074,1263.7 C909.144,1263.7 946.474,1294.34 946.474,1332.16 L946.474,1646.1 C946.474,1683.91 909.144,1714.57 863.074,1714.57 C817.004,1714.57 779.664,1683.91 779.664,1646.1 L779.664,1332.16 C779.664,1294.34 817.004,1263.7 863.074,1263.7 Z" id="Path" fill="#3B82F6" fill-rule="nonzero"></path>
            <path d="M1044.764,889.55 C1044.764,990.37 963.034,1072.1 862.214,1072.1 C761.394,1072.1 679.664,990.37 679.664,889.55 C679.664,788.73 761.394,707 862.214,707 C963.034,707 1044.764,788.73 1044.764,889.55 Z" id="Path" fill="#F7931A" fill-rule="nonzero"></path>
            <path d="M172.703,670.42 C265.653,377.986 539.354,166.122 862.534,166.122 C1262.224,166.122 1586.234,490.19 1586.234,889.94 C1586.234,1289.69 1262.224,1613.75 862.534,1613.75 C541.544,1613.75 269.363,1404.75 174.617,1115.39 L1.527,1115.39 C101.332,1497.72 448.984,1779.87 862.534,1779.87 C1353.954,1779.87 1752.334,1381.44 1752.334,889.94 C1752.334,398.439 1353.954,0 862.534,0 C446.854,0 97.743,285.079 -1.13686838e-13,670.42 L172.703,670.42 Z" id="Path" fill="#3B82F6"></path>
            <path d="M530.414,889.94 C530.414,706.55 679.154,557.89 862.624,557.89 C961.964,557.89 1051.124,601.47 1112.004,670.55 L1310.114,670.55 C1228.954,505.47 1059.064,391.859 862.624,391.859 C587.414,391.859 364.314,614.86 364.314,889.94 C364.314,1165.02 587.414,1388.02 862.624,1388.02 C1056.704,1388.02 1224.864,1277.12 1307.154,1115.26 L1106.644,1115.26 C1045.954,1180.9 959.094,1222 862.624,1222 C679.154,1222 530.414,1073.33 530.414,889.94 Z" id="Path" fill="#3B82F6"></path>
        </g>
    </g>
</svg>
