<?xml version="1.0" encoding="iso-8859-1"?>
<!-- Generator: Adobe Illustrator 19.0.0, SVG Export Plug-In . SVG Version: 6.00 Build 0)  -->
<svg version="1.1" id="Layer_1" xmlns="http://www.w3.org/2000/svg" xmlns:xlink="http://www.w3.org/1999/xlink" x="0px" y="0px"
	 viewBox="0 0 508 508" style="enable-background:new 0 0 508 508;" xml:space="preserve">
<circle style="fill:#4CDBC4;" cx="254" cy="254" r="254"/>
<path style="fill:#2C9984;" d="M36.8,386C81.6,459.2,162,508,254,508s172.4-48.8,217.2-122H36.8z"/>
<path style="fill:#FFD05B;" d="M438,299.6l-8.8,0.8c-4.8,3.2-4.4,10-4.4,11.6c1.2,1.6,2,0,2,0c0.4-5.2,4.8-5.2,4.8-5.2
	c1.2,3.6-2.4,6.4-4.4,7.6c-0.8,0.4-1.2,1.6-0.4,2.4c0.4,0.8,1.2,0.8,2,0.8C438.8,313.2,438,299.6,438,299.6z"/>
<rect x="352.4" y="160.4" style="fill:#E6E9EE;" width="46.8" height="62.4"/>
<polygon style="fill:#F1543F;" points="382.8,162.4 368.8,162.4 371.2,168.4 380,168.4 "/>
<polygon style="fill:#FF7058;" points="384.8,207.6 375.6,222.8 366.4,207.6 371.2,168.4 380,168.4 "/>
<path style="fill:#2B3B4E;" d="M437.6,187.2c-2.8-11.2-11.2-20.4-22.4-23.6c-16.4-4.8-23.6-14-23.6-14c2.4,28.8-12.8,61.6-12.8,61.6
	c-1.6,2.8-2.8,6.8-3.6,11.6c-0.8-4.4-2-8.4-3.6-11.6c0,0-14.8-32.8-12.8-61.6c0,0-7.2,9.2-23.6,14c-2.8,0.8-5.2,2-7.6,3.2v86.4
	c1.2-14.4,2.8-28,5.2-33.6c0,0,12.4,54.8-1.6,91.6c0,0,13.2,18,34.8,12.4c0,0,6.8-4.4,8.8-17.6c1.6,10.8,6,15.6,8,16.8
	c0.4,0.4,0.8,0.4,0.8,0.4c21.6,5.6,34.8-12.4,34.8-12.4c-14-36.8-1.6-91.6-1.6-91.6c6,14.4,8,82.8,8,82.8h13.6
	C449.2,251.6,443.2,210.4,437.6,187.2z"/>
<g>
	<path style="fill:#324A5E;" d="M359.6,149.2c0,0-8.4,13.6-19.6,17.2l12,2.8l-11.2,8.8c0,0,12.8,32.8,34.8,43.6
		c-0.8-4.4-2-8-3.6-10.8C372.4,211.2,357.2,178.4,359.6,149.2z"/>
	<path style="fill:#324A5E;" d="M411.6,166.8c-11.2-4-19.6-17.2-19.6-17.2c2,28.8-12.8,61.6-12.8,61.6c-1.6,2.8-2.4,6.4-3.6,10.8
		c22-11.2,34.8-43.6,34.8-43.6l-11.2-8.8L411.6,166.8z"/>
	<path style="fill:#324A5E;" d="M384,322.8c0,0-6.8-4.4-8.8-17.6l0,0c-2,13.2-8.8,17.6-8.8,17.6c-12,3.2-21.6-1.2-27.6-5.6
		l6.4,105.6H364l8.8-99.2c0-1.2,1.2-2,2.4-2l0,0c1.2,0,2,0.8,2.4,2l8.8,99.2h18.8l6.4-105.6C405.6,321.6,396.4,325.6,384,322.8z"/>
</g>
<path style="fill:#F9B54C;" d="M375.6,162.4L375.6,162.4L375.6,162.4c-15.6-7.6-13.6-17.2-13.6-17.2v-0.4c3.6,4.8,8.4,7.6,13.6,7.6
	s10-3.2,13.6-7.6v0.4c0,0,0,0,0,0.4C389.6,146.8,389.6,155.6,375.6,162.4z"/>
<path style="fill:#F1543F;" d="M375.6,162.4L375.6,162.4L375.6,162.4L375.6,162.4z"/>
<g>
	<path style="fill:#FFFFFF;" d="M389.2,145.2c0,0,1.6,9.6-13.6,17.2c0,0,11.6,0.8,14.8,11.6C390.4,174.4,396.8,150.8,389.2,145.2z"
		/>
	<path style="fill:#FFFFFF;" d="M362,145.2c0,0-1.6,9.6,13.6,17.2c0,0-11.6,0.8-14.8,11.6C360.8,174.4,354.4,150.8,362,145.2z"/>
</g>
<path style="fill:#FFD05B;" d="M398.8,125.2C398.8,125.2,398.4,125.2,398.8,125.2c0.4-3.2,0.8-6.4,0.8-9.6c0-17.6-10.8-24.4-24-24.4
	s-24,7.2-24,24.4c0,3.2,0.4,6.4,1.2,9.6l0,0c-2,0.8-2.8,4-1.2,6.8c1.2,2,2.8,3.6,4.8,3.6c4.4,10.4,11.6,18.8,20,18.8
	s15.6-8.4,20-18.8c1.6,0,3.6-1.6,4.8-3.6C401.2,129.2,400.8,126,398.8,125.2z"/>
<path style="fill:#324A5E;" d="M375.6,81.2c0,0,10.4,0.4,20,9.2c20.4,19.2-1.2,47.6-1.2,47.6s2.8-6.8,2-14.4c-0.4-2.8-0.8-5.6-0.4-8
	c0.4-4.8-0.8-12.4-12.8-10.4c0,0-6.8,4.8-22.8,0.8c0,0-10.4,16-4.4,29.6c0,0-17.2-26,0.8-42.4l-5.6,0.8c0,0,6.8-12.4,20.4-8
	c0,0-1.2-2-5.6-3.2c0,0,6-2.8,9.6,1.6C375.6,84.4,377.6,82.4,375.6,81.2z"/>
<g>
	<path style="fill:#2B3B4E;" d="M406.8,426.8c0.4-1.2,0.8-2.8,0.8-4.4c0-6.4-5.2-11.6-11.6-11.6s-11.6,5.2-11.6,11.6
		c0,1.6,0.4,2.8,0.8,4.4H406.8z"/>
	<path style="fill:#2B3B4E;" d="M364.8,426.8c0.4-1.2,0.8-2.8,0.8-4.4c0-6.4-5.2-11.6-11.6-11.6s-11.6,5.2-11.6,11.6
		c0,1.6,0.4,2.8,0.8,4.4H364.8z"/>
</g>
<path style="fill:#FFD05B;" d="M70.4,299.6l8.8,0.8c4.8,3.2,4.4,10,4.4,11.6c-1.2,1.6-2,0-2,0c-0.4-5.2-4.8-5.2-4.8-5.2
	c-1.2,3.6,2.4,6.4,4.4,7.6c0.8,0.4,1.2,1.6,0.4,2.4c-0.4,0.8-1.2,0.8-2,0.8C69.6,313.2,70.4,299.6,70.4,299.6z"/>
<rect x="108.8" y="160.4" style="fill:#E6E9EE;" width="46.8" height="62.4"/>
<polygon style="fill:#F1543F;" points="139.2,162.4 125.2,162.4 128,168.4 136.8,168.4 "/>
<polygon style="fill:#FF7058;" points="141.6,207.6 132.4,222.8 123.2,207.6 128,168.4 136.8,168.4 "/>
<path style="fill:#2B3B4E;" d="M171.6,164.8c-7.6,31.2-15.2,86-2.4,152.8c-6,4.4-15.6,9.2-28,6c0,0-0.4,0-0.8-0.4
	c-1.6-1.6-6.4-6.4-8-16.8c-2,13.2-8.8,17.6-8.8,17.6c-21.6,5.6-34.8-12.4-34.8-12.4c14-36.8,1.6-91.6,1.6-91.6
	C84,233.6,82,302,82,302H68.4c-9.6-50.4-4-91.6,1.6-115.2c2.8-11.2,11.2-20.4,22.4-23.6c16.4-4.8,23.6-14,23.6-14
	c-2,28.8,12.8,62,12.8,62c1.6,2.8,2.8,6.8,3.6,11.6c0.8-4.4,2-8.4,3.6-11.6c0,0,14.8-32.8,12.8-61.6c0,0,7.2,9.2,23.2,14
	C171.6,163.6,171.6,164.4,171.6,164.8z"/>
<g>
	<path style="fill:#324A5E;" d="M116,149.2c0,0-8.4,13.6-19.6,17.2l12,2.8L97.6,178c0,0,12.8,32.8,34.8,43.6c-0.8-4.4-2-8-3.6-10.8
		C128.8,211.2,114,178.4,116,149.2z"/>
	<path style="fill:#324A5E;" d="M168,166.8c-11.2-4-19.6-17.2-19.6-17.2c2,28.8-12.8,61.6-12.8,61.6c-1.6,2.8-2.4,6.4-3.6,10.8
		c22-11.2,34.8-43.6,34.8-43.6l-11.2-8.8L168,166.8z"/>
	<path style="fill:#324A5E;" d="M140.8,322.8c0,0-6.8-4.4-8.8-17.6l0,0c-2,13.2-8.8,17.6-8.8,17.6c-12,3.2-21.6-1.2-27.6-5.6
		l6.4,105.6h18.8L130,324c0-1.2,1.2-2,2.4-2l0,0c1.2,0,2,0.8,2.4,2l8.8,99.2H162l6.4-105.6C162.4,321.6,152.8,325.6,140.8,322.8z"/>
</g>
<path style="fill:#F9B54C;" d="M132.4,162.4C132,162.4,132,162.4,132.4,162.4C132,162.4,132,162.4,132.4,162.4
	c-15.6-7.6-13.6-17.2-13.6-17.2v-0.4c3.6,4.8,8.4,7.6,13.6,7.6s10-3.2,13.6-7.6v0.4c0,0,0,0,0,0.4C146,146.8,146,155.6,132.4,162.4z
	"/>
<path style="fill:#F1543F;" d="M132.4,162.4C132,162.4,132,162.4,132.4,162.4C132,162.4,132,162.4,132.4,162.4L132.4,162.4z"/>
<g>
	<path style="fill:#FFFFFF;" d="M146,145.2c0,0,1.6,9.6-13.6,17.2c0,0,11.6,0.8,14.8,11.6C147.2,174.4,153.2,150.8,146,145.2z"/>
	<path style="fill:#FFFFFF;" d="M118.4,145.2c0,0-1.6,9.6,13.6,17.2c0,0-11.6,0.8-14.8,11.6C117.2,174.4,110.8,150.8,118.4,145.2z"
		/>
</g>
<path style="fill:#FFD05B;" d="M155.2,125.2L155.2,125.2c0.4-3.2,0.8-6.4,0.8-9.6c0-17.6-10.8-24.4-24-24.4s-24,7.2-24,24.4
	c0,3.2,0.4,6.4,1.2,9.6l0,0c-2,0.8-2.8,4-1.2,6.8c1.2,2,2.8,3.6,4.8,3.6c4.4,10.4,11.6,18.8,20,18.8s15.6-8.4,20-18.8
	c1.6,0,3.6-1.6,4.8-3.6C158,129.2,157.2,126,155.2,125.2z"/>
<path style="fill:#324A5E;" d="M132,81.2c0,0,10.4,0.4,20,9.2c20.4,19.2-1.2,47.6-1.2,47.6s2.8-6.8,2-14.4c-0.4-2.8-0.8-5.6-0.4-8
	c0.4-4.8-0.8-12.4-12.8-10.4c0,0-6.8,4.8-22.8,0.8c0,0-10.4,16-4.4,29.6c0,0-17.2-26,0.8-42.4l-5.6,0.8c0,0,6.8-12.4,20.4-8
	c0,0-1.2-2-5.6-3.2c0,0,6-2.8,9.6,1.6C132,84.4,134,82.4,132,81.2z"/>
<g>
	<path style="fill:#2B3B4E;" d="M163.2,426.8c0.4-1.2,0.8-2.8,0.8-4.4c0-6.4-5.2-11.6-11.6-11.6c-6.4,0-11.6,5.2-11.6,11.6
		c0,1.6,0.4,2.8,0.8,4.4H163.2z"/>
	<path style="fill:#2B3B4E;" d="M121.6,426.8c0.4-1.2,0.8-2.8,0.8-4.4c0-6.4-5.2-11.6-11.6-11.6s-11.6,5.2-11.6,11.6
		c0,1.6,0.4,2.8,0.8,4.4H121.6z"/>
</g>
<g>
	<path style="fill:#FFD05B;" d="M336.8,314.8l-11.6,1.2c-6.4,4-6,13.6-5.6,15.2c1.6,2,2.8,0,2.8,0c0.8-7.2,6.4-6.8,6.4-6.8
		c1.6,4.8-3.2,8.4-6,10c-1.2,0.8-1.6,2-0.8,3.2c0.4,0.8,1.6,1.2,2.8,0.8C337.6,332.8,336.8,314.8,336.8,314.8z"/>
	<path style="fill:#FFD05B;" d="M171.6,314.8l11.6,1.2c6.4,4,6,13.6,5.6,15.2c-1.6,2-2.8,0-2.8,0c-0.8-7.2-6.4-6.8-6.4-6.8
		c-1.6,4.8,3.2,8.4,6,10c1.2,0.8,1.6,2,0.8,3.2c-0.4,0.8-1.6,1.2-2.8,0.8C170.4,332.8,171.6,314.8,171.6,314.8z"/>
</g>
<rect x="222.8" y="129.2" style="fill:#E6E9EE;" width="62.4" height="83.2"/>
<polygon style="fill:#F1543F;" points="263.2,132 244.8,132 248.4,140.4 259.6,140.4 "/>
<polygon style="fill:#FF7058;" points="266.4,192.4 254,212.4 241.6,192.4 248.4,140.4 259.6,140.4 "/>
<path style="fill:#324A5E;" d="M338.8,318h-18.4c0,0-2.8-90.8-10.8-110.4c0,0-16.8,72.8,2,122c0,0-17.6,24-46.4,16.8
	c0,0-0.4-0.4-0.8-0.8c-2.4-2-8.4-8.4-10.4-22.4c-2.4,17.6-11.6,23.2-11.6,23.2c-28.8,7.2-46.4-16.8-46.4-16.8
	c18.8-48.8,2-121.6,2-121.6c-8,19.2-10.8,110-10.8,110h-18.4c-12.8-67.2-5.2-122,2.4-153.2c3.6-15.2,14.8-27.2,29.6-31.6
	c21.6-6.4,31.2-18.8,31.2-18.8c-2.8,38.4,16.8,82,16.8,82c2,4,3.6,9.2,4.8,15.2c1.2-6,2.8-11.2,4.8-15.2c0,0,20-43.6,16.8-82
	c0,0,9.6,12.4,31.2,18.8c14.8,4.4,26,16.4,29.6,31.6C344,196,352,250.8,338.8,318z"/>
<g>
	<path style="fill:#2B3B4E;" d="M207.6,153.2l14.8-11.6l-16-3.6c14.8-5.2,26.4-23.2,26.4-23.2c-2.8,38.4,16.8,82,16.8,82
		c2,3.6,3.6,8.8,4.4,14.4C224.4,196.8,207.6,153.2,207.6,153.2z"/>
	<path style="fill:#2B3B4E;" d="M300.4,153.2l-14.8-11.6l16-3.6c-14.8-5.2-26.4-23.2-26.4-23.2c2.8,38.4-16.8,82-16.8,82
		c-2,3.6-3.6,8.8-4.4,14.4C283.6,196.8,300.4,153.2,300.4,153.2z"/>
	<path style="fill:#2B3B4E;" d="M265.2,345.6c0,0-8.8-5.6-11.6-23.2l0,0c-2.4,17.6-11.6,23.2-11.6,23.2c-16.4,4-28.8-1.6-36.8-7.2
		l8.4,140.8h25.2l11.6-132c0-1.6,1.6-2.8,2.8-2.8l0,0c1.6,0,2.8,1.2,2.8,2.8l11.6,132h25.2L302,338C294,344,281.6,349.6,265.2,345.6
		z"/>
</g>
<path style="fill:#324A5E;" d="M295.2,484.4c0.8-1.6,1.2-3.6,1.2-5.6c0-8.8-6.8-15.6-15.6-15.6s-15.6,6.8-15.6,15.6
	c0,2,0.4,4,1.2,5.6H295.2z"/>
<path style="fill:#F9B54C;" d="M254,132L254,132C253.6,132,253.6,132,254,132c-20.4-10-18.4-22.8-18.4-22.8c0-0.4,0-0.4,0-0.8
	c4.8,6,11.2,10.4,18,10.4c6.8,0,13.2-4,18-10v0.4c0,0,0,0,0,0.4C272.4,111.6,272.4,122.8,254,132z"/>
<path style="fill:#F1543F;" d="M254,132L254,132C253.6,132,253.6,132,254,132L254,132z"/>
<g>
	<path style="fill:#FFFFFF;" d="M272,109.2c0,0,2.4,12.8-18,22.8c0,0,15.2,1.2,19.6,15.6C273.6,148,282,116.8,272,109.2z"/>
	<path style="fill:#FFFFFF;" d="M235.6,109.2c0,0-2.4,12.8,18,22.8c0,0-15.2,1.2-19.6,15.6C234,148,225.6,116.8,235.6,109.2z"/>
</g>
<path style="fill:#FFD05B;" d="M284.4,82.4L284.4,82.4c0.8-4.4,1.2-8.8,1.2-12.8c0-23.2-14.4-32.8-32-32.8s-32,9.2-32,32.8
	c0,4.4,0.4,8.4,1.2,12.8l0,0c-2.8,1.2-3.6,5.6-1.6,9.2c1.2,2.8,4,4.8,6,4.8c5.6,14,15.6,24.8,26.4,24.8c10.8,0,20.8-10.8,26.4-24.8
	c2.4,0,4.8-2,6-4.8C288,88,287.2,83.6,284.4,82.4z"/>
<g>
	<path style="fill:#324A5E;" d="M253.6,23.6c0,0,14,0.4,26.4,12.4c27.2,25.6-1.6,63.6-1.6,63.6s3.6-9.2,2.4-19.2
		c-0.4-3.6-0.8-7.2-0.4-10.8c0.4-6.4-1.2-16.8-16.8-14c0,0-9.2,6.8-30.4,1.2c0,0-14,21.2-6,39.6c0,0-22.8-34.8,1.2-56.8l-7.2,1.6
		c0,0,9.2-16.8,27.2-10.8c0,0-1.6-2.8-7.2-4.4c0,0,8-3.6,12.8,2C253.6,28,256.4,25.6,253.6,23.6z"/>
	<path style="fill:#324A5E;" d="M239.6,484.4c0.8-1.6,1.2-3.6,1.2-5.6c0-8.8-6.8-15.6-15.6-15.6s-15.6,6.8-15.6,15.6
		c0,2,0.4,4,1.2,5.6H239.6z"/>
</g>
<g>
</g>
<g>
</g>
<g>
</g>
<g>
</g>
<g>
</g>
<g>
</g>
<g>
</g>
<g>
</g>
<g>
</g>
<g>
</g>
<g>
</g>
<g>
</g>
<g>
</g>
<g>
</g>
<g>
</g>
</svg>
