<?xml version="1.0" ?><svg width="64px" height="64px" viewBox="0 0 64 64" data-name="Layer 1" id="Layer_1" xmlns="http://www.w3.org/2000/svg"><defs><style>
      .cls-1 {
        fill: #f5dd90;
      }

      .cls-2 {
        fill: #e7ecef;
      }

      .cls-3 {
        fill: #ffbc0a;
      }

      .cls-4 {
        fill: #8b8c89;
      }

      .cls-5 {
        fill: #bc6c25;
      }

      .cls-6 {
        fill: #a3cef1;
      }

      .cls-7 {
        fill: #dda15e;
      }

      .cls-8 {
        fill: #6096ba;
      }

      .cls-9 {
        fill: #274c77;
      }
    </style></defs><path class="cls-6" d="M29.72,20.65h0c2.65-4.29,7.38-7.15,12.78-7.15,8.28,0,15,6.72,15,15,0,4.47-1.95,8.48-5.06,11.23h-.01s.01,0,.01,0l.06-.23h-18.86c-1.82-1.85-4.35-3-7.14-3h-3v-2.29s1.58-.67,1.58-.67c1.47-.63,2.42-2.08,2.42-3.68v-.76l2.2-.44c.46-.09,.8-.5,.8-.98v-1.45c.29,.17,.64,.27,1,.27,1.1,0,2-.9,2-2s-.9-2-2-2c-.42,0-.81,.13-1.14,.36-.12-.77-.34-1.51-.64-2.21h0"/><rect class="cls-1" height="8" width="2" x="41.5" y="18.5"/><rect class="cls-1" height="6.06" transform="translate(-10.38 26.69) rotate(-29.78)" width="2" x="43.99" y="29.84"/><path class="cls-7" d="M25.08,33.54l-3,1.29c-1.01,.43-2.15,.43-3.15,0l-3-1.29c-1.47-.63-2.42-2.08-2.42-3.68v-5.36c0-3.31,2.69-6,6-6h2c3.31,0,6,2.69,6,6v5.36c0,1.6-.95,3.05-2.42,3.68Z"/><path class="cls-9" d="M33.64,39.5c-1.82-1.85-4.35-3-7.14-3h-3c0,1.66-1.34,3-3,3s-3-1.34-3-3h-3c-5.52,0-10,4.48-10,10v7H26.5l4-14h3.14Z"/><path class="cls-7" d="M15.5,49.5h2c1.1,0,2,.9,2,2v2h-4v-4h0Z"/><path class="cls-9" d="M10.5,26.23c-.29,.17-.64,.27-1,.27-1.1,0-2-.9-2-2s.9-2,2-2c.42,0,.81,.13,1.14,.36"/><path class="cls-9" d="M30.5,26.23c.29,.17,.64,.27,1,.27,1.1,0,2-.9,2-2s-.9-2-2-2c-.42,0-.81,.13-1.14,.36"/><path class="cls-5" d="M17.5,34.21l1.42,.61c1.01,.44,2.15,.44,3.16,0l1.42-.61v2.29c0,1.66-1.34,3-3,3s-3-1.34-3-3v-2.29Z"/><polyline class="cls-4" points="26.5 53.5 30.5 39.5 52.5 39.5 48.5 53.5"/><path class="cls-9" d="M26.9,21.88h-.01c-.57-.23-1.23-.38-2.06-.38-4.33,0-4.33,4-8.67,4-1.13,0-1.97-.27-2.66-.67v-.33c0-3.31,2.69-6,6-6h2c2.37,0,4.42,1.38,5.39,3.38h.01Z"/><path class="cls-2" d="M27.5,29.1v-4.6c0-3.31-2.69-6-6-6h-2c-3.31,0-6,2.69-6,6v4h-2c-.55,0-1-.45-1-1v-3c0-5.52,4.48-10,10-10,2.76,0,5.26,1.12,7.07,2.93s2.93,4.31,2.93,7.07v3.18c0,.48-.34,.89-.8,.98l-2.2,.44Z"/><path class="cls-6" d="M39.5,45.5c.55,0,1,.45,1,1s-.45,1-1,1v-2Z"/><path class="cls-8" d="M20.5,53.5h-2v-2c0-.55-.45-1-1-1h-7c-.55,0-1-.45-1-1v-4c0-.27,.11-.52,.29-.71l1.29-1.29c.39-.39,1.02-.39,1.41,0h0c.39,.39,.39,1.02,0,1.41l-1,1v2.59h6c1.66,0,3,1.34,3,3v2Z"/><rect class="cls-6" height="2" width="50" x="2.5" y="52.5"/><circle class="cls-3" cx="42.5" cy="28.5" r="2"/><path class="cls-9" d="M42.5,31.5c-1.65,0-3-1.35-3-3s1.35-3,3-3,3,1.35,3,3-1.35,3-3,3Zm0-4c-.55,0-1,.45-1,1s.45,1,1,1,1-.45,1-1-.45-1-1-1Z"/><rect class="cls-1" height="2" width="2" x="41.5" y="13.5"/><rect class="cls-1" height="2" transform="translate(-3.43 19.95) rotate(-30)" width="2" x="34.5" y="15.38"/><rect class="cls-1" height="2" transform="translate(-3.43 65.05) rotate(-60)" width="2" x="53.62" y="34.5"/><rect class="cls-1" height="2" width="2" x="55.5" y="27.5"/><rect class="cls-1" height="2" transform="translate(-3.43 30.19) rotate(-29.99)" width="2" x="53.62" y="20.5"/><rect class="cls-1" height="2" transform="translate(10.57 51.06) rotate(-60.01)" width="2" x="48.5" y="15.38"/><path class="cls-9" d="M52.44,39.73h-.01s-1.67,5.88-1.67,5.88h0c6.35-3.07,10.74-9.57,10.74-17.11,0-10.49-8.51-19-19-19-6.24,0-11.77,3.01-15.23,7.65,.1,.09,.2,.18,.3,.28,.91,.91,1.65,2,2.15,3.21h0s0,0,0,0c2.65-4.28,7.38-7.14,12.78-7.14,8.28,0,15,6.72,15,15,0,4.47-1.95,8.48-5.06,11.23h-.01"/><path class="cls-8" d="M20.5,30.5h0c-.11-.54,.24-1.07,.78-1.18l8.22-1.64v-2.86c0-4.79-3.61-8.98-8.38-9.3-5.24-.35-9.62,3.81-9.62,8.98v3h2v2h-2c-1.1,0-2-.9-2-2v-2.68c0-5.72,4.24-10.74,9.94-11.27,6.54-.62,12.06,4.53,12.06,10.95v3.18c0,.95-.67,1.77-1.61,1.96l-8.22,1.64c-.54,.11-1.07-.24-1.18-.78Z"/></svg>