<svg version="1.1" id="Uploaded to svgrepo.com" xmlns="http://www.w3.org/2000/svg" xmlns:xlink="http://www.w3.org/1999/xlink" x="0px" y="0px"
	 width="32px" height="32px" viewBox="0 0 32 32" style="enable-background:new 0 0 32 32;" xml:space="preserve">
<style type="text/css">
	.avocado_acht{fill:#A3AEB5;}
	.avocado_vijf{fill:#DBD2C1;}
	.avocado_een{fill:#231F20;}
	.avocado_zeven{fill:#788287;}
	.avocado_zes{fill:#FFFAEE;}
	.st0{fill:#AF9480;}
	.st1{fill:#CC4121;}
	.st2{fill:#EAD13F;}
	.st3{fill:#C3CC6A;}
	.st4{fill:#D1712A;}
	.st5{fill:#E0A838;}
	.st6{fill:#716558;}
	.st7{fill:#6F9B45;}
	.st8{fill:#0E608E;}
	.st9{fill:#E598A3;}
	.st10{fill:#FFFAEE;}
	.st11{fill:#3D3935;}
	.st12{fill:#248EBC;}
	.st13{fill:#BF63C1;}
</style>
<g>
	<rect x="0.5" y="4.5" class="avocado_zes" width="31" height="21"/>
	<g>
		<path class="avocado_acht" d="M0.5,4.5v21h13v4h6v-4h12v-21H0.5z M30,24H2V6h28V24z"/>
	</g>
	<rect x="13.5" y="25.5" class="avocado_zeven" width="6" height="1.5"/>
	<path class="avocado_een" d="M32,26V4H0v22h13v3h-1v1h9v-1h-1v-3H32z M1,25V5h30v20H1z M19,29h-5v-3h5V29z"/>
	<g>
		<g>
			<path class="avocado_vijf" d="M15,18h1v1H6v-1h1v-6h2v6h1v-5h2v5h1v-7h2V18z M20,12v1h6v-1H20z M20,15h6v-1h-6V15z M20,17
				h6v-1h-6V17z M20,19h6v-1h-6V19z"/>
		</g>
	</g>
</g>
</svg>